<svg width="24" height="24" viewBox="0 0 24 24" fill="none" xmlns="http://www.w3.org/2000/svg">
<path d="M7.53629 14.6068L5.41629 16.7288L8.24429 19.5568L19.5573 8.24279L16.7293 5.41579L14.6063 7.53579L16.0213 8.94979L14.6063 10.3658L13.1923 8.95079L11.7783 10.3658L13.1923 11.7798L11.7783 13.1938L10.3643 11.7798L8.94929 13.1938L10.3643 14.6078L8.94929 16.0228L7.53629 14.6058V14.6068ZM17.4363 3.29379L21.6783 7.53579C21.8658 7.72331 21.9711 7.97762 21.9711 8.24279C21.9711 8.50795 21.8658 8.76226 21.6783 8.94979L8.95029 21.6778C8.76276 21.8653 8.50845 21.9706 8.24329 21.9706C7.97812 21.9706 7.72381 21.8653 7.53629 21.6778L3.29429 17.4358C3.10682 17.2483 3.0015 16.994 3.0015 16.7288C3.0015 16.4636 3.10682 16.2093 3.29429 16.0218L16.0223 3.29379C16.2098 3.10632 16.4641 3.001 16.7293 3.001C16.9945 3.001 17.2488 3.10632 17.4363 3.29379ZM14.6063 18.8488L16.0213 17.4348L18.2633 19.6778H19.6773V18.2638L17.4353 16.0208L18.8493 14.6068L21.4863 17.2428V21.4858H17.2443L14.6073 18.8488H14.6063ZM6.12229 10.3638L3.29329 7.53579C3.20031 7.44291 3.12655 7.33262 3.07623 7.21123C3.0259 7.08983 3 6.9597 3 6.82829C3 6.69687 3.0259 6.56674 3.07623 6.44535C3.12655 6.32395 3.20031 6.21366 3.29329 6.12079L6.12229 3.29279C6.30981 3.10532 6.56412 3 6.82929 3C7.09445 3 7.34876 3.10532 7.53629 3.29279L10.3663 6.12079L8.95029 7.53579L6.82929 5.41379L5.41529 6.82879L7.53629 8.94879L6.12229 10.3638Z" fill="#7A869A"/>
</svg>
