<svg width="48" height="48" viewBox="0 0 48 48" fill="none" xmlns="http://www.w3.org/2000/svg">
<circle cx="24" cy="24" r="23.5" fill="white" stroke="#00218D"/>
<g clip-path="url(#clip0)">
<path d="M25.6171 29.5496L25.6168 29.5584L25.6172 29.5672C25.643 30.126 25.12 30.6421 24.5329 30.6421C23.9277 30.6421 23.4173 30.1317 23.4173 29.5264C23.4173 28.9212 23.9277 28.4108 24.5329 28.4108C25.1418 28.4108 25.6439 28.9124 25.6171 29.5496Z" fill="#FCA19C" stroke="white" stroke-width="0.4"/>
<path d="M36.5374 32.7731L36.5374 32.7732C35.7413 34.1487 34.3281 34.9678 32.7531 34.9678H16.292C14.7214 34.9678 13.319 34.1584 12.5338 32.8096L12.5338 32.8095C11.7385 31.4454 11.7332 29.8115 12.5186 28.4367C12.5187 28.4366 12.5188 28.4365 12.5188 28.4363L20.7699 14.1495L20.7704 14.1488C21.5504 12.7849 22.9577 11.9656 24.5384 11.9656C26.1193 11.9656 27.5261 12.7798 28.306 14.1535L28.3068 14.1548L36.5478 28.4266L36.5478 28.4266C37.3327 29.785 37.328 31.4084 36.5374 32.7731ZM35.0942 31.9423L35.0944 31.9419C35.5818 31.0975 35.5888 30.0952 35.1104 29.2635L35.1102 29.2633L26.8644 14.9818C26.8643 14.9817 26.8642 14.9815 26.8641 14.9813C26.3813 14.1353 25.5101 13.6285 24.5384 13.6285C23.5619 13.6285 22.6957 14.1296 22.2126 14.976C22.2125 14.9762 22.2124 14.9764 22.2123 14.9766L13.9613 29.258L13.9609 29.2585C13.4727 30.1101 13.4785 31.1228 13.9665 31.9682L13.9666 31.9683C14.4502 32.8047 15.3219 33.2996 16.2868 33.2996H32.7478C33.7248 33.2996 34.6009 32.7928 35.0942 31.9423Z" fill="#00218D" stroke="white" stroke-width="0.4"/>
<path d="M23.4801 21.653L23.4801 21.653L23.4798 21.6492C23.4641 21.4421 23.4497 21.2336 23.4352 21.0243L23.4351 21.0239C23.4209 20.8176 23.4065 20.6105 23.3909 20.4045C23.3937 19.7977 23.7323 19.3209 24.257 19.1688C24.7894 19.0457 25.3162 19.2996 25.5444 19.7978C25.6193 19.9752 25.6481 20.1556 25.6485 20.3703C25.6328 20.6953 25.6107 21.0206 25.5884 21.3482L25.5883 21.3491C25.566 21.6771 25.5436 22.0073 25.5277 22.3379C25.4988 22.8452 25.4686 23.3524 25.4383 23.86L25.4383 23.86L25.4383 23.8602C25.4081 24.3667 25.3779 24.8735 25.349 25.3803C25.317 25.7194 25.3169 26.0259 25.3169 26.3481C25.2934 26.786 24.9567 27.111 24.5329 27.111C24.1014 27.111 23.7738 26.8036 23.7484 26.3732C23.7037 25.5814 23.659 24.7975 23.6143 24.0136L23.6142 24.0131C23.5695 23.229 23.5248 22.445 23.4801 21.653Z" fill="#FCA19C" stroke="white" stroke-width="0.4"/>
</g>
<defs>
<clipPath id="clip0">
<rect width="25.6" height="25.6" fill="white" transform="translate(11.7334 10.6667)"/>
</clipPath>
</defs>
</svg>
