<svg width="15" height="26" viewBox="0 0 15 26" fill="none" xmlns="http://www.w3.org/2000/svg">
<path d="M14.3524 21.4895L14.3524 21.4895L10.3002 14.8595V8.6C10.3002 8.32387 10.0764 8.1 9.80023 8.1H8.30023V6.27067C10.7922 6.01411 12.6966 3.91513 12.7002 1.40015V1.4C12.7002 1.12387 12.4764 0.9 12.2002 0.9L12.2001 0.9C10.3233 0.90226 8.61939 1.97427 7.80023 3.64881C6.98107 1.97427 5.27713 0.90226 3.40035 0.9H3.40023C3.12411 0.9 2.90023 1.12387 2.90023 1.4L2.90023 1.40015C2.90392 3.91513 4.80828 6.01411 7.30023 6.27067V8.1H5.80023C5.52411 8.1 5.30023 8.32387 5.30023 8.6V14.8595L1.24811 21.4895L1.24809 21.4895C0.564954 22.6083 0.918187 24.0691 2.03702 24.7522L2.08913 24.6669L2.03702 24.7523C2.40936 24.9796 2.83718 25.0999 3.27341 25.1H12.327C13.638 25.0997 14.7004 24.0368 14.7001 22.7259C14.7001 22.2897 14.5798 21.8618 14.3524 21.4895ZM3.00023 1.4C3.00388 3.8938 4.91523 5.97005 7.40023 6.1796L3.00023 1.4ZM8.30023 18.6538V9.1H9.30023V15V15.0001C9.30036 15.0919 9.32557 15.1818 9.37312 15.2602L9.37331 15.2606L11.4351 18.6337C10.878 18.4773 10.2694 18.6275 9.84767 19.0455C9.59706 19.2842 9.20319 19.2842 8.95264 19.0454C8.76918 18.8645 8.54542 18.7304 8.30023 18.6538ZM6.22716 15.2606L6.22735 15.2602C6.27489 15.1818 6.30011 15.0919 6.30023 15.0001V15V9.1H7.30023V18.6538C7.05502 18.7304 6.83123 18.8645 6.64777 19.0455C6.39721 19.2842 6.00334 19.2842 5.75276 19.0455C5.33102 18.6275 4.7225 18.4773 4.16541 18.6337L6.22716 15.2606ZM4.1536 19.7549L4.15365 19.7548C4.40047 19.5086 4.8 19.5086 5.04682 19.7548L5.04683 19.7548C5.68441 20.3905 6.71606 20.3905 7.35364 19.7548L7.35365 19.7548C7.60047 19.5086 8 19.5086 8.24682 19.7548L8.24683 19.7548C8.88441 20.3905 9.91606 20.3905 10.5536 19.7548L10.5537 19.7548C10.8005 19.5086 11.2 19.5086 11.4468 19.7548L11.447 19.755C11.7049 20.0111 12.0411 20.1727 12.4012 20.2145L12.9353 21.0877L12.9353 21.0878L13.4989 22.0121L13.4989 22.0121C13.8939 22.6593 13.6893 23.5041 13.0421 23.899C12.8268 24.0305 12.5794 24.1 12.327 24.1H3.27343C2.51529 24.0998 1.90085 23.485 1.90103 22.7268C1.90108 22.4747 1.97061 22.2274 2.10198 22.0121C2.10198 22.0121 2.10199 22.0121 2.10199 22.0121L2.80115 20.8674L2.80118 20.8673L3.19929 20.2161C3.5596 20.1738 3.89586 20.0116 4.1536 19.7549ZM8.3376 5.26263C8.5792 3.5371 9.93733 2.17897 11.6629 1.93737C11.4213 3.6629 10.0631 5.02103 8.3376 5.26263ZM7.26287 5.26263C5.53737 5.02103 4.1792 3.6629 3.9376 1.93737C5.66314 2.17897 7.02127 3.53709 7.26287 5.26263Z" fill="#00218D" stroke="#00218D" stroke-width="0.2"/>
</svg>
