<svg width="24" height="24" viewBox="0 0 24 24" fill="none" xmlns="http://www.w3.org/2000/svg">
<path d="M21.9587 14.4372V8.79088C21.9587 8.43468 21.7754 8.11886 21.5048 8.00967L11.6803 4.03961C11.5497 3.9868 11.409 3.9868 11.2784 4.03961L1.45386 8.00967C1.18346 8.11886 1 8.43446 1 8.79088C1 9.14709 1.18346 9.4627 1.45386 9.57189L6.37244 11.5596V14.639C6.37244 14.6524 6.37277 14.6657 6.37328 14.679C6.39275 15.4776 6.99481 16.2345 8.07356 16.8141C9.05899 17.3437 10.2687 17.6353 11.4795 17.6353C12.6904 17.6353 13.9 17.3437 14.8855 16.8141C15.9822 16.2248 16.5862 15.4524 16.5862 14.639V11.5596L20.6491 9.91779V14.4372C20.0382 14.7589 19.6078 15.5168 19.6078 16.3984V19.1792C19.6078 19.6324 19.901 20 20.2626 20H22.3452C22.7068 20 23 19.6324 23 19.1792V16.3984C23 15.5168 22.5698 14.7589 21.9587 14.4372ZM14.1646 15.4093C13.3745 15.7861 12.421 15.9938 11.4795 15.9938C10.5379 15.9938 9.58435 15.7861 8.79446 15.4093C8.1021 15.0787 7.76103 14.7212 7.68198 14.5712V12.0887L11.2784 13.542C11.3437 13.5683 11.4115 13.5815 11.4793 13.5815C11.5471 13.5815 11.615 13.5685 11.6803 13.542L15.2767 12.0887V14.5719C15.197 14.7221 14.8561 15.0791 14.1646 15.4093ZM11.4793 11.8985L3.78877 8.79088L11.4793 5.68326L19.1699 8.79088L11.4793 11.8985ZM21.6905 18.3585H20.9174V16.3984C20.9174 16.1311 21.0909 15.9138 21.3039 15.9138C21.5171 15.9138 21.6905 16.1311 21.6905 16.3984V18.3585Z" fill="#7A869A"/>
</svg>
