<svg width="24" height="24" viewBox="0 0 24 24" fill="none" xmlns="http://www.w3.org/2000/svg">
<path fill-rule="evenodd" clip-rule="evenodd" d="M15.2926 10.2691L10.9999 14.782C10.7234 15.0727 10.2758 15.0727 10 14.782L8.20683 12.8976C7.93106 12.607 7.93106 12.1364 8.20683 11.8458C8.4833 11.5558 8.93089 11.5558 9.20666 11.8458L10.4999 13.2054L14.2928 9.21799C14.5686 8.92734 15.0162 8.92734 15.2926 9.21799C15.5691 9.5079 15.5691 9.97844 15.2926 10.2691Z" fill="#7A869A"/>
<path d="M1 1.5H23V-1.5H1V1.5ZM22.5 1V23H25.5V1H22.5ZM23 22.5H1V25.5H23V22.5ZM1.5 23V1H-1.5V23H1.5ZM1 22.5C1.27614 22.5 1.5 22.7239 1.5 23H-1.5C-1.5 24.3807 -0.380711 25.5 1 25.5V22.5ZM22.5 23C22.5 22.7239 22.7239 22.5 23 22.5V25.5C24.3807 25.5 25.5 24.3807 25.5 23H22.5ZM23 1.5C22.7239 1.5 22.5 1.27614 22.5 1H25.5C25.5 -0.380713 24.3807 -1.5 23 -1.5V1.5ZM1 -1.5C-0.380713 -1.5 -1.5 -0.380711 -1.5 1H1.5C1.5 1.27614 1.27614 1.5 1 1.5V-1.5Z" fill="#7A869A"/>
</svg>
