<svg width="24" height="24" viewBox="0 0 24 24" fill="none" xmlns="http://www.w3.org/2000/svg">
<path d="M12.628 9.43396C10.9245 9.43396 9.53857 10.8199 9.53857 12.5234C9.53857 14.227 10.9245 15.6129 12.628 15.6129C14.3316 15.6129 15.7176 14.2269 15.7176 12.5234C15.7175 10.8199 14.3316 9.43396 12.628 9.43396ZM12.628 14.4439C11.5691 14.4439 10.7076 13.5823 10.7076 12.5234C10.7076 11.4644 11.5691 10.603 12.628 10.603C13.6869 10.603 14.5485 11.4645 14.5485 12.5234C14.5485 13.5823 13.687 14.4439 12.628 14.4439Z" fill="#7A869A"/>
<path d="M23.9202 7.18177C24.1477 5.50974 23.8865 4.08755 23.1647 3.03704C23.2829 2.77627 23.3492 2.48724 23.3492 2.18284C23.3492 1.03707 22.4171 0.104919 21.2713 0.104919C20.497 0.104919 19.8207 0.530965 19.4633 1.16059C17.5057 1.06276 15.109 1.78206 12.6281 3.21526C8.39239 0.767309 4.55741 0.473262 2.56804 2.46334C1.70343 3.32794 1.25564 4.56507 1.2577 6.05967C0.518671 6.37847 0 7.11394 0 7.96851C0 9.11428 0.932154 10.0464 2.07792 10.0464C2.08996 10.0464 2.10182 10.0457 2.11382 10.0455C2.43342 10.8583 2.83767 11.6888 3.31992 12.5234C0.871967 16.7591 0.577968 20.594 2.56795 22.5834C3.44587 23.4616 4.68276 23.8951 6.15514 23.895C8.01955 23.895 10.2614 23.1992 12.6281 21.8316C14.9949 23.1994 17.2365 23.895 19.1011 23.895C20.5734 23.895 21.8107 23.4616 22.6887 22.5835C24.6786 20.5937 24.384 16.7585 21.9354 12.5231C23.0124 10.6587 23.6975 8.81808 23.9202 7.18177ZM21.2713 1.27393C21.7724 1.27393 22.1802 1.6817 22.1802 2.18284C22.1802 2.68398 21.7724 3.09174 21.2713 3.09174C20.7701 3.09174 20.3624 2.68398 20.3624 2.18284C20.3624 1.6817 20.7701 1.27393 21.2713 1.27393ZM19.1984 2.32079C19.2697 3.40243 20.1719 4.2608 21.2713 4.2608C21.6693 4.2608 22.0414 4.14811 22.3577 3.9533C22.7904 4.73893 22.9303 5.78649 22.7618 7.02422C22.5811 8.35279 22.0548 9.84576 21.231 11.3847C20.2918 9.96028 19.1631 8.58515 17.8648 7.28677C16.5666 5.98852 15.191 4.85954 13.7659 3.91955C15.7614 2.84949 17.646 2.29449 19.1984 2.32079ZM2.07792 8.87742C1.57678 8.87742 1.16901 8.4697 1.16901 7.96851C1.16901 7.46737 1.57678 7.05961 2.07792 7.05961C2.57906 7.05961 2.98682 7.46737 2.98682 7.96851C2.98687 8.46965 2.5791 8.87742 2.07792 8.87742ZM3.23324 9.69473C3.78923 9.32142 4.15588 8.68701 4.15588 7.96851C4.15588 6.94181 3.4071 6.0871 2.42709 5.9205C2.45076 4.80671 2.78062 3.90404 3.39468 3.28993C4.88933 1.79485 8.00783 2.05773 11.4894 3.92016C10.0645 4.86 8.68939 5.9888 7.39142 7.28677C6.09327 8.58492 4.96443 9.96018 4.02459 11.3851C3.71929 10.8149 3.45506 10.2498 3.23324 9.69473ZM3.39454 21.7568C1.89947 20.2622 2.16234 17.1437 4.02477 13.6622C4.96457 15.087 6.09336 16.4622 7.39138 17.7602C8.68939 19.0581 10.0645 20.1869 11.4894 21.1268C8.00778 22.9891 4.88933 23.2519 3.39454 21.7568ZM8.21806 16.9335C6.82546 15.5409 5.63751 14.0587 4.68271 12.5234C5.63741 10.9881 6.82541 9.50596 8.21806 8.11331C9.61067 6.7207 11.0928 5.53271 12.6281 4.57796C14.1634 5.53275 15.6456 6.7207 17.0382 8.11331C18.4313 9.50639 19.6191 10.9885 20.573 12.5234C19.6191 14.0582 18.4313 15.5404 17.0382 16.9335C15.6456 18.3261 14.1634 19.5141 12.6281 20.4688C11.0929 19.5141 9.61062 18.3261 8.21806 16.9335ZM21.8621 21.7569C20.367 23.2518 17.2483 22.9891 13.7668 21.1267C15.1916 20.1869 16.5668 19.0581 17.8648 17.7601C19.1632 16.4617 20.2918 15.0866 21.2309 13.6623C23.0938 17.1436 23.357 20.2621 21.8621 21.7569Z" fill="#7A869A"/>
</svg>
