<svg width="26" height="26" viewBox="0 0 26 26" fill="none" xmlns="http://www.w3.org/2000/svg">
<path d="M24.6129 20.7419H7.58065V19.9677C7.58065 19.8651 7.53986 19.7666 7.46727 19.694C7.39467 19.6214 7.29621 19.5806 7.19355 19.5806H6.80645V8.74194H7.19355C7.29621 8.74194 7.39467 8.70115 7.46727 8.62856C7.53986 8.55596 7.58065 8.4575 7.58065 8.35484V7.96774H13C13 8.07041 13.0408 8.16887 13.1134 8.24146C13.186 8.31406 13.2844 8.35484 13.3871 8.35484H14.1613V8.83823C12.9388 9.37181 11.9374 10.31 11.3253 11.4951C10.7133 12.6802 10.528 14.0399 10.8005 15.3456C11.073 16.6513 11.7868 17.8233 12.8219 18.6646C13.8569 19.5059 15.1501 19.9652 16.4839 19.9652C17.8177 19.9652 19.1108 19.5059 20.1459 18.6646C21.1809 17.8233 21.8947 16.6513 22.1672 15.3456C22.4398 14.0399 22.2544 12.6802 21.6424 11.4951C21.0303 10.31 20.0289 9.37181 18.8065 8.83823V8.35484H19.5806C19.6833 8.35484 19.7818 8.31406 19.8544 8.24146C19.927 8.16887 19.9677 8.07041 19.9677 7.96774V5.64516C19.9677 5.5425 19.927 5.44404 19.8544 5.37144C19.7818 5.29885 19.6833 5.25806 19.5806 5.25806H18.8065V4.48387H19.1935C19.2962 4.48387 19.3947 4.44309 19.4673 4.37049C19.5399 4.2979 19.5806 4.19944 19.5806 4.09677V2.93548C19.5806 2.83282 19.5399 2.73436 19.4673 2.66177C19.3947 2.58917 19.2962 2.54839 19.1935 2.54839H13.7742C13.6715 2.54839 13.5731 2.58917 13.5005 2.66177C13.4279 2.73436 13.3871 2.83282 13.3871 2.93548V4.09677C13.3871 4.19944 13.4279 4.2979 13.5005 4.37049C13.5731 4.44309 13.6715 4.48387 13.7742 4.48387H14.1613V5.25806H13.3871C13.2844 5.25806 13.186 5.29885 13.1134 5.37144C13.0408 5.44404 13 5.5425 13 5.64516H7.58065V5.25806C7.58065 5.1554 7.53986 5.05694 7.46727 4.98435C7.39467 4.91175 7.29621 4.87097 7.19355 4.87097H6.80645V2.93548H7.19355C7.29621 2.93548 7.39467 2.8947 7.46727 2.82211C7.53986 2.74951 7.58065 2.65105 7.58065 2.54839V1.3871C7.58065 1.28443 7.53986 1.18597 7.46727 1.11338C7.39467 1.04078 7.29621 1 7.19355 1H4.09677C3.99411 1 3.89565 1.04078 3.82306 1.11338C3.75046 1.18597 3.70968 1.28443 3.70968 1.3871V2.54839C3.70968 2.65105 3.75046 2.74951 3.82306 2.82211C3.89565 2.8947 3.99411 2.93548 4.09677 2.93548H4.48387V4.87097H4.09677C3.99411 4.87097 3.89565 4.91175 3.82306 4.98435C3.75046 5.05694 3.70968 5.1554 3.70968 5.25806V8.35484C3.70968 8.4575 3.75046 8.55596 3.82306 8.62856C3.89565 8.70115 3.99411 8.74194 4.09677 8.74194H4.48387V19.5806H4.09677C3.99411 19.5806 3.89565 19.6214 3.82306 19.694C3.75046 19.7666 3.70968 19.8651 3.70968 19.9677V20.7419H1.3871C1.28443 20.7419 1.18597 20.7827 1.11338 20.8553C1.04078 20.9279 1 21.0264 1 21.129V24.6129C1 24.7156 1.04078 24.814 1.11338 24.8866C1.18597 24.9592 1.28443 25 1.3871 25H9.12903C9.20093 25 9.27142 24.98 9.3326 24.9422C9.39378 24.9044 9.44325 24.8504 9.47548 24.7861L10.1423 23.4516H15.8577L16.5245 24.7861C16.5567 24.8504 16.6062 24.9044 16.6674 24.9422C16.7286 24.98 16.7991 25 16.871 25H24.6129C24.7156 25 24.814 24.9592 24.8866 24.8866C24.9592 24.814 25 24.7156 25 24.6129V21.129C25 21.0264 24.9592 20.9279 24.8866 20.8553C24.814 20.7827 24.7156 20.7419 24.6129 20.7419ZM16.4839 19.1935C15.2167 19.192 13.9966 18.713 13.0667 17.8522C12.1368 16.9913 11.5653 15.8117 11.4661 14.5484H21.5016C21.4025 15.8117 20.831 16.9913 19.9011 17.8522C18.9712 18.713 17.7511 19.192 16.4839 19.1935ZM19.1935 6.03226V7.58065H18.8065V6.03226H19.1935ZM14.1613 3.32258H18.8065V3.70968H14.1613V3.32258ZM14.6868 9.45952C14.7599 9.43151 14.8229 9.38197 14.8673 9.31743C14.9117 9.25289 14.9355 9.1764 14.9355 9.09806V4.48387H18.0323V9.09806C18.0323 9.1764 18.0561 9.25289 18.1005 9.31743C18.1449 9.38197 18.2078 9.43151 18.281 9.45952C19.1712 9.79997 19.9465 10.3862 20.5167 11.15C21.0868 11.9139 21.4284 12.8239 21.5016 13.7742H11.4661C11.5393 12.8239 11.8809 11.9139 12.451 11.15C13.0212 10.3862 13.7965 9.79997 14.6868 9.45952ZM13.7742 6.03226H14.1613V7.58065H13.7742V6.03226ZM7.58065 6.41935H13V7.19355H7.58065V6.41935ZM4.48387 1.77419H6.80645V2.16129H4.48387V1.77419ZM6.03226 2.93548V4.87097H5.25806V2.93548H6.03226ZM4.48387 5.64516H6.80645V7.96774H4.48387V5.64516ZM6.03226 8.74194V19.5806H5.25806V8.74194H6.03226ZM4.48387 20.3548H6.80645V20.7419H4.48387V20.3548ZM24.2258 24.2258H17.11L16.4432 22.8913C16.411 22.827 16.3615 22.773 16.3003 22.7352C16.2392 22.6974 16.1687 22.6774 16.0968 22.6774H9.90323C9.83132 22.6774 9.76084 22.6974 9.69966 22.7352C9.63848 22.773 9.589 22.827 9.55677 22.8913L8.89 24.2258H1.77419V21.5161H24.2258V24.2258Z" fill="#7A869A" stroke="#7A869A" stroke-width="0.2"/>
<path d="M15.7099 6.03225H16.8711C16.9738 6.03225 17.0723 5.99147 17.1449 5.91887C17.2175 5.84628 17.2582 5.74782 17.2582 5.64515C17.2582 5.54249 17.2175 5.44403 17.1449 5.37143C17.0723 5.29884 16.9738 5.25806 16.8711 5.25806H15.7099C15.6072 5.25806 15.5087 5.29884 15.4361 5.37143C15.3635 5.44403 15.3228 5.54249 15.3228 5.64515C15.3228 5.74782 15.3635 5.84628 15.4361 5.91887C15.5087 5.99147 15.6072 6.03225 15.7099 6.03225Z" fill="#7A869A"/>
<path d="M15.7099 7.19351H16.8711C16.9738 7.19351 17.0723 7.15272 17.1449 7.08013C17.2175 7.00753 17.2582 6.90907 17.2582 6.80641C17.2582 6.70374 17.2175 6.60528 17.1449 6.53269C17.0723 6.46009 16.9738 6.41931 16.8711 6.41931H15.7099C15.6072 6.41931 15.5087 6.46009 15.4361 6.53269C15.3635 6.60528 15.3228 6.70374 15.3228 6.80641C15.3228 6.90907 15.3635 7.00753 15.4361 7.08013C15.5087 7.15272 15.6072 7.19351 15.7099 7.19351Z" fill="#7A869A"/>
<path d="M17.1097 13.0968H19.0839C19.2584 13.0968 19.4258 13.0458 19.5492 12.955C19.6727 12.8643 19.742 12.7412 19.742 12.6129C19.742 12.4846 19.6727 12.3615 19.5492 12.2708C19.4258 12.18 19.2584 12.129 19.0839 12.129H17.1097C16.9352 12.129 16.7678 12.18 16.6444 12.2708C16.521 12.3615 16.4517 12.4846 16.4517 12.6129C16.4517 12.7412 16.521 12.8643 16.6444 12.955C16.7678 13.0458 16.9352 13.0968 17.1097 13.0968Z" fill="#7A869A"/>
</svg>
