<svg width="24" height="24" viewBox="0 0 24 24" fill="none" xmlns="http://www.w3.org/2000/svg">
<path d="M21.5032 19.8565C21.2335 19.8565 20.9785 19.9218 20.7534 20.0373L14.8395 14.1233C15.2835 13.5311 15.5474 12.7958 15.5474 12C15.5474 11.2042 15.2835 10.4689 14.8394 9.87667L18.7838 5.9323C19.2329 6.24219 19.777 6.4243 20.3629 6.4243C21.8998 6.4243 23.15 5.17413 23.15 3.63715C23.15 2.10017 21.8998 0.85 20.3629 0.85C18.8259 0.85 17.5757 2.10017 17.5757 3.63715C17.5757 4.22302 17.7578 4.76713 18.0677 5.21616L14.1233 9.16054C13.5311 8.71652 12.7958 8.45259 12 8.45259C11.2042 8.45259 10.4689 8.71652 9.87667 9.16058L8.14412 7.42803C8.25966 7.20295 8.32495 6.94792 8.32495 6.67819C8.32495 5.77003 7.58634 5.03142 6.67819 5.03142C5.77003 5.03142 5.03142 5.77003 5.03142 6.67819C5.03142 7.58634 5.77003 8.32495 6.67819 8.32495C6.94792 8.32495 7.20295 8.25966 7.42803 8.14412L9.16058 9.87667C8.71652 10.4689 8.45259 11.2042 8.45259 12C8.45259 12.431 8.53032 12.8443 8.67187 13.2268L4.36054 15.5621C3.99052 15.1644 3.46239 14.9148 2.87689 14.9148C1.75914 14.9148 0.85 15.8239 0.85 16.9417C0.85 18.0594 1.75914 18.9686 2.87689 18.9686C3.99464 18.9686 4.90378 18.0594 4.90378 16.9417C4.90378 16.773 4.88297 16.609 4.84387 16.4522L9.15557 14.1167C9.80246 14.9839 10.8363 15.5474 12 15.5474C12.0902 15.5474 12.1792 15.5437 12.2673 15.5369L12.6864 17.4232C12.201 17.7095 11.8738 18.238 11.8738 18.8423C11.8738 19.7505 12.6124 20.4891 13.5205 20.4891C14.4287 20.4891 15.1673 19.7505 15.1673 18.8423C15.1673 17.9862 14.5109 17.2814 13.675 17.2032L13.2558 15.3168C13.5684 15.1981 13.86 15.0368 14.1234 14.8394L20.0373 20.7534C19.9218 20.9785 19.8565 21.2335 19.8565 21.5032C19.8565 22.4114 20.5951 23.15 21.5032 23.15C22.4114 23.15 23.15 22.4114 23.15 21.5032C23.15 20.5951 22.4114 19.8565 21.5032 19.8565ZM2.87689 17.9558C2.31784 17.9558 1.86274 17.5007 1.86274 16.9417C1.86274 16.3826 2.31784 15.9275 2.87689 15.9275C3.43594 15.9275 3.89104 16.3826 3.89104 16.9417C3.89104 17.5007 3.43594 17.9558 2.87689 17.9558ZM14.1545 18.8423C14.1545 19.1918 13.87 19.4763 13.5205 19.4763C13.1711 19.4763 12.8865 19.1918 12.8865 18.8423C12.8865 18.4929 13.1711 18.2083 13.5205 18.2083C13.87 18.2083 14.1545 18.4929 14.1545 18.8423ZM20.3629 1.86274C21.3411 1.86274 22.1373 2.65886 22.1373 3.63715C22.1373 4.61544 21.3411 5.41155 20.3629 5.41155C19.3846 5.41155 18.5884 4.61544 18.5884 3.63715C18.5884 2.65886 19.3846 1.86274 20.3629 1.86274ZM6.04417 6.67819C6.04417 6.32873 6.32873 6.04417 6.67819 6.04417C7.02765 6.04417 7.3122 6.32873 7.3122 6.67819C7.3122 7.02765 7.02765 7.3122 6.67819 7.3122C6.32873 7.3122 6.04417 7.02765 6.04417 6.67819ZM12 14.5347C10.6025 14.5347 9.46533 13.3975 9.46533 12C9.46533 10.6025 10.6025 9.46533 12 9.46533C13.3975 9.46533 14.5347 10.6025 14.5347 12C14.5347 13.3975 13.3975 14.5347 12 14.5347ZM21.5032 22.1373C21.1538 22.1373 20.8692 21.8527 20.8692 21.5032C20.8692 21.1538 21.1538 20.8692 21.5032 20.8692C21.8527 20.8692 22.1373 21.1538 22.1373 21.5032C22.1373 21.8527 21.8527 22.1373 21.5032 22.1373Z" fill="#00218D" stroke="#00218D" stroke-width="0.3"/>
</svg>
