<svg width="24" height="26" viewBox="0 0 24 26" fill="none" xmlns="http://www.w3.org/2000/svg">
<path d="M20.2134 16.7303C20.1749 16.5402 20.0206 16.3908 19.8291 16.3593C19.6342 16.3273 19.4339 16.4264 19.3411 16.6009C19.2505 16.7712 19.2743 16.9855 19.4018 17.1308C19.5326 17.2799 19.75 17.3311 19.9333 17.2549C20.1366 17.1703 20.2573 16.9468 20.2134 16.7303Z" fill="#7A869A"/>
<path d="M19.5996 18.4956C19.3506 18.4258 19.092 18.5715 19.0224 18.8208C18.1605 21.9071 15.3187 24.0625 12.1115 24.0625C8.15541 24.0625 4.93688 20.8428 4.93688 16.8853C4.93688 13.6428 7.086 10.8738 10.2848 9.9948C10.4882 9.93892 10.6292 9.75386 10.6292 9.54278V7.45998H13.594V9.54278C13.594 9.75386 13.735 9.93892 13.9384 9.9948C16.3921 10.669 18.2797 12.4786 18.9875 14.8354C19.062 15.0833 19.3233 15.2239 19.571 15.1494C19.8188 15.0749 19.9593 14.8135 19.8848 14.5655C19.117 12.0095 17.1293 10.0237 14.5309 9.19305V7.45998H15.6663C15.9249 7.45998 16.1347 7.25013 16.1347 6.99123V4.67898C16.1347 4.42009 15.9249 4.21023 15.6663 4.21023H14.6058L14.9978 1.53677C15.0176 1.402 14.9778 1.26531 14.8888 1.16228C14.7998 1.05925 14.6704 1 14.5343 1H9.68881C9.55268 1 9.42334 1.05925 9.33434 1.16228C9.24533 1.26531 9.20556 1.40205 9.22533 1.53677L9.61737 4.21023H8.55686C8.29814 4.21023 8.08842 4.42009 8.08842 4.67898V6.99128C8.08842 7.25017 8.29814 7.46003 8.55686 7.46003H9.69227V9.19305C6.27269 10.285 4 13.3334 4 16.8853C4 21.3597 7.63881 25 12.1115 25C13.9182 25 15.628 24.4186 17.0561 23.3185C18.4389 22.2535 19.4577 20.7457 19.9247 19.0732C19.9943 18.8239 19.8488 18.5653 19.5996 18.4956ZM10.231 1.9375H13.9922L13.6589 4.21023H10.5643L10.231 1.9375ZM9.02531 5.14773H15.1978V6.52253H9.02531V5.14773Z" fill="#7A869A" stroke="#7A869A" stroke-width="0.3"/>
<path d="M11.7826 13C11.7826 12.2017 11.1336 11.5523 10.3359 11.5523C9.53814 11.5523 8.88916 12.2017 8.88916 13C8.88916 13.7983 9.53814 14.4477 10.3359 14.4477C11.1336 14.4477 11.7826 13.7983 11.7826 13ZM9.826 13C9.826 12.7187 10.0547 12.4898 10.3358 12.4898C10.617 12.4898 10.8457 12.7187 10.8457 13C10.8457 13.2813 10.617 13.5102 10.3358 13.5102C10.0547 13.5102 9.826 13.2813 9.826 13Z" fill="#7A869A" stroke="#7A869A" stroke-width="0.3"/>
<path d="M6.14285 15.9454C6.09502 16.2537 6.0708 16.57 6.0708 16.8856C6.0708 20.2177 8.7806 22.9285 12.1114 22.9285C15.4421 22.9285 18.1519 20.2177 18.1519 16.8856C18.1519 16.5698 18.1276 16.2534 18.0799 15.9454C18.0444 15.717 17.8479 15.5485 17.617 15.5485H16.9157C16.9174 15.5141 16.9183 15.4796 16.9183 15.445C16.9183 14.3077 15.9936 13.3824 14.857 13.3824C13.7205 13.3824 12.7958 14.3077 12.7958 15.445C12.7958 15.4796 12.7967 15.5141 12.7984 15.5485H6.60576C6.37477 15.5485 6.17826 15.717 6.14285 15.9454ZM7.02291 16.486H13.3701C13.5244 16.486 13.6688 16.4099 13.7562 16.2826C13.8436 16.1553 13.8627 15.9931 13.8073 15.8489C13.7577 15.7202 13.7327 15.5843 13.7327 15.445C13.7327 14.8246 14.2371 14.3199 14.857 14.3199C15.477 14.3199 15.9814 14.8246 15.9814 15.445C15.9814 15.5844 15.9563 15.7204 15.9069 15.8489C15.8514 15.9931 15.8706 16.1553 15.9579 16.2826C16.0453 16.4099 16.1897 16.486 16.3441 16.486H17.1998C17.2099 16.6186 17.215 16.7521 17.215 16.8856C17.215 19.7007 14.9255 21.991 12.1114 21.991C9.2972 21.991 7.00768 19.7008 7.00768 16.8856C7.00773 16.7522 7.01284 16.6187 7.02291 16.486Z" fill="#7A869A" stroke="#7A869A" stroke-width="0.3"/>
</svg>
