<svg width="12" height="12" viewBox="0 0 12 12" fill="none" xmlns="http://www.w3.org/2000/svg">
<path d="M3.33333 5.33333C2.96514 5.33333 2.66667 5.63181 2.66667 6C2.66667 6.36819 2.96514 6.66667 3.33333 6.66667H8.63965C9.00784 6.66667 9.30632 6.36819 9.30632 6C9.30632 5.63181 9.00784 5.33333 8.63965 5.33333H3.33333Z" fill="#090F69"/>
<path d="M3.36035 8.04435C2.99216 8.04435 2.69369 8.34283 2.69369 8.71102C2.69369 9.07921 2.99216 9.37769 3.36035 9.37769H8.66667C9.03486 9.37769 9.33333 9.07921 9.33333 8.71102C9.33333 8.34283 9.03486 8.04435 8.66667 8.04435H3.36035Z" fill="#090F69"/>
<path fill-rule="evenodd" clip-rule="evenodd" d="M1.33333 0C0.596954 0 0 0.596954 0 1.33333V10.6667C0 11.403 0.596954 12 1.33333 12H10.6667C11.403 12 12 11.403 12 10.6667V1.33333C12 0.596954 11.403 0 10.6667 0H1.33333ZM2.66667 1.33333H1.33333L1.33333 10.6667H10.6667V1.33333H9.33333V2C9.33333 3.10457 8.4379 4 7.33333 4H4.66667C3.5621 4 2.66667 3.10457 2.66667 2V1.33333ZM4 1.33333V2C4 2.36819 4.29848 2.66667 4.66667 2.66667H7.33333C7.70152 2.66667 8 2.36819 8 2V1.33333H4Z" fill="#090F69"/>
</svg>
