<svg width="24" height="24" viewBox="0 0 24 24" fill="none" xmlns="http://www.w3.org/2000/svg">
<path d="M17.8744 19.578V19.5779L17.8636 19.5782C17.5538 19.5878 17.2522 19.4795 17.0196 19.2754L12.0419 14.3078L11.7945 14.061L11.5473 14.308L6.77641 19.0746C6.51153 19.2931 6.17546 19.4073 5.83172 19.395L5.83173 19.3949L5.82354 19.3948C5.55128 19.3915 5.2825 19.3334 5.03324 19.224C4.78399 19.1145 4.5594 18.956 4.37288 18.7579L4.37302 18.7578L4.36488 18.7497C3.81241 18.2002 3.70573 17.6767 3.7035 17.3605L3.70344 17.352L3.70296 17.3435C3.68521 17.026 3.79313 16.7143 4.00329 16.4757L8.85975 11.6208L9.10758 11.373L8.85953 11.1255L4.1208 6.39668C4.12066 6.39654 4.12052 6.39639 4.12037 6.39625C3.82458 6.09804 3.47308 4.98401 4.45823 4.00221L4.45854 4.0019C5.02097 3.43998 5.55225 3.33761 5.88416 3.33761C6.31313 3.33761 6.60675 3.50732 6.72499 3.62898L6.72497 3.62901L6.72875 3.63279L11.5474 8.4415L11.7948 8.68837L12.042 8.44136L16.8156 3.6721C17.0815 3.45329 17.4185 3.33911 17.7631 3.35148L17.7631 3.35159L17.7718 3.35168C18.0446 3.35471 18.3139 3.41291 18.5635 3.52274C18.8132 3.63258 19.0379 3.79179 19.2243 3.99074L19.2241 3.99086L19.232 3.99875C20.1812 4.94961 19.9288 5.94152 19.6027 6.26549L19.6019 6.26621L14.7325 11.1313L14.4846 11.379L14.7325 11.6266L19.6311 16.5179C19.6314 16.5182 19.6317 16.5185 19.632 16.5188C19.7506 16.6397 19.9418 16.9762 19.9422 17.4657C19.9395 17.7363 19.8818 18.0036 19.7726 18.2514C19.6633 18.4996 19.5045 18.7231 19.306 18.9081L19.3058 18.908L19.2978 18.916C18.735 19.4758 18.2062 19.578 17.8744 19.578Z" fill="#7A869A" stroke="white" stroke-width="0.7"/>
</svg>
