<svg width="24" height="24" viewBox="0 0 24 24" fill="none" xmlns="http://www.w3.org/2000/svg">
<path d="M21.8778 0H2.12158C0.958473 0 0.012207 0.946266 0.012207 2.10938V16.2298C0.012207 17.3929 0.958473 18.3392 2.12158 18.3392H9.29969V19.7812H5.32282L4.61969 24H19.4047L18.7016 19.7812H14.6997V18.3392H21.8778C23.0409 18.3392 23.9872 17.3929 23.9872 16.2298V2.10938C23.9872 0.946266 23.0409 0 21.8778 0ZM2.12158 1.40625H21.8778C22.2655 1.40625 22.581 1.72167 22.581 2.10938V14.1204H1.41846V2.10938C1.41846 1.72167 1.73388 1.40625 2.12158 1.40625ZM17.7447 22.5938H6.27972L6.5141 21.1875H17.5103L17.7447 22.5938ZM13.2934 19.7812H10.7059V18.3392H13.2934V19.7812ZM21.8778 16.9329H2.12158C1.73388 16.9329 1.41846 16.6175 1.41846 16.2298V15.5267H22.581V16.2298C22.5809 16.6176 22.2655 16.9329 21.8778 16.9329Z" fill="#7A869A"/>
<path d="M12.0103 12.9899C14.8922 12.9899 17.2368 10.6452 17.2368 7.7633C17.2368 4.88138 14.8922 2.53674 12.0103 2.53674C9.12834 2.53674 6.78369 4.88138 6.78369 7.7633C6.78369 10.6452 9.12834 12.9899 12.0103 12.9899ZM8.2559 8.46642H9.84862C9.89535 9.44934 10.0416 10.401 10.296 11.1758C9.24941 10.6479 8.47771 9.65311 8.2559 8.46642ZM12.7639 7.06017H11.2566C11.3481 5.32294 11.7639 4.28494 12.0103 3.99648C12.2565 4.28504 12.6724 5.32313 12.7639 7.06017ZM12.7639 8.46642C12.6724 10.2035 12.2565 11.2416 12.0103 11.5301C11.764 11.2416 11.3482 10.2035 11.2567 8.46642H12.7639ZM13.7245 11.1758C13.979 10.401 14.1252 9.44934 14.1719 8.46642H15.7646C15.5428 9.65311 14.7711 10.6479 13.7245 11.1758ZM15.7646 7.06017H14.1719C14.1252 6.07725 13.9789 5.1256 13.7245 4.3508C14.7711 4.87871 15.5428 5.87349 15.7646 7.06017ZM10.296 4.3508C10.0416 5.1256 9.89535 6.07725 9.84862 7.06017H8.2559C8.47771 5.87349 9.24941 4.87871 10.296 4.3508Z" fill="#7A869A"/>
</svg>
