<svg width="24" height="24" viewBox="0 0 24 24" fill="none" xmlns="http://www.w3.org/2000/svg">
<mask id="path-1-outside-1" maskUnits="userSpaceOnUse" x="-0.25" y="-0.25" width="24" height="24" fill="black">
<rect fill="white" x="-0.25" y="-0.25" width="24" height="24"/>
<path fill-rule="evenodd" clip-rule="evenodd" d="M5.5 6.75C4.673 6.75 4 6.077 4 5.25V4H2.8125C2.13022 4 1.575 4.673 1.575 5.5V18.5C1.575 19.327 2.13022 20 2.8125 20H8.5875C8.8152 20 9 20.224 9 20.5C9 20.776 8.8152 21 8.5875 21H2.8125C1.67565 21 0.75 19.879 0.75 18.5V5.5C0.75 4.121 1.67565 3 2.8125 3H4.06696C4.15345 2.85059 4.31505 2.75 4.5 2.75H6.05C6.283 1.61 7.292 0.75 8.50001 0.75C9.70801 0.75 10.717 1.61 10.95 2.75H12.5C12.685 2.75 12.8466 2.85059 12.9331 3H14.5C15.878 3 17 4.121 17 5.5V8.5C17 8.776 16.776 9 16.5 9C16.224 9 16 8.776 16 8.5V5.5C16 4.673 15.327 4 14.5 4H13V5.25C13 6.077 12.327 6.75 11.5 6.75H5.5ZM5 3.75V5.25C5 5.525 5.224 5.75 5.5 5.75H11.5C11.776 5.75 12 5.525 12 5.25V3.75H10.5C10.224 3.75 10 3.526 10 3.25C10 2.423 9.32701 1.75 8.50001 1.75C7.67301 1.75 7 2.423 7 3.25C7 3.526 6.776 3.75 6.5 3.75H5ZM10.25 16.75C10.25 20.334 13.166 23.2499 16.75 23.2499C20.334 23.2499 23.25 20.334 23.25 16.75C23.25 13.166 20.334 10.25 16.75 10.25C13.166 10.25 10.25 13.166 10.25 16.75ZM11.25 16.75C11.25 13.718 13.717 11.25 16.75 11.25C19.783 11.25 22.25 13.718 22.25 16.75C22.25 19.782 19.783 22.25 16.75 22.25C13.717 22.25 11.25 19.782 11.25 16.75ZM16.75 20.25C16.474 20.25 16.25 20.026 16.25 19.75V17.25H13.75C13.474 17.25 13.25 17.026 13.25 16.75C13.25 16.474 13.474 16.25 13.75 16.25H16.25V13.75C16.25 13.474 16.474 13.25 16.75 13.25C17.026 13.25 17.25 13.474 17.25 13.75V16.25H19.75C20.026 16.25 20.25 16.474 20.25 16.75C20.25 17.026 20.026 17.25 19.75 17.25H17.25V19.75C17.25 20.026 17.026 20.25 16.75 20.25ZM7.96875 11.5H4.03125C3.876 11.5 3.75 11.332 3.75 11.125C3.75 10.918 3.876 10.75 4.03125 10.75H7.96875C8.124 10.75 8.25 10.918 8.25 11.125C8.25 11.332 8.124 11.5 7.96875 11.5ZM4.125 16.5H7.875C8.082 16.5 8.25 16.276 8.25 16C8.25 15.724 8.082 15.5 7.875 15.5H4.125C3.918 15.5 3.75 15.724 3.75 16C3.75 16.276 3.918 16.5 4.125 16.5Z"/>
</mask>
<path fill-rule="evenodd" clip-rule="evenodd" d="M5.5 6.75C4.673 6.75 4 6.077 4 5.25V4H2.8125C2.13022 4 1.575 4.673 1.575 5.5V18.5C1.575 19.327 2.13022 20 2.8125 20H8.5875C8.8152 20 9 20.224 9 20.5C9 20.776 8.8152 21 8.5875 21H2.8125C1.67565 21 0.75 19.879 0.75 18.5V5.5C0.75 4.121 1.67565 3 2.8125 3H4.06696C4.15345 2.85059 4.31505 2.75 4.5 2.75H6.05C6.283 1.61 7.292 0.75 8.50001 0.75C9.70801 0.75 10.717 1.61 10.95 2.75H12.5C12.685 2.75 12.8466 2.85059 12.9331 3H14.5C15.878 3 17 4.121 17 5.5V8.5C17 8.776 16.776 9 16.5 9C16.224 9 16 8.776 16 8.5V5.5C16 4.673 15.327 4 14.5 4H13V5.25C13 6.077 12.327 6.75 11.5 6.75H5.5ZM5 3.75V5.25C5 5.525 5.224 5.75 5.5 5.75H11.5C11.776 5.75 12 5.525 12 5.25V3.75H10.5C10.224 3.75 10 3.526 10 3.25C10 2.423 9.32701 1.75 8.50001 1.75C7.67301 1.75 7 2.423 7 3.25C7 3.526 6.776 3.75 6.5 3.75H5ZM10.25 16.75C10.25 20.334 13.166 23.2499 16.75 23.2499C20.334 23.2499 23.25 20.334 23.25 16.75C23.25 13.166 20.334 10.25 16.75 10.25C13.166 10.25 10.25 13.166 10.25 16.75ZM11.25 16.75C11.25 13.718 13.717 11.25 16.75 11.25C19.783 11.25 22.25 13.718 22.25 16.75C22.25 19.782 19.783 22.25 16.75 22.25C13.717 22.25 11.25 19.782 11.25 16.75ZM16.75 20.25C16.474 20.25 16.25 20.026 16.25 19.75V17.25H13.75C13.474 17.25 13.25 17.026 13.25 16.75C13.25 16.474 13.474 16.25 13.75 16.25H16.25V13.75C16.25 13.474 16.474 13.25 16.75 13.25C17.026 13.25 17.25 13.474 17.25 13.75V16.25H19.75C20.026 16.25 20.25 16.474 20.25 16.75C20.25 17.026 20.026 17.25 19.75 17.25H17.25V19.75C17.25 20.026 17.026 20.25 16.75 20.25ZM7.96875 11.5H4.03125C3.876 11.5 3.75 11.332 3.75 11.125C3.75 10.918 3.876 10.75 4.03125 10.75H7.96875C8.124 10.75 8.25 10.918 8.25 11.125C8.25 11.332 8.124 11.5 7.96875 11.5ZM4.125 16.5H7.875C8.082 16.5 8.25 16.276 8.25 16C8.25 15.724 8.082 15.5 7.875 15.5H4.125C3.918 15.5 3.75 15.724 3.75 16C3.75 16.276 3.918 16.5 4.125 16.5Z" fill="#7A869A"/>
<path d="M4 4H4.4V3.6H4V4ZM4.06696 3V3.4H4.29759L4.41314 3.2004L4.06696 3ZM6.05 2.75V3.15H6.37652L6.4419 2.8301L6.05 2.75ZM10.95 2.75L10.5581 2.8301L10.6235 3.15H10.95V2.75ZM12.9331 3L12.5869 3.2004L12.7024 3.4H12.9331V3ZM13 4V3.6H12.6V4H13ZM5 3.75V3.35H4.6V3.75H5ZM12 3.75H12.4V3.35H12V3.75ZM16.25 17.25H16.65V16.85H16.25V17.25ZM16.25 16.25V16.65H16.65V16.25H16.25ZM17.25 16.25H16.85V16.65H17.25V16.25ZM17.25 17.25V16.85H16.85V17.25H17.25ZM3.6 5.25C3.6 6.29791 4.45209 7.15 5.5 7.15V6.35C4.89392 6.35 4.4 5.85609 4.4 5.25H3.6ZM3.6 4V5.25H4.4V4H3.6ZM2.8125 4.4H4V3.6H2.8125V4.4ZM1.975 5.5C1.975 4.81848 2.41969 4.4 2.8125 4.4V3.6C1.84076 3.6 1.175 4.52752 1.175 5.5H1.975ZM1.975 18.5V5.5H1.175V18.5H1.975ZM2.8125 19.6C2.41969 19.6 1.975 19.1815 1.975 18.5H1.175C1.175 19.4725 1.84076 20.4 2.8125 20.4V19.6ZM8.5875 19.6H2.8125V20.4H8.5875V19.6ZM9.4 20.5C9.4 20.0785 9.10466 19.6 8.5875 19.6V20.4C8.56292 20.4 8.55891 20.3869 8.57059 20.4011C8.58293 20.416 8.6 20.4497 8.6 20.5H9.4ZM8.5875 21.4C9.10466 21.4 9.4 20.9215 9.4 20.5H8.6C8.6 20.5503 8.58293 20.584 8.57059 20.5989C8.55891 20.6131 8.56292 20.6 8.5875 20.6V21.4ZM2.8125 21.4H8.5875V20.6H2.8125V21.4ZM0.35 18.5C0.35 20.0246 1.38628 21.4 2.8125 21.4V20.6C1.96502 20.6 1.15 19.7334 1.15 18.5H0.35ZM0.35 5.5V18.5H1.15V5.5H0.35ZM2.8125 2.6C1.38628 2.6 0.35 3.97541 0.35 5.5H1.15C1.15 4.26659 1.96502 3.4 2.8125 3.4V2.6ZM4.06696 2.6H2.8125V3.4H4.06696V2.6ZM4.5 2.35C4.16639 2.35 3.87577 2.53186 3.72078 2.7996L4.41314 3.2004C4.43114 3.16931 4.46371 3.15 4.5 3.15V2.35ZM6.05 2.35H4.5V3.15H6.05V2.35ZM8.50001 0.35C7.09765 0.35 5.92829 1.34797 5.65811 2.6699L6.4419 2.8301C6.63772 1.87203 7.48636 1.15 8.50001 1.15V0.35ZM11.3419 2.6699C11.0717 1.34797 9.90236 0.35 8.50001 0.35V1.15C9.51365 1.15 10.3623 1.87203 10.5581 2.8301L11.3419 2.6699ZM12.5 2.35H10.95V3.15H12.5V2.35ZM13.2792 2.7996C13.1242 2.53186 12.8336 2.35 12.5 2.35V3.15C12.5363 3.15 12.5689 3.16931 12.5869 3.2004L13.2792 2.7996ZM14.5 2.6H12.9331V3.4H14.5V2.6ZM17.4 5.5C17.4 3.89998 16.0988 2.6 14.5 2.6V3.4C15.6572 3.4 16.6 4.34202 16.6 5.5H17.4ZM17.4 8.5V5.5H16.6V8.5H17.4ZM16.5 9.4C16.9969 9.4 17.4 8.99691 17.4 8.5H16.6C16.6 8.55509 16.5551 8.6 16.5 8.6V9.4ZM15.6 8.5C15.6 8.99691 16.0031 9.4 16.5 9.4V8.6C16.4449 8.6 16.4 8.55509 16.4 8.5H15.6ZM15.6 5.5V8.5H16.4V5.5H15.6ZM14.5 4.4C15.1061 4.4 15.6 4.89391 15.6 5.5H16.4C16.4 4.45209 15.5479 3.6 14.5 3.6V4.4ZM13 4.4H14.5V3.6H13V4.4ZM13.4 5.25V4H12.6V5.25H13.4ZM11.5 7.15C12.5479 7.15 13.4 6.29791 13.4 5.25H12.6C12.6 5.85609 12.1061 6.35 11.5 6.35V7.15ZM5.5 7.15H11.5V6.35H5.5V7.15ZM5.4 5.25V3.75H4.6V5.25H5.4ZM5.5 5.35C5.44544 5.35 5.4 5.30461 5.4 5.25H4.6C4.6 5.74539 5.00257 6.15 5.5 6.15V5.35ZM11.5 5.35H5.5V6.15H11.5V5.35ZM11.6 5.25C11.6 5.30461 11.5546 5.35 11.5 5.35V6.15C11.9974 6.15 12.4 5.74539 12.4 5.25H11.6ZM11.6 3.75V5.25H12.4V3.75H11.6ZM10.5 4.15H12V3.35H10.5V4.15ZM9.60001 3.25C9.60001 3.74691 10.0031 4.15 10.5 4.15V3.35C10.4449 3.35 10.4 3.30509 10.4 3.25H9.60001ZM8.50001 2.15C9.10609 2.15 9.60001 2.64391 9.60001 3.25H10.4C10.4 2.20209 9.54792 1.35 8.50001 1.35V2.15ZM7.4 3.25C7.4 2.64391 7.89392 2.15 8.50001 2.15V1.35C7.45209 1.35 6.6 2.20209 6.6 3.25H7.4ZM6.5 4.15C6.99692 4.15 7.4 3.74691 7.4 3.25H6.6C6.6 3.30509 6.55509 3.35 6.5 3.35V4.15ZM5 4.15H6.5V3.35H5V4.15ZM16.75 22.8499C13.3869 22.8499 10.65 20.113 10.65 16.75H9.85C9.85 20.5549 12.9451 23.6499 16.75 23.6499V22.8499ZM22.85 16.75C22.85 20.113 20.1131 22.8499 16.75 22.8499V23.6499C20.5549 23.6499 23.65 20.5549 23.65 16.75H22.85ZM16.75 10.65C20.1131 10.65 22.85 13.3869 22.85 16.75H23.65C23.65 12.945 20.5549 9.84997 16.75 9.84997V10.65ZM10.65 16.75C10.65 13.3869 13.3869 10.65 16.75 10.65V9.84997C12.9451 9.84997 9.85 12.945 9.85 16.75H10.65ZM16.75 10.85C13.496 10.85 10.85 13.4971 10.85 16.75H11.65C11.65 13.9388 13.938 11.65 16.75 11.65V10.85ZM22.65 16.75C22.65 13.4971 20.004 10.85 16.75 10.85V11.65C19.562 11.65 21.85 13.9388 21.85 16.75H22.65ZM16.75 22.65C20.004 22.65 22.65 20.0028 22.65 16.75H21.85C21.85 19.5611 19.562 21.85 16.75 21.85V22.65ZM10.85 16.75C10.85 20.0028 13.496 22.65 16.75 22.65V21.85C13.938 21.85 11.65 19.5611 11.65 16.75H10.85ZM15.85 19.75C15.85 20.2469 16.2531 20.65 16.75 20.65V19.85C16.6949 19.85 16.65 19.8051 16.65 19.75H15.85ZM15.85 17.25V19.75H16.65V17.25H15.85ZM13.75 17.65H16.25V16.85H13.75V17.65ZM12.85 16.75C12.85 17.2469 13.2531 17.65 13.75 17.65V16.85C13.6949 16.85 13.65 16.805 13.65 16.75H12.85ZM13.75 15.85C13.2531 15.85 12.85 16.2531 12.85 16.75H13.65C13.65 16.6949 13.6949 16.65 13.75 16.65V15.85ZM16.25 15.85H13.75V16.65H16.25V15.85ZM15.85 13.75V16.25H16.65V13.75H15.85ZM16.75 12.85C16.2531 12.85 15.85 13.2531 15.85 13.75H16.65C16.65 13.6949 16.6949 13.65 16.75 13.65V12.85ZM17.65 13.75C17.65 13.2531 17.2469 12.85 16.75 12.85V13.65C16.8051 13.65 16.85 13.6949 16.85 13.75H17.65ZM17.65 16.25V13.75H16.85V16.25H17.65ZM19.75 15.85H17.25V16.65H19.75V15.85ZM20.65 16.75C20.65 16.253 20.2469 15.85 19.75 15.85V16.65C19.8051 16.65 19.85 16.6949 19.85 16.75H20.65ZM19.75 17.65C20.2469 17.65 20.65 17.2469 20.65 16.75H19.85C19.85 16.805 19.8051 16.85 19.75 16.85V17.65ZM17.25 17.65H19.75V16.85H17.25V17.65ZM17.65 19.75V17.25H16.85V19.75H17.65ZM16.75 20.65C17.2469 20.65 17.65 20.2469 17.65 19.75H16.85C16.85 19.8051 16.8051 19.85 16.75 19.85V20.65ZM4.03125 11.9H7.96875V11.1H4.03125V11.9ZM3.35 11.125C3.35 11.3068 3.40482 11.4867 3.51241 11.6301C3.62005 11.7736 3.79937 11.9 4.03125 11.9V11.1C4.10788 11.1 4.14658 11.1424 4.15241 11.1501C4.15818 11.1578 4.15 11.1502 4.15 11.125H3.35ZM4.03125 10.35C3.79937 10.35 3.62005 10.4764 3.51241 10.6199C3.40482 10.7633 3.35 10.9432 3.35 11.125H4.15C4.15 11.0998 4.15818 11.0922 4.15241 11.0999C4.14658 11.1076 4.10788 11.15 4.03125 11.15V10.35ZM7.96875 10.35H4.03125V11.15H7.96875V10.35ZM8.65 11.125C8.65 10.9432 8.59518 10.7633 8.48759 10.6199C8.37995 10.4764 8.20063 10.35 7.96875 10.35V11.15C7.89212 11.15 7.85342 11.1076 7.84759 11.0999C7.84182 11.0922 7.85 11.0998 7.85 11.125H8.65ZM7.96875 11.9C8.20063 11.9 8.37995 11.7736 8.48759 11.6301C8.59518 11.4867 8.65 11.3068 8.65 11.125H7.85C7.85 11.1502 7.84182 11.1578 7.84759 11.1501C7.85342 11.1424 7.89212 11.1 7.96875 11.1V11.9ZM7.875 16.1H4.125V16.9H7.875V16.1ZM7.85 16C7.85 16.0597 7.83132 16.0985 7.82013 16.1135C7.81505 16.1202 7.81509 16.1175 7.82435 16.1123C7.83473 16.1064 7.85262 16.1 7.875 16.1V16.9C8.13276 16.9 8.33551 16.7596 8.46012 16.5935C8.58468 16.4274 8.65 16.2162 8.65 16H7.85ZM7.875 15.9C7.85262 15.9 7.83473 15.8935 7.82435 15.8876C7.81509 15.8824 7.81505 15.8797 7.82013 15.8865C7.83132 15.9014 7.85 15.9402 7.85 16H8.65C8.65 15.7837 8.58468 15.5725 8.46012 15.4065C8.33551 15.2403 8.13276 15.1 7.875 15.1V15.9ZM4.125 15.9H7.875V15.1H4.125V15.9ZM4.15 16C4.15 15.9402 4.16868 15.9014 4.17987 15.8865C4.18494 15.8797 4.18491 15.8824 4.17565 15.8876C4.16527 15.8935 4.14738 15.9 4.125 15.9V15.1C3.86724 15.1 3.66449 15.2403 3.53988 15.4065C3.41532 15.5725 3.35 15.7837 3.35 16H4.15ZM4.125 16.1C4.14738 16.1 4.16527 16.1064 4.17565 16.1123C4.18491 16.1175 4.18494 16.1202 4.17987 16.1135C4.16868 16.0985 4.15 16.0597 4.15 16H3.35C3.35 16.2162 3.41532 16.4274 3.53988 16.5935C3.66449 16.7596 3.86724 16.9 4.125 16.9V16.1Z" fill="#7A869A" mask="url(#path-1-outside-1)"/>
</svg>
