<svg width="14" height="16" viewBox="0 0 14 16" fill="none" xmlns="http://www.w3.org/2000/svg">
<path fill-rule="evenodd" clip-rule="evenodd" d="M5.19494 2.1951C5.31996 2.07007 5.48953 1.99984 5.66634 1.99984H8.33301C8.50982 1.99984 8.67939 2.07007 8.80441 2.1951C8.92944 2.32012 8.99967 2.48969 8.99967 2.6665V3.33317H4.99967V2.6665C4.99967 2.48969 5.06991 2.32012 5.19494 2.1951ZM3.66634 3.33317V2.6665C3.66634 2.13607 3.87706 1.62736 4.25213 1.25229C4.6272 0.877218 5.13591 0.666504 5.66634 0.666504H8.33301C8.86344 0.666504 9.37215 0.877218 9.74722 1.25229C10.1223 1.62736 10.333 2.13607 10.333 2.6665V3.33317H11.6663H12.9997C13.3679 3.33317 13.6663 3.63165 13.6663 3.99984C13.6663 4.36803 13.3679 4.6665 12.9997 4.6665H12.333V13.3332C12.333 13.8636 12.1223 14.3723 11.7472 14.7474C11.3721 15.1225 10.8634 15.3332 10.333 15.3332H3.66634C3.13591 15.3332 2.6272 15.1225 2.25213 14.7474C1.87705 14.3723 1.66634 13.8636 1.66634 13.3332V4.6665H0.999674C0.631485 4.6665 0.333008 4.36803 0.333008 3.99984C0.333008 3.63165 0.631485 3.33317 0.999674 3.33317H2.33301H3.66634ZM2.99967 4.6665V13.3332C2.99967 13.51 3.06991 13.6795 3.19494 13.8046C3.31996 13.9296 3.48953 13.9998 3.66634 13.9998H10.333C10.5098 13.9998 10.6794 13.9296 10.8044 13.8046C10.9294 13.6795 10.9997 13.51 10.9997 13.3332V4.6665H2.99967ZM5.66634 6.6665C6.03453 6.6665 6.33301 6.96498 6.33301 7.33317V11.3332C6.33301 11.7014 6.03453 11.9998 5.66634 11.9998C5.29815 11.9998 4.99967 11.7014 4.99967 11.3332V7.33317C4.99967 6.96498 5.29815 6.6665 5.66634 6.6665ZM8.99967 7.33317C8.99967 6.96498 8.7012 6.6665 8.33301 6.6665C7.96482 6.6665 7.66634 6.96498 7.66634 7.33317V11.3332C7.66634 11.7014 7.96482 11.9998 8.33301 11.9998C8.7012 11.9998 8.99967 11.7014 8.99967 11.3332V7.33317Z" fill="#DE350B"/>
</svg>
