<svg width="24" height="24" viewBox="0 0 24 24" fill="none" xmlns="http://www.w3.org/2000/svg">
<path d="M16.4756 1.30535L16.6831 1.4475L16.7095 1.19735C16.7726 0.599199 17.2415 0.15 17.7931 0.15H22.7586C23.3514 0.15 23.85 0.669545 23.85 1.33333V15.5556C23.85 16.2193 23.3514 16.7389 22.7586 16.7389H17.7931C17.2003 16.7389 16.7017 16.2193 16.7017 15.5556V15.5454V15.3425L16.5077 15.402L15.2982 15.7732C15.2982 15.7732 15.2982 15.7732 15.2982 15.7732C13.9925 16.1739 13.0914 17.4666 13.0914 18.908V20C13.0914 22.133 11.478 23.85 9.51724 23.85C7.55651 23.85 5.9431 22.133 5.9431 20V16.8889V16.7389H5.7931H4.55172C2.13466 16.7389 0.15 14.6232 0.15 12V4.88889C0.15 2.26572 2.13466 0.15 4.55172 0.15H12.8018C14.1224 0.15 15.3934 0.564094 16.4756 1.30535ZM16.7017 4.82187V4.77906L16.6791 4.7427C15.8227 3.36434 14.3664 2.51667 12.8018 2.51667H4.55172C3.31814 2.51667 2.33276 3.59099 2.33276 4.88889V12C2.33276 13.2979 3.31814 14.3722 4.55172 14.3722H7.03448C7.6273 14.3722 8.12586 14.8918 8.12586 15.5556V20C8.12586 20.8078 8.73999 21.4833 9.51724 21.4833C10.2945 21.4833 10.9086 20.8078 10.9086 20V18.908C10.9086 16.4017 12.4757 14.1798 14.7041 13.4959L16.5957 12.9154L16.7017 12.8829V12.772V4.82187ZM21.5172 14.3722H21.6672V14.2222V2.66667V2.51667H21.5172H19.0345H18.8845V2.66667V14.2222V14.3722H19.0345H21.5172Z" fill="#7A869A" stroke="white" stroke-width="0.3"/>
</svg>
