<svg width="24" height="24" viewBox="0 0 24 24" fill="none" xmlns="http://www.w3.org/2000/svg">
<path fill-rule="evenodd" clip-rule="evenodd" d="M12 24C18.6274 24 24 18.6274 24 12C24 5.37258 18.6274 0 12 0C5.37258 0 0 5.37258 0 12C0 18.6274 5.37258 24 12 24Z" fill="white"/>
<mask id="mask0" mask-type="alpha" maskUnits="userSpaceOnUse" x="0" y="0" width="24" height="24">
<path fill-rule="evenodd" clip-rule="evenodd" d="M12 24C18.6274 24 24 18.6274 24 12C24 5.37258 18.6274 0 12 0C5.37258 0 0 5.37258 0 12C0 18.6274 5.37258 24 12 24Z" fill="white"/>
</mask>
<g mask="url(#mask0)">
<line x1="4.3" y1="11.7" x2="2.7" y2="11.7" stroke="#DFE1E6" stroke-width="1.4" stroke-linecap="round"/>
<line x1="8.3" y1="11.7" x2="6.7" y2="11.7" stroke="#DFE1E6" stroke-width="1.4" stroke-linecap="round"/>
<line x1="13.3" y1="11.7" x2="10.7" y2="11.7" stroke="#DFE1E6" stroke-width="1.4" stroke-linecap="round"/>
<line x1="17.3" y1="11.7" x2="15.7" y2="11.7" stroke="#DFE1E6" stroke-width="1.4" stroke-linecap="round"/>
<line x1="21.3" y1="11.7" x2="19.7" y2="11.7" stroke="#DFE1E6" stroke-width="1.4" stroke-linecap="round"/>
</g>
</svg>
