<svg width="24" height="24" viewBox="0 0 24 24" fill="none" xmlns="http://www.w3.org/2000/svg">
<path d="M11.9999 9.12311C10.4136 9.12311 9.12305 10.4137 9.12305 12C9.12305 13.5863 10.4136 14.8769 11.9999 14.8769C13.5863 14.8769 14.8768 13.5863 14.8768 12C14.8768 10.4137 13.5863 9.12311 11.9999 9.12311ZM11.9999 14.0993C10.8423 14.0993 9.90058 13.1576 9.90058 12C9.90058 10.8424 10.8423 9.90065 11.9999 9.90065C13.1575 9.90065 14.0993 10.8424 14.0993 12C14.0993 13.1576 13.1575 14.0993 11.9999 14.0993Z" fill="#7A869A"/>
<path d="M12.0001 10.7819C11.7854 10.7819 11.6113 10.9559 11.6113 11.1706C11.6113 11.3853 11.7854 11.5594 12.0001 11.5594C12.2431 11.5594 12.4407 11.757 12.4407 12C12.4407 12.2147 12.6148 12.3888 12.8295 12.3888C13.0442 12.3888 13.2183 12.2147 13.2183 12C13.2183 11.3283 12.6718 10.7819 12.0001 10.7819Z" fill="#7A869A"/>
<path d="M24 12C24 10.7157 22.7006 9.54428 20.3412 8.70163C20.2734 8.67743 20.2049 8.65358 20.1358 8.63005C20.168 8.56458 20.1996 8.49927 20.2304 8.43426C21.3029 6.17002 21.3935 4.42289 20.4853 3.51473C19.5771 2.60657 17.8299 2.69707 15.5657 3.76961C15.5007 3.8004 15.4354 3.83197 15.37 3.86416C15.3464 3.79506 15.3226 3.72658 15.2984 3.65883C14.4557 1.29942 13.2843 0 12 0C10.7157 0 9.54428 1.29942 8.70163 3.65883C8.67743 3.72658 8.65358 3.79506 8.63005 3.86416C8.56458 3.83197 8.49927 3.8004 8.43426 3.76961C6.16992 2.69707 4.42289 2.60651 3.51473 3.51473C2.60657 4.42295 2.69712 6.17002 3.76961 8.43426C3.8004 8.49927 3.83197 8.56458 3.86416 8.63005C3.79506 8.65358 3.72658 8.67743 3.65883 8.70163C1.29942 9.54428 0 10.7157 0 12C0 13.2843 1.29942 14.4557 3.65883 15.2984C3.72658 15.3226 3.79506 15.3464 3.86416 15.37C3.83197 15.4354 3.8004 15.5007 3.76961 15.5657C2.69707 17.83 2.60651 19.5771 3.51473 20.4853C3.92926 20.8998 4.51848 21.1062 5.25196 21.1062C6.12549 21.1062 7.20347 20.8134 8.43432 20.2303C8.49932 20.1996 8.56463 20.168 8.6301 20.1358C8.65363 20.2049 8.67748 20.2734 8.70168 20.3411C9.54428 22.7006 10.7157 24 12 24C13.2843 24 14.4557 22.7006 15.2984 20.3412C15.3226 20.2734 15.3464 20.2049 15.37 20.1358C15.4354 20.168 15.5007 20.1996 15.5657 20.2304C16.7967 20.8135 17.8745 21.1063 18.748 21.1063C19.4814 21.1062 20.0708 20.8997 20.4853 20.4853C21.3934 19.5772 21.3029 17.83 20.2304 15.5658C20.1996 15.5008 20.168 15.4355 20.1358 15.37C20.2049 15.3465 20.2734 15.3226 20.3412 15.2984C22.7006 14.4557 24 13.2843 24 12ZM15.8986 4.47229C17.0279 3.9374 18.0025 3.66604 18.7455 3.66604C19.2635 3.66604 19.6689 3.79801 19.9354 4.06455C20.5842 4.71333 20.4356 6.18469 19.5277 8.10143C19.4816 8.19857 19.4334 8.29648 19.3841 8.39476C18.4305 8.11998 17.3761 7.90217 16.2532 7.74682C16.0978 6.62395 15.8801 5.56956 15.6052 4.61593C15.7036 4.56653 15.8014 4.51832 15.8986 4.47229ZM15.7581 12C15.7581 12.5202 15.7456 13.0347 15.7215 13.5414C15.3802 13.9168 15.0252 14.2895 14.6574 14.6574C14.2895 15.0252 13.9168 15.3802 13.5414 15.7215C13.0348 15.7456 12.5202 15.7581 12 15.7581C11.4798 15.7581 10.9652 15.7456 10.4585 15.7215C10.0832 15.3802 9.71046 15.0252 9.34258 14.6574C8.97476 14.2895 8.61973 13.9168 8.2785 13.5414C8.25445 13.0347 8.2419 12.5202 8.2419 12C8.2419 11.4798 8.25445 10.9653 8.27855 10.4585C8.61978 10.0832 8.97476 9.71046 9.34264 9.34258C9.71046 8.97476 10.0832 8.61973 10.4586 8.2785C10.9653 8.25439 11.4798 8.24185 12.0001 8.24185C12.5203 8.24185 13.0349 8.25439 13.5415 8.2785C13.9169 8.61973 14.2896 8.9747 14.6575 9.34258C15.0253 9.71041 15.3803 10.0832 15.7216 10.4585C15.7456 10.9653 15.7581 11.4798 15.7581 12ZM15.2072 8.79281C15.0613 8.64695 14.9147 8.5031 14.7674 8.36112C15.0342 8.38461 15.2978 8.41151 15.5582 8.44173C15.5884 8.7021 15.6153 8.96584 15.6388 9.23259C15.4968 9.08537 15.353 8.93868 15.2072 8.79281ZM13.8571 7.51656C13.4517 7.15454 13.0435 6.80828 12.6348 6.4801C13.4026 5.90841 14.1648 5.40726 14.9036 4.98998C15.131 5.80753 15.3156 6.70082 15.4543 7.64797C14.9332 7.591 14.3997 7.5472 13.8571 7.51656ZM12.6162 7.47012C12.4117 7.46633 12.2063 7.46436 12 7.46436C11.7937 7.46436 11.5883 7.46638 11.3838 7.47012C11.589 7.29807 11.7945 7.13064 12 6.96788C12.2055 7.13064 12.411 7.29807 12.6162 7.47012ZM10.1429 7.51656C9.60031 7.5472 9.06682 7.591 8.54576 7.64797C8.68447 6.70082 8.86901 5.80748 9.09641 4.98998C9.83528 5.40731 10.5974 5.90846 11.3653 6.4801C10.9565 6.80828 10.5482 7.15454 10.1429 7.51656ZM9.23264 8.36117C9.08537 8.50315 8.93868 8.647 8.79281 8.79286C8.64695 8.93873 8.5031 9.08537 8.36112 9.23269C8.38461 8.96594 8.41151 8.7022 8.44173 8.44183C8.70215 8.41156 8.96584 8.38466 9.23264 8.36117ZM7.51656 10.1429C7.15454 10.5482 6.80828 10.9565 6.4801 11.3652C5.90841 10.5974 5.40726 9.83523 4.98998 9.09636C5.80753 8.86901 6.70082 8.68442 7.64797 8.54571C7.591 9.06682 7.5472 9.60031 7.51656 10.1429ZM7.47012 11.3838C7.46633 11.5883 7.46436 11.7937 7.46436 12C7.46436 12.2063 7.46638 12.4117 7.47012 12.6162C7.29807 12.411 7.13064 12.2055 6.96788 12C7.13064 11.7945 7.29807 11.589 7.47012 11.3838ZM7.51656 13.8571C7.5472 14.3997 7.591 14.9332 7.64797 15.4543C6.70082 15.3156 5.80748 15.131 4.98998 14.9036C5.40731 14.1648 5.90846 13.4026 6.4801 12.6348C6.80828 13.0435 7.15454 13.4518 7.51656 13.8571ZM8.36117 14.7674C8.50315 14.9147 8.647 15.0613 8.79286 15.2072C8.93873 15.3531 9.08537 15.4969 9.23269 15.6389C8.96589 15.6154 8.7022 15.5885 8.44183 15.5583C8.41156 15.2978 8.38466 15.0341 8.36117 14.7674ZM10.1429 16.4834C10.5483 16.8455 10.9565 17.1917 11.3652 17.5199C10.5974 18.0916 9.83523 18.5927 9.09636 19.01C8.86901 18.1925 8.68442 17.2992 8.54571 16.352C9.06682 16.409 9.60031 16.4528 10.1429 16.4834ZM11.3838 16.5299C11.5883 16.5337 11.7937 16.5356 12 16.5356C12.2063 16.5356 12.4117 16.5336 12.6162 16.5299C12.411 16.7019 12.2055 16.8694 12 17.0321C11.7945 16.8694 11.589 16.7019 11.3838 16.5299ZM13.8571 16.4834C14.3997 16.4528 14.9332 16.409 15.4542 16.352C15.3155 17.2992 15.131 18.1925 14.9036 19.01C14.1647 18.5927 13.4026 18.0915 12.6347 17.5199C13.0435 17.1917 13.4518 16.8455 13.8571 16.4834ZM14.7674 15.6388C14.9146 15.4968 15.0613 15.353 15.2072 15.2071C15.3531 15.0613 15.4969 14.9146 15.6389 14.7673C15.6154 15.0341 15.5885 15.2978 15.5583 15.5582C15.2978 15.5884 15.0342 15.6153 14.7674 15.6388ZM16.4834 13.8571C16.8455 13.4517 17.1917 13.0435 17.5199 12.6348C18.0916 13.4026 18.5927 14.1648 19.01 14.9036C18.1925 15.131 17.2992 15.3156 16.352 15.4543C16.409 14.9332 16.4528 14.3997 16.4834 13.8571ZM16.5299 12.6162C16.5337 12.4117 16.5356 12.2063 16.5356 12C16.5356 11.7937 16.5336 11.5883 16.5299 11.3838C16.7019 11.589 16.8694 11.7945 17.0321 12C16.8694 12.2055 16.7019 12.411 16.5299 12.6162ZM16.4834 10.1429C16.4528 9.60031 16.409 9.06682 16.352 8.54571C17.2992 8.68442 18.1925 8.86896 19.01 9.09636C18.5927 9.83523 18.0915 10.5974 17.5199 11.3652C17.1917 10.9564 16.8455 10.5482 16.4834 10.1429ZM9.43387 3.92035C10.1472 1.92306 11.0825 0.777538 12 0.777538C12.9175 0.777538 13.8528 1.92306 14.5661 3.92035C14.6023 4.02158 14.6374 4.12489 14.672 4.22924C13.8034 4.70924 12.9038 5.30084 12 5.98492C11.0961 5.30084 10.1966 4.70924 9.32797 4.22924C9.36254 4.12494 9.39768 4.02158 9.43387 3.92035ZM4.47229 8.10137C3.56439 6.18464 3.41578 4.71328 4.0645 4.0645C4.33109 3.79791 4.73635 3.66599 5.2545 3.66599C5.99741 3.66599 6.97223 3.9374 8.10137 4.47224C8.19851 4.51827 8.29643 4.56648 8.39466 4.61578C8.11988 5.5694 7.90206 6.62384 7.74666 7.74666C6.62384 7.90206 5.5694 8.11983 4.61578 8.39461C4.56653 8.29643 4.51832 8.19851 4.47229 8.10137ZM3.92035 14.5661C1.92306 13.8528 0.777538 12.9175 0.777538 12C0.777538 11.0825 1.92306 10.1472 3.92035 9.43387C4.02158 9.39768 4.12489 9.36259 4.22924 9.32797C4.70924 10.1966 5.30084 11.0962 5.98492 12C5.30084 12.9039 4.70924 13.8034 4.22924 14.672C4.12494 14.6375 4.02158 14.6023 3.92035 14.5661ZM8.10143 19.5277C6.18469 20.4356 4.71333 20.5842 4.06455 19.9355C3.41578 19.2867 3.56444 17.8154 4.47235 15.8986C4.51838 15.8015 4.56658 15.7036 4.61588 15.6053C5.5695 15.8801 6.62395 16.0979 7.74676 16.2533C7.90217 17.3762 8.11993 18.4306 8.39476 19.3842C8.29643 19.4335 8.19857 19.4817 8.10143 19.5277ZM14.5661 20.0797C13.8528 22.0769 12.9175 23.2225 12 23.2225C11.0825 23.2225 10.1472 22.0769 9.43387 20.0797C9.39774 19.9784 9.36259 19.8751 9.32797 19.7708C10.1966 19.2908 11.0962 18.6992 12 18.0151C12.9039 18.6992 13.8034 19.2908 14.672 19.7708C14.6375 19.8751 14.6023 19.9784 14.5661 20.0797ZM19.5277 15.8986C20.4356 17.8153 20.5842 19.2867 19.9355 19.9354C19.2868 20.5842 17.8154 20.4356 15.8986 19.5277C15.8015 19.4816 15.7036 19.4334 15.6053 19.3841C15.8801 18.4305 16.0979 17.3761 16.2533 16.2532C17.3762 16.0978 18.4306 15.8801 19.3842 15.6052C19.4335 15.7036 19.4817 15.8014 19.5277 15.8986ZM18.015 12C18.6991 11.0961 19.2907 10.1965 19.7707 9.32797C19.8751 9.36259 19.9784 9.39768 20.0796 9.43387C22.0769 10.1472 23.2225 11.0825 23.2225 12C23.2225 12.9175 22.0769 13.8528 20.0797 14.5661C19.9784 14.6023 19.8751 14.6374 19.7708 14.672C19.2907 13.8034 18.6991 12.9039 18.015 12Z" fill="#7A869A"/>
</svg>
