<svg width="15" height="15" viewBox="0 0 15 15" fill="none" xmlns="http://www.w3.org/2000/svg">
<path d="M6.02362 7.8474e-07L6.02362 7.41177C6.02362 9.43137 5.48229 11.0882 4.39961 12.3824C3.31693 13.6961 1.85039 14.5686 0 15L-2.87981e-07 11.7059C0.570866 11.5294 1.03347 11.3137 1.3878 11.0588C1.74213 10.8039 2.01772 10.5 2.21457 10.1471C2.41142 9.79412 2.53937 9.38235 2.59843 8.91177C2.65748 8.46079 2.68701 7.96079 2.68701 7.41177L2.68701 6.61765L-7.32809e-07 6.61765L-1.31134e-06 1.31134e-06L6.02362 7.8474e-07ZM15 0L15 7.41176C15 9.43137 14.4587 11.0882 13.376 12.3824C12.2933 13.6961 10.8268 14.5686 8.97638 15L8.97638 11.7059C9.54724 11.5294 10.0098 11.3137 10.3642 11.0588C10.7185 10.8039 10.9941 10.5 11.1909 10.1471C11.3681 9.79412 11.4961 9.38235 11.5748 8.91177C11.6339 8.46079 11.6634 7.96079 11.6634 7.41176L11.6634 6.61765L8.97638 6.61765L8.97638 5.26602e-07L15 0Z" fill="#DFE1E6"/>
</svg>
