<svg width="24" height="24" viewBox="0 0 24 24" fill="none" xmlns="http://www.w3.org/2000/svg">
<path d="M14.3093 8.56708C13.9442 8.56708 13.5791 8.69819 13.5791 9.00709V12.1899L12.0626 9.29729C11.7068 8.61391 11.5103 8.56708 10.986 8.56708C10.6209 8.56708 10.2559 8.70751 10.2559 9.01642V14.9608C10.2559 15.2603 10.6209 15.4101 10.986 15.4101C11.3511 15.4101 11.7162 15.2603 11.7162 14.9608V11.778L13.4948 15.017C13.6727 15.3446 13.9723 15.4102 14.3093 15.4102C14.6743 15.4102 15.0394 15.2604 15.0394 14.9608V9.00704C15.0394 8.69819 14.6743 8.56708 14.3093 8.56708Z" fill="#7A869A"/>
<path d="M9.17962 9.8402C9.46045 9.8402 9.61964 9.54067 9.61964 9.19431C9.61964 8.89473 9.48853 8.56708 9.17962 8.56708H5.84701C5.52873 8.56708 5.21045 8.71684 5.21045 9.01642V14.9608C5.21045 15.2604 5.52873 15.4102 5.84701 15.4102H9.17962C9.48853 15.4102 9.61964 15.0825 9.61964 14.7829C9.61964 14.4366 9.46045 14.137 9.17962 14.137H6.67083V12.5456H8.07502C8.38397 12.5456 8.51498 12.2461 8.51498 11.9934C8.51498 11.6938 8.35584 11.4223 8.07502 11.4223H6.67083V9.8402H9.17962Z" fill="#7A869A"/>
<path d="M20.5379 12L23.9093 4.90223C24.0473 4.6118 24.0268 4.27087 23.855 3.99909C23.6831 3.72731 23.384 3.5625 23.0625 3.5625H0.937498C0.419718 3.5625 0 3.98222 0 4.5V19.5C0 20.0178 0.419718 20.4375 0.937498 20.4375H23.0625C23.384 20.4375 23.6831 20.2727 23.8549 20.0009C24.0267 19.7291 24.0473 19.3882 23.9093 19.0977L20.5379 12ZM1.875 18.5625V5.4375H21.5792L18.6531 11.5978C18.5322 11.8523 18.5322 12.1477 18.6531 12.4022L21.5792 18.5625H1.875Z" fill="#7A869A"/>
</svg>
