<svg width="24" height="24" viewBox="0 0 24 24" fill="none" xmlns="http://www.w3.org/2000/svg">
<path d="M20.1986 7.48627L20.1979 7.47054C20.1892 7.27631 20.1833 7.07083 20.1797 6.8422C20.1632 5.72731 19.277 4.80509 18.1619 4.74277C15.8371 4.61303 14.0386 3.85496 12.502 2.35717L12.4889 2.34467C11.9876 1.88511 11.2316 1.88511 10.7302 2.34467L10.7171 2.35717C9.18043 3.85496 7.38198 4.61303 5.05716 4.74292C3.94226 4.80509 3.05584 5.72731 3.03933 6.84236C3.03594 7.06944 3.02992 7.27493 3.02113 7.47054L3.0202 7.5071C2.975 9.87774 2.91885 12.8281 3.90585 15.5061C4.44857 16.9787 5.27051 18.2588 6.34869 19.3111C7.57666 20.5094 9.18506 21.4608 11.1291 22.1386C11.1924 22.1607 11.2581 22.1786 11.3251 22.192C11.4195 22.2108 11.5145 22.2203 11.6095 22.2203C11.7046 22.2203 11.7997 22.2108 11.894 22.192C11.961 22.1786 12.0271 22.1606 12.0907 22.1383C14.0325 21.4593 15.6392 20.5074 16.8661 19.3092C17.9438 18.2566 18.7657 16.9762 19.3089 15.5033C20.2996 12.8173 20.2436 9.86138 20.1986 7.48627ZM18.1957 15.0928C17.1547 17.9153 15.0297 19.8536 11.6992 21.0184C11.6873 21.0224 11.6746 21.0259 11.6615 21.0285C11.6271 21.0353 11.5921 21.0353 11.5572 21.0284C11.5443 21.0258 11.5316 21.0224 11.5199 21.0184C8.18587 19.8558 6.05944 17.9185 5.01921 15.0959C4.10949 12.6274 4.16101 9.91908 4.20652 7.52978L4.20683 7.51651C4.21609 7.31118 4.22226 7.09613 4.22565 6.85979C4.23306 6.36474 4.62737 5.95516 5.12334 5.92755C6.43894 5.85412 7.59471 5.59988 8.65669 5.15035C9.71729 4.70143 10.6592 4.06862 11.5361 3.21582C11.5807 3.17818 11.6385 3.17803 11.683 3.21582C12.56 4.06862 13.5019 4.70143 14.5624 5.15035C15.6244 5.59988 16.7801 5.85412 18.0959 5.92755C18.5919 5.95516 18.9862 6.36474 18.9934 6.85994C18.997 7.09752 19.0031 7.31257 19.0124 7.51651C19.0578 9.90859 19.108 12.6191 18.1957 15.0928Z" fill="#7A869A" stroke="#7A869A" stroke-width="0.5"/>
<path d="M11.6095 7.07135C8.83081 7.07135 6.57031 9.332 6.57031 12.1105C6.57031 14.8892 8.83081 17.1499 11.6095 17.1499C14.388 17.1499 16.6487 14.8892 16.6487 12.1105C16.6487 9.332 14.388 7.07135 11.6095 7.07135ZM11.6095 15.9632C9.48506 15.9632 7.75679 14.235 7.75679 12.1105C7.75679 9.9861 9.48506 8.25783 11.6095 8.25783C13.7338 8.25783 15.462 9.9861 15.462 12.1105C15.462 14.235 13.7338 15.9632 11.6095 15.9632Z" fill="#7A869A" stroke="#7A869A" stroke-width="0.5"/>
<path d="M13.0574 10.546L10.7169 12.8866L10.0816 12.2513C9.84987 12.0196 9.47423 12.0196 9.24252 12.2513C9.01096 12.483 9.01096 12.8587 9.24252 13.0902L10.2974 14.1451C10.4133 14.261 10.5651 14.3188 10.7169 14.3188C10.8687 14.3188 11.0205 14.261 11.1363 14.1451L13.8965 11.3849C14.128 11.1532 14.128 10.7776 13.8965 10.546C13.6648 10.3142 13.2891 10.3142 13.0574 10.546Z" fill="#7A869A" stroke="#7A869A" stroke-width="0.5"/>
</svg>
