<svg width="24" height="24" viewBox="0 0 24 24" fill="none" xmlns="http://www.w3.org/2000/svg">
<path d="M15.0002 2.99999C15.0092 3.39949 14.9384 3.79678 14.7918 4.16852C14.6451 4.54026 14.4257 4.87897 14.1464 5.16475C13.8671 5.45052 13.5335 5.67762 13.1652 5.8327C12.7969 5.98777 12.4013 6.06771 12.0017 6.06781C11.6021 6.06791 11.2065 5.98817 10.8381 5.83328C10.4698 5.67839 10.1361 5.45146 9.8566 5.16582C9.57714 4.88018 9.35756 4.54159 9.21075 4.16992C9.06395 3.79825 8.99288 3.401 9.00171 3.00149C9.01904 2.21764 9.34255 1.47173 9.90297 0.923431C10.4634 0.375128 11.2162 0.0680062 12.0002 0.0678102C12.7843 0.0676141 13.5372 0.374359 14.0979 0.922382C14.6586 1.4704 14.9825 2.21615 15.0002 2.99999Z" fill="#7A869A"/>
<path d="M15 12V9.75L17.7 12.45C18.15 12.9 18.75 12.9 19.2 12.45C19.65 12 19.65 11.25 19.2 10.95L15.3 7.05C14.7 6.3 13.8 6 12.75 6H11.25C10.2 6 9.3 6.3 8.7 7.05L4.8 10.95C4.35 11.4 4.35 12.15 4.8 12.45C5.25 12.9 5.85 12.9 6.3 12.45L9 9.75V12L3 19.5H9V24H15V19.5H21L15 12Z" fill="#7A869A"/>
</svg>
