<svg width="24" height="24" viewBox="0 0 24 24" fill="none" xmlns="http://www.w3.org/2000/svg">
<path d="M22.9387 12.3136C22.8248 11.7788 22.2424 11.3483 21.1871 11.0309C20.3025 10.7657 19.1903 10.6091 17.9642 10.583L17.8459 5.63489C17.6839 5.1479 17.1015 4.75222 16.1162 4.45655C15.131 4.16088 13.8479 4 12.4948 4C11.1461 4 9.87182 4.16088 8.90844 4.45655C8.11584 4.70005 7.16561 5.15225 7.16561 5.93056C7.16561 5.97839 7.16998 6.02622 7.17874 6.07405L7.22691 8.05679C6.90287 7.99592 6.57444 7.96548 6.24164 7.96548C3.35151 7.96548 1 10.3004 1 13.1702C1 16.0443 3.34275 18.3749 6.23726 18.3749C7.44148 18.3749 8.61067 17.9618 9.54339 17.2096C10.3666 17.4009 11.3344 17.5053 12.3591 17.5139C12.5824 18.7184 15.2142 19.2706 17.6664 19.2706C19.0151 19.2706 20.285 19.1054 21.2572 18.8097C22.0585 18.5662 23 18.1096 23 17.3313L22.9387 12.3136ZM9.15366 5.29139C10.0382 5.02181 11.2249 4.86962 12.4861 4.86962C13.7341 4.86962 14.9646 5.02181 15.8579 5.29139C16.8125 5.57837 17.0183 5.87404 17.0183 5.93491C17.0183 5.99579 16.8125 6.29146 15.8579 6.57843C14.9689 6.84367 13.7385 7.0002 12.4904 7.0002C11.2818 7.0002 10.1346 6.86106 9.26314 6.60887C8.32166 6.33929 8.05454 6.03927 8.03264 5.94361C8.03264 5.93926 8.02826 5.93491 8.02388 5.93056C8.02388 5.83925 8.31728 5.54793 9.15366 5.29139ZM17.0884 7.0089V8.09593C17.0402 8.16985 17.0183 8.25246 17.0183 8.33942C17.0183 8.39595 16.8125 8.69597 15.8623 8.98294C14.9733 9.25253 13.7428 9.40471 12.4948 9.40471C11.4132 9.40471 10.3535 9.29166 9.51274 9.0786C9.4996 9.07425 9.48647 9.07425 9.47771 9.0699C9.06608 8.7438 8.60191 8.48291 8.11146 8.30029L8.08081 7.07412C8.38296 7.2263 8.69825 7.34805 9.02667 7.43501C9.97691 7.70894 11.2074 7.85678 12.4992 7.85678C13.8523 7.85678 15.1354 7.6959 16.1162 7.40023C16.449 7.31327 16.7775 7.17847 17.0884 7.0089ZM9.17556 16.3747C7.39331 17.9879 4.63018 17.8575 3.00995 16.0878C1.38973 14.3181 1.51672 11.5744 3.29896 9.96562C4.1047 9.23948 5.15127 8.83511 6.23726 8.83511C6.67516 8.83511 7.10868 8.90033 7.52906 9.02642C8.09833 9.20035 8.62818 9.49167 9.07922 9.883C9.81489 10.5048 10.3185 11.357 10.5155 12.2962C10.5725 12.5832 10.6031 12.8789 10.6031 13.1702C10.6075 14.392 10.0864 15.5573 9.17556 16.3747ZM10.2878 16.4704C10.6425 16.0399 10.9271 15.5573 11.1286 15.0399C11.5052 15.0703 11.8993 15.092 12.3065 15.0964C12.2978 15.1486 12.2978 15.1964 12.3065 15.2486L12.324 16.6487C11.6453 16.64 10.9666 16.5835 10.2878 16.4704ZM11.457 12.6528C11.7154 12.6701 11.9825 12.6788 12.2584 12.6832C12.2627 12.7136 12.2715 12.7441 12.2803 12.7745L12.2978 14.2224C11.9825 14.2181 11.6716 14.205 11.3782 14.1833C11.4439 13.8485 11.4789 13.505 11.4789 13.1658C11.4789 12.9963 11.4701 12.8267 11.457 12.6528ZM12.5255 11.8179C12.5123 11.8179 12.5036 11.8179 12.4904 11.8179C12.0657 11.8179 11.6628 11.8005 11.2862 11.7701C11.1242 11.1918 10.8571 10.6439 10.5068 10.1526C11.1636 10.2352 11.8292 10.2787 12.4904 10.2787C13.8436 10.2787 15.1266 10.1178 16.1075 9.82213C16.449 9.72647 16.7731 9.59168 17.084 9.4221V10.583C15.9893 10.6135 14.9602 10.7526 14.1413 10.9831C13.3706 11.2005 12.832 11.4788 12.5255 11.8179ZM13.1298 12.4658C13.2042 12.331 13.5326 12.0658 14.3865 11.831C15.2448 11.5918 16.3615 11.4614 17.535 11.4614H17.5701C18.8225 11.4614 20.0486 11.6049 20.9375 11.8744C21.8571 12.1527 22.0804 12.431 22.0936 12.5049V12.5093C22.0892 12.5745 21.8746 12.8745 20.9025 13.1615C20.0048 13.4267 18.8181 13.5702 17.5701 13.5702C16.4096 13.5702 15.293 13.4398 14.4347 13.2093C13.6115 12.9876 13.2568 12.731 13.1517 12.5832C13.1517 12.5441 13.1429 12.5049 13.1298 12.4658ZM22.1242 17.327C22.1242 17.3879 21.9315 17.6879 20.9988 17.9748C20.1055 18.2488 18.9232 18.401 17.662 18.401C16.3965 18.401 15.2186 18.2531 14.3384 17.9879C13.502 17.7314 13.2217 17.4444 13.2217 17.3487C13.2217 17.3444 13.2217 17.3444 13.2217 17.34L13.2174 17.0748L13.2042 16.0921C13.5545 16.2617 13.918 16.3921 14.2946 16.4834C15.2142 16.7226 16.3746 16.853 17.5701 16.853C18.9232 16.853 20.1931 16.6922 21.174 16.3965C21.4936 16.3008 21.8615 16.1704 22.1242 16.0008V17.327ZM22.0673 14.9181C22.0673 14.979 21.8658 15.2747 20.9244 15.5616C20.0267 15.8312 18.8356 15.9791 17.5657 15.9791C15.1835 15.9791 13.5633 15.4529 13.1867 15.0355L13.1692 13.6615C14.2026 14.1963 15.9411 14.4398 17.5701 14.4398C18.9013 14.4398 20.1668 14.2833 21.1433 13.9963C21.4849 13.9007 21.8133 13.7702 22.1286 13.6006V14.6877C22.1242 14.7529 22.0673 14.8312 22.0673 14.9181Z" fill="#7A869A" stroke="#7A869A" stroke-width="0.4"/>
</svg>
