<svg width="24" height="24" viewBox="0 0 24 24" fill="none" xmlns="http://www.w3.org/2000/svg">
<g clip-path="url(#clip0)">
<path d="M22.6501 14.39L12.0001 22.13L1.35014 14.39C1.20737 14.285 1.10146 14.1376 1.04758 13.9687C0.993694 13.7999 0.994592 13.6183 1.05014 13.45L2.27014 9.67002L4.71014 2.16002C4.73381 2.09883 4.77148 2.04403 4.82014 2.00002C4.89938 1.92764 5.00282 1.88751 5.11014 1.88751C5.21746 1.88751 5.32091 1.92764 5.40014 2.00002C5.45153 2.04969 5.48939 2.11164 5.51014 2.18002L7.95014 9.67002H16.0501L18.4901 2.16002C18.5138 2.09883 18.5515 2.04403 18.6001 2.00002C18.6794 1.92764 18.7828 1.88751 18.8901 1.88751C18.9975 1.88751 19.1009 1.92764 19.1801 2.00002C19.2315 2.04969 19.2694 2.11164 19.2901 2.18002L21.7301 9.69002L23.0001 13.45C23.0507 13.6235 23.0439 13.8087 22.9809 13.978C22.9178 14.1473 22.8018 14.2918 22.6501 14.39V14.39Z" stroke="#7A869A" stroke-width="2" stroke-linecap="round" stroke-linejoin="round"/>
</g>
<defs>
<clipPath id="clip0">
<rect width="24" height="24" fill="white"/>
</clipPath>
</defs>
</svg>
