<svg width="33" height="33" viewBox="0 0 33 33" fill="none" xmlns="http://www.w3.org/2000/svg">
<circle opacity="0.2" cx="16.1768" cy="16.4897" r="16" fill="#F9BD19"/>
<path d="M13.9167 11.5077C15.1487 11.5077 16.1707 11.8251 16.9827 12.4597C17.7947 13.0944 18.3314 13.9577 18.5927 15.0497H16.5207C16.306 14.5177 15.97 14.0977 15.5127 13.7897C15.0647 13.4817 14.5234 13.3277 13.8887 13.3277C13.366 13.3277 12.8947 13.4584 12.4747 13.7197C12.0547 13.9811 11.728 14.3544 11.4947 14.8397C11.2614 15.3251 11.1447 15.8944 11.1447 16.5477C11.1447 17.1917 11.2614 17.7564 11.4947 18.2417C11.728 18.7271 12.0547 19.1004 12.4747 19.3617C12.8947 19.6231 13.366 19.7537 13.8887 19.7537C14.5234 19.7537 15.0647 19.5997 15.5127 19.2917C15.97 18.9837 16.306 18.5637 16.5207 18.0317H18.5927C18.3314 19.1237 17.7947 19.9871 16.9827 20.6217C16.1707 21.2564 15.1487 21.5737 13.9167 21.5737C12.974 21.5737 12.1387 21.3637 11.4107 20.9437C10.692 20.5144 10.132 19.9171 9.73069 19.1517C9.33869 18.3864 9.14269 17.5184 9.14269 16.5477C9.14269 15.5677 9.33869 14.6951 9.73069 13.9297C10.132 13.1644 10.692 12.5717 11.4107 12.1517C12.1294 11.7224 12.9647 11.5077 13.9167 11.5077ZM19.3457 13.4537V11.6057H22.9017V21.4897H20.8297V13.4537H19.3457Z" fill="#F9BD19"/>
</svg>
