<svg width="33" height="33" viewBox="0 0 33 33" fill="none" xmlns="http://www.w3.org/2000/svg">
<circle opacity="0.2" cx="16.1768" cy="16.4897" r="16" fill="#A6CF4F"/>
<path d="M14.1874 16.3937C14.7847 16.5151 15.2607 16.7997 15.6154 17.2477C15.9794 17.6864 16.1614 18.2044 16.1614 18.8017C16.1614 19.6324 15.8814 20.2904 15.3214 20.7757C14.7707 21.2517 13.9681 21.4897 12.9134 21.4897H8.67139V11.6057H12.8294C13.8281 11.6057 14.5934 11.8251 15.1254 12.2637C15.6667 12.7024 15.9374 13.3184 15.9374 14.1117C15.9374 14.7277 15.7741 15.2317 15.4474 15.6237C15.1301 16.0157 14.7101 16.2724 14.1874 16.3937ZM10.6454 15.7497H12.4234C12.9181 15.7497 13.2914 15.6424 13.5434 15.4277C13.8047 15.2037 13.9354 14.8864 13.9354 14.4757C13.9354 14.0651 13.8094 13.7477 13.5574 13.5237C13.3054 13.2997 12.9181 13.1877 12.3954 13.1877H10.6454V15.7497ZM12.5214 19.8797C13.0441 19.8797 13.4454 19.7677 13.7254 19.5437C14.0054 19.3104 14.1454 18.9744 14.1454 18.5357C14.1454 18.0971 14.0007 17.7611 13.7114 17.5277C13.4314 17.2851 13.0301 17.1637 12.5074 17.1637H10.6454V19.8797H12.5214ZM17.1664 19.9357C20.3304 17.7424 21.9124 15.9224 21.9124 14.4757C21.9124 14.0371 21.8051 13.6917 21.5904 13.4397C21.3851 13.1877 21.0584 13.0617 20.6104 13.0617C19.6864 13.0617 19.1964 13.6917 19.1404 14.9517H17.2224C17.2784 13.7851 17.6331 12.9031 18.2864 12.3057C18.9398 11.6991 19.7658 11.3957 20.7644 11.3957C21.7818 11.3957 22.5611 11.6617 23.1024 12.1937C23.6531 12.7164 23.9284 13.4164 23.9284 14.2937C23.9284 14.9844 23.7231 15.6797 23.3124 16.3797C22.9111 17.0704 22.3978 17.7097 21.7724 18.2977C21.1471 18.8764 20.4891 19.3757 19.7984 19.7957H24.1244V21.4057H17.1664V19.9357Z" fill="#A6CF4F"/>
</svg>
