<svg width="33" height="33" viewBox="0 0 33 33" fill="none" xmlns="http://www.w3.org/2000/svg">
<circle opacity="0.2" cx="16.1768" cy="16.4897" r="16" fill="#A6BC22"/>
<path d="M15.8417 16.3937C16.439 16.5151 16.915 16.7997 17.2697 17.2477C17.6337 17.6864 17.8157 18.2044 17.8157 18.8017C17.8157 19.6324 17.5357 20.2904 16.9757 20.7757C16.425 21.2517 15.6224 21.4897 14.5677 21.4897H10.3257V11.6057H14.4837C15.4824 11.6057 16.2477 11.8251 16.7797 12.2637C17.321 12.7024 17.5917 13.3184 17.5917 14.1117C17.5917 14.7277 17.4284 15.2317 17.1017 15.6237C16.7844 16.0157 16.3644 16.2724 15.8417 16.3937ZM12.2997 15.7497H14.0777C14.5724 15.7497 14.9457 15.6424 15.1977 15.4277C15.459 15.2037 15.5897 14.8864 15.5897 14.4757C15.5897 14.0651 15.4637 13.7477 15.2117 13.5237C14.9597 13.2997 14.5724 13.1877 14.0497 13.1877H12.2997V15.7497ZM14.1757 19.8797C14.6984 19.8797 15.0997 19.7677 15.3797 19.5437C15.6597 19.3104 15.7997 18.9744 15.7997 18.5357C15.7997 18.0971 15.655 17.7611 15.3657 17.5277C15.0857 17.2851 14.6844 17.1637 14.1617 17.1637H12.2997V19.8797H14.1757ZM18.4707 13.4537V11.6057H22.0267V21.4897H19.9547V13.4537H18.4707Z" fill="#A6BC22"/>
</svg>
