<svg width="33" height="33" viewBox="0 0 33 33" fill="none" xmlns="http://www.w3.org/2000/svg">
<circle opacity="0.2" cx="16.1768" cy="16.4897" r="16" fill="#53BB2C"/>
<path d="M14.1992 19.5017H10.2372L9.5372 21.4897H7.4512L11.0912 11.7177H13.3452L16.9712 21.4897H14.8852L14.1992 19.5017ZM13.6672 18.0037L12.2112 13.8317L10.7552 18.0037H13.6672ZM17.6586 19.9357C20.8226 17.7424 22.4046 15.9224 22.4046 14.4757C22.4046 14.0371 22.2973 13.6917 22.0826 13.4397C21.8773 13.1877 21.5506 13.0617 21.1026 13.0617C20.1786 13.0617 19.6886 13.6917 19.6326 14.9517H17.7146C17.7706 13.7851 18.1253 12.9031 18.7786 12.3057C19.432 11.6991 20.258 11.3957 21.2566 11.3957C22.274 11.3957 23.0533 11.6617 23.5946 12.1937C24.1453 12.7164 24.4206 13.4164 24.4206 14.2937C24.4206 14.9844 24.2153 15.6797 23.8046 16.3797C23.4033 17.0704 22.89 17.7097 22.2646 18.2977C21.6393 18.8764 20.9813 19.3757 20.2906 19.7957H24.6166V21.4057H17.6586V19.9357Z" fill="#65BF43"/>
</svg>
