<svg width="33" height="33" viewBox="0 0 33 33" fill="none" xmlns="http://www.w3.org/2000/svg">
<circle opacity="0.2" cx="16.1768" cy="16.4897" r="16" fill="#F69720"/>
<path d="M12.2625 11.5077C13.4945 11.5077 14.5165 11.8251 15.3285 12.4597C16.1405 13.0944 16.6772 13.9577 16.9385 15.0497H14.8665C14.6518 14.5177 14.3158 14.0977 13.8585 13.7897C13.4105 13.4817 12.8692 13.3277 12.2345 13.3277C11.7118 13.3277 11.2405 13.4584 10.8205 13.7197C10.4005 13.9811 10.0738 14.3544 9.84051 14.8397C9.60718 15.3251 9.49051 15.8944 9.49051 16.5477C9.49051 17.1917 9.60718 17.7564 9.84051 18.2417C10.0738 18.7271 10.4005 19.1004 10.8205 19.3617C11.2405 19.6231 11.7118 19.7537 12.2345 19.7537C12.8692 19.7537 13.4105 19.5997 13.8585 19.2917C14.3158 18.9837 14.6518 18.5637 14.8665 18.0317H16.9385C16.6772 19.1237 16.1405 19.9871 15.3285 20.6217C14.5165 21.2564 13.4945 21.5737 12.2625 21.5737C11.3198 21.5737 10.4845 21.3637 9.75651 20.9437C9.03785 20.5144 8.47785 19.9171 8.07651 19.1517C7.68451 18.3864 7.48851 17.5184 7.48851 16.5477C7.48851 15.5677 7.68451 14.6951 8.07651 13.9297C8.47785 13.1644 9.03785 12.5717 9.75651 12.1517C10.4752 11.7224 11.3105 11.5077 12.2625 11.5077ZM18.0416 19.9357C21.2056 17.7424 22.7876 15.9224 22.7876 14.4757C22.7876 14.0371 22.6802 13.6917 22.4656 13.4397C22.2602 13.1877 21.9336 13.0617 21.4856 13.0617C20.5616 13.0617 20.0716 13.6917 20.0156 14.9517H18.0976C18.1536 13.7851 18.5082 12.9031 19.1616 12.3057C19.8149 11.6991 20.6409 11.3957 21.6396 11.3957C22.6569 11.3957 23.4362 11.6617 23.9776 12.1937C24.5282 12.7164 24.8036 13.4164 24.8036 14.2937C24.8036 14.9844 24.5982 15.6797 24.1876 16.3797C23.7862 17.0704 23.2729 17.7097 22.6476 18.2977C22.0222 18.8764 21.3642 19.3757 20.6736 19.7957H24.9996V21.4057H18.0416V19.9357Z" fill="#F69720"/>
</svg>
