<svg width="33" height="33" viewBox="0 0 33 33" fill="none" xmlns="http://www.w3.org/2000/svg">
<circle opacity="0.2" cx="16.1768" cy="16.4897" r="16" fill="#F47126"/>
<path d="M20.6807 16.5337C20.6807 17.5137 20.4754 18.3771 20.0647 19.1237C19.654 19.8704 19.0567 20.4537 18.2727 20.8737C17.498 21.2844 16.574 21.4897 15.5007 21.4897H11.9867V11.6057H15.5007C16.574 11.6057 17.498 11.8111 18.2727 12.2217C19.0567 12.6231 19.654 13.1971 20.0647 13.9437C20.4754 14.6811 20.6807 15.5444 20.6807 16.5337ZM15.3327 19.7257C16.3967 19.7257 17.218 19.4457 17.7967 18.8857C18.3847 18.3257 18.6787 17.5417 18.6787 16.5337C18.6787 15.5164 18.3847 14.7277 17.7967 14.1677C17.218 13.6077 16.3967 13.3277 15.3327 13.3277H13.9607V19.7257H15.3327Z" fill="#F47126"/>
</svg>
