<svg width="13" height="12" viewBox="0 0 13 12" fill="none" xmlns="http://www.w3.org/2000/svg">
<path d="M7.10196 2.30762C6.91835 2.30762 6.74226 2.38056 6.61242 2.51039C6.48259 2.64022 6.40965 2.81631 6.40965 2.99992C6.40965 3.18354 6.48259 3.35963 6.61242 3.48946C6.74226 3.61929 6.91835 3.69223 7.10196 3.69223C7.28557 3.69223 7.46166 3.61929 7.59149 3.48946C7.72133 3.35963 7.79427 3.18354 7.79427 2.99992C7.79427 2.81631 7.72133 2.64022 7.59149 2.51039C7.46166 2.38056 7.28557 2.30762 7.10196 2.30762ZM6.93581 4.50916C6.38657 4.55531 4.88657 5.75069 4.88657 5.75069C4.79427 5.81992 4.82196 5.81531 4.89581 5.94454C4.96965 6.06916 4.96042 6.07839 5.04811 6.01839C5.14042 5.95839 5.29273 5.86146 5.54657 5.70454C6.52504 5.07685 5.7035 6.52608 5.2835 8.96762C5.11734 10.1768 6.20657 9.55377 6.48811 9.36915C6.76504 9.18916 7.50811 8.67685 7.58196 8.62608C7.6835 8.55685 7.60965 8.50146 7.53119 8.38608C7.47581 8.30762 7.42042 8.363 7.42042 8.363C7.12042 8.56146 6.57119 8.97685 6.49734 8.71377C6.40965 8.45069 6.97273 6.64608 7.28196 5.40454C7.33273 5.10916 7.47119 4.463 6.93581 4.50916Z" fill="#7A7A7B"/>
<circle cx="6.21289" cy="6" r="5.5" stroke="#7A7A7B"/>
</svg>
