<svg width="26" height="24" viewBox="0 0 26 24" fill="none" xmlns="http://www.w3.org/2000/svg">
<g clip-path="url(#clip0)">
<path d="M19.3556 7.11111V7.31111H19.5556H20.8889C23.4742 7.31111 25.5778 9.41472 25.5778 12V19.1111C25.5778 21.6964 23.4742 23.8 20.8889 23.8H12.0276C10.6143 23.8 9.25481 23.3873 8.0983 22.6498L7.82813 22.4775L7.79203 22.7959C7.72796 23.3609 7.24859 23.8 6.66667 23.8H1.33333C0.707435 23.8 0.2 23.2926 0.2 22.6667V8.44444C0.2 7.81855 0.707435 7.31111 1.33333 7.31111H6.66667C7.29257 7.31111 7.8 7.81855 7.8 8.44444V8.45458V8.71973L8.05495 8.64688L9.35405 8.27568C9.35405 8.27568 9.35406 8.27568 9.35406 8.27568C10.7685 7.87159 11.7556 6.56298 11.7556 5.092V4C11.7556 1.90486 13.4604 0.2 15.5556 0.2C17.6507 0.2 19.3556 1.90486 19.3556 4V7.11111ZM5.33333 21.5333H5.53333V21.3333V9.77778V9.57778H5.33333H2.66667H2.46667V9.77778V21.3333V21.5333H2.66667H5.33333ZM7.8 19.1781V19.2387L7.83364 19.2892C8.76298 20.6818 10.3393 21.5333 12.0276 21.5333H20.8889C22.2247 21.5333 23.3111 20.4469 23.3111 19.1111V12C23.3111 10.6642 22.2247 9.57778 20.8889 9.57778H18.2222C17.5963 9.57778 17.0889 9.07034 17.0889 8.44444V4C17.0889 3.15434 16.4012 2.46667 15.5556 2.46667C14.7099 2.46667 14.0222 3.15434 14.0222 4V5.092C14.0222 7.56875 12.3582 9.77481 9.9767 10.4553L7.94506 11.0357L7.8 11.0771V11.228V19.1781Z" fill="#7A869A" stroke="white" stroke-width="0.4"/>
</g>
<defs>
<clipPath id="clip0">
<rect width="25.7778" height="24" fill="white"/>
</clipPath>
</defs>
</svg>
