<svg width="24" height="24" viewBox="0 0 24 24" fill="none" xmlns="http://www.w3.org/2000/svg">
<g clip-path="url(#clip0)">
<path d="M15.0002 2.99999C15.0092 3.39949 14.9384 3.79678 14.7918 4.16852C14.6451 4.54026 14.4257 4.87897 14.1464 5.16475C13.8671 5.45052 13.5335 5.67762 13.1652 5.8327C12.7969 5.98777 12.4013 6.06771 12.0017 6.06781C11.6021 6.06791 11.2065 5.98817 10.8381 5.83328C10.4698 5.67839 10.1361 5.45146 9.8566 5.16582C9.57714 4.88018 9.35756 4.54159 9.21075 4.16992C9.06395 3.79825 8.99288 3.401 9.00171 3.00149C9.01904 2.21764 9.34255 1.47173 9.90297 0.923431C10.4634 0.375128 11.2162 0.0680062 12.0002 0.0678102C12.7843 0.0676141 13.5372 0.374359 14.0979 0.922382C14.6586 1.4704 14.9825 2.21615 15.0002 2.99999Z" fill="#7A869A"/>
<path d="M19.1852 10.98L15.2852 7.035C14.9621 6.7067 14.5769 6.44608 14.1519 6.26838C13.727 6.09067 13.2708 5.99943 12.8102 6H11.2052H11.2037C10.2317 6 9.35123 6.396 8.71523 7.035L4.81523 10.98C4.67164 11.0649 4.54934 11.1814 4.45765 11.3207C4.36596 11.46 4.30731 11.6185 4.28617 11.7839C4.26504 11.9494 4.28197 12.1175 4.33569 12.2754C4.38941 12.4333 4.47849 12.5768 4.59613 12.695C4.71377 12.8133 4.85687 12.9031 5.0145 12.9576C5.17213 13.0121 5.34013 13.0298 5.50568 13.0095C5.67122 12.9892 5.82994 12.9314 5.96972 12.8404C6.10951 12.7494 6.22665 12.6277 6.31223 12.4845L9.00023 9.795V24H11.2502V16.5H12.7502V24H15.0002V9.795L17.6252 12.495C17.719 12.6181 17.8378 12.7199 17.9738 12.7937C18.1098 12.8675 18.2599 12.9116 18.4142 12.9232C18.5685 12.9348 18.7235 12.9135 18.869 12.8608C19.0145 12.8082 19.1471 12.7252 19.2582 12.6176C19.3694 12.5099 19.4564 12.3798 19.5136 12.2361C19.5708 12.0923 19.5969 11.938 19.5901 11.7835C19.5833 11.6289 19.5439 11.4775 19.4744 11.3392C19.4048 11.201 19.3068 11.0791 19.1867 10.9815L19.1852 10.98Z" fill="#7A869A"/>
</g>
<defs>
<clipPath id="clip0">
<rect width="24" height="24" fill="white"/>
</clipPath>
</defs>
</svg>
