<svg width="24" height="24" viewBox="0 0 24 24" fill="none" xmlns="http://www.w3.org/2000/svg">
<mask id="mask0" mask-type="alpha" maskUnits="userSpaceOnUse" x="1" y="0" width="21" height="24">
<path fill-rule="evenodd" clip-rule="evenodd" d="M11.9424 2C9.83081 2 7.80571 2.84285 6.3126 4.34315C4.81949 5.84344 3.98066 7.87827 3.98066 10C3.98066 13.0981 5.98676 16.1042 8.1864 18.4373C9.26587 19.5822 10.3487 20.5195 11.1628 21.1708C11.4658 21.4133 11.7304 21.6152 11.9424 21.7726C12.1543 21.6152 12.419 21.4133 12.722 21.1708C13.5361 20.5195 14.6189 19.5822 15.6984 18.4373C17.898 16.1042 19.9041 13.0981 19.9041 10C19.9041 7.87827 19.0653 5.84344 17.5722 4.34315C16.0791 2.84285 14.054 2 11.9424 2ZM11.9424 23C11.3903 23.8321 11.3901 23.8319 11.3898 23.8317L11.387 23.8298L11.3803 23.8253L11.3575 23.8098C11.3381 23.7966 11.3105 23.7776 11.2752 23.753C11.2045 23.7038 11.1029 23.6321 10.9748 23.5392C10.7188 23.3534 10.3564 23.0822 9.92292 22.7354C9.05759 22.043 7.9012 21.0428 6.74144 19.8127C4.46261 17.3958 1.99023 13.9019 1.99023 10C1.99023 7.34784 3.03876 4.8043 4.90515 2.92893C6.77154 1.05357 9.30291 0 11.9424 0C14.5819 0 17.1132 1.05357 18.9796 2.92893C20.846 4.8043 21.8945 7.34784 21.8945 10C21.8945 13.9019 19.4222 17.3958 17.1433 19.8127C15.9836 21.0428 14.8272 22.043 13.9619 22.7354C13.5284 23.0822 13.166 23.3534 12.9099 23.5392C12.7819 23.6321 12.6803 23.7038 12.6096 23.753C12.5743 23.7776 12.5466 23.7966 12.5273 23.8098L12.5044 23.8253L12.4978 23.8298L12.4957 23.8312C12.4954 23.8314 12.4944 23.8321 11.9424 23ZM11.9424 23L12.4944 23.8321C12.1601 24.056 11.7241 24.0556 11.3898 23.8317L11.9424 23Z" fill="#061938"/>
<path fill-rule="evenodd" clip-rule="evenodd" d="M11.9423 8C10.843 8 9.95186 8.89543 9.95186 10C9.95186 11.1046 10.843 12 11.9423 12C13.0416 12 13.9327 11.1046 13.9327 10C13.9327 8.89543 13.0416 8 11.9423 8ZM7.96143 10C7.96143 7.79086 9.74372 6 11.9423 6C14.1409 6 15.9231 7.79086 15.9231 10C15.9231 12.2091 14.1409 14 11.9423 14C9.74372 14 7.96143 12.2091 7.96143 10Z" fill="#061938"/>
</mask>
<g mask="url(#mask0)">
<rect width="23.8852" height="24" fill="#7A869A"/>
</g>
</svg>
