<svg width="24" height="24" viewBox="0 0 24 24" fill="none" xmlns="http://www.w3.org/2000/svg">
<g clip-path="url(#clip0)">
<path d="M23.2971 10.7422C23.6853 10.7422 24 10.4275 24 10.0393V0.712469C24 0.324288 23.6853 0.00958252 23.2971 0.00958252H14.047C13.6588 0.00958252 13.3441 0.324288 13.3441 0.712469V4.67304H10.6688V0.712469C10.6688 0.324288 10.3541 0.00958252 9.96594 0.00958252H0.715725C0.327545 0.00958252 0.0128394 0.324288 0.0128394 0.712469V10.0393C0.0128394 10.4275 0.327545 10.7422 0.715725 10.7422H4.63792V13.2578H0.702886C0.314706 13.2578 0 13.5725 0 13.9607V23.2875C0 23.6757 0.314706 23.9904 0.702886 23.9904H9.95306C10.3412 23.9904 10.6559 23.6757 10.6559 23.2875V19.327H13.3441V23.2875C13.3441 23.6757 13.6588 23.9904 14.0469 23.9904H23.2971C23.6852 23.9904 24 23.6757 24 23.2875V13.9607C24 13.5725 23.6852 13.2578 23.2971 13.2578H19.3749V10.7422H23.2971ZM14.7499 1.41535H22.5942V9.33641H14.7499V1.41535ZM1.41861 1.41535H9.26301V9.33641H1.41861V1.41535ZM9.25017 22.5846H1.40577V14.6636H9.25017V22.5846ZM22.5942 22.5846H14.7499V14.6636H22.5942V22.5846ZM17.9691 13.2578H14.047C13.6588 13.2578 13.3441 13.5725 13.3441 13.9607V17.9212H10.656V13.9607C10.656 13.5725 10.3413 13.2578 9.9531 13.2578H6.04374V10.7422H9.96594C10.3541 10.7422 10.6688 10.4275 10.6688 10.0393V6.07877H13.3441V10.0393C13.3441 10.4275 13.6588 10.7422 14.047 10.7422H17.9691V13.2578Z" fill="#7A869A"/>
<path d="M6.04345 7.13556V6.06937H7.11544C7.50362 6.06937 7.81833 5.75467 7.81833 5.36649C7.81833 4.97831 7.50362 4.6636 7.11544 4.6636H6.04345V3.59742C6.04345 3.20924 5.72874 2.89453 5.34056 2.89453C4.95238 2.89453 4.63767 3.20924 4.63767 3.59742V4.6636H3.56568C3.1775 4.6636 2.86279 4.97831 2.86279 5.36649C2.86279 5.75467 3.1775 6.06937 3.56568 6.06937H4.63767V7.13556C4.63767 7.52374 4.95238 7.83844 5.34056 7.83844C5.72874 7.83844 6.04345 7.52374 6.04345 7.13556Z" fill="#7A869A"/>
<path d="M17.913 16.8754C17.638 16.6013 17.193 16.602 16.9189 16.877C16.6449 17.1519 16.6456 17.5969 16.9206 17.871L17.6761 18.6241L16.9206 19.3772C16.6457 19.6512 16.6449 20.0963 16.919 20.3712C17.0563 20.5089 17.2366 20.5779 17.4168 20.5779C17.5963 20.5779 17.7759 20.5095 17.913 20.3728L18.6718 19.6165L19.4307 20.3728C19.5679 20.5095 19.7474 20.5779 19.9269 20.5779C20.1071 20.5779 20.2874 20.5089 20.4247 20.3712C20.6988 20.0963 20.698 19.6512 20.4231 19.3772L19.6675 18.6241L20.4231 17.871C20.698 17.5969 20.6988 17.1519 20.4247 16.877C20.1506 16.602 19.7056 16.6013 19.4307 16.8754L18.6718 17.6317L17.913 16.8754Z" fill="#7A869A"/>
<path d="M7.10274 17.9212H3.55298C3.1648 17.9212 2.8501 18.2359 2.8501 18.6241C2.8501 19.0123 3.1648 19.327 3.55298 19.327H7.10274C7.49092 19.327 7.80562 19.0123 7.80562 18.6241C7.80562 18.2359 7.49092 17.9212 7.10274 17.9212Z" fill="#7A869A"/>
<path d="M16.9189 7.12311C17.0563 7.26088 17.2365 7.32981 17.4167 7.32981C17.5963 7.32981 17.7758 7.26149 17.9129 7.12475L20.423 4.6229C20.6979 4.34887 20.6987 3.9038 20.4246 3.62888C20.1504 3.35386 19.7054 3.35325 19.4306 3.62724L16.9206 6.12904C16.6456 6.40307 16.6449 6.84814 16.9189 7.12311Z" fill="#7A869A"/>
<path d="M17.4171 4.84485C17.8159 4.84485 18.1393 4.52255 18.1393 4.125C18.1393 3.72745 17.816 3.40515 17.4171 3.40515C17.0182 3.40515 16.6948 3.72745 16.6948 4.125C16.6948 4.52255 17.0182 4.84485 17.4171 4.84485Z" fill="#7A869A"/>
<path d="M19.9268 7.34668C20.3257 7.34668 20.6491 7.02439 20.6491 6.62683C20.6491 6.22927 20.3257 5.90698 19.9268 5.90698C19.5279 5.90698 19.2046 6.22927 19.2046 6.62683C19.2046 7.02439 19.5279 7.34668 19.9268 7.34668Z" fill="#7A869A"/>
</g>
<defs>
<clipPath id="clip0">
<rect width="24" height="24" fill="white"/>
</clipPath>
</defs>
</svg>
