<svg width="24" height="24" viewBox="0 0 24 24" fill="none" xmlns="http://www.w3.org/2000/svg">
<path d="M12 0C5.38331 0 0 5.38295 0 12C0 18.6171 5.38295 24 12 24C18.6171 24 24 18.6171 24 12C24 5.38295 18.6167 0 12 0ZM2.19787 12C2.19787 6.59507 6.59507 2.19787 12 2.19787C14.4352 2.19787 16.6646 3.09277 18.3808 4.56864L4.56864 18.3808C3.09277 16.6646 2.19787 14.4352 2.19787 12ZM12 21.8021C9.82118 21.8021 7.80683 21.0867 6.17748 19.8797L19.8794 6.17784C21.0864 7.8072 21.8018 9.82154 21.8018 12.0004C21.8021 17.4049 17.4049 21.8021 12 21.8021Z" fill="#7A869A"/>
</svg>
