<svg width="24" height="24" viewBox="0 0 24 24" fill="none" xmlns="http://www.w3.org/2000/svg">
<path d="M16.4 1H7.6C3.9601 1 1 3.9601 1 7.6V21.9C1 22.1917 1.11589 22.4715 1.32218 22.6778C1.52847 22.8841 1.80826 23 2.1 23H16.4C20.0399 23 23 20.0399 23 16.4V7.6C23 3.9601 20.0399 1 16.4 1ZM20.8 16.4C20.8 18.8266 18.8266 20.8 16.4 20.8H3.2V7.6C3.2 5.1734 5.1734 3.2 7.6 3.2H16.4C18.8266 3.2 20.8 5.1734 20.8 7.6V16.4Z" fill="#7A869A"/>
<path d="M11 6H13V14H11V6ZM11 16H13V18H11V16Z" fill="#7A869A"/>
</svg>
