<svg width="24" height="24" viewBox="0 0 24 24" fill="none" xmlns="http://www.w3.org/2000/svg">
<mask id="mask0" mask-type="alpha" maskUnits="userSpaceOnUse" x="1" y="1" width="23" height="23">
<path fill-rule="evenodd" clip-rule="evenodd" d="M12.9609 3.96045C7.99037 3.96045 3.96094 7.98989 3.96094 12.9604C3.96094 17.931 7.99037 21.9604 12.9609 21.9604C17.9315 21.9604 21.9609 17.931 21.9609 12.9604C21.9609 7.98989 17.9315 3.96045 12.9609 3.96045ZM1.96094 12.9604C1.96094 6.88532 6.8858 1.96045 12.9609 1.96045C19.0361 1.96045 23.9609 6.88532 23.9609 12.9604C23.9609 19.0356 19.0361 23.9604 12.9609 23.9604C6.8858 23.9604 1.96094 19.0356 1.96094 12.9604Z" fill="#061938"/>
<path fill-rule="evenodd" clip-rule="evenodd" d="M10.4891 8.07878C10.8142 7.90476 11.2088 7.92383 11.5156 8.1284L17.5156 12.1284C17.7938 12.3139 17.9609 12.6261 17.9609 12.9605C17.9609 13.2948 17.7938 13.607 17.5156 13.7925L11.5156 17.7925C11.2088 17.9971 10.8142 18.0161 10.4891 17.8421C10.1639 17.6681 9.96094 17.3292 9.96094 16.9605V8.96045C9.96094 8.59166 10.1639 8.2528 10.4891 8.07878ZM11.9609 10.829V15.0919L15.1582 12.9605L11.9609 10.829Z" fill="#061938"/>
</mask>
<g mask="url(#mask0)">
<rect width="24.4839" height="24.4839" fill="white"/>
</g>
</svg>
