<svg width="24" height="24" viewBox="0 0 24 24" fill="none" xmlns="http://www.w3.org/2000/svg">
<path d="M20.4853 3.52087C18.2188 1.25437 15.2053 0.00622559 12 0.00622559C10.0679 0.00622559 8.14739 0.476523 6.44602 1.36635C5.46497 1.8794 4.55583 2.5326 3.75 3.2954V0.00622559H1.875V6.56873H8.4375V4.69373H4.99978C6.86948 2.90896 9.37842 1.88123 12 1.88123C17.5829 1.88123 22.125 6.42323 22.125 12.0062C22.125 12.3171 22.1108 12.6304 22.0828 12.9376L23.9501 13.1076C23.9832 12.7442 24 12.3737 24 12.0063L23.0625 12.0062H24C24 8.80087 22.7518 5.78746 20.4853 3.52087Z" fill="#7A869A"/>
<path d="M4.11226 18.3547L2.65234 19.5313C3.07647 20.0575 3.54831 20.5514 4.05484 20.9992L5.29675 19.5945C4.86897 19.2162 4.47044 18.7992 4.11226 18.3547Z" fill="#7A869A"/>
<path d="M2.44765 15.3723L0.679199 15.9956C0.903918 16.6331 1.18526 17.2563 1.51554 17.8479L3.1527 16.934C2.87421 16.4352 2.63702 15.9097 2.44765 15.3723Z" fill="#7A869A"/>
<path d="M1.875 12.0062H0C0 12.6845 0.0571875 13.3649 0.169875 14.0286L2.01844 13.7147C1.92323 13.1544 1.875 12.5796 1.875 12.0062Z" fill="#7A869A"/>
<path d="M6.67181 20.6176L5.68359 22.211C6.2588 22.5677 6.86789 22.8773 7.49381 23.1311L8.1983 21.3935C7.67058 21.1796 7.15697 20.9184 6.67181 20.6176Z" fill="#7A869A"/>
<path d="M21.7837 14.6241C21.6366 15.1748 21.4411 15.7168 21.2026 16.2349L22.9058 17.019C23.1888 16.4043 23.4208 15.7611 23.5952 15.1076L21.7837 14.6241Z" fill="#7A869A"/>
<path d="M17.9792 20.1782C17.5183 20.516 17.026 20.8164 16.5161 21.071L17.3536 22.7486C17.9581 22.4468 18.5415 22.0908 19.0877 21.6904L17.9792 20.1782Z" fill="#7A869A"/>
<path d="M20.3567 17.7245C20.0341 18.1949 19.669 18.6414 19.2715 19.0516L20.618 20.3564C21.0886 19.8708 21.521 19.342 21.903 18.7848L20.3567 17.7245Z" fill="#7A869A"/>
<path d="M14.9236 21.7029C14.3784 21.8671 13.8145 21.9855 13.2476 22.0551L13.476 23.9162C14.1483 23.8336 14.8172 23.6931 15.464 23.4983L14.9236 21.7029Z" fill="#7A869A"/>
<path d="M9.83415 21.8993L9.43506 23.7313C10.0938 23.8748 10.7712 23.9632 11.4485 23.9938L11.5333 22.1207C10.9615 22.0949 10.3898 22.0203 9.83415 21.8993Z" fill="#7A869A"/>
</svg>
