<svg width="48" height="48" viewBox="0 0 48 48" fill="none" xmlns="http://www.w3.org/2000/svg">
<circle cx="24" cy="24" r="23.5" fill="white" stroke="#00218D"/>
<g clip-path="url(#clip0)">
<path d="M11.7334 29.8666H36.2667V36.4C36.2667 37.5045 35.3713 38.4 34.2667 38.4H13.7334C12.6288 38.4 11.7334 37.5045 11.7334 36.4V29.8666Z" fill="#FEECEB"/>
<path d="M34.0798 14.4H29.673C29.2078 11.6293 26.8092 9.60004 23.9998 9.60004C21.1903 9.60004 18.7918 11.6293 18.3265 14.4H13.9198C12.5949 14.4016 11.5213 15.4752 11.5198 16.8V36C11.5213 37.3249 12.5949 38.3985 13.9198 38.4H34.0798C35.4046 38.3985 36.4782 37.3249 36.4798 36V16.8C36.4782 15.4752 35.4046 14.4016 34.0798 14.4ZM23.9998 10.56C25.7571 10.5573 27.375 11.5166 28.2157 13.0598C29.0565 14.6029 28.9852 16.4824 28.0301 17.9575C27.4478 17.3122 26.7 16.8386 25.8677 16.588C26.7862 15.8053 27.1194 14.533 26.7023 13.4006C26.2853 12.2682 25.2065 11.5159 23.9998 11.5159C22.793 11.5159 21.7143 12.2682 21.2972 13.4006C20.8802 14.533 21.2134 15.8053 22.1319 16.588C21.2996 16.8386 20.5517 17.3122 19.9694 17.9575C19.0143 16.4824 18.9431 14.6029 19.7839 13.0598C20.6246 11.5166 22.2425 10.5573 23.9998 10.56ZM22.0798 14.4C22.0798 13.3396 22.9394 12.48 23.9998 12.48C25.0602 12.48 25.9198 13.3396 25.9198 14.4C25.9198 15.4604 25.0602 16.32 23.9998 16.32C22.9399 16.3189 22.0809 15.4599 22.0798 14.4ZM27.4178 18.7244C26.5175 19.6426 25.2857 20.16 23.9998 20.16C22.7139 20.16 21.482 19.6426 20.5817 18.7244C21.4338 17.7367 22.6976 17.2027 23.9998 17.28C25.3019 17.2027 26.5657 17.7367 27.4178 18.7244ZM35.5198 36C35.5189 36.7949 34.8747 37.4391 34.0798 37.44H13.9198C13.1248 37.4391 12.4806 36.7949 12.4798 36V16.8C12.4806 16.0051 13.1248 15.3609 13.9198 15.36H18.2398C18.2386 16.6924 18.7016 17.9836 19.5491 19.0116L19.5554 19.0201C20.6482 20.3496 22.2788 21.12 23.9998 21.12C25.7208 21.12 27.3514 20.3496 28.4442 19.0201L28.4505 19.0116C29.298 17.9836 29.761 16.6924 29.7598 15.36H34.0798C34.8747 15.3609 35.5189 16.0051 35.5198 16.8V36Z" fill="#00218D"/>
<path d="M22.2869 26.5749L22.0427 28.0725C22.0132 28.2539 22.0898 28.4363 22.24 28.5422C22.3903 28.648 22.5878 28.6588 22.7487 28.5699L23.9997 27.8785L25.2508 28.5697C25.4117 28.6586 25.6092 28.6479 25.7594 28.542C25.9097 28.4362 25.9863 28.2538 25.9567 28.0724L25.7126 26.5748L26.7433 25.5182C26.8689 25.3894 26.9119 25.2013 26.8547 25.0307C26.7976 24.8602 26.65 24.7359 26.4722 24.7087L25.0671 24.494L24.4343 23.1459C24.3552 22.9774 24.1859 22.8698 23.9997 22.8698C23.8136 22.8698 23.6443 22.9774 23.5652 23.1459L22.9324 24.494L21.5273 24.7087C21.3495 24.7359 21.2019 24.8602 21.1447 25.0307C21.0876 25.2013 21.1306 25.3894 21.2562 25.5182L22.2869 26.5749ZM23.3306 25.4043C23.4889 25.3802 23.6247 25.2788 23.6927 25.1338L23.9997 24.4796L24.3069 25.134C24.3749 25.2789 24.5108 25.3804 24.6691 25.4045L25.4038 25.5169L24.8563 26.078C24.7499 26.1871 24.7017 26.3402 24.7263 26.4905L24.8505 27.2518L24.2322 26.9101C24.0877 26.8301 23.9122 26.8301 23.7677 26.9101L23.1494 27.2518L23.2736 26.4905C23.2982 26.3402 23.2499 26.1871 23.1435 26.078L22.596 25.5169L23.3306 25.4043Z" fill="#FCA19C"/>
<path d="M15.5669 26.5749L15.3228 28.0725C15.2932 28.2539 15.3698 28.4363 15.5201 28.5422C15.6703 28.648 15.8678 28.6588 16.0287 28.5699L17.2798 27.8785L18.5308 28.5697C18.6917 28.6586 18.8892 28.6479 19.0395 28.542C19.1897 28.4362 19.2663 28.2538 19.2368 28.0724L18.9926 26.5748L20.0234 25.5182C20.1489 25.3894 20.1919 25.2013 20.1348 25.0307C20.0776 24.8602 19.93 24.7359 19.7522 24.7087L18.3471 24.494L17.7143 23.1459C17.6353 22.9774 17.4659 22.8698 17.2798 22.8698C17.0936 22.8698 16.9243 22.9774 16.8452 23.1459L16.2124 24.494L14.8073 24.7087C14.6296 24.7359 14.4819 24.8602 14.4248 25.0307C14.3676 25.2013 14.4107 25.3894 14.5362 25.5182L15.5669 26.5749ZM16.6107 25.4043C16.7689 25.3802 16.9048 25.2788 16.9728 25.1338L17.2798 24.4796L17.587 25.134C17.655 25.2789 17.7908 25.3804 17.9491 25.4045L18.6839 25.5169L18.1364 26.078C18.03 26.1871 17.9817 26.3402 18.0063 26.4905L18.1305 27.2518L17.5122 26.9101C17.3677 26.8301 17.1922 26.8301 17.0477 26.9101L16.4294 27.2518L16.5536 26.4905C16.5782 26.3402 16.53 26.1871 16.4235 26.078L15.8761 25.5169L16.6107 25.4043Z" fill="#FCA19C"/>
<path d="M29.0071 26.5749L28.7629 28.0725C28.7334 28.2539 28.81 28.4363 28.9603 28.5422C29.1105 28.648 29.308 28.6588 29.4689 28.5699L30.72 27.8785L31.9708 28.5697C32.1317 28.6587 32.3293 28.648 32.4796 28.5422C32.63 28.4363 32.7066 28.2539 32.677 28.0724L32.4328 26.5748L33.4635 25.5182C33.5891 25.3895 33.6321 25.2013 33.575 25.0308C33.518 24.8603 33.3704 24.736 33.1926 24.7087L31.7873 24.494L31.1545 23.1459C31.0754 22.9774 30.9061 22.8698 30.72 22.8698C30.5338 22.8698 30.3645 22.9774 30.2854 23.1459L29.6526 24.494L28.2475 24.7087C28.0697 24.7359 27.9221 24.8602 27.865 25.0307C27.8078 25.2013 27.8508 25.3894 27.9764 25.5182L29.0071 26.5749ZM30.0508 25.4043C30.2091 25.3802 30.345 25.2788 30.4129 25.1338L30.72 24.4796L31.0272 25.134C31.0951 25.2789 31.231 25.3804 31.3893 25.4045L32.1241 25.5169L31.5766 26.078C31.4702 26.1871 31.4219 26.3402 31.4465 26.4905L31.5705 27.2518L30.9524 26.9101C30.8078 26.8304 30.6325 26.8304 30.4879 26.9101L29.8696 27.2518L29.9938 26.4905C30.0184 26.3402 29.9701 26.1871 29.8637 26.078L29.3162 25.5169L30.0508 25.4043Z" fill="#FCA19C"/>
<path d="M14.8799 32.0962H20.6399C20.905 32.0962 21.1199 31.8813 21.1199 31.6162C21.1199 31.3511 20.905 31.1362 20.6399 31.1362H14.8799C14.6148 31.1362 14.3999 31.3511 14.3999 31.6162C14.3999 31.8813 14.6148 32.0962 14.8799 32.0962Z" fill="#00218D"/>
<path d="M33.1198 31.1362H22.5598C22.2947 31.1362 22.0798 31.3511 22.0798 31.6162C22.0798 31.8813 22.2947 32.0962 22.5598 32.0962H33.1198C33.3849 32.0962 33.5998 31.8813 33.5998 31.6162C33.5998 31.3511 33.3849 31.1362 33.1198 31.1362Z" fill="#00218D"/>
<path d="M33.1199 33.0562H14.8799C14.6148 33.0562 14.3999 33.2711 14.3999 33.5362C14.3999 33.8013 14.6148 34.0162 14.8799 34.0162H33.1199C33.385 34.0162 33.5999 33.8013 33.5999 33.5362C33.5999 33.2711 33.385 33.0562 33.1199 33.0562Z" fill="#00218D"/>
</g>
<defs>
<clipPath id="clip0">
<rect width="28.8" height="28.8" fill="white" transform="translate(9.6001 9.59998)"/>
</clipPath>
</defs>
</svg>
