<svg width="24" height="24" viewBox="0 0 24 24" fill="none" xmlns="http://www.w3.org/2000/svg">
<path d="M4.68852 5.59152H4.63852V5.64152V6.79239V6.84239H4.68852H8.55258H8.60258V6.79239V5.64152V5.59152H8.55258H4.68852ZM9.57586 2.96421L9.56129 2.95H9.54094H2.42969C2.16562 2.95 1.95 3.16047 1.95 3.42199V16.9365C1.95 17.198 2.16562 17.4085 2.42969 17.4085H4.63973V19.578C4.63973 19.8395 4.85535 20.05 5.11941 20.05H21.5703C21.8344 20.05 22.05 19.8395 22.05 19.578V7.38424C22.05 7.12272 21.8344 6.91225 21.5703 6.91225H19.3603V4.74272C19.3603 4.48121 19.1447 4.27074 18.8806 4.27074H10.9148L9.57586 2.96421ZM13.0835 8.14895L13.098 8.16316H13.1184H18.0884V15.7856C18.0884 15.9902 17.9193 16.1576 17.7087 16.1576H3.60156C3.39101 16.1576 3.22187 15.9902 3.22187 15.7856V4.57286C3.22187 4.36826 3.39101 4.20087 3.60156 4.20087H9.03738L13.0835 8.14895ZM17.7087 5.52161C17.9193 5.52161 18.0884 5.689 18.0884 5.89359V6.91225H13.6219L12.1967 5.52161H17.7087ZM20.7781 18.4271C20.7781 18.6317 20.609 18.7991 20.3984 18.7991H6.29129C6.08074 18.7991 5.9116 18.6317 5.9116 18.4271V17.4084H18.8806C19.1447 17.4084 19.3603 17.198 19.3603 16.9365V8.16312H20.3984C20.609 8.16312 20.7781 8.33052 20.7781 8.53511V18.4271Z" fill="#7A869A" stroke="#7A869A" stroke-width="0.1"/>
</svg>
