<svg width="24" height="24" viewBox="0 0 24 24" fill="none" xmlns="http://www.w3.org/2000/svg">
<g clip-path="url(#clip0)">
<path d="M10.2783 6.29218C10.2783 5.44651 9.59059 4.75848 8.7453 4.75848C7.89925 4.75848 7.21094 5.44651 7.21094 6.29218C7.21094 7.1386 7.8993 7.82724 8.7453 7.82724C9.59064 7.8272 10.2783 7.1386 10.2783 6.29218ZM8.14844 6.29218C8.14844 5.96345 8.41619 5.69598 8.7453 5.69598C9.0737 5.69598 9.34084 5.96345 9.34084 6.29218C9.34084 6.62167 9.0737 6.88975 8.7453 6.88975C8.41619 6.8897 8.14844 6.62167 8.14844 6.29218Z" fill="#7A869A" stroke="#7A869A" stroke-width="0.5"/>
<path d="M15.2546 7.82785C16.0999 7.82785 16.7876 7.13926 16.7876 6.29279C16.7876 5.44712 16.0999 4.75909 15.2546 4.75909C14.4085 4.75909 13.7202 5.44712 13.7202 6.29279C13.7202 7.13926 14.4085 7.82785 15.2546 7.82785ZM15.2546 5.69664C15.583 5.69664 15.8501 5.96411 15.8501 6.29284C15.8501 6.62233 15.583 6.8904 15.2546 6.8904C14.9255 6.8904 14.6577 6.62233 14.6577 6.29284C14.6577 5.96411 14.9254 5.69664 15.2546 5.69664Z" fill="#7A869A" stroke="#7A869A" stroke-width="0.5"/>
<path d="M18.021 17.1066H18.0224C18.2812 17.1066 18.4904 16.8968 18.4904 16.6379C18.4904 16.379 18.2799 16.1691 18.021 16.1691C17.7621 16.1691 17.5522 16.379 17.5522 16.6379C17.5522 16.8968 17.7622 17.1066 18.021 17.1066Z" fill="#7A869A" stroke="#7A869A" stroke-width="0.5"/>
<path d="M21.9487 15.2528H20.835V14.2923C20.835 14.0334 20.6251 13.8235 20.3663 13.8235H19.8252V12.1898H21.489C21.7478 12.1898 21.9578 11.9799 21.9578 11.721C21.9578 9.24858 21.0458 6.87741 19.39 5.04431C19.3815 5.03484 19.3726 5.02566 19.364 5.01619L20.7842 3.59512C21.0372 3.73688 21.3233 3.81267 21.6212 3.81267C22.08 3.81267 22.5112 3.63394 22.8352 3.30975C23.1604 2.98519 23.3396 2.55338 23.3396 2.09386C23.3396 1.63448 23.1607 1.20286 22.8357 0.878344C22.5113 0.553734 22.08 0.375 21.6212 0.375C21.1625 0.375 20.7312 0.553734 20.4067 0.878344C19.8517 1.43367 19.7571 2.27742 20.1218 2.9317L18.7013 4.35314C17.2486 3.02958 15.4411 2.16492 13.4965 1.87106V1.64977C13.4965 1.15083 13.0907 0.744938 12.5919 0.744938H11.4067C10.908 0.744938 10.5022 1.15083 10.5022 1.64977V1.87106C8.55764 2.16492 6.75014 3.02963 5.29777 4.35328L3.87811 2.93184C4.24298 2.27756 4.1483 1.43367 3.59283 0.877922C2.92209 0.208594 1.83211 0.208875 1.16297 0.878344C0.493172 1.54856 0.493172 2.63911 1.16297 3.30933C1.49761 3.64416 1.93739 3.81155 2.37745 3.81155C2.66648 3.81155 2.95537 3.73884 3.21487 3.59438L4.63509 5.01638C4.62656 5.02575 4.6178 5.03489 4.60927 5.04431C2.95388 6.87731 2.0422 9.24844 2.0422 11.721C2.0422 11.9798 2.25211 12.1897 2.51095 12.1897H4.17478V13.8235H3.63239C3.37355 13.8235 3.16364 14.0333 3.16364 14.2922V15.2528H2.05125C0.920203 15.2528 0 16.1734 0 17.305V23.1562C0 23.4151 0.209906 23.625 0.46875 23.625H23.5312C23.7901 23.625 24 23.4151 24 23.1562V17.305C24 16.1734 23.0798 15.2528 21.9487 15.2528ZM21.0698 1.54106C21.2172 1.39364 21.413 1.3125 21.6212 1.3125C21.8295 1.3125 22.0253 1.39364 22.1726 1.54106C22.1728 1.5412 22.1729 1.54134 22.1731 1.54148C22.3208 1.68891 22.4022 1.88508 22.4022 2.09386C22.4022 2.30264 22.3208 2.49877 22.1727 2.64661C22.0253 2.79398 21.8295 2.87512 21.6213 2.87512C21.413 2.87512 21.2172 2.79398 21.0699 2.64661C20.7652 2.34183 20.7652 1.84584 21.0698 1.54106ZM2.93062 2.64619C2.62556 2.95055 2.13005 2.95083 1.82611 2.64666C1.52152 2.34188 1.52152 1.84589 1.82611 1.54111C2.13014 1.23689 2.6257 1.23717 2.9302 1.54111C3.2348 1.84584 3.2348 2.34183 2.93062 2.64619ZM3.16364 22.6875H0.9375V17.305C0.9375 16.6903 1.43709 16.1903 2.05125 16.1903H3.16364V22.6875ZM11.4397 2.28113C11.4397 2.28066 11.4397 2.28014 11.4397 2.27962V1.68244H12.559V2.27962V2.28113V3.16336H11.4397V2.28113ZM2.99161 11.2522C3.20723 7.01587 6.33127 3.51356 10.5022 2.82028V3.19598C10.5022 3.69492 10.908 4.10081 11.4067 4.10081H12.5919C13.0907 4.10081 13.4965 3.69492 13.4965 3.19598V2.82028C17.6681 3.51361 20.7927 7.01592 21.0084 11.2522H15.9201V9.67345C15.9201 9.41456 15.7102 9.2047 15.4514 9.2047H8.54864C8.2898 9.2047 8.07989 9.41456 8.07989 9.67345V11.2522H2.99161ZM14.9826 10.1423V11.2523H13.6187V10.1423H14.9826ZM12.6812 10.1423V11.2523H11.3174V10.1423H12.6812ZM10.3799 10.1423V11.2523H9.01739V10.1423H10.3799ZM9.91622 22.6875H7.62225V20.244H9.91622V22.6875ZM13.1463 22.6875H10.8537V20.244H13.1463V22.6875ZM16.3764 22.6875H14.0838V20.244H16.3764V22.6875ZM19.8975 22.6875H17.3139V19.7752C17.3139 19.5164 17.104 19.3065 16.8451 19.3065H7.1535C6.89466 19.3065 6.68475 19.5164 6.68475 19.7752V22.6875H4.10114V14.761H9.89466C10.1535 14.761 10.3634 14.5512 10.3634 14.2923C10.3634 14.0334 10.1535 13.8235 9.89466 13.8235H5.11233V12.1898H18.8877V13.8235H14.104C13.8452 13.8235 13.6353 14.0334 13.6353 14.2923C13.6353 14.5512 13.8452 14.761 14.104 14.761H19.8975V22.6875ZM23.0625 22.6875H20.835V16.1903H21.9487C22.5629 16.1903 23.0625 16.6904 23.0625 17.305V22.6875Z" fill="#7A869A" stroke="#7A869A" stroke-width="0.3"/>
<path d="M5.97607 16.1691C5.71723 16.1691 5.50732 16.379 5.50732 16.6379C5.50732 16.8968 5.71723 17.1066 5.97607 17.1066H5.97875C6.23759 17.1066 6.44618 16.8968 6.44618 16.6379C6.44618 16.379 6.23496 16.1691 5.97607 16.1691Z" fill="#7A869A" stroke="#7A869A" stroke-width="0.5"/>
<path d="M11.999 13.8233C11.7402 13.8233 11.5303 14.0332 11.5303 14.2921C11.5303 14.5509 11.7402 14.7608 11.999 14.7608H12.0017C12.2606 14.7608 12.4692 14.5509 12.4692 14.2921C12.4692 14.0332 12.2579 13.8233 11.999 13.8233Z" fill="#7A869A" stroke="#7A869A" stroke-width="0.5"/>
</g>
<defs>
<clipPath id="clip0">
<rect width="24" height="24" fill="white"/>
</clipPath>
</defs>
</svg>
