<svg width="15" height="15" viewBox="0 0 15 15" fill="none" xmlns="http://www.w3.org/2000/svg">
<path d="M8.97638 15V7.58824C8.97638 5.56863 9.51771 3.91176 10.6004 2.61765C11.6831 1.30392 13.1496 0.431373 15 0V3.29412C14.4291 3.47059 13.9665 3.68627 13.6122 3.94118C13.2579 4.19608 12.9823 4.5 12.7854 4.85294C12.5886 5.20588 12.4606 5.61765 12.4016 6.08823C12.3425 6.53921 12.313 7.03921 12.313 7.58824V8.38235H15V15H8.97638ZM0 15V7.58824C0 5.56863 0.541338 3.91176 1.62401 2.61765C2.70669 1.30392 4.17323 0.431373 6.02362 0V3.29412C5.45276 3.47059 4.99016 3.68627 4.63583 3.94118C4.2815 4.19608 4.00591 4.5 3.80905 4.85294C3.63189 5.20588 3.50394 5.61765 3.4252 6.08823C3.36614 6.53921 3.33661 7.03921 3.33661 7.58824V8.38235H6.02362V15H0Z" fill="#DFE1E6"/>
</svg>
