<svg width="48" height="48" viewBox="0 0 48 48" fill="none" xmlns="http://www.w3.org/2000/svg">
<circle cx="24" cy="24" r="23.5" fill="white" stroke="#00218D"/>
<path d="M11.4207 22.6805H12.2101L12.6312 23.5226L14.3154 24.3648L15.5785 23.9437L15.9996 22.6805H17.2101C18.867 22.6805 20.2101 24.0237 20.2101 25.6805V32.7858H8.42065V25.6805C8.42065 24.0237 9.7638 22.6805 11.4207 22.6805Z" fill="white"/>
<path d="M31.6321 22.6805H32.4216L32.8426 23.5226L34.5268 24.3648L35.79 23.9437L36.211 22.6805H37.4216C39.0784 22.6805 40.4216 24.0237 40.4216 25.6805V32.7858H28.6321V25.6805C28.6321 24.0237 29.9752 22.6805 31.6321 22.6805Z" fill="white"/>
<path d="M22.8281 26.892L21.9177 25.2078H21.0002C18.2388 25.2078 16.0002 27.4463 16.0002 30.2078V32.7867H32.8424V30.2078C32.8424 27.4463 30.6038 25.2078 27.8424 25.2078H27.38L26.3635 26.4615C26.1325 26.7464 25.855 26.9903 25.5428 27.1829C24.9846 27.5271 24.291 27.5685 23.6957 27.2932L22.8281 26.892Z" fill="#FCA19C"/>
<path d="M38.0972 22.3275H36.5848V21.4673C37.5259 20.8149 38.1442 19.7275 38.1442 18.4981V16.6267C38.1442 14.6353 36.5242 13.0152 34.5328 13.0152C32.5416 13.0152 30.9215 14.6353 30.9215 16.6267V18.4981C30.9215 19.7275 31.5396 20.8149 32.4809 21.4673V22.3272H30.968C29.4605 22.3272 28.1807 23.3932 27.8731 24.8272H26.9654V23.4585C28.2013 22.6338 29.0172 21.2271 29.0172 19.633V17.1707C29.0172 14.6363 26.9554 12.5745 24.421 12.5745C21.8865 12.5745 19.8247 14.6363 19.8247 17.1707V19.633C19.8247 21.2271 20.6406 22.6336 21.8765 23.4585V24.8272H20.9688C20.6612 23.3932 19.3814 22.3272 17.8739 22.3272H16.361V21.4673C17.3023 20.8149 17.9204 19.7275 17.9204 18.4981V16.6267C17.9204 14.6353 16.3003 13.0152 14.3092 13.0152C12.3178 13.0152 10.6977 14.6353 10.6977 16.6267V18.4981C10.6977 19.7275 11.316 20.8149 12.2571 21.4673V22.3275H10.7447C8.99898 22.3275 7.57886 23.7476 7.57886 25.4934V33.0537H8.5639V25.4934C8.5639 24.2906 9.54201 23.3123 10.7447 23.3123H12.307C12.512 24.229 13.3316 24.9164 14.3092 24.9164C15.2868 24.9164 16.1063 24.229 16.3114 23.3123H17.8739C18.8386 23.3123 19.6677 23.9458 19.9504 24.8272H19.7309C17.5197 24.8272 15.7208 26.6262 15.7208 28.8373V33.0537H16.7059V28.8373C16.7059 27.1692 18.0628 25.8123 19.7309 25.8123H21.9143C22.1209 27.0091 23.1658 27.9227 24.421 27.9227C25.6761 27.9227 26.721 27.0091 26.9276 25.8123H29.111C30.7792 25.8123 32.1361 27.1692 32.1361 28.8373V33.0537H33.1211V28.8373C33.1211 26.6262 31.3222 24.8272 29.111 24.8272H28.8916C29.1743 23.9458 30.0036 23.3123 30.968 23.3123H32.5305C32.7356 24.229 33.5552 24.9164 34.5328 24.9164C35.5103 24.9164 36.3299 24.229 36.535 23.3123H38.0972C39.2999 23.3123 40.278 24.2906 40.278 25.4934V33.0537H41.2631V25.4934C41.2631 23.7476 39.8429 22.3275 38.0972 22.3275ZM14.3092 14.0002C15.7427 14.0002 16.9107 15.1546 16.9346 16.5825C16.5936 16.1086 16.0441 15.8223 15.4505 15.8223H13.1676C12.5742 15.8223 12.0248 16.1088 11.6838 16.5825C11.7074 15.1546 12.8757 14.0002 14.3092 14.0002ZM15.3762 22.8643C15.3762 23.4529 14.8974 23.9314 14.3092 23.9314C13.7209 23.9314 13.2421 23.4529 13.2421 22.8643V21.9484C13.5796 22.0528 13.9378 22.1093 14.3092 22.1093C14.6805 22.1093 15.0388 22.0528 15.3762 21.9484V22.8643ZM14.3092 21.1245C12.9009 21.1245 11.7483 20.0102 11.6858 18.6171L12.4252 17.2499C12.5727 16.9767 12.8572 16.8071 13.1676 16.8071H15.4505C15.7609 16.8071 16.0457 16.9767 16.1932 17.2499L16.9325 18.6171C16.8701 20.0102 15.7175 21.1245 14.3092 21.1245ZM20.8095 17.1707C20.8095 15.1793 22.4295 13.5592 24.421 13.5592C26.4124 13.5592 28.0324 15.1793 28.0324 17.1707V17.6873L27.9029 17.4483C27.5092 16.7202 26.7506 16.2679 25.9228 16.2679H22.9191C22.0913 16.2679 21.3327 16.7202 20.9387 17.4483L20.8095 17.6873V17.1707ZM25.9804 25.3782C25.9804 26.2384 25.2809 26.9379 24.421 26.9379C23.5611 26.9379 22.8615 26.2384 22.8615 25.3782V23.9566C23.3488 24.1329 23.8738 24.2292 24.421 24.2292C24.9681 24.2292 25.4931 24.1329 25.9804 23.9566V25.3782ZM24.421 23.2444C22.4696 23.2444 20.8758 21.6884 20.8126 19.7522L21.8053 17.9168C22.0266 17.5071 22.4534 17.2527 22.9191 17.2527H25.9228C26.3885 17.2527 26.8153 17.5074 27.0366 17.9168L28.0294 19.7522C27.9661 21.6884 26.3723 23.2444 24.421 23.2444ZM34.5328 14.0002C35.9662 14.0002 37.1345 15.1546 37.1582 16.5825C36.8171 16.1086 36.2677 15.8223 35.6743 15.8223H33.3915C32.7978 15.8223 32.2484 16.1088 31.9073 16.5825C31.9312 15.1546 33.0993 14.0002 34.5328 14.0002ZM35.5998 22.8643C35.5998 23.4529 35.121 23.9314 34.5328 23.9314C33.9445 23.9314 33.4657 23.4529 33.4657 22.8643V21.9484C33.8032 22.0528 34.1614 22.1093 34.5328 22.1093C34.9041 22.1093 35.2624 22.0528 35.5998 21.9484V22.8643ZM34.5328 21.1245C33.1244 21.1245 31.9718 20.0102 31.9094 18.6171L32.6488 17.2499C32.7965 16.9767 33.081 16.8071 33.3915 16.8071H35.6743C35.9847 16.8071 36.2692 16.9767 36.4167 17.2499L37.1561 18.6171C37.0937 20.0102 35.9411 21.1245 34.5328 21.1245Z" fill="#00218D"/>
</svg>
