<svg width="48" height="48" viewBox="0 0 48 48" fill="none" xmlns="http://www.w3.org/2000/svg">
<circle cx="24" cy="24" r="23.5" fill="white" stroke="#00218D"/>
<ellipse cx="34.1334" cy="29.8667" rx="5.33333" ry="5.33333" fill="#FCA19C"/>
<path d="M25.7774 26.6412C25.9509 26.8146 26.2321 26.8146 26.4055 26.6412L27.7382 25.3085C27.9065 25.1342 27.9041 24.8572 27.7327 24.6858C27.5614 24.5145 27.2843 24.5121 27.11 24.6804L26.0915 25.699L25.9613 25.5688C25.787 25.4005 25.51 25.4029 25.3386 25.5743C25.1673 25.7456 25.1648 26.0227 25.3332 26.197L25.7774 26.6412Z" fill="#00218D"/>
<path d="M15.465 17.4386H24.3492C24.5945 17.4386 24.7934 17.2397 24.7934 16.9944C24.7934 16.7491 24.5945 16.5502 24.3492 16.5502H15.465C15.2196 16.5502 15.0208 16.7491 15.0208 16.9944C15.0208 17.2397 15.2196 17.4386 15.465 17.4386Z" fill="#FCA19C"/>
<path d="M27.7381 19.9282C27.5647 19.7548 27.2835 19.7548 27.11 19.9282L26.0915 20.9468L25.9613 20.8166C25.787 20.6483 25.5099 20.6507 25.3386 20.822C25.1673 20.9934 25.1648 21.2705 25.3332 21.4448L25.7774 21.889C25.9509 22.0624 26.2321 22.0624 26.4055 21.889L27.7381 20.5563C27.9116 20.3829 27.9116 20.1017 27.7381 19.9282Z" fill="#00218D"/>
<path d="M35.5351 27.4001L32.729 31.4082L31.7709 30.45C31.5966 30.2817 31.3195 30.2841 31.1482 30.4554C30.9768 30.6268 30.9744 30.9038 31.1428 31.0781L32.4754 32.4108C32.5587 32.4941 32.6717 32.5409 32.7895 32.5409C32.8023 32.5416 32.8152 32.5416 32.8281 32.5409C32.9589 32.5294 33.078 32.4606 33.1533 32.353L36.2627 27.9109C36.3595 27.7811 36.378 27.6089 36.311 27.4616C36.244 27.3142 36.1021 27.2149 35.9407 27.2025C35.7793 27.1901 35.6239 27.2664 35.5351 27.4018V27.4001Z" fill="#00218D"/>
<path d="M23.7405 21.6478C23.7405 21.459 23.5596 21.3059 23.3364 21.3059H15.2556C15.0325 21.3059 14.8516 21.459 14.8516 21.6478C14.8516 21.8366 15.0325 21.9897 15.2556 21.9897H23.3364C23.5596 21.9897 23.7405 21.8366 23.7405 21.6478Z" fill="#FCA19C"/>
<path d="M23.7405 26.434C23.7405 26.2452 23.5596 26.0922 23.3364 26.0922H15.2556C15.0325 26.0922 14.8516 26.2452 14.8516 26.434C14.8516 26.6229 15.0325 26.7759 15.2556 26.7759H23.3364C23.5596 26.7759 23.7405 26.6229 23.7405 26.434Z" fill="#FCA19C"/>
<path d="M23.7405 31.2203C23.7405 31.0315 23.5596 30.8784 23.3364 30.8784H15.2556C15.0325 30.8784 14.8516 31.0315 14.8516 31.2203C14.8516 31.4091 15.0325 31.5622 15.2556 31.5622H23.3364C23.5596 31.5622 23.7405 31.4091 23.7405 31.2203Z" fill="#FCA19C"/>
<path d="M33.6779 24.1015C33.229 24.1031 32.7817 24.1572 32.3453 24.2627V17.0639C32.3453 16.9461 32.2985 16.8331 32.2152 16.7498L27.3288 11.8635C27.2456 11.7802 27.1326 11.7334 27.0148 11.7333H14.1327C13.3967 11.7333 12.8 12.33 12.8 13.066V34.3183C12.8 35.0543 13.3967 35.6509 14.1327 35.6509H31.0127C31.3181 35.6493 31.6137 35.5428 31.85 35.3493C34.0202 36.0796 36.4168 35.4587 37.9594 33.7666C39.502 32.0745 39.8991 29.6308 38.9718 27.5373C38.0444 25.4438 35.9677 24.0959 33.6779 24.1015ZM27.459 13.2499L30.8288 16.6197H27.9032C27.6579 16.6197 27.459 16.4208 27.459 16.1754V13.2499ZM14.1327 34.7625C13.8873 34.7625 13.6885 34.5636 13.6885 34.3183V13.066C13.6885 12.8206 13.8873 12.6218 14.1327 12.6218H26.5706V16.1754C26.5706 16.9114 27.1672 17.5081 27.9032 17.5081H31.4569V24.5457C29.4629 25.3732 28.0982 27.2452 27.9204 29.3968C27.7427 31.5484 28.7817 33.619 30.6129 34.7625H14.1327ZM33.6779 34.7625C30.9793 34.7625 28.7916 32.5748 28.7916 29.8762C28.7916 27.1776 30.9793 24.9899 33.6779 24.9899C36.3766 24.9899 38.5643 27.1776 38.5643 29.8762C38.5611 32.5735 36.3753 34.7593 33.6779 34.7625Z" fill="#00218D"/>
</svg>
