<svg width="26" height="26" viewBox="0 0 26 26" fill="none" xmlns="http://www.w3.org/2000/svg">
<path d="M17.6976 13.468C17.9564 13.468 18.1663 13.2581 18.1663 12.9993C18.1663 12.7404 17.9564 12.5305 17.6976 12.5305H16.0444V11.6504H16.996C17.2549 11.6504 17.4648 11.4405 17.4648 11.1816C17.4648 10.9228 17.2549 10.7129 16.996 10.7129H16.0444V10.4229C16.0444 10.1641 15.8344 9.95418 15.5756 9.95418H15.287V9.00388C15.287 8.74504 15.0771 8.53513 14.8182 8.53513C14.5594 8.53513 14.3495 8.74504 14.3495 9.00388V9.95418H13.468V8.30231C13.468 8.04346 13.2581 7.83356 12.9992 7.83356C12.7404 7.83356 12.5305 8.04346 12.5305 8.30231V9.95418H11.6503V9.00388C11.6503 8.74504 11.4404 8.53513 11.1816 8.53513C10.9227 8.53513 10.7128 8.74504 10.7128 9.00388V9.95418H10.4229C10.164 9.95418 9.95412 10.1641 9.95412 10.4229V10.7129H9.00382C8.74498 10.7129 8.53507 10.9228 8.53507 11.1816C8.53507 11.4405 8.74498 11.6504 9.00382 11.6504H9.95412V12.5305H8.30225C8.0434 12.5305 7.8335 12.7404 7.8335 12.9993C7.8335 13.2581 8.0434 13.468 8.30225 13.468H9.95412V14.3496H9.00382C8.74498 14.3496 8.53507 14.5595 8.53507 14.8183C8.53507 15.0771 8.74498 15.2871 9.00382 15.2871H9.95412V15.5757C9.95412 15.8345 10.164 16.0444 10.4229 16.0444H10.7128V16.9961C10.7128 17.2549 10.9227 17.4648 11.1816 17.4648C11.4404 17.4648 11.6503 17.2549 11.6503 16.9961V16.0444H12.5305V17.6976C12.5305 17.9565 12.7404 18.1664 12.9992 18.1664C13.2581 18.1664 13.468 17.9565 13.468 17.6976V16.0444H14.3495V16.9961C14.3495 17.2549 14.5594 17.4648 14.8182 17.4648C15.0771 17.4648 15.287 17.2549 15.287 16.9961V16.0444H15.5756C15.8344 16.0444 16.0444 15.8345 16.0444 15.5757V15.2871H16.996C17.2549 15.2871 17.4648 15.0771 17.4648 14.8183C17.4648 14.5595 17.2549 14.3496 16.996 14.3496H16.0444V13.468H17.6976ZM10.8916 15.1069V10.8917H15.1069V15.1069H10.8916Z" fill="#7A869A" stroke="#7A869A" stroke-width="0.3"/>
<path d="M23.4072 11.4078C22.6927 11.4078 22.0868 11.881 21.8862 12.5305H20.0398C20.0385 12.5108 20.0374 12.491 20.0359 12.4713C20.0166 12.2131 19.7917 12.0197 19.5334 12.0389C19.2752 12.0583 19.0817 12.2833 19.1011 12.5415C19.2993 15.1821 17.7881 17.6371 15.3404 18.6505C12.2248 19.9415 8.63945 18.4566 7.34814 15.3404C6.05706 12.2248 7.54197 8.6395 10.6581 7.34814C13.1056 6.33423 15.9108 7.00178 17.6387 9.00934C17.8075 9.20556 18.1036 9.22773 18.2997 9.05884C18.496 8.88995 18.5181 8.59403 18.3492 8.39777C18.3361 8.38244 18.3226 8.36744 18.3092 8.35225L19.614 7.04758C19.8407 7.16786 20.095 7.23175 20.3591 7.23175C20.7846 7.23175 21.1845 7.06623 21.4851 6.76562C21.7857 6.46502 21.9512 6.06536 21.9512 5.64025C21.9512 5.21514 21.7857 4.81544 21.485 4.51487C21.1845 4.21427 20.7846 4.04875 20.359 4.04875C19.9335 4.04875 19.5336 4.21427 19.2331 4.51487C18.9324 4.81544 18.7669 5.21509 18.7669 5.64025C18.7669 5.90406 18.8308 6.15808 18.951 6.38472L17.6469 7.68888C16.4665 6.65406 14.9936 6.05805 13.4681 5.9575V4.11386C14.1183 3.91323 14.5922 3.30672 14.5922 2.5915C14.5922 1.71391 13.8776 1 12.9993 1C12.1217 1 11.4078 1.71391 11.4078 2.5915C11.4078 3.30658 11.881 3.913 12.5305 4.11377V5.95839C11.7783 6.0093 11.0252 6.18142 10.2993 6.48213C9.56931 6.78461 8.91695 7.19627 8.35323 7.69037L7.04758 6.38472C7.16781 6.15808 7.2317 5.90411 7.2317 5.64025C7.2317 5.21514 7.06619 4.81544 6.76558 4.51487C6.46497 4.21427 6.06531 4.04875 5.6402 4.04875C5.21509 4.04875 4.81544 4.21427 4.51487 4.51487C4.51487 4.51487 4.51487 4.51487 4.51483 4.51492C4.21422 4.81548 4.0487 5.21514 4.0487 5.64025C4.0487 6.06536 4.21422 6.46502 4.51483 6.76558C4.81539 7.06623 5.21505 7.23175 5.6402 7.23175C5.90402 7.23175 6.15803 7.16786 6.38467 7.04763L7.69155 8.35445C6.67661 9.51798 6.06672 10.9903 5.96158 12.5305H4.11377C3.91305 11.881 3.30662 11.4078 2.5915 11.4078C1.71391 11.4078 1 12.1217 1 12.9993C1 13.8776 1.71391 14.5922 2.5915 14.5922C3.30672 14.5922 3.91323 14.1182 4.11386 13.468H5.95984C6.00906 14.2164 6.17941 14.969 6.48208 15.6993C6.78461 16.4293 7.19706 17.0809 7.69112 17.6446L6.38472 18.951C6.15808 18.8308 5.90411 18.7669 5.64025 18.7669C5.21514 18.7669 4.81544 18.9324 4.51487 19.233C4.21427 19.5336 4.04875 19.9335 4.04875 20.359C4.04875 20.7845 4.21427 21.1844 4.51487 21.485C4.81544 21.7857 5.21509 21.9512 5.64025 21.9512C6.06531 21.9512 6.46502 21.7857 6.76558 21.4851C7.06623 21.1845 7.23175 20.7846 7.23175 20.3591C7.23175 20.095 7.16786 19.8407 7.04758 19.614L8.35459 18.3069C9.51812 19.3219 10.9902 19.932 12.5305 20.037V21.8861C11.881 22.0867 11.4077 22.6926 11.4077 23.4071C11.4077 24.2854 12.1217 25 12.9992 25C13.8775 25 14.5921 24.2854 14.5921 23.4071C14.5921 22.6925 14.1182 22.0865 13.468 21.886V20.0384C14.2163 19.9891 14.969 19.8192 15.6992 19.5166C16.4249 19.2161 17.0791 18.8055 17.6469 18.3098L18.951 19.614C18.8307 19.8407 18.7668 20.095 18.7668 20.3591C18.7668 20.7846 18.9324 21.1845 19.233 21.4851C19.5336 21.7857 19.9335 21.9512 20.359 21.9512C20.7845 21.9512 21.1844 21.7857 21.485 21.4851C21.485 21.4851 21.485 21.4851 21.485 21.485C21.7856 21.1845 21.9512 20.7846 21.9512 20.359C21.9512 19.9335 21.7856 19.5336 21.485 19.2331C21.1845 18.9324 20.7846 18.7669 20.359 18.7669C20.0949 18.7669 19.8407 18.8308 19.6139 18.9511L18.3105 17.6476C19.3183 16.4978 19.9384 15.0346 20.0408 13.468H21.886C22.0864 14.1183 22.6925 14.5922 23.4071 14.5922C24.2854 14.5922 24.9999 13.8776 24.9999 12.9993C25 12.1217 24.2855 11.4078 23.4072 11.4078ZM19.896 5.17783C20.0195 5.05427 20.184 4.98625 20.3591 4.98625C20.5342 4.98625 20.6987 5.05427 20.8222 5.17778C20.8222 5.17778 20.8222 5.17783 20.8222 5.17783C20.9457 5.30134 21.0137 5.46559 21.0137 5.64025C21.0137 5.81491 20.9457 5.97911 20.8222 6.10272C20.6987 6.22623 20.5342 6.29425 20.3591 6.29425C20.184 6.29425 20.0195 6.22623 19.896 6.10267C19.7724 5.97911 19.7044 5.81491 19.7044 5.64025C19.7044 5.46559 19.7725 5.30134 19.896 5.17783ZM12.3453 2.5915C12.3453 2.23089 12.6387 1.9375 12.9993 1.9375C13.3607 1.9375 13.6547 2.23089 13.6547 2.5915C13.6547 2.95286 13.3607 3.24681 12.9993 3.24681C12.6387 3.24686 12.3453 2.95286 12.3453 2.5915ZM6.10267 6.10267C5.97911 6.22623 5.81491 6.29425 5.64025 6.29425C5.46559 6.29425 5.30134 6.22623 5.17783 6.10267C5.05427 5.97911 4.98625 5.81491 4.98625 5.64025C4.98625 5.46559 5.05427 5.30134 5.17778 5.17783H5.17783C5.30134 5.05427 5.46559 4.98625 5.64025 4.98625C5.81491 4.98625 5.97911 5.05427 6.10272 5.17783C6.22623 5.30134 6.29425 5.46559 6.29425 5.64025C6.29425 5.81491 6.22623 5.97916 6.10267 6.10267ZM2.5915 13.6547C2.23089 13.6547 1.9375 13.3607 1.9375 12.9993C1.9375 12.6387 2.23089 12.3453 2.5915 12.3453C2.95286 12.3453 3.24681 12.6387 3.24681 12.9993C3.24686 13.3607 2.95286 13.6547 2.5915 13.6547ZM6.10267 20.8222C5.97911 20.9457 5.81491 21.0138 5.64025 21.0138C5.46559 21.0138 5.30134 20.9457 5.17783 20.8222C5.17783 20.8222 5.17783 20.8222 5.17778 20.8222C5.05427 20.6987 4.98625 20.5342 4.98625 20.3591C4.98625 20.184 5.05427 20.0195 5.17783 19.8959C5.30134 19.7724 5.46559 19.7044 5.64025 19.7044C5.81491 19.7044 5.97911 19.7724 6.10267 19.896C6.22623 20.0195 6.29425 20.184 6.29425 20.3591C6.29425 20.5342 6.22623 20.6987 6.10267 20.8222ZM13.6547 23.4072C13.6547 23.7685 13.3607 24.0625 12.9993 24.0625C12.6387 24.0625 12.3453 23.7685 12.3453 23.4072C12.3453 23.0466 12.6387 22.7532 12.9993 22.7532C13.3607 22.7531 13.6547 23.0465 13.6547 23.4072ZM19.896 19.896C20.0195 19.7724 20.184 19.7044 20.3591 19.7044C20.5342 19.7044 20.6987 19.7724 20.8222 19.896C20.9457 20.0195 21.0137 20.184 21.0137 20.3591C21.0137 20.5342 20.9457 20.6987 20.8222 20.8222C20.8222 20.8222 20.8222 20.8222 20.8222 20.8222C20.6987 20.9457 20.5342 21.0138 20.3591 21.0138C20.184 21.0138 20.0195 20.9457 19.8959 20.8222C19.7724 20.6987 19.7044 20.5342 19.7044 20.3591C19.7044 20.184 19.7725 20.0195 19.896 19.896ZM23.4072 13.6547C23.0466 13.6547 22.7532 13.3607 22.7532 12.9993C22.7532 12.6387 23.0466 12.3453 23.4072 12.3453C23.7685 12.3453 24.0625 12.6387 24.0625 12.9993C24.0625 13.3607 23.7685 13.6547 23.4072 13.6547Z" fill="#7A869A" stroke="#7A869A" stroke-width="0.3"/>
<path d="M18.874 10.0595C18.6424 10.1752 18.5486 10.4568 18.6643 10.6883L18.6656 10.691C18.7476 10.855 18.9123 10.9492 19.0837 10.9492C19.1544 10.9492 19.2262 10.9332 19.2938 10.8994C19.5254 10.7836 19.6186 10.5007 19.5028 10.2692C19.387 10.0375 19.1053 9.94359 18.874 10.0595Z" fill="#7A869A"/>
</svg>
