<svg width="24" height="24" viewBox="0 0 24 24" fill="none" xmlns="http://www.w3.org/2000/svg">
<path fill-rule="evenodd" clip-rule="evenodd" d="M4.1954 10.9302C3.85314 10.9302 3.57568 11.2077 3.57568 11.55V20.5211C3.57568 21.8902 4.68551 23 6.05456 23H15.4506C16.8196 23 17.9295 21.8902 17.9295 20.5211V11.55C17.9295 11.2077 17.652 10.9302 17.3097 10.9302H4.1954Z" stroke="#7A869A" stroke-width="1.5"/>
<path fill-rule="evenodd" clip-rule="evenodd" d="M3.60271 6.19974L3.03932 3.35401L5.40987 5.02616L3.60271 6.19974Z" stroke="#7A869A" stroke-width="1.1"/>
<path fill-rule="evenodd" clip-rule="evenodd" d="M6.42762 10.8469L4.14209 7.32751L6.21971 5.9783L9.41739 10.8469L6.42762 10.8469Z" stroke="#7A869A" stroke-width="1.1"/>
<path d="M15.0402 1H10.7021V10.9155H15.0402V1Z" stroke="#7A869A" stroke-width="1.1"/>
<path d="M12.7681 2.54926H14.8338" stroke="#7A869A" stroke-width="1.1" stroke-linecap="round" stroke-linejoin="round"/>
<path d="M12.7681 5.82538H14.8338" stroke="#7A869A" stroke-width="1.1" stroke-linecap="round" stroke-linejoin="round"/>
<path d="M13.6201 8.67609H14.9112" stroke="#7A869A" stroke-width="1.1" stroke-linecap="round" stroke-linejoin="round"/>
<path d="M17.9565 12.3911H20.6544C21.5101 12.3911 22.2037 13.0847 22.2037 13.9403V15.5733C22.2037 16.4289 21.5101 17.1226 20.6544 17.1226H17.9478" stroke="#7A869A" stroke-width="1.5"/>
</svg>
