<svg width="16" height="16" viewBox="0 0 16 16" fill="none" xmlns="http://www.w3.org/2000/svg">
<path fill-rule="evenodd" clip-rule="evenodd" d="M4.25502 3.31205C5.2815 2.49088 6.58357 1.99984 8.00033 1.99984C11.314 1.99984 14.0003 4.68613 14.0003 7.99984C14.0003 9.4166 13.5093 10.7187 12.6881 11.7451L4.25502 3.31205ZM3.31225 4.25489C2.49125 5.28131 2.00033 6.58324 2.00033 7.99984C2.00033 11.3135 4.68662 13.9998 8.00033 13.9998C9.41692 13.9998 10.7188 13.5089 11.7453 12.6879L3.31225 4.25489ZM8.00033 0.666504C3.95024 0.666504 0.666992 3.94975 0.666992 7.99984C0.666992 12.0499 3.95024 15.3332 8.00033 15.3332C12.0504 15.3332 15.3337 12.0499 15.3337 7.99984C15.3337 3.94975 12.0504 0.666504 8.00033 0.666504Z" fill="#090F69"/>
</svg>
