<svg width="12" height="13" viewBox="0 0 12 13" fill="none" xmlns="http://www.w3.org/2000/svg">
<path d="M9.91662 11.9353V11.9351L9.90576 11.9355C9.73001 11.9409 9.55885 11.8799 9.42637 11.7649L6.11067 8.45594L5.8633 8.20906L5.61606 8.45608L2.43953 11.6298C2.28559 11.7551 2.09115 11.8205 1.89229 11.8134L1.8923 11.8133L1.88411 11.8132C1.71827 11.8112 1.55454 11.7758 1.40272 11.7091C1.2509 11.6424 1.11412 11.5459 1.00052 11.4253L1.00066 11.4251L0.992517 11.417C0.647877 11.0743 0.587278 10.7555 0.58599 10.5728L0.58593 10.5643L0.585453 10.5558C0.575396 10.3759 0.636066 10.1993 0.754396 10.0635L3.98931 6.82966L4.23713 6.58191L3.98909 6.33439L0.830258 3.18215C0.830132 3.18203 0.830007 3.1819 0.829882 3.18177C0.67694 3.02725 0.444923 2.35857 1.05484 1.75073L1.05515 1.75042C1.40598 1.39991 1.72943 1.3417 1.9231 1.3417C2.17997 1.3417 2.34476 1.44376 2.39999 1.50059L2.39996 1.50062L2.40375 1.5044L5.6162 4.71021L5.86358 4.95707L6.11081 4.71006L9.28907 1.53466C9.44366 1.40914 9.63875 1.34371 9.83823 1.35087L9.83823 1.35098L9.8469 1.35107C10.013 1.35292 10.177 1.38836 10.329 1.45524C10.481 1.52213 10.6179 1.61907 10.7314 1.74021L10.7312 1.74033L10.7391 1.74822C11.3328 2.34298 11.1519 2.92994 10.9866 3.09418L10.9858 3.0949L7.73951 6.33829L7.49162 6.58596L7.73959 6.83356L11.0047 10.0938C11.0049 10.0941 11.0052 10.0943 11.0054 10.0946C11.0613 10.1519 11.1781 10.3455 11.1785 10.6432C11.1767 10.8076 11.1416 10.97 11.0753 11.1205L11.3956 11.2616L11.0753 11.1205C11.0088 11.2715 10.9122 11.4075 10.7914 11.5201L10.7913 11.5199L10.7832 11.5279C10.4321 11.8772 10.1101 11.9353 9.91662 11.9353Z" fill="#B3BAC5" stroke="white" stroke-width="0.7"/>
</svg>
