<svg width="30" height="31" viewBox="0 0 30 31" fill="none" xmlns="http://www.w3.org/2000/svg">
<path d="M29.3125 2.71349C29.1029 2.61635 28.8701 2.57633 28.6389 2.5977C28.4078 2.61908 28.1869 2.70104 28 2.83483C23.5781 6.0503 19.8281 4.48806 15.5 2.68315C11.1719 0.878243 6.07812 -1.23001 0.5 2.83483H0.484375L0.421875 2.88033L0.390625 2.91066L0.34375 2.95616L0.296875 3.00167L0.265625 3.04717L0.21875 3.09267C0.21875 3.10784 0.203125 3.123 0.1875 3.13817L0.15625 3.19884C0.15625 3.21401 0.140625 3.22918 0.140625 3.24434C0.124479 3.26127 0.113638 3.28232 0.109375 3.30501C0.0937501 3.32018 0.09375 3.33535 0.078125 3.36568C0.0625 3.39602 0.0625002 3.39602 0.0625002 3.41118C0.0625002 3.42635 0.0468749 3.45669 0.0468749 3.47185C0.0468749 3.48702 0.0312501 3.50219 0.0312501 3.51736C0.0312501 3.53252 0.0156248 3.56286 0.0156248 3.57802V3.65386C0.0156248 3.66903 0 3.69936 0 3.71453V29.2866C0 29.6084 0.131696 29.9171 0.366117 30.1446C0.600537 30.3722 0.918479 30.5 1.25 30.5C1.58152 30.5 1.89946 30.3722 2.13388 30.1446C2.3683 29.9171 2.5 29.6084 2.5 29.2866V22.6282C6.70312 19.8829 10.3281 21.3844 14.5 23.1287C17.0469 24.1752 19.7812 25.3128 22.7188 25.3128C24.875 25.3128 27.1406 24.7061 29.5 22.977C29.6544 22.8632 29.7797 22.7165 29.8664 22.5482C29.9531 22.3799 29.9988 22.1945 30 22.0063V3.80553C29.9981 3.58012 29.9332 3.35943 29.8121 3.16708C29.691 2.97473 29.5183 2.81795 29.3125 2.71349ZM27.5 21.3844C23.2969 24.1297 19.6719 22.6282 15.5 20.8839C11.6094 19.2762 7.28125 17.4713 2.5 19.8222V4.42739C6.70312 1.68211 10.3281 3.18367 14.5 4.92792C18.3906 6.53565 22.7188 8.34056 27.5 5.98963V21.3844Z" fill="#808080"/>
</svg>
