<svg width="21" height="22" viewBox="0 0 21 22" fill="none" xmlns="http://www.w3.org/2000/svg">
<path d="M2.93766 3.92532C3.86325 2.99238 4.96473 2.25232 6.17831 1.74801C7.39189 1.24369 8.69346 0.98514 10.0077 0.987318C11.3221 0.985262 12.624 1.24386 13.8379 1.74816C15.0517 2.25246 16.1536 2.99245 17.0797 3.92532C20.9787 7.82332 20.9787 14.1683 17.0797 18.0673C16.1536 19.0004 15.0516 19.7406 13.8375 20.2449C12.6234 20.7492 11.3213 21.0077 10.0067 21.0053C8.69253 21.0076 7.391 20.7492 6.17743 20.2451C4.96385 19.7409 3.86233 19.0011 2.93666 18.0683C-0.962345 14.1703 -0.962343 7.82532 2.93766 3.92532ZM9.82766 2.99632H10.1867C10.1257 2.99532 10.0677 2.98732 10.0067 2.98732C9.94566 2.98732 9.88866 2.99532 9.82766 2.99632ZM3.76566 15.9963H6.00866L7.26666 18.5123C8.14423 18.8365 9.07211 19.0034 10.0077 19.0053C10.9449 19.0036 11.8745 18.8364 12.7537 18.5113L14.0087 16.0063H16.2437C17.0682 14.9812 17.6258 13.7677 17.8667 12.4743L16.0087 9.99632L17.2247 7.56332C16.8366 6.73791 16.3093 5.98556 15.6657 5.33932C14.7649 4.43538 13.6608 3.76023 12.4457 3.37032L10.0087 4.99632L7.57066 3.37132C6.3559 3.76151 5.25193 4.43623 4.35066 5.33932C3.70775 5.98479 3.18073 6.73609 2.79266 7.56032L4.00866 9.99632L2.15066 12.4743C2.39036 13.7635 2.94517 14.9734 3.76566 15.9963Z" fill="#7A869A"/>
<path d="M13.5078 9.99609L12.0078 13.9961H8.00781L6.50781 9.99609L10.0078 7.49609L13.5078 9.99609Z" fill="#7A869A"/>
</svg>
