<svg width="18" height="18" viewBox="0 0 18 18" fill="none" xmlns="http://www.w3.org/2000/svg">
<path d="M9.66754 6.46032L2.58727 13.55C2.429 13.7085 2.3457 13.9254 2.3457 14.1422C2.3457 14.3591 2.429 14.5676 2.58727 14.7261L4.95291 17.0949C5.27777 17.4202 5.81087 17.4202 6.13573 17.0949L13.216 10.0052C13.3826 9.83836 13.4576 9.62984 13.4576 9.41298C13.4576 9.19612 13.3743 8.98759 13.216 8.82078L10.8587 6.46032C10.5255 6.13502 9.9924 6.13502 9.66754 6.46032ZM11.4418 9.41298L5.53599 15.3266L4.35317 14.1422L10.259 8.22858L11.4418 9.41298ZM13.8041 7.04334L12.6263 5.86395L16.1606 2.32493L17.3384 3.50432L13.8041 7.04334Z" fill="#7A869A"/>
<path d="M3.5951 6.49414C1.98746 6.49414 0.679688 5.18463 0.679688 3.57484C0.679688 1.96506 1.98746 0.655548 3.5951 0.655548C5.20274 0.655548 6.51051 1.96506 6.51051 3.57484C6.51051 5.18463 5.20274 6.49414 3.5951 6.49414Z" fill="#7A869A"/>
<path d="M3.59516 4.82617C4.28653 4.82617 4.84462 4.26733 4.84462 3.57504C4.84462 2.88275 4.28653 2.32392 3.59516 2.32392C2.9038 2.32392 2.3457 2.88275 2.3457 3.57504C2.3457 4.26733 2.9038 4.82617 3.59516 4.82617Z" fill="white"/>
</svg>
