<svg width="11" height="9" viewBox="0 0 11 9" fill="none" xmlns="http://www.w3.org/2000/svg">
<path fill-rule="evenodd" clip-rule="evenodd" d="M10.8003 1.21295C11.0666 0.93547 11.0666 0.485582 10.8003 0.208107C10.534 -0.0693689 10.1024 -0.0693689 9.83611 0.208107L6.1997 3.99762C5.93343 4.2751 5.93343 4.72492 6.1997 5.0024L9.83611 8.79189C10.1024 9.06937 10.534 9.06937 10.8003 8.79189C11.0666 8.5144 11.0666 8.06459 10.8003 7.7871L7.6461 4.50001L10.8003 1.21295ZM4.80029 1.21295C5.06657 0.93547 5.06657 0.485582 4.80029 0.208107C4.53402 -0.0693688 4.10238 -0.0693688 3.83611 0.208107L0.199699 3.99762C-0.0665662 4.2751 -0.0665662 4.72492 0.199699 5.0024L3.83611 8.79189C4.10238 9.06937 4.53402 9.06937 4.80029 8.79189C5.06657 8.5144 5.06657 8.06459 4.80029 7.7871L1.6461 4.50001L4.80029 1.21295Z" fill="white"/>
</svg>
