<svg width="16" height="20" viewBox="0 0 16 20" fill="none" xmlns="http://www.w3.org/2000/svg">
<path fill-rule="evenodd" clip-rule="evenodd" d="M0 2.75C0 1.23122 1.23122 0 2.75 0H10.7368C11.3006 0 11.8298 0.27157 12.1585 0.72955L15.1717 4.92745C15.3852 5.22488 15.5 5.58178 15.5 5.9479V16.75C15.5 18.2688 14.2688 19.5 12.75 19.5H2.75C1.23122 19.5 0 18.2688 0 16.75V2.75ZM2.75 1.5C2.05964 1.5 1.5 2.05964 1.5 2.75V16.75C1.5 17.4404 2.05964 18 2.75 18H12.75C13.4404 18 14 17.4404 14 16.75V6.64705H10.75C10.3358 6.64705 10 6.31126 10 5.89705V1.5H2.75ZM7.75 6.75C6.6454 6.75 5.75 7.64543 5.75 8.75C5.75 9.8546 6.6454 10.75 7.75 10.75C8.8546 10.75 9.75 9.8546 9.75 8.75C9.75 7.64543 8.8546 6.75 7.75 6.75ZM3.75 15.25C3.75 13.5931 5.09315 12.25 6.75 12.25H8.75C10.4069 12.25 11.75 13.5931 11.75 15.25C11.75 15.8023 11.3023 16.25 10.75 16.25H4.75C4.19772 16.25 3.75 15.8023 3.75 15.25Z" fill="#F7F8F8"/>
</svg>
