<svg width="22" height="22" viewBox="0 0 22 22" fill="none" xmlns="http://www.w3.org/2000/svg">
<g opacity="0.8">
<path d="M10.0625 3.73828H3.5C3.00272 3.73828 2.52581 3.93583 2.17417 4.28746C1.82254 4.63909 1.625 5.116 1.625 5.61328V18.7383C1.625 19.2356 1.82254 19.7125 2.17417 20.0641C2.52581 20.4157 3.00272 20.6133 3.5 20.6133H16.625C17.1223 20.6133 17.5992 20.4157 17.9508 20.0641C18.3025 19.7125 18.5 19.2356 18.5 18.7383V12.1758" stroke="#F7F8F8" stroke-width="2" stroke-linecap="round" stroke-linejoin="round"/>
<path d="M17.0938 2.33249C17.4667 1.95953 17.9726 1.75 18.5 1.75C19.0274 1.75 19.5333 1.95953 19.9062 2.33249C20.2792 2.70545 20.4887 3.21129 20.4887 3.73874C20.4887 4.26618 20.2792 4.77203 19.9062 5.14499L11 14.0512L7.25 14.9887L8.1875 11.2387L17.0938 2.33249Z" stroke="#F7F8F8" stroke-width="2" stroke-linecap="round" stroke-linejoin="round"/>
</g>
</svg>
