<svg width="22" height="16" viewBox="0 0 22 16" fill="none" xmlns="http://www.w3.org/2000/svg">
<path fill-rule="evenodd" clip-rule="evenodd" d="M21 12.0248C20.4 12.0248 20 11.6273 20 11.0311V2.68323C20 2.28571 19.8 1.98758 19.5 1.98758H4.09998C3.49998 1.98758 3.09998 1.59006 3.09998 0.993788C3.09998 0.397515 3.49998 0 4.09998 0H19.5C20.9 0 22 1.19255 22 2.68323V11.0311C22 11.5279 21.6 12.0248 21 12.0248ZM15.4 16H2.6C1.2 16 0 14.8075 0 13.4162V6.16149C0 4.77019 1.2 3.57764 2.6 3.57764H15.4C16.8 3.57764 18 4.77019 18 6.16149V13.4162C18 14.8075 16.8 16 15.4 16ZM2.6 5.56522C2.3 5.56522 2 5.86336 2 6.16149V13.4162C2 13.7143 2.3 14.0124 2.6 14.0124H15.4C15.7 14.0124 16 13.7143 16 13.4162V6.16149C16 5.86336 15.7 5.56522 15.4 5.56522H2.6ZM5.79999 9.73913C5.79999 11.528 7.19999 12.9193 8.99999 12.9193C10.8 12.9193 12.2 11.528 12.2 9.73913C12.2 7.95031 10.8 6.55901 8.99999 6.55901C7.19999 6.55901 5.79999 7.95031 5.79999 9.73913ZM7.79999 9.83851C7.79999 9.14286 8.29999 8.64596 8.99999 8.64596C9.7 8.64596 10.2 9.04348 10.2 9.73913C10.2 10.4348 9.7 10.9317 8.99999 10.9317C8.29999 10.9317 7.79999 10.5342 7.79999 9.83851ZM3.90001 10.4348C4.28661 10.4348 4.60001 10.1233 4.60001 9.73913C4.60001 9.35493 4.28661 9.04348 3.90001 9.04348C3.51341 9.04348 3.20001 9.35493 3.20001 9.73913C3.20001 10.1233 3.51341 10.4348 3.90001 10.4348ZM14.8 9.73913C14.8 10.1233 14.4866 10.4348 14.1 10.4348C13.7134 10.4348 13.4 10.1233 13.4 9.73913C13.4 9.35493 13.7134 9.04348 14.1 9.04348C14.4866 9.04348 14.8 9.35493 14.8 9.73913Z" fill="#F7F8F8"/>
</svg>
