<svg width="24" height="24" viewBox="0 0 24 24" fill="none" xmlns="http://www.w3.org/2000/svg">
<path d="M13.7781 4.61499C13.4109 4.61499 13.0587 4.76087 12.7991 5.02053C12.5394 5.2802 12.3935 5.63238 12.3935 5.99961C12.3935 6.36683 12.5394 6.71901 12.7991 6.97868C13.0587 7.23834 13.4109 7.38422 13.7781 7.38422C14.1454 7.38422 14.4975 7.23834 14.7572 6.97868C15.0169 6.71901 15.1628 6.36683 15.1628 5.99961C15.1628 5.63238 15.0169 5.2802 14.7572 5.02053C14.4975 4.76087 14.1454 4.61499 13.7781 4.61499ZM13.4458 9.01807C12.3474 9.11037 9.34737 11.5011 9.34737 11.5011C9.16275 11.6396 9.21814 11.6304 9.36583 11.8888C9.51352 12.1381 9.49506 12.1565 9.67044 12.0365C9.85506 11.9165 10.1597 11.7227 10.6674 11.4088C12.6243 10.1535 10.9812 13.0519 10.1412 17.935C9.80891 20.3535 11.9874 19.1073 12.5504 18.7381C13.1043 18.3781 14.5904 17.3535 14.7381 17.2519C14.9412 17.1135 14.7935 17.0027 14.6366 16.7719C14.5258 16.615 14.4151 16.7258 14.4151 16.7258C13.8151 17.1227 12.7166 17.9535 12.5689 17.4273C12.3935 16.9011 13.5197 13.2919 14.1381 10.8088C14.2397 10.2181 14.5166 8.92576 13.4458 9.01807Z" fill="#7A7A7B"/>
<circle cx="12" cy="12" r="11.5" stroke="#7A7A7B"/>
</svg>
