<svg width="14" height="14" viewBox="0 0 14 14" fill="none" xmlns="http://www.w3.org/2000/svg">
<circle cx="7" cy="7" r="6.5" fill="#F7F8F8" stroke="black"/>
<path d="M7.276 2.96C7.804 2.96 8.264 3.044 8.656 3.212C9.048 3.38 9.352 3.62 9.568 3.932C9.792 4.244 9.904 4.616 9.904 5.048C9.904 5.512 9.8 5.9 9.592 6.212C9.392 6.516 9.12 6.748 8.776 6.908C8.44 7.068 8.064 7.172 7.648 7.22V8.504H6.652V6.704C7.236 6.616 7.688 6.508 8.008 6.38C8.336 6.252 8.564 6.092 8.692 5.9C8.828 5.708 8.896 5.472 8.896 5.192C8.896 4.912 8.832 4.672 8.704 4.472C8.584 4.272 8.4 4.12 8.152 4.016C7.904 3.912 7.588 3.86 7.204 3.86C6.676 3.86 6.244 4.008 5.908 4.304C5.58 4.592 5.384 4.988 5.32 5.492L4.468 5C4.556 4.592 4.724 4.236 4.972 3.932C5.228 3.62 5.548 3.38 5.932 3.212C6.324 3.044 6.772 2.96 7.276 2.96ZM7.132 9.56C7.364 9.56 7.552 9.632 7.696 9.776C7.84 9.92 7.912 10.108 7.912 10.34C7.912 10.572 7.84 10.76 7.696 10.904C7.552 11.048 7.364 11.12 7.132 11.12C6.9 11.12 6.712 11.048 6.568 10.904C6.424 10.76 6.352 10.572 6.352 10.34C6.352 10.108 6.424 9.92 6.568 9.776C6.712 9.632 6.9 9.56 7.132 9.56Z" fill="black"/>
</svg>
