<svg width="124" height="108" viewBox="0 0 124 108" fill="none" xmlns="http://www.w3.org/2000/svg">
<circle cx="2.3335" cy="80.9331" r="1.5" fill="#84A5FF"/>
<circle cx="2.3335" cy="88.9331" r="1.5" fill="#84A5FF"/>
<circle cx="2.3335" cy="96.9331" r="1.5" fill="#84A5FF"/>
<circle cx="10.3335" cy="80.9331" r="1.5" fill="#84A5FF"/>
<circle cx="10.3335" cy="88.9331" r="1.5" fill="#84A5FF"/>
<circle cx="10.3335" cy="96.9331" r="1.5" fill="#84A5FF"/>
<circle cx="18.3335" cy="80.9331" r="1.5" fill="#84A5FF"/>
<circle cx="18.3335" cy="88.9331" r="1.5" fill="#84A5FF"/>
<circle cx="18.3335" cy="96.9331" r="1.5" fill="#84A5FF"/>
<circle cx="26.3335" cy="80.9331" r="1.5" fill="#84A5FF"/>
<circle cx="34.3335" cy="80.9331" r="1.5" fill="#84A5FF"/>
<circle cx="42.3335" cy="80.9331" r="1.5" fill="#84A5FF"/>
<circle cx="26.3335" cy="88.9331" r="1.5" fill="#84A5FF"/>
<circle cx="34.3335" cy="88.9331" r="1.5" fill="#84A5FF"/>
<circle cx="42.3335" cy="88.9331" r="1.5" fill="#84A5FF"/>
<circle cx="26.3335" cy="96.9331" r="1.5" fill="#84A5FF"/>
<circle cx="34.3335" cy="96.9331" r="1.5" fill="#84A5FF"/>
<circle cx="42.3335" cy="96.9331" r="1.5" fill="#84A5FF"/>
<rect x="15.377" y="2.70264" width="29.5796" height="29.5796" rx="4" fill="#E2E9FF"/>
<path d="M30.167 19.4921C31.2716 19.4921 32.167 18.5967 32.167 17.4921C32.167 16.3876 31.2716 15.4921 30.167 15.4921C29.0624 15.4921 28.167 16.3876 28.167 17.4921C28.167 18.5967 29.0624 19.4921 30.167 19.4921Z" stroke="#2862FF" stroke-width="1.4" stroke-linecap="round" stroke-linejoin="round"/>
<path d="M35.1002 19.4925C35.0114 19.6935 34.9849 19.9166 35.0242 20.1328C35.0634 20.3491 35.1665 20.5487 35.3202 20.7058L35.3602 20.7458C35.4841 20.8696 35.5825 21.0167 35.6496 21.1785C35.7167 21.3404 35.7512 21.5139 35.7512 21.6891C35.7512 21.8643 35.7167 22.0378 35.6496 22.1997C35.5825 22.3616 35.4841 22.5086 35.3602 22.6325C35.2363 22.7564 35.0893 22.8548 34.9274 22.9219C34.7656 22.989 34.592 23.0235 34.4168 23.0235C34.2416 23.0235 34.0681 22.989 33.9062 22.9219C33.7444 22.8548 33.5973 22.7564 33.4735 22.6325L33.4335 22.5925C33.2764 22.4388 33.0768 22.3357 32.8606 22.2964C32.6443 22.2572 32.4212 22.2837 32.2202 22.3725C32.023 22.457 31.8548 22.5973 31.7364 22.7761C31.6179 22.955 31.5544 23.1646 31.5535 23.3791V23.4925C31.5535 23.8461 31.413 24.1852 31.163 24.4353C30.9129 24.6853 30.5738 24.8258 30.2202 24.8258C29.8665 24.8258 29.5274 24.6853 29.2774 24.4353C29.0273 24.1852 28.8868 23.8461 28.8868 23.4925V23.4325C28.8817 23.2118 28.8102 22.9978 28.6818 22.8183C28.5534 22.6387 28.374 22.502 28.1668 22.4258C27.9658 22.337 27.7427 22.3106 27.5264 22.3498C27.3102 22.389 27.1106 22.4921 26.9535 22.6458L26.9135 22.6858C26.7897 22.8098 26.6426 22.9081 26.4807 22.9752C26.3189 23.0423 26.1454 23.0768 25.9702 23.0768C25.7949 23.0768 25.6214 23.0423 25.4596 22.9752C25.2977 22.9081 25.1507 22.8098 25.0268 22.6858C24.9029 22.562 24.8045 22.4149 24.7374 22.253C24.6703 22.0912 24.6358 21.9177 24.6358 21.7425C24.6358 21.5672 24.6703 21.3937 24.7374 21.2319C24.8045 21.07 24.9029 20.9229 25.0268 20.7991L25.0668 20.7591C25.2205 20.602 25.3236 20.4024 25.3628 20.1862C25.402 19.9699 25.3756 19.7469 25.2868 19.5458C25.2023 19.3486 25.062 19.1804 24.8831 19.062C24.7043 18.9435 24.4947 18.88 24.2802 18.8791H24.1668C23.8132 18.8791 23.4741 18.7386 23.224 18.4886C22.974 18.2385 22.8335 17.8994 22.8335 17.5458C22.8335 17.1922 22.974 16.853 23.224 16.603C23.4741 16.3529 23.8132 16.2125 24.1668 16.2125H24.2268C24.4475 16.2073 24.6615 16.1359 24.841 16.0075C25.0206 15.8791 25.1573 15.6996 25.2335 15.4925C25.3222 15.2914 25.3487 15.0683 25.3095 14.8521C25.2703 14.6358 25.1672 14.4362 25.0135 14.2791L24.9735 14.2391C24.8495 14.1153 24.7512 13.9682 24.6841 13.8064C24.617 13.6445 24.5824 13.471 24.5824 13.2958C24.5824 13.1206 24.617 12.9471 24.6841 12.7852C24.7512 12.6233 24.8495 12.4763 24.9735 12.3525C25.0973 12.2285 25.2444 12.1301 25.4062 12.063C25.5681 11.9959 25.7416 11.9614 25.9168 11.9614C26.092 11.9614 26.2656 11.9959 26.4274 12.063C26.5893 12.1301 26.7363 12.2285 26.8602 12.3525L26.9002 12.3925C27.0573 12.5461 27.2568 12.6492 27.4731 12.6885C27.6894 12.7277 27.9124 12.7012 28.1135 12.6125H28.1668C28.364 12.5279 28.5322 12.3876 28.6506 12.2088C28.7691 12.0299 28.8326 11.8203 28.8335 11.6058V11.4925C28.8335 11.1388 28.974 10.7997 29.224 10.5496C29.4741 10.2996 29.8132 10.1591 30.1668 10.1591C30.5205 10.1591 30.8596 10.2996 31.1096 10.5496C31.3597 10.7997 31.5002 11.1388 31.5002 11.4925V11.5525C31.501 11.767 31.5646 11.9766 31.683 12.1554C31.8015 12.3343 31.9696 12.4746 32.1668 12.5591C32.3679 12.6479 32.591 12.6743 32.8072 12.6351C33.0235 12.5959 33.223 12.4928 33.3802 12.3391L33.4202 12.2991C33.544 12.1751 33.691 12.0768 33.8529 12.0097C34.0148 11.9426 34.1883 11.9081 34.3635 11.9081C34.5387 11.9081 34.7122 11.9426 34.8741 12.0097C35.0359 12.0768 35.183 12.1751 35.3068 12.2991C35.4308 12.4229 35.5291 12.57 35.5962 12.7319C35.6633 12.8937 35.6979 13.0672 35.6979 13.2425C35.6979 13.4177 35.6633 13.5912 35.5962 13.753C35.5291 13.9149 35.4308 14.062 35.3068 14.1858L35.2668 14.2258C35.1131 14.3829 35.01 14.5825 34.9708 14.7987C34.9316 15.015 34.9581 15.238 35.0468 15.4391V15.4925C35.1313 15.6896 35.2717 15.8578 35.4505 15.9762C35.6294 16.0947 35.839 16.1583 36.0535 16.1591H36.1668C36.5204 16.1591 36.8596 16.2996 37.1096 16.5496C37.3597 16.7997 37.5002 17.1388 37.5002 17.4925C37.5002 17.8461 37.3597 18.1852 37.1096 18.4353C36.8596 18.6853 36.5204 18.8258 36.1668 18.8258H36.1068C35.8923 18.8266 35.6827 18.8902 35.5039 19.0087C35.325 19.1271 35.1847 19.2953 35.1002 19.4925V19.4925Z" stroke="#2862FF" stroke-width="1.4" stroke-linecap="round" stroke-linejoin="round"/>
<rect x="32.5" y="19.2026" width="63" height="87" rx="6.5" fill="white" stroke="#42526E" stroke-width="3"/>
<rect x="44" y="36.605" width="24" height="5" rx="2.5" fill="#84A5FF"/>
<rect x="44" y="46.4038" width="40" height="4" rx="2" fill="#BED0FF"/>
<rect x="44" y="53.0034" width="32" height="4" rx="2" fill="#BED0FF"/>
<rect x="44" y="68.4028" width="24" height="5" rx="2.5" fill="#84A5FF"/>
<rect x="44" y="78.2017" width="35" height="4" rx="2" fill="#BED0FF"/>
<rect x="44" y="84.8013" width="22" height="4" rx="2" fill="#BED0FF"/>
<g filter="url(#filter0_f)">
<rect x="89.5869" y="69.1431" width="29.5796" height="29.5796" rx="4" fill="#2862FF" fill-opacity="0.2"/>
</g>
<rect x="86.5869" y="66.1431" width="29.5796" height="29.5796" rx="4" fill="#2862FF"/>
<g clip-path="url(#clip0)">
<path d="M101.377 85.5995L106.044 80.9329L108.044 82.9329L103.377 87.5995L101.377 85.5995Z" stroke="white" stroke-width="1.4" stroke-linecap="round" stroke-linejoin="round"/>
<path d="M105.377 81.5995L104.377 76.5995L94.7104 74.2662L97.0438 83.9328L102.044 84.9328L105.377 81.5995Z" stroke="white" stroke-width="1.4" stroke-linecap="round" stroke-linejoin="round"/>
<path d="M94.7104 74.2662L99.7678 79.3235" stroke="white" stroke-width="1.4" stroke-linecap="round" stroke-linejoin="round"/>
<path d="M100.71 81.5995C101.447 81.5995 102.044 81.0026 102.044 80.2662C102.044 79.5298 101.447 78.9329 100.71 78.9329C99.9739 78.9329 99.377 79.5298 99.377 80.2662C99.377 81.0026 99.9739 81.5995 100.71 81.5995Z" stroke="white" stroke-width="1.4" stroke-linecap="round" stroke-linejoin="round"/>
</g>
<defs>
<filter id="filter0_f" x="85.5869" y="65.1431" width="37.5796" height="37.5796" filterUnits="userSpaceOnUse" color-interpolation-filters="sRGB">
<feFlood flood-opacity="0" result="BackgroundImageFix"/>
<feBlend mode="normal" in="SourceGraphic" in2="BackgroundImageFix" result="shape"/>
<feGaussianBlur stdDeviation="2" result="effect1_foregroundBlur"/>
</filter>
<clipPath id="clip0">
<rect width="16" height="16" fill="white" transform="translate(93.377 72.9329)"/>
</clipPath>
</defs>
</svg>
