<svg width="23" height="16" viewBox="0 0 23 16" fill="none" xmlns="http://www.w3.org/2000/svg">
<path d="M4.21881 16.0007L11.1858 15.9641L18.1528 16.0007C18.1528 16.0007 18.3768 15.0727 18.6922 13.7378H3.6748C3.99481 15.0727 4.21881 16.0007 4.21881 16.0007Z" fill="#A87B00"/>
<path d="M20.9604 2.8252C20.1787 2.8252 19.5478 3.45606 19.5478 4.23779C19.5478 4.6538 19.7261 5.02409 20.0095 5.28467C19.0404 6.27212 17.9432 7.21385 16.5763 7.57043C16.2563 7.65271 15.9592 7.67557 15.6803 7.64814C14.5146 7.53385 13.7283 6.52812 13.1111 5.54982C12.5488 4.6538 12.0962 3.69835 11.6939 2.72919C12.2242 2.52348 12.5945 2.01147 12.5945 1.4126C12.5945 0.630869 11.9637 0 11.1819 0C10.4002 0 9.76932 0.630869 9.76932 1.4126C9.76932 2.01147 10.1442 2.52348 10.6699 2.72919C10.2722 3.69835 9.81504 4.6538 9.25274 5.54982C8.64016 6.52812 7.85386 7.53385 6.68355 7.64814C6.40926 7.67557 6.11211 7.65271 5.78754 7.57043C4.42065 7.21385 3.32349 6.27212 2.35433 5.28467C2.63776 5.02409 2.81605 4.6538 2.81605 4.23779C2.81605 3.45606 2.18518 2.8252 1.40345 2.8252C0.630869 2.8252 0 3.46064 0 4.24236C0 5.02409 0.630869 5.65496 1.4126 5.65496C1.52231 5.65496 1.63203 5.64125 1.7326 5.61839C2.1349 7.30985 2.84805 10.2768 3.40578 12.6082H18.9672C19.5249 10.2768 20.2335 7.30985 20.6404 5.61839C20.7455 5.64125 20.8507 5.65496 20.9604 5.65496C21.7421 5.65496 22.373 5.02409 22.373 4.24236C22.373 3.46064 21.7421 2.8252 20.9604 2.8252Z" fill="#A87B00"/>
</svg>
