<svg width="291" height="358" viewBox="0 0 291 358" fill="none" xmlns="http://www.w3.org/2000/svg">
<rect x="0.5" y="0.5" width="290" height="357" rx="2.5" fill="white" stroke="#F4F5F7"/>
<path d="M62.7465 203.766C49.6017 193.745 39.7248 180.054 34.3649 164.425C29.0049 148.796 28.4026 131.931 32.6342 115.963C36.8657 99.9945 45.741 85.6397 58.1378 74.7138C70.5346 63.788 85.896 56.7818 102.279 54.5812L104.784 73.1682C92.079 74.8747 80.1667 80.3077 70.5534 88.7804C60.9401 97.2531 54.0575 108.385 50.7761 120.768C47.4946 133.151 47.9617 146.229 52.1182 158.349C56.2746 170.468 63.9339 181.085 74.1273 188.856L62.7465 203.766Z" fill="#FF9D54"/>
<path d="M127.138 55.1404C111.394 52.4613 95.2124 54.3486 80.5076 60.5788C65.8028 66.8091 53.1906 77.1217 44.1636 90.296L59.3484 100.7C66.3874 90.4274 76.2221 82.3859 87.6886 77.5276C99.1551 72.6694 111.773 71.1977 124.05 73.2869L127.138 55.1404Z" fill="#EF4060"/>
<path d="M121.649 54.4241C134.522 55.8141 146.904 60.1431 157.826 67.0723C168.747 74.0015 177.912 83.3428 184.602 94.3651C191.293 105.387 195.327 117.791 196.39 130.606C197.453 143.421 195.516 156.3 190.73 168.233C185.944 180.166 178.438 190.831 168.802 199.392C159.165 207.954 147.659 214.179 135.183 217.582C122.707 220.985 109.601 221.472 96.8891 219.005C84.1776 216.539 72.2062 211.186 61.9119 203.366L73.6893 188.057C81.6003 194.067 90.8001 198.181 100.569 200.076C110.337 201.971 120.409 201.597 129.997 198.982C139.584 196.367 148.427 191.583 155.832 185.004C163.238 178.425 169.005 170.229 172.683 161.058C176.361 151.888 177.85 141.991 177.033 132.143C176.216 122.295 173.116 112.763 167.974 104.293C162.833 95.8221 155.79 88.6435 147.397 83.3186C139.004 77.9937 129.489 74.6669 119.596 73.5987L121.649 54.4241Z" fill="#00B25D"/>
<path d="M20.1323 28H19.0532V19.6782H16.1143V18.7197H23.0713V19.6782H20.1323V28ZM30.3203 24.5151C30.3203 25.6493 30.0347 26.5358 29.4634 27.1748C28.8921 27.8096 28.1029 28.127 27.0957 28.127C26.4736 28.127 25.9214 27.981 25.439 27.689C24.9565 27.397 24.5841 26.978 24.3218 26.4321C24.0594 25.8862 23.9282 25.2472 23.9282 24.5151C23.9282 23.381 24.2118 22.4987 24.7788 21.8682C25.3459 21.2334 26.133 20.916 27.1401 20.916C28.1134 20.916 28.8857 21.2397 29.457 21.8872C30.0326 22.5347 30.3203 23.4106 30.3203 24.5151ZM25.02 24.5151C25.02 25.4038 25.1978 26.0809 25.5532 26.5464C25.9087 27.0119 26.4313 27.2446 27.1211 27.2446C27.8109 27.2446 28.3335 27.014 28.689 26.5527C29.0487 26.0872 29.2285 25.408 29.2285 24.5151C29.2285 23.6307 29.0487 22.96 28.689 22.5029C28.3335 22.0417 27.8066 21.811 27.1084 21.811C26.4186 21.811 25.8981 22.0374 25.5469 22.4902C25.1956 22.943 25.02 23.618 25.02 24.5151ZM34.4209 27.2573C34.6071 27.2573 34.7869 27.2446 34.9604 27.2192C35.134 27.1896 35.2715 27.16 35.373 27.1304V27.9365C35.2588 27.9915 35.0895 28.036 34.8652 28.0698C34.6452 28.1079 34.4463 28.127 34.2686 28.127C32.9229 28.127 32.25 27.4181 32.25 26.0005V21.8618H31.2534V21.354L32.25 20.916L32.6943 19.4307H33.3037V21.043H35.3223V21.8618H33.3037V25.9561C33.3037 26.375 33.4032 26.6966 33.6021 26.9209C33.8009 27.1452 34.0739 27.2573 34.4209 27.2573ZM41.0479 28L40.8384 27.0098H40.7876C40.4406 27.4456 40.0936 27.7419 39.7466 27.8984C39.4038 28.0508 38.9743 28.127 38.458 28.127C37.7682 28.127 37.2266 27.9492 36.833 27.5938C36.4437 27.2383 36.249 26.7326 36.249 26.0767C36.249 24.6717 37.3726 23.9354 39.6196 23.8677L40.8003 23.8296V23.3979C40.8003 22.8521 40.6818 22.45 40.4448 22.1919C40.2121 21.9295 39.8376 21.7983 39.3213 21.7983C38.7415 21.7983 38.0856 21.9761 37.3535 22.3315L37.0298 21.5254C37.3726 21.3392 37.7471 21.1932 38.1533 21.0874C38.5638 20.9816 38.9743 20.9287 39.3848 20.9287C40.2142 20.9287 40.8278 21.1128 41.2256 21.481C41.6276 21.8491 41.8286 22.4395 41.8286 23.252V28H41.0479ZM38.6675 27.2573C39.3234 27.2573 39.8376 27.0775 40.21 26.7178C40.5866 26.3581 40.7749 25.8545 40.7749 25.207V24.5786L39.7212 24.623C38.8833 24.6527 38.2782 24.7839 37.9058 25.0166C37.5376 25.2451 37.3535 25.6027 37.3535 26.0894C37.3535 26.4702 37.4678 26.7601 37.6963 26.959C37.929 27.1579 38.2528 27.2573 38.6675 27.2573ZM45.0596 28H44.0059V18.123H45.0596V28ZM53.686 28H52.6069V19.6782H49.668V18.7197H56.625V19.6782H53.686V28ZM58.9229 28H57.8691V21.043H58.9229V28ZM57.7803 19.1577C57.7803 18.9165 57.8395 18.7409 57.958 18.6309C58.0765 18.5166 58.2246 18.4595 58.4023 18.4595C58.5716 18.4595 58.7176 18.5166 58.8403 18.6309C58.9631 18.7451 59.0244 18.9207 59.0244 19.1577C59.0244 19.3947 58.9631 19.5724 58.8403 19.6909C58.7176 19.8052 58.5716 19.8623 58.4023 19.8623C58.2246 19.8623 58.0765 19.8052 57.958 19.6909C57.8395 19.5724 57.7803 19.3947 57.7803 19.1577ZM70.0249 28V23.4741C70.0249 22.9198 69.9064 22.505 69.6694 22.23C69.4325 21.9507 69.0643 21.811 68.5649 21.811C67.909 21.811 67.4245 21.9993 67.1113 22.376C66.7982 22.7526 66.6416 23.3324 66.6416 24.1152V28H65.5879V23.4741C65.5879 22.9198 65.4694 22.505 65.2324 22.23C64.9954 21.9507 64.6252 21.811 64.1216 21.811C63.4614 21.811 62.9769 22.0099 62.668 22.4077C62.3633 22.8013 62.2109 23.4487 62.2109 24.3501V28H61.1572V21.043H62.0142L62.1855 21.9951H62.2363C62.4352 21.6566 62.7145 21.3921 63.0742 21.2017C63.4382 21.0112 63.8444 20.916 64.293 20.916C65.3805 20.916 66.0915 21.3096 66.4258 22.0967H66.4766C66.6839 21.7327 66.9844 21.445 67.3779 21.2334C67.7715 21.0218 68.2201 20.916 68.7236 20.916C69.5107 20.916 70.099 21.1191 70.4883 21.5254C70.8818 21.9274 71.0786 22.5728 71.0786 23.4614V28H70.0249ZM76.1948 28.127C75.1665 28.127 74.354 27.8138 73.7573 27.1875C73.1649 26.5612 72.8687 25.6916 72.8687 24.5786C72.8687 23.4572 73.1437 22.5664 73.6938 21.9062C74.2482 21.2461 74.9909 20.916 75.9219 20.916C76.7936 20.916 77.4834 21.2038 77.9912 21.7793C78.499 22.3506 78.7529 23.106 78.7529 24.0454V24.7119H73.9604C73.9816 25.5286 74.1868 26.1486 74.5762 26.5718C74.9697 26.995 75.522 27.2065 76.2329 27.2065C76.9819 27.2065 77.7225 27.05 78.4546 26.7368V27.6763C78.0822 27.8371 77.7288 27.9513 77.3945 28.019C77.0645 28.091 76.6646 28.127 76.1948 28.127ZM75.9092 21.7983C75.3506 21.7983 74.9041 21.9803 74.5698 22.3442C74.2397 22.7082 74.0451 23.2118 73.9858 23.855H77.623C77.623 23.1906 77.4749 22.6828 77.1787 22.3315C76.8825 21.9761 76.4593 21.7983 75.9092 21.7983ZM89.3281 25.5308C89.3281 26.3475 89.0319 26.9844 88.4395 27.4414C87.847 27.8984 87.043 28.127 86.0273 28.127C84.9271 28.127 84.0807 27.9852 83.4883 27.7017V26.6606C83.8691 26.8215 84.2839 26.9484 84.7324 27.0415C85.181 27.1346 85.6253 27.1812 86.0654 27.1812C86.7848 27.1812 87.3265 27.0457 87.6904 26.7749C88.0544 26.4998 88.2363 26.119 88.2363 25.6323C88.2363 25.3107 88.1707 25.0483 88.0396 24.8452C87.9126 24.6379 87.6968 24.4474 87.3921 24.2739C87.0916 24.1004 86.6325 23.9036 86.0146 23.6836C85.1514 23.3747 84.5335 23.0086 84.1611 22.5854C83.793 22.1623 83.6089 21.61 83.6089 20.9287C83.6089 20.2135 83.8776 19.6444 84.415 19.2212C84.9525 18.798 85.6634 18.5864 86.5479 18.5864C87.4704 18.5864 88.3188 18.7557 89.0933 19.0942L88.7568 20.0337C87.9909 19.7121 87.2461 19.5513 86.5225 19.5513C85.9512 19.5513 85.5047 19.674 85.1831 19.9194C84.8615 20.1649 84.7007 20.5055 84.7007 20.9414C84.7007 21.263 84.7599 21.5275 84.8784 21.7349C84.9969 21.938 85.1958 22.1263 85.4751 22.2998C85.7586 22.4691 86.1903 22.6574 86.77 22.8647C87.7433 23.2118 88.4119 23.5841 88.7759 23.9819C89.144 24.3797 89.3281 24.896 89.3281 25.5308ZM94.3047 28.127C93.8519 28.127 93.4372 28.0444 93.0605 27.8794C92.6882 27.7101 92.375 27.452 92.1211 27.105H92.0449C92.0957 27.5112 92.1211 27.8963 92.1211 28.2603V31.123H91.0674V21.043H91.9243L92.0703 21.9951H92.1211C92.3919 21.6143 92.7072 21.3392 93.0669 21.1699C93.4266 21.0007 93.8392 20.916 94.3047 20.916C95.2272 20.916 95.9382 21.2313 96.4375 21.8618C96.9411 22.4924 97.1929 23.3768 97.1929 24.5151C97.1929 25.6577 96.9368 26.5464 96.4248 27.1812C95.917 27.8117 95.2103 28.127 94.3047 28.127ZM94.1523 21.811C93.4414 21.811 92.9272 22.0078 92.6099 22.4014C92.2925 22.7949 92.1296 23.4212 92.1211 24.2803V24.5151C92.1211 25.4927 92.284 26.193 92.6099 26.6162C92.9357 27.0352 93.4583 27.2446 94.1777 27.2446C94.7786 27.2446 95.2484 27.0013 95.5869 26.5146C95.9297 26.028 96.1011 25.3573 96.1011 24.5024C96.1011 23.6349 95.9297 22.9705 95.5869 22.5093C95.2484 22.0438 94.7702 21.811 94.1523 21.811ZM101.979 28.127C100.951 28.127 100.138 27.8138 99.5415 27.1875C98.9491 26.5612 98.6528 25.6916 98.6528 24.5786C98.6528 23.4572 98.9279 22.5664 99.478 21.9062C100.032 21.2461 100.775 20.916 101.706 20.916C102.578 20.916 103.268 21.2038 103.775 21.7793C104.283 22.3506 104.537 23.106 104.537 24.0454V24.7119H99.7446C99.7658 25.5286 99.971 26.1486 100.36 26.5718C100.754 26.995 101.306 27.2065 102.017 27.2065C102.766 27.2065 103.507 27.05 104.239 26.7368V27.6763C103.866 27.8371 103.513 27.9513 103.179 28.019C102.849 28.091 102.449 28.127 101.979 28.127ZM101.693 21.7983C101.135 21.7983 100.688 21.9803 100.354 22.3442C100.024 22.7082 99.8293 23.2118 99.77 23.855H103.407C103.407 23.1906 103.259 22.6828 102.963 22.3315C102.667 21.9761 102.243 21.7983 101.693 21.7983ZM111.101 28V23.4995C111.101 22.9325 110.972 22.5093 110.713 22.23C110.455 21.9507 110.051 21.811 109.501 21.811C108.773 21.811 108.24 22.0078 107.901 22.4014C107.563 22.7949 107.394 23.4445 107.394 24.3501V28H106.34V21.043H107.197L107.368 21.9951H107.419C107.635 21.6523 107.937 21.3879 108.327 21.2017C108.716 21.0112 109.15 20.916 109.628 20.916C110.466 20.916 111.096 21.1191 111.52 21.5254C111.943 21.9274 112.154 22.5728 112.154 23.4614V28H111.101ZM116.572 27.2573C116.758 27.2573 116.938 27.2446 117.112 27.2192C117.285 27.1896 117.423 27.16 117.524 27.1304V27.9365C117.41 27.9915 117.241 28.036 117.017 28.0698C116.797 28.1079 116.598 28.127 116.42 28.127C115.074 28.127 114.401 27.4181 114.401 26.0005V21.8618H113.405V21.354L114.401 20.916L114.846 19.4307H115.455V21.043H117.474V21.8618H115.455V25.9561C115.455 26.375 115.555 26.6966 115.753 26.9209C115.952 27.1452 116.225 27.2573 116.572 27.2573ZM118.769 27.3271C118.769 27.0436 118.832 26.8299 118.959 26.686C119.09 26.5379 119.276 26.4639 119.518 26.4639C119.763 26.4639 119.953 26.5379 120.089 26.686C120.229 26.8299 120.298 27.0436 120.298 27.3271C120.298 27.6022 120.229 27.8138 120.089 27.9619C119.949 28.11 119.759 28.1841 119.518 28.1841C119.302 28.1841 119.122 28.1185 118.978 27.9873C118.838 27.8519 118.769 27.6318 118.769 27.3271ZM118.769 21.7222C118.769 21.1509 119.018 20.8652 119.518 20.8652C120.038 20.8652 120.298 21.1509 120.298 21.7222C120.298 21.9972 120.229 22.2088 120.089 22.3569C119.949 22.505 119.759 22.5791 119.518 22.5791C119.302 22.5791 119.122 22.5135 118.978 22.3823C118.838 22.2469 118.769 22.0269 118.769 21.7222ZM131.032 20.9033C131.032 21.4958 130.865 21.9803 130.531 22.3569C130.201 22.7336 129.731 22.9854 129.122 23.1123V23.1631C129.866 23.2562 130.419 23.4932 130.778 23.874C131.138 24.2549 131.318 24.7542 131.318 25.3721C131.318 26.2565 131.011 26.9378 130.397 27.416C129.784 27.89 128.912 28.127 127.782 28.127C127.291 28.127 126.841 28.0889 126.43 28.0127C126.024 27.9408 125.628 27.8117 125.243 27.6255V26.6226C125.645 26.8215 126.073 26.9738 126.525 27.0796C126.982 27.1812 127.414 27.2319 127.82 27.2319C129.424 27.2319 130.226 26.6035 130.226 25.3467C130.226 24.221 129.342 23.6582 127.573 23.6582H126.659V22.7505H127.585C128.309 22.7505 128.882 22.5918 129.306 22.2744C129.729 21.9528 129.94 21.5085 129.94 20.9414C129.94 20.4886 129.784 20.1331 129.471 19.875C129.162 19.6169 128.741 19.4878 128.208 19.4878C127.801 19.4878 127.418 19.5428 127.059 19.6528C126.699 19.7629 126.288 19.966 125.827 20.2622L125.294 19.5513C125.675 19.2508 126.113 19.016 126.608 18.8467C127.107 18.6732 127.632 18.5864 128.182 18.5864C129.083 18.5864 129.784 18.7938 130.283 19.2085C130.783 19.619 131.032 20.1839 131.032 20.9033ZM138.872 23.3472C138.872 24.951 138.618 26.1486 138.11 26.9399C137.606 27.7313 136.834 28.127 135.793 28.127C134.794 28.127 134.035 27.7228 133.514 26.9146C132.994 26.1021 132.733 24.9129 132.733 23.3472C132.733 21.7306 132.985 20.5309 133.489 19.748C133.992 18.9652 134.76 18.5737 135.793 18.5737C136.8 18.5737 137.564 18.9821 138.084 19.7988C138.609 20.6156 138.872 21.7983 138.872 23.3472ZM133.8 23.3472C133.8 24.6971 133.958 25.681 134.276 26.2988C134.593 26.9124 135.099 27.2192 135.793 27.2192C136.495 27.2192 137.003 26.9082 137.316 26.2861C137.634 25.6598 137.792 24.6802 137.792 23.3472C137.792 22.0142 137.634 21.0387 137.316 20.4209C137.003 19.7988 136.495 19.4878 135.793 19.4878C135.099 19.4878 134.593 19.7946 134.276 20.4082C133.958 21.0176 133.8 21.9972 133.8 23.3472ZM148.285 28L145.137 19.7734H145.086C145.145 20.4251 145.175 21.1995 145.175 22.0967V28H144.178V18.7197H145.803L148.742 26.375H148.793L151.757 18.7197H153.37V28H152.291V22.0205C152.291 21.335 152.32 20.5902 152.379 19.7861H152.329L149.155 28H148.285ZM156.816 28H155.763V21.043H156.816V28ZM155.674 19.1577C155.674 18.9165 155.733 18.7409 155.852 18.6309C155.97 18.5166 156.118 18.4595 156.296 18.4595C156.465 18.4595 156.611 18.5166 156.734 18.6309C156.857 18.7451 156.918 18.9207 156.918 19.1577C156.918 19.3947 156.857 19.5724 156.734 19.6909C156.611 19.8052 156.465 19.8623 156.296 19.8623C156.118 19.8623 155.97 19.8052 155.852 19.6909C155.733 19.5724 155.674 19.3947 155.674 19.1577ZM163.812 28V23.4995C163.812 22.9325 163.682 22.5093 163.424 22.23C163.166 21.9507 162.762 21.811 162.212 21.811C161.484 21.811 160.951 22.0078 160.612 22.4014C160.274 22.7949 160.104 23.4445 160.104 24.3501V28H159.051V21.043H159.908L160.079 21.9951H160.13C160.346 21.6523 160.648 21.3879 161.038 21.2017C161.427 21.0112 161.861 20.916 162.339 20.916C163.177 20.916 163.807 21.1191 164.23 21.5254C164.654 21.9274 164.865 22.5728 164.865 23.4614V28H163.812Z" fill="#090F69"/>
<circle cx="20" cy="270" r="4" fill="#00B25D"/>
<path d="M33.7197 268.055C34.6549 268.055 35.3955 268.303 35.9414 268.798C36.4873 269.293 36.7603 269.968 36.7603 270.823C36.7603 271.813 36.4492 272.587 35.8271 273.146C35.2093 273.7 34.3291 273.978 33.1865 273.978C32.1497 273.978 31.3351 273.81 30.7427 273.476V272.124C31.0854 272.319 31.479 272.469 31.9233 272.575C32.3677 272.681 32.7803 272.733 33.1611 272.733C33.834 272.733 34.346 272.583 34.6973 272.283C35.0485 271.982 35.2241 271.542 35.2241 270.962C35.2241 269.854 34.5174 269.299 33.104 269.299C32.9051 269.299 32.6597 269.32 32.3677 269.363C32.0757 269.401 31.8197 269.445 31.5996 269.496L30.9331 269.103L31.2886 264.57H36.1128V265.897H32.6025L32.3931 268.195C32.5412 268.169 32.721 268.14 32.9326 268.106C33.1484 268.072 33.4108 268.055 33.7197 268.055ZM44.2886 269.21C44.2886 270.823 44.0283 272.02 43.5078 272.803C42.9915 273.586 42.2002 273.978 41.1338 273.978C40.1012 273.978 39.3184 273.573 38.7852 272.765C38.252 271.957 37.9854 270.772 37.9854 269.21C37.9854 267.573 38.2435 266.367 38.7598 265.592C39.2803 264.814 40.0716 264.424 41.1338 264.424C42.1706 264.424 42.9556 264.831 43.4888 265.643C44.022 266.456 44.2886 267.645 44.2886 269.21ZM39.4961 269.21C39.4961 270.476 39.6252 271.379 39.8833 271.921C40.1457 272.463 40.5625 272.733 41.1338 272.733C41.7051 272.733 42.1219 272.458 42.3843 271.908C42.6509 271.358 42.7842 270.459 42.7842 269.21C42.7842 267.966 42.6509 267.067 42.3843 266.513C42.1219 265.954 41.7051 265.675 41.1338 265.675C40.5625 265.675 40.1457 265.948 39.8833 266.494C39.6252 267.04 39.4961 267.945 39.4961 269.21ZM46.6245 267.351C46.6245 267.981 46.6859 268.451 46.8086 268.76C46.9313 269.069 47.1323 269.223 47.4116 269.223C47.9702 269.223 48.2495 268.599 48.2495 267.351C48.2495 266.102 47.9702 265.478 47.4116 265.478C47.1323 265.478 46.9313 265.632 46.8086 265.941C46.6859 266.25 46.6245 266.72 46.6245 267.351ZM49.481 267.338C49.481 268.311 49.3053 269.043 48.9541 269.534C48.6071 270.021 48.0929 270.264 47.4116 270.264C46.7684 270.264 46.269 270.012 45.9136 269.509C45.5623 269.001 45.3867 268.277 45.3867 267.338C45.3867 265.404 46.0617 264.437 47.4116 264.437C48.076 264.437 48.5859 264.689 48.9414 265.192C49.3011 265.692 49.481 266.407 49.481 267.338ZM52.6675 271.058C52.6675 271.688 52.7288 272.16 52.8516 272.473C52.9785 272.786 53.1816 272.943 53.4609 272.943C54.0153 272.943 54.2925 272.314 54.2925 271.058C54.2925 269.818 54.0153 269.198 53.4609 269.198C53.1816 269.198 52.9785 269.35 52.8516 269.655C52.7288 269.959 52.6675 270.427 52.6675 271.058ZM55.5239 271.058C55.5239 272.031 55.3483 272.761 54.9971 273.248C54.6458 273.734 54.1338 273.978 53.4609 273.978C52.8177 273.978 52.3184 273.728 51.9629 273.229C51.6074 272.725 51.4297 272.001 51.4297 271.058C51.4297 269.124 52.1068 268.157 53.4609 268.157C54.1126 268.157 54.6183 268.406 54.978 268.906C55.342 269.405 55.5239 270.122 55.5239 271.058ZM53.6387 264.57L48.4907 273.851H47.2593L52.4072 264.57H53.6387Z" fill="#00B25D"/>
<path d="M62.8047 273.108C62.9909 273.108 63.1707 273.095 63.3442 273.07C63.5177 273.04 63.6553 273.011 63.7568 272.981V273.787C63.6426 273.842 63.4733 273.887 63.249 273.92C63.029 273.958 62.8301 273.978 62.6523 273.978C61.3066 273.978 60.6338 273.269 60.6338 271.851V267.712H59.6372V267.205L60.6338 266.767L61.0781 265.281H61.6875V266.894H63.7061V267.712H61.6875V271.807C61.6875 272.226 61.7869 272.547 61.9858 272.771C62.1847 272.996 62.4577 273.108 62.8047 273.108ZM66.207 273.851H65.1533V266.894H66.207V273.851ZM65.0645 265.008C65.0645 264.767 65.1237 264.591 65.2422 264.481C65.3607 264.367 65.5088 264.31 65.6865 264.31C65.8558 264.31 66.0018 264.367 66.1245 264.481C66.2472 264.596 66.3086 264.771 66.3086 265.008C66.3086 265.245 66.2472 265.423 66.1245 265.542C66.0018 265.656 65.8558 265.713 65.6865 265.713C65.5088 265.713 65.3607 265.656 65.2422 265.542C65.1237 265.423 65.0645 265.245 65.0645 265.008ZM77.3091 273.851V269.325C77.3091 268.77 77.1906 268.356 76.9536 268.081C76.7166 267.801 76.3485 267.662 75.8491 267.662C75.1932 267.662 74.7087 267.85 74.3955 268.227C74.0824 268.603 73.9258 269.183 73.9258 269.966V273.851H72.8721V269.325C72.8721 268.77 72.7536 268.356 72.5166 268.081C72.2796 267.801 71.9093 267.662 71.4058 267.662C70.7456 267.662 70.2611 267.861 69.9521 268.258C69.6475 268.652 69.4951 269.299 69.4951 270.201V273.851H68.4414V266.894H69.2983L69.4697 267.846H69.5205C69.7194 267.507 69.9987 267.243 70.3584 267.052C70.7223 266.862 71.1286 266.767 71.5771 266.767C72.6647 266.767 73.3757 267.16 73.71 267.947H73.7607C73.9681 267.583 74.2686 267.296 74.6621 267.084C75.0557 266.872 75.5042 266.767 76.0078 266.767C76.7949 266.767 77.3831 266.97 77.7725 267.376C78.166 267.778 78.3628 268.423 78.3628 269.312V273.851H77.3091ZM83.479 273.978C82.4507 273.978 81.6382 273.664 81.0415 273.038C80.4491 272.412 80.1528 271.542 80.1528 270.429C80.1528 269.308 80.4279 268.417 80.978 267.757C81.5324 267.097 82.2751 266.767 83.2061 266.767C84.0778 266.767 84.7676 267.054 85.2754 267.63C85.7832 268.201 86.0371 268.957 86.0371 269.896V270.562H81.2446C81.2658 271.379 81.471 271.999 81.8604 272.422C82.2539 272.846 82.8062 273.057 83.5171 273.057C84.2661 273.057 85.0067 272.901 85.7388 272.587V273.527C85.3664 273.688 85.013 273.802 84.6787 273.87C84.3486 273.942 83.9487 273.978 83.479 273.978ZM83.1934 267.649C82.6348 267.649 82.1883 267.831 81.854 268.195C81.5239 268.559 81.3293 269.062 81.27 269.706H84.9072C84.9072 269.041 84.7591 268.533 84.4629 268.182C84.1667 267.827 83.7435 267.649 83.1934 267.649ZM92.2705 273.851H91.2168V266.894H92.2705V273.851ZM91.1279 265.008C91.1279 264.767 91.1872 264.591 91.3057 264.481C91.4242 264.367 91.5723 264.31 91.75 264.31C91.9193 264.31 92.0653 264.367 92.188 264.481C92.3107 264.596 92.3721 264.771 92.3721 265.008C92.3721 265.245 92.3107 265.423 92.188 265.542C92.0653 265.656 91.9193 265.713 91.75 265.713C91.5723 265.713 91.4242 265.656 91.3057 265.542C91.1872 265.423 91.1279 265.245 91.1279 265.008ZM99.2656 273.851V269.35C99.2656 268.783 99.1366 268.36 98.8784 268.081C98.6203 267.801 98.2161 267.662 97.666 267.662C96.9382 267.662 96.4049 267.858 96.0664 268.252C95.7279 268.646 95.5586 269.295 95.5586 270.201V273.851H94.5049V266.894H95.3618L95.5332 267.846H95.584C95.7998 267.503 96.1024 267.238 96.4917 267.052C96.881 266.862 97.3148 266.767 97.793 266.767C98.6309 266.767 99.2614 266.97 99.6846 267.376C100.108 267.778 100.319 268.423 100.319 269.312V273.851H99.2656ZM104.014 273.851L101.373 266.894H102.503L104.001 271.02C104.34 271.984 104.538 272.611 104.598 272.898H104.648C104.695 272.674 104.841 272.211 105.086 271.508C105.336 270.802 105.893 269.263 106.756 266.894H107.886L105.245 273.851H104.014ZM111.942 273.978C110.914 273.978 110.101 273.664 109.504 273.038C108.912 272.412 108.616 271.542 108.616 270.429C108.616 269.308 108.891 268.417 109.441 267.757C109.995 267.097 110.738 266.767 111.669 266.767C112.541 266.767 113.23 267.054 113.738 267.63C114.246 268.201 114.5 268.957 114.5 269.896V270.562H109.708C109.729 271.379 109.934 271.999 110.323 272.422C110.717 272.846 111.269 273.057 111.98 273.057C112.729 273.057 113.47 272.901 114.202 272.587V273.527C113.829 273.688 113.476 273.802 113.142 273.87C112.812 273.942 112.412 273.978 111.942 273.978ZM111.656 267.649C111.098 267.649 110.651 267.831 110.317 268.195C109.987 268.559 109.792 269.062 109.733 269.706H113.37C113.37 269.041 113.222 268.533 112.926 268.182C112.63 267.827 112.206 267.649 111.656 267.649ZM120.791 271.953C120.791 272.6 120.549 273.099 120.067 273.451C119.584 273.802 118.907 273.978 118.036 273.978C117.113 273.978 116.394 273.832 115.877 273.54V272.562C116.212 272.731 116.569 272.865 116.95 272.962C117.335 273.059 117.706 273.108 118.061 273.108C118.611 273.108 119.034 273.021 119.331 272.848C119.627 272.67 119.775 272.401 119.775 272.042C119.775 271.771 119.656 271.54 119.419 271.35C119.187 271.155 118.73 270.926 118.048 270.664C117.401 270.423 116.94 270.213 116.665 270.036C116.394 269.854 116.191 269.648 116.055 269.42C115.924 269.191 115.858 268.918 115.858 268.601C115.858 268.034 116.089 267.588 116.55 267.262C117.012 266.932 117.644 266.767 118.448 266.767C119.197 266.767 119.929 266.919 120.645 267.224L120.27 268.081C119.572 267.793 118.939 267.649 118.372 267.649C117.873 267.649 117.496 267.727 117.242 267.884C116.988 268.04 116.861 268.256 116.861 268.531C116.861 268.717 116.908 268.876 117.001 269.007C117.098 269.139 117.253 269.263 117.464 269.382C117.676 269.5 118.082 269.672 118.683 269.896C119.508 270.196 120.065 270.499 120.353 270.804C120.645 271.108 120.791 271.491 120.791 271.953ZM124.758 273.108C124.944 273.108 125.124 273.095 125.297 273.07C125.471 273.04 125.608 273.011 125.71 272.981V273.787C125.596 273.842 125.426 273.887 125.202 273.92C124.982 273.958 124.783 273.978 124.605 273.978C123.26 273.978 122.587 273.269 122.587 271.851V267.712H121.59V267.205L122.587 266.767L123.031 265.281H123.641V266.894H125.659V267.712H123.641V271.807C123.641 272.226 123.74 272.547 123.939 272.771C124.138 272.996 124.411 273.108 124.758 273.108ZM130.045 273.978C129.017 273.978 128.205 273.664 127.608 273.038C127.015 272.412 126.719 271.542 126.719 270.429C126.719 269.308 126.994 268.417 127.544 267.757C128.099 267.097 128.841 266.767 129.772 266.767C130.644 266.767 131.334 267.054 131.842 267.63C132.35 268.201 132.604 268.957 132.604 269.896V270.562H127.811C127.832 271.379 128.037 271.999 128.427 272.422C128.82 272.846 129.373 273.057 130.083 273.057C130.833 273.057 131.573 272.901 132.305 272.587V273.527C131.933 273.688 131.579 273.802 131.245 273.87C130.915 273.942 130.515 273.978 130.045 273.978ZM129.76 267.649C129.201 267.649 128.755 267.831 128.42 268.195C128.09 268.559 127.896 269.062 127.836 269.706H131.474C131.474 269.041 131.326 268.533 131.029 268.182C130.733 267.827 130.31 267.649 129.76 267.649ZM139.142 272.917H139.084C138.598 273.624 137.87 273.978 136.901 273.978C135.991 273.978 135.282 273.667 134.774 273.044C134.271 272.422 134.019 271.538 134.019 270.391C134.019 269.244 134.273 268.354 134.781 267.719C135.289 267.084 135.995 266.767 136.901 266.767C137.845 266.767 138.568 267.109 139.072 267.795H139.154L139.11 267.293L139.084 266.805V263.974H140.138V273.851H139.281L139.142 272.917ZM137.034 273.095C137.754 273.095 138.274 272.901 138.596 272.511C138.922 272.118 139.084 271.485 139.084 270.613V270.391C139.084 269.405 138.919 268.703 138.589 268.284C138.264 267.861 137.741 267.649 137.021 267.649C136.404 267.649 135.93 267.89 135.6 268.373C135.274 268.851 135.111 269.528 135.111 270.404C135.111 271.292 135.274 271.963 135.6 272.416C135.925 272.869 136.404 273.095 137.034 273.095ZM151.761 270.366C151.761 271.5 151.475 272.386 150.904 273.025C150.333 273.66 149.543 273.978 148.536 273.978C147.914 273.978 147.362 273.832 146.879 273.54C146.397 273.248 146.025 272.829 145.762 272.283C145.5 271.737 145.369 271.098 145.369 270.366C145.369 269.232 145.652 268.349 146.219 267.719C146.786 267.084 147.573 266.767 148.581 266.767C149.554 266.767 150.326 267.09 150.897 267.738C151.473 268.385 151.761 269.261 151.761 270.366ZM146.46 270.366C146.46 271.254 146.638 271.931 146.994 272.397C147.349 272.862 147.872 273.095 148.562 273.095C149.251 273.095 149.774 272.865 150.129 272.403C150.489 271.938 150.669 271.259 150.669 270.366C150.669 269.481 150.489 268.811 150.129 268.354C149.774 267.892 149.247 267.662 148.549 267.662C147.859 267.662 147.339 267.888 146.987 268.341C146.636 268.794 146.46 269.469 146.46 270.366ZM158.375 273.851V269.35C158.375 268.783 158.246 268.36 157.988 268.081C157.73 267.801 157.326 267.662 156.775 267.662C156.048 267.662 155.514 267.858 155.176 268.252C154.837 268.646 154.668 269.295 154.668 270.201V273.851H153.614V266.894H154.471L154.643 267.846H154.693C154.909 267.503 155.212 267.238 155.601 267.052C155.99 266.862 156.424 266.767 156.902 266.767C157.74 266.767 158.371 266.97 158.794 267.376C159.217 267.778 159.429 268.423 159.429 269.312V273.851H158.375ZM167.757 273.978C166.75 273.978 165.969 273.669 165.415 273.051C164.864 272.429 164.589 271.551 164.589 270.417C164.589 269.253 164.869 268.354 165.427 267.719C165.99 267.084 166.79 266.767 167.827 266.767C168.161 266.767 168.495 266.803 168.83 266.875C169.164 266.946 169.426 267.031 169.617 267.128L169.293 268.023C169.06 267.93 168.806 267.854 168.531 267.795C168.256 267.731 168.013 267.7 167.801 267.7C166.388 267.7 165.681 268.601 165.681 270.404C165.681 271.259 165.853 271.915 166.195 272.372C166.542 272.829 167.054 273.057 167.731 273.057C168.311 273.057 168.906 272.932 169.515 272.683V273.616C169.05 273.857 168.464 273.978 167.757 273.978ZM177.177 270.366C177.177 271.5 176.891 272.386 176.32 273.025C175.749 273.66 174.959 273.978 173.952 273.978C173.33 273.978 172.778 273.832 172.295 273.54C171.813 273.248 171.441 272.829 171.178 272.283C170.916 271.737 170.785 271.098 170.785 270.366C170.785 269.232 171.068 268.349 171.635 267.719C172.202 267.084 172.989 266.767 173.997 266.767C174.97 266.767 175.742 267.09 176.313 267.738C176.889 268.385 177.177 269.261 177.177 270.366ZM171.876 270.366C171.876 271.254 172.054 271.931 172.41 272.397C172.765 272.862 173.288 273.095 173.978 273.095C174.667 273.095 175.19 272.865 175.545 272.403C175.905 271.938 176.085 271.259 176.085 270.366C176.085 269.481 175.905 268.811 175.545 268.354C175.19 267.892 174.663 267.662 173.965 267.662C173.275 267.662 172.755 267.888 172.403 268.341C172.052 268.794 171.876 269.469 171.876 270.366ZM182.204 266.767C182.513 266.767 182.79 266.792 183.036 266.843L182.89 267.82C182.602 267.757 182.348 267.725 182.128 267.725C181.565 267.725 181.083 267.954 180.681 268.411C180.283 268.868 180.084 269.437 180.084 270.118V273.851H179.03V266.894H179.9L180.021 268.182H180.071C180.329 267.729 180.64 267.38 181.004 267.135C181.368 266.889 181.768 266.767 182.204 266.767ZM187.511 266.767C187.82 266.767 188.097 266.792 188.342 266.843L188.196 267.82C187.909 267.757 187.655 267.725 187.435 267.725C186.872 267.725 186.389 267.954 185.987 268.411C185.59 268.868 185.391 269.437 185.391 270.118V273.851H184.337V266.894H185.207L185.327 268.182H185.378C185.636 267.729 185.947 267.38 186.311 267.135C186.675 266.889 187.075 266.767 187.511 266.767ZM192.583 273.978C191.554 273.978 190.742 273.664 190.145 273.038C189.553 272.412 189.256 271.542 189.256 270.429C189.256 269.308 189.531 268.417 190.082 267.757C190.636 267.097 191.379 266.767 192.31 266.767C193.181 266.767 193.871 267.054 194.379 267.63C194.887 268.201 195.141 268.957 195.141 269.896V270.562H190.348C190.369 271.379 190.575 271.999 190.964 272.422C191.357 272.846 191.91 273.057 192.621 273.057C193.37 273.057 194.11 272.901 194.842 272.587V273.527C194.47 273.688 194.117 273.802 193.782 273.87C193.452 273.942 193.052 273.978 192.583 273.978ZM192.297 267.649C191.738 267.649 191.292 267.831 190.958 268.195C190.627 268.559 190.433 269.062 190.374 269.706H194.011C194.011 269.041 193.863 268.533 193.566 268.182C193.27 267.827 192.847 267.649 192.297 267.649ZM199.724 273.978C198.716 273.978 197.936 273.669 197.381 273.051C196.831 272.429 196.556 271.551 196.556 270.417C196.556 269.253 196.835 268.354 197.394 267.719C197.957 267.084 198.757 266.767 199.793 266.767C200.128 266.767 200.462 266.803 200.796 266.875C201.131 266.946 201.393 267.031 201.583 267.128L201.26 268.023C201.027 267.93 200.773 267.854 200.498 267.795C200.223 267.731 199.98 267.7 199.768 267.7C198.355 267.7 197.648 268.601 197.648 270.404C197.648 271.259 197.819 271.915 198.162 272.372C198.509 272.829 199.021 273.057 199.698 273.057C200.278 273.057 200.873 272.932 201.482 272.683V273.616C201.016 273.857 200.43 273.978 199.724 273.978ZM205.386 273.108C205.572 273.108 205.752 273.095 205.925 273.07C206.099 273.04 206.236 273.011 206.338 272.981V273.787C206.224 273.842 206.054 273.887 205.83 273.92C205.61 273.958 205.411 273.978 205.233 273.978C203.888 273.978 203.215 273.269 203.215 271.851V267.712H202.218V267.205L203.215 266.767L203.659 265.281H204.269V266.894H206.287V267.712H204.269V271.807C204.269 272.226 204.368 272.547 204.567 272.771C204.766 272.996 205.039 273.108 205.386 273.108ZM215.39 273.851L215.18 272.86H215.129C214.782 273.296 214.435 273.592 214.088 273.749C213.746 273.901 213.316 273.978 212.8 273.978C212.11 273.978 211.568 273.8 211.175 273.444C210.785 273.089 210.591 272.583 210.591 271.927C210.591 270.522 211.714 269.786 213.961 269.718L215.142 269.68V269.249C215.142 268.703 215.024 268.301 214.787 268.042C214.554 267.78 214.179 267.649 213.663 267.649C213.083 267.649 212.427 267.827 211.695 268.182L211.372 267.376C211.714 267.19 212.089 267.044 212.495 266.938C212.906 266.832 213.316 266.779 213.727 266.779C214.556 266.779 215.17 266.963 215.567 267.332C215.969 267.7 216.17 268.29 216.17 269.103V273.851H215.39ZM213.009 273.108C213.665 273.108 214.179 272.928 214.552 272.568C214.928 272.209 215.117 271.705 215.117 271.058V270.429L214.063 270.474C213.225 270.503 212.62 270.634 212.248 270.867C211.879 271.096 211.695 271.453 211.695 271.94C211.695 272.321 211.81 272.611 212.038 272.81C212.271 273.008 212.595 273.108 213.009 273.108ZM223.108 273.851V269.35C223.108 268.783 222.979 268.36 222.721 268.081C222.463 267.801 222.059 267.662 221.509 267.662C220.781 267.662 220.248 267.858 219.909 268.252C219.571 268.646 219.401 269.295 219.401 270.201V273.851H218.348V266.894H219.205L219.376 267.846H219.427C219.643 267.503 219.945 267.238 220.334 267.052C220.724 266.862 221.158 266.767 221.636 266.767C222.474 266.767 223.104 266.97 223.527 267.376C223.951 267.778 224.162 268.423 224.162 269.312V273.851H223.108ZM230.821 271.953C230.821 272.6 230.58 273.099 230.097 273.451C229.615 273.802 228.938 273.978 228.066 273.978C227.143 273.978 226.424 273.832 225.908 273.54V272.562C226.242 272.731 226.6 272.865 226.98 272.962C227.366 273.059 227.736 273.108 228.091 273.108C228.641 273.108 229.065 273.021 229.361 272.848C229.657 272.67 229.805 272.401 229.805 272.042C229.805 271.771 229.687 271.54 229.45 271.35C229.217 271.155 228.76 270.926 228.079 270.664C227.431 270.423 226.97 270.213 226.695 270.036C226.424 269.854 226.221 269.648 226.085 269.42C225.954 269.191 225.889 268.918 225.889 268.601C225.889 268.034 226.119 267.588 226.581 267.262C227.042 266.932 227.674 266.767 228.479 266.767C229.228 266.767 229.96 266.919 230.675 267.224L230.3 268.081C229.602 267.793 228.969 267.649 228.402 267.649C227.903 267.649 227.526 267.727 227.272 267.884C227.019 268.04 226.892 268.256 226.892 268.531C226.892 268.717 226.938 268.876 227.031 269.007C227.129 269.139 227.283 269.263 227.495 269.382C227.706 269.5 228.112 269.672 228.713 269.896C229.539 270.196 230.095 270.499 230.383 270.804C230.675 271.108 230.821 271.491 230.821 271.953ZM238.222 273.851L236.946 269.769C236.866 269.519 236.716 268.952 236.496 268.068H236.445C236.276 268.808 236.127 269.38 236 269.782L234.687 273.851H233.468L231.57 266.894H232.674C233.123 268.641 233.464 269.972 233.696 270.886C233.933 271.8 234.069 272.416 234.103 272.733H234.153C234.2 272.492 234.274 272.181 234.375 271.8C234.481 271.415 234.572 271.111 234.648 270.886L235.924 266.894H237.067L238.311 270.886C238.548 271.614 238.709 272.226 238.793 272.721H238.844C238.861 272.568 238.906 272.333 238.978 272.016C239.054 271.699 239.496 269.991 240.304 266.894H241.396L239.473 273.851H238.222ZM245.598 273.978C244.57 273.978 243.757 273.664 243.161 273.038C242.568 272.412 242.272 271.542 242.272 270.429C242.272 269.308 242.547 268.417 243.097 267.757C243.652 267.097 244.394 266.767 245.325 266.767C246.197 266.767 246.887 267.054 247.395 267.63C247.902 268.201 248.156 268.957 248.156 269.896V270.562H243.364C243.385 271.379 243.59 271.999 243.979 272.422C244.373 272.846 244.925 273.057 245.636 273.057C246.385 273.057 247.126 272.901 247.858 272.587V273.527C247.486 273.688 247.132 273.802 246.798 273.87C246.468 273.942 246.068 273.978 245.598 273.978ZM245.312 267.649C244.754 267.649 244.307 267.831 243.973 268.195C243.643 268.559 243.448 269.062 243.389 269.706H247.026C247.026 269.041 246.878 268.533 246.582 268.182C246.286 267.827 245.863 267.649 245.312 267.649ZM253.133 266.767C253.442 266.767 253.719 266.792 253.964 266.843L253.818 267.82C253.531 267.757 253.277 267.725 253.057 267.725C252.494 267.725 252.011 267.954 251.609 268.411C251.212 268.868 251.013 269.437 251.013 270.118V273.851H249.959V266.894H250.829L250.949 268.182H251C251.258 267.729 251.569 267.38 251.933 267.135C252.297 266.889 252.697 266.767 253.133 266.767ZM259.753 271.953C259.753 272.6 259.512 273.099 259.03 273.451C258.547 273.802 257.87 273.978 256.999 273.978C256.076 273.978 255.357 273.832 254.84 273.54V272.562C255.175 272.731 255.532 272.865 255.913 272.962C256.298 273.059 256.668 273.108 257.024 273.108C257.574 273.108 257.997 273.021 258.293 272.848C258.59 272.67 258.738 272.401 258.738 272.042C258.738 271.771 258.619 271.54 258.382 271.35C258.15 271.155 257.693 270.926 257.011 270.664C256.364 270.423 255.903 270.213 255.627 270.036C255.357 269.854 255.153 269.648 255.018 269.42C254.887 269.191 254.821 268.918 254.821 268.601C254.821 268.034 255.052 267.588 255.513 267.262C255.974 266.932 256.607 266.767 257.411 266.767C258.16 266.767 258.892 266.919 259.607 267.224L259.233 268.081C258.535 267.793 257.902 267.649 257.335 267.649C256.836 267.649 256.459 267.727 256.205 267.884C255.951 268.04 255.824 268.256 255.824 268.531C255.824 268.717 255.871 268.876 255.964 269.007C256.061 269.139 256.216 269.263 256.427 269.382C256.639 269.5 257.045 269.672 257.646 269.896C258.471 270.196 259.028 270.499 259.315 270.804C259.607 271.108 259.753 271.491 259.753 271.953Z" fill="#090F69"/>
<circle cx="20" cy="334" r="4" fill="#FF9D54"/>
<path d="M34.9512 337.851H33.4595V331.858C33.4595 331.143 33.4764 330.576 33.5103 330.157C33.4129 330.259 33.2923 330.371 33.1484 330.494C33.0088 330.616 32.5348 331.006 31.7266 331.662L30.9775 330.716L33.707 328.57H34.9512V337.851ZM44.2886 337.851H37.998V336.721L40.3911 334.315C41.0978 333.591 41.5654 333.079 41.7939 332.779C42.0267 332.474 42.196 332.188 42.3018 331.922C42.4076 331.655 42.4604 331.37 42.4604 331.065C42.4604 330.646 42.3335 330.316 42.0796 330.075C41.8299 329.833 41.4829 329.713 41.0386 329.713C40.6831 329.713 40.3382 329.778 40.0039 329.91C39.6738 330.041 39.2909 330.278 38.855 330.621L38.0488 329.637C38.5651 329.201 39.0666 328.892 39.5532 328.71C40.0399 328.528 40.5583 328.437 41.1084 328.437C41.9717 328.437 42.6636 328.663 43.1841 329.116C43.7046 329.565 43.9648 330.17 43.9648 330.932C43.9648 331.351 43.8887 331.748 43.7363 332.125C43.5882 332.502 43.3576 332.891 43.0444 333.293C42.7355 333.691 42.2192 334.23 41.4956 334.912L39.8833 336.473V336.537H44.2886V337.851ZM46.6245 331.351C46.6245 331.981 46.6859 332.451 46.8086 332.76C46.9313 333.069 47.1323 333.223 47.4116 333.223C47.9702 333.223 48.2495 332.599 48.2495 331.351C48.2495 330.102 47.9702 329.478 47.4116 329.478C47.1323 329.478 46.9313 329.632 46.8086 329.941C46.6859 330.25 46.6245 330.72 46.6245 331.351ZM49.481 331.338C49.481 332.311 49.3053 333.043 48.9541 333.534C48.6071 334.021 48.0929 334.264 47.4116 334.264C46.7684 334.264 46.269 334.012 45.9136 333.509C45.5623 333.001 45.3867 332.277 45.3867 331.338C45.3867 329.404 46.0617 328.437 47.4116 328.437C48.076 328.437 48.5859 328.689 48.9414 329.192C49.3011 329.692 49.481 330.407 49.481 331.338ZM52.6675 335.058C52.6675 335.688 52.7288 336.16 52.8516 336.473C52.9785 336.786 53.1816 336.943 53.4609 336.943C54.0153 336.943 54.2925 336.314 54.2925 335.058C54.2925 333.818 54.0153 333.198 53.4609 333.198C53.1816 333.198 52.9785 333.35 52.8516 333.655C52.7288 333.959 52.6675 334.427 52.6675 335.058ZM55.5239 335.058C55.5239 336.031 55.3483 336.761 54.9971 337.248C54.6458 337.734 54.1338 337.978 53.4609 337.978C52.8177 337.978 52.3184 337.728 51.9629 337.229C51.6074 336.725 51.4297 336.001 51.4297 335.058C51.4297 333.124 52.1068 332.157 53.4609 332.157C54.1126 332.157 54.6183 332.406 54.978 332.906C55.342 333.405 55.5239 334.122 55.5239 335.058ZM53.6387 328.57L48.4907 337.851H47.2593L52.4072 328.57H53.6387Z" fill="#FF9D54"/>
<path d="M62.8047 337.108C62.9909 337.108 63.1707 337.095 63.3442 337.07C63.5177 337.04 63.6553 337.011 63.7568 336.981V337.787C63.6426 337.842 63.4733 337.887 63.249 337.92C63.029 337.958 62.8301 337.978 62.6523 337.978C61.3066 337.978 60.6338 337.269 60.6338 335.851V331.712H59.6372V331.205L60.6338 330.767L61.0781 329.281H61.6875V330.894H63.7061V331.712H61.6875V335.807C61.6875 336.226 61.7869 336.547 61.9858 336.771C62.1847 336.996 62.4577 337.108 62.8047 337.108ZM66.207 337.851H65.1533V330.894H66.207V337.851ZM65.0645 329.008C65.0645 328.767 65.1237 328.591 65.2422 328.481C65.3607 328.367 65.5088 328.31 65.6865 328.31C65.8558 328.31 66.0018 328.367 66.1245 328.481C66.2472 328.596 66.3086 328.771 66.3086 329.008C66.3086 329.245 66.2472 329.423 66.1245 329.542C66.0018 329.656 65.8558 329.713 65.6865 329.713C65.5088 329.713 65.3607 329.656 65.2422 329.542C65.1237 329.423 65.0645 329.245 65.0645 329.008ZM77.3091 337.851V333.325C77.3091 332.77 77.1906 332.356 76.9536 332.081C76.7166 331.801 76.3485 331.662 75.8491 331.662C75.1932 331.662 74.7087 331.85 74.3955 332.227C74.0824 332.603 73.9258 333.183 73.9258 333.966V337.851H72.8721V333.325C72.8721 332.77 72.7536 332.356 72.5166 332.081C72.2796 331.801 71.9093 331.662 71.4058 331.662C70.7456 331.662 70.2611 331.861 69.9521 332.258C69.6475 332.652 69.4951 333.299 69.4951 334.201V337.851H68.4414V330.894H69.2983L69.4697 331.846H69.5205C69.7194 331.507 69.9987 331.243 70.3584 331.052C70.7223 330.862 71.1286 330.767 71.5771 330.767C72.6647 330.767 73.3757 331.16 73.71 331.947H73.7607C73.9681 331.583 74.2686 331.296 74.6621 331.084C75.0557 330.872 75.5042 330.767 76.0078 330.767C76.7949 330.767 77.3831 330.97 77.7725 331.376C78.166 331.778 78.3628 332.423 78.3628 333.312V337.851H77.3091ZM83.479 337.978C82.4507 337.978 81.6382 337.664 81.0415 337.038C80.4491 336.412 80.1528 335.542 80.1528 334.429C80.1528 333.308 80.4279 332.417 80.978 331.757C81.5324 331.097 82.2751 330.767 83.2061 330.767C84.0778 330.767 84.7676 331.054 85.2754 331.63C85.7832 332.201 86.0371 332.957 86.0371 333.896V334.562H81.2446C81.2658 335.379 81.471 335.999 81.8604 336.422C82.2539 336.846 82.8062 337.057 83.5171 337.057C84.2661 337.057 85.0067 336.901 85.7388 336.587V337.527C85.3664 337.688 85.013 337.802 84.6787 337.87C84.3486 337.942 83.9487 337.978 83.479 337.978ZM83.1934 331.649C82.6348 331.649 82.1883 331.831 81.854 332.195C81.5239 332.559 81.3293 333.062 81.27 333.706H84.9072C84.9072 333.041 84.7591 332.533 84.4629 332.182C84.1667 331.827 83.7435 331.649 83.1934 331.649ZM92.2705 337.851H91.2168V330.894H92.2705V337.851ZM91.1279 329.008C91.1279 328.767 91.1872 328.591 91.3057 328.481C91.4242 328.367 91.5723 328.31 91.75 328.31C91.9193 328.31 92.0653 328.367 92.188 328.481C92.3107 328.596 92.3721 328.771 92.3721 329.008C92.3721 329.245 92.3107 329.423 92.188 329.542C92.0653 329.656 91.9193 329.713 91.75 329.713C91.5723 329.713 91.4242 329.656 91.3057 329.542C91.1872 329.423 91.1279 329.245 91.1279 329.008ZM99.2656 337.851V333.35C99.2656 332.783 99.1366 332.36 98.8784 332.081C98.6203 331.801 98.2161 331.662 97.666 331.662C96.9382 331.662 96.4049 331.858 96.0664 332.252C95.7279 332.646 95.5586 333.295 95.5586 334.201V337.851H94.5049V330.894H95.3618L95.5332 331.846H95.584C95.7998 331.503 96.1024 331.238 96.4917 331.052C96.881 330.862 97.3148 330.767 97.793 330.767C98.6309 330.767 99.2614 330.97 99.6846 331.376C100.108 331.778 100.319 332.423 100.319 333.312V337.851H99.2656ZM104.014 337.851L101.373 330.894H102.503L104.001 335.02C104.34 335.984 104.538 336.611 104.598 336.898H104.648C104.695 336.674 104.841 336.211 105.086 335.508C105.336 334.802 105.893 333.263 106.756 330.894H107.886L105.245 337.851H104.014ZM111.942 337.978C110.914 337.978 110.101 337.664 109.504 337.038C108.912 336.412 108.616 335.542 108.616 334.429C108.616 333.308 108.891 332.417 109.441 331.757C109.995 331.097 110.738 330.767 111.669 330.767C112.541 330.767 113.23 331.054 113.738 331.63C114.246 332.201 114.5 332.957 114.5 333.896V334.562H109.708C109.729 335.379 109.934 335.999 110.323 336.422C110.717 336.846 111.269 337.057 111.98 337.057C112.729 337.057 113.47 336.901 114.202 336.587V337.527C113.829 337.688 113.476 337.802 113.142 337.87C112.812 337.942 112.412 337.978 111.942 337.978ZM111.656 331.649C111.098 331.649 110.651 331.831 110.317 332.195C109.987 332.559 109.792 333.062 109.733 333.706H113.37C113.37 333.041 113.222 332.533 112.926 332.182C112.63 331.827 112.206 331.649 111.656 331.649ZM120.791 335.953C120.791 336.6 120.549 337.099 120.067 337.451C119.584 337.802 118.907 337.978 118.036 337.978C117.113 337.978 116.394 337.832 115.877 337.54V336.562C116.212 336.731 116.569 336.865 116.95 336.962C117.335 337.059 117.706 337.108 118.061 337.108C118.611 337.108 119.034 337.021 119.331 336.848C119.627 336.67 119.775 336.401 119.775 336.042C119.775 335.771 119.656 335.54 119.419 335.35C119.187 335.155 118.73 334.926 118.048 334.664C117.401 334.423 116.94 334.213 116.665 334.036C116.394 333.854 116.191 333.648 116.055 333.42C115.924 333.191 115.858 332.918 115.858 332.601C115.858 332.034 116.089 331.588 116.55 331.262C117.012 330.932 117.644 330.767 118.448 330.767C119.197 330.767 119.929 330.919 120.645 331.224L120.27 332.081C119.572 331.793 118.939 331.649 118.372 331.649C117.873 331.649 117.496 331.727 117.242 331.884C116.988 332.04 116.861 332.256 116.861 332.531C116.861 332.717 116.908 332.876 117.001 333.007C117.098 333.139 117.253 333.263 117.464 333.382C117.676 333.5 118.082 333.672 118.683 333.896C119.508 334.196 120.065 334.499 120.353 334.804C120.645 335.108 120.791 335.491 120.791 335.953ZM124.758 337.108C124.944 337.108 125.124 337.095 125.297 337.07C125.471 337.04 125.608 337.011 125.71 336.981V337.787C125.596 337.842 125.426 337.887 125.202 337.92C124.982 337.958 124.783 337.978 124.605 337.978C123.26 337.978 122.587 337.269 122.587 335.851V331.712H121.59V331.205L122.587 330.767L123.031 329.281H123.641V330.894H125.659V331.712H123.641V335.807C123.641 336.226 123.74 336.547 123.939 336.771C124.138 336.996 124.411 337.108 124.758 337.108ZM130.045 337.978C129.017 337.978 128.205 337.664 127.608 337.038C127.015 336.412 126.719 335.542 126.719 334.429C126.719 333.308 126.994 332.417 127.544 331.757C128.099 331.097 128.841 330.767 129.772 330.767C130.644 330.767 131.334 331.054 131.842 331.63C132.35 332.201 132.604 332.957 132.604 333.896V334.562H127.811C127.832 335.379 128.037 335.999 128.427 336.422C128.82 336.846 129.373 337.057 130.083 337.057C130.833 337.057 131.573 336.901 132.305 336.587V337.527C131.933 337.688 131.579 337.802 131.245 337.87C130.915 337.942 130.515 337.978 130.045 337.978ZM129.76 331.649C129.201 331.649 128.755 331.831 128.42 332.195C128.09 332.559 127.896 333.062 127.836 333.706H131.474C131.474 333.041 131.326 332.533 131.029 332.182C130.733 331.827 130.31 331.649 129.76 331.649ZM139.142 336.917H139.084C138.598 337.624 137.87 337.978 136.901 337.978C135.991 337.978 135.282 337.667 134.774 337.044C134.271 336.422 134.019 335.538 134.019 334.391C134.019 333.244 134.273 332.354 134.781 331.719C135.289 331.084 135.995 330.767 136.901 330.767C137.845 330.767 138.568 331.109 139.072 331.795H139.154L139.11 331.293L139.084 330.805V327.974H140.138V337.851H139.281L139.142 336.917ZM137.034 337.095C137.754 337.095 138.274 336.901 138.596 336.511C138.922 336.118 139.084 335.485 139.084 334.613V334.391C139.084 333.405 138.919 332.703 138.589 332.284C138.264 331.861 137.741 331.649 137.021 331.649C136.404 331.649 135.93 331.89 135.6 332.373C135.274 332.851 135.111 333.528 135.111 334.404C135.111 335.292 135.274 335.963 135.6 336.416C135.925 336.869 136.404 337.095 137.034 337.095ZM151.761 334.366C151.761 335.5 151.475 336.386 150.904 337.025C150.333 337.66 149.543 337.978 148.536 337.978C147.914 337.978 147.362 337.832 146.879 337.54C146.397 337.248 146.025 336.829 145.762 336.283C145.5 335.737 145.369 335.098 145.369 334.366C145.369 333.232 145.652 332.349 146.219 331.719C146.786 331.084 147.573 330.767 148.581 330.767C149.554 330.767 150.326 331.09 150.897 331.738C151.473 332.385 151.761 333.261 151.761 334.366ZM146.46 334.366C146.46 335.254 146.638 335.931 146.994 336.397C147.349 336.862 147.872 337.095 148.562 337.095C149.251 337.095 149.774 336.865 150.129 336.403C150.489 335.938 150.669 335.259 150.669 334.366C150.669 333.481 150.489 332.811 150.129 332.354C149.774 331.892 149.247 331.662 148.549 331.662C147.859 331.662 147.339 331.888 146.987 332.341C146.636 332.794 146.46 333.469 146.46 334.366ZM158.375 337.851V333.35C158.375 332.783 158.246 332.36 157.988 332.081C157.73 331.801 157.326 331.662 156.775 331.662C156.048 331.662 155.514 331.858 155.176 332.252C154.837 332.646 154.668 333.295 154.668 334.201V337.851H153.614V330.894H154.471L154.643 331.846H154.693C154.909 331.503 155.212 331.238 155.601 331.052C155.99 330.862 156.424 330.767 156.902 330.767C157.74 330.767 158.371 330.97 158.794 331.376C159.217 331.778 159.429 332.423 159.429 333.312V337.851H158.375ZM169.464 335.953C169.464 336.6 169.223 337.099 168.741 337.451C168.258 337.802 167.581 337.978 166.709 337.978C165.787 337.978 165.068 337.832 164.551 337.54V336.562C164.886 336.731 165.243 336.865 165.624 336.962C166.009 337.059 166.379 337.108 166.735 337.108C167.285 337.108 167.708 337.021 168.004 336.848C168.301 336.67 168.449 336.401 168.449 336.042C168.449 335.771 168.33 335.54 168.093 335.35C167.861 335.155 167.403 334.926 166.722 334.664C166.075 334.423 165.613 334.213 165.338 334.036C165.068 333.854 164.864 333.648 164.729 333.42C164.598 333.191 164.532 332.918 164.532 332.601C164.532 332.034 164.763 331.588 165.224 331.262C165.685 330.932 166.318 330.767 167.122 330.767C167.871 330.767 168.603 330.919 169.318 331.224L168.944 332.081C168.246 331.793 167.613 331.649 167.046 331.649C166.547 331.649 166.17 331.727 165.916 331.884C165.662 332.04 165.535 332.256 165.535 332.531C165.535 332.717 165.582 332.876 165.675 333.007C165.772 333.139 165.927 333.263 166.138 333.382C166.35 333.5 166.756 333.672 167.357 333.896C168.182 334.196 168.739 334.499 169.026 334.804C169.318 335.108 169.464 335.491 169.464 335.953ZM172.226 334.29C172.408 334.031 172.685 333.693 173.057 333.274L175.304 330.894H176.555L173.736 333.858L176.751 337.851H175.476L173.019 334.562L172.226 335.248V337.851H171.185V327.974H172.226V333.21C172.226 333.443 172.209 333.803 172.175 334.29H172.226ZM179.068 337.851H178.015V330.894H179.068V337.851ZM177.926 329.008C177.926 328.767 177.985 328.591 178.104 328.481C178.222 328.367 178.37 328.31 178.548 328.31C178.717 328.31 178.863 328.367 178.986 328.481C179.109 328.596 179.17 328.771 179.17 329.008C179.17 329.245 179.109 329.423 178.986 329.542C178.863 329.656 178.717 329.713 178.548 329.713C178.37 329.713 178.222 329.656 178.104 329.542C177.985 329.423 177.926 329.245 177.926 329.008ZM184.54 337.978C184.087 337.978 183.673 337.895 183.296 337.73C182.924 337.561 182.61 337.303 182.356 336.956H182.28C182.331 337.362 182.356 337.747 182.356 338.111V340.974H181.303V330.894H182.16L182.306 331.846H182.356C182.627 331.465 182.943 331.19 183.302 331.021C183.662 330.851 184.075 330.767 184.54 330.767C185.463 330.767 186.174 331.082 186.673 331.712C187.176 332.343 187.428 333.227 187.428 334.366C187.428 335.508 187.172 336.397 186.66 337.032C186.152 337.662 185.446 337.978 184.54 337.978ZM184.388 331.662C183.677 331.662 183.163 331.858 182.845 332.252C182.528 332.646 182.365 333.272 182.356 334.131V334.366C182.356 335.343 182.519 336.044 182.845 336.467C183.171 336.886 183.694 337.095 184.413 337.095C185.014 337.095 185.484 336.852 185.822 336.365C186.165 335.879 186.336 335.208 186.336 334.353C186.336 333.486 186.165 332.821 185.822 332.36C185.484 331.894 185.006 331.662 184.388 331.662ZM192.513 337.978C192.06 337.978 191.645 337.895 191.269 337.73C190.896 337.561 190.583 337.303 190.329 336.956H190.253C190.304 337.362 190.329 337.747 190.329 338.111V340.974H189.275V330.894H190.132L190.278 331.846H190.329C190.6 331.465 190.915 331.19 191.275 331.021C191.635 330.851 192.047 330.767 192.513 330.767C193.435 330.767 194.146 331.082 194.646 331.712C195.149 332.343 195.401 333.227 195.401 334.366C195.401 335.508 195.145 336.397 194.633 337.032C194.125 337.662 193.418 337.978 192.513 337.978ZM192.36 331.662C191.649 331.662 191.135 331.858 190.818 332.252C190.5 332.646 190.338 333.272 190.329 334.131V334.366C190.329 335.343 190.492 336.044 190.818 336.467C191.144 336.886 191.666 337.095 192.386 337.095C192.987 337.095 193.456 336.852 193.795 336.365C194.138 335.879 194.309 335.208 194.309 334.353C194.309 333.486 194.138 332.821 193.795 332.36C193.456 331.894 192.978 331.662 192.36 331.662ZM200.187 337.978C199.159 337.978 198.346 337.664 197.75 337.038C197.157 336.412 196.861 335.542 196.861 334.429C196.861 333.308 197.136 332.417 197.686 331.757C198.24 331.097 198.983 330.767 199.914 330.767C200.786 330.767 201.476 331.054 201.983 331.63C202.491 332.201 202.745 332.957 202.745 333.896V334.562H197.953C197.974 335.379 198.179 335.999 198.568 336.422C198.962 336.846 199.514 337.057 200.225 337.057C200.974 337.057 201.715 336.901 202.447 336.587V337.527C202.074 337.688 201.721 337.802 201.387 337.87C201.057 337.942 200.657 337.978 200.187 337.978ZM199.901 331.649C199.343 331.649 198.896 331.831 198.562 332.195C198.232 332.559 198.037 333.062 197.978 333.706H201.615C201.615 333.041 201.467 332.533 201.171 332.182C200.875 331.827 200.451 331.649 199.901 331.649ZM209.283 336.917H209.226C208.739 337.624 208.012 337.978 207.042 337.978C206.133 337.978 205.424 337.667 204.916 337.044C204.412 336.422 204.161 335.538 204.161 334.391C204.161 333.244 204.415 332.354 204.922 331.719C205.43 331.084 206.137 330.767 207.042 330.767C207.986 330.767 208.71 331.109 209.213 331.795H209.296L209.251 331.293L209.226 330.805V327.974H210.28V337.851H209.423L209.283 336.917ZM207.176 337.095C207.895 337.095 208.416 336.901 208.737 336.511C209.063 336.118 209.226 335.485 209.226 334.613V334.391C209.226 333.405 209.061 332.703 208.731 332.284C208.405 331.861 207.882 331.649 207.163 331.649C206.545 331.649 206.071 331.89 205.741 332.373C205.415 332.851 205.252 333.528 205.252 334.404C205.252 335.292 205.415 335.963 205.741 336.416C206.067 336.869 206.545 337.095 207.176 337.095ZM220.176 337.851L219.966 336.86H219.916C219.569 337.296 219.222 337.592 218.875 337.749C218.532 337.901 218.102 337.978 217.586 337.978C216.896 337.978 216.354 337.8 215.961 337.444C215.572 337.089 215.377 336.583 215.377 335.927C215.377 334.522 216.5 333.786 218.748 333.718L219.928 333.68V333.249C219.928 332.703 219.81 332.301 219.573 332.042C219.34 331.78 218.965 331.649 218.449 331.649C217.869 331.649 217.214 331.827 216.481 332.182L216.158 331.376C216.5 331.19 216.875 331.044 217.281 330.938C217.692 330.832 218.102 330.779 218.513 330.779C219.342 330.779 219.956 330.963 220.354 331.332C220.756 331.7 220.957 332.29 220.957 333.103V337.851H220.176ZM217.795 337.108C218.451 337.108 218.965 336.928 219.338 336.568C219.715 336.209 219.903 335.705 219.903 335.058V334.429L218.849 334.474C218.011 334.503 217.406 334.634 217.034 334.867C216.666 335.096 216.481 335.453 216.481 335.94C216.481 336.321 216.596 336.611 216.824 336.81C217.057 337.008 217.381 337.108 217.795 337.108ZM227.895 337.851V333.35C227.895 332.783 227.765 332.36 227.507 332.081C227.249 331.801 226.845 331.662 226.295 331.662C225.567 331.662 225.034 331.858 224.695 332.252C224.357 332.646 224.188 333.295 224.188 334.201V337.851H223.134V330.894H223.991L224.162 331.846H224.213C224.429 331.503 224.731 331.238 225.121 331.052C225.51 330.862 225.944 330.767 226.422 330.767C227.26 330.767 227.89 330.97 228.313 331.376C228.737 331.778 228.948 332.423 228.948 333.312V337.851H227.895ZM235.607 335.953C235.607 336.6 235.366 337.099 234.883 337.451C234.401 337.802 233.724 337.978 232.852 337.978C231.93 337.978 231.21 337.832 230.694 337.54V336.562C231.028 336.731 231.386 336.865 231.767 336.962C232.152 337.059 232.522 337.108 232.877 337.108C233.428 337.108 233.851 337.021 234.147 336.848C234.443 336.67 234.591 336.401 234.591 336.042C234.591 335.771 234.473 335.54 234.236 335.35C234.003 335.155 233.546 334.926 232.865 334.664C232.217 334.423 231.756 334.213 231.481 334.036C231.21 333.854 231.007 333.648 230.872 333.42C230.74 333.191 230.675 332.918 230.675 332.601C230.675 332.034 230.905 331.588 231.367 331.262C231.828 330.932 232.461 330.767 233.265 330.767C234.014 330.767 234.746 330.919 235.461 331.224L235.086 332.081C234.388 331.793 233.756 331.649 233.188 331.649C232.689 331.649 232.312 331.727 232.059 331.884C231.805 332.04 231.678 332.256 231.678 332.531C231.678 332.717 231.724 332.876 231.817 333.007C231.915 333.139 232.069 333.263 232.281 333.382C232.492 333.5 232.899 333.672 233.5 333.896C234.325 334.196 234.881 334.499 235.169 334.804C235.461 335.108 235.607 335.491 235.607 335.953ZM243.008 337.851L241.732 333.769C241.652 333.519 241.502 332.952 241.282 332.068H241.231C241.062 332.808 240.914 333.38 240.787 333.782L239.473 337.851H238.254L236.356 330.894H237.46C237.909 332.641 238.25 333.972 238.482 334.886C238.719 335.8 238.855 336.416 238.889 336.733H238.939C238.986 336.492 239.06 336.181 239.162 335.8C239.267 335.415 239.358 335.111 239.435 334.886L240.71 330.894H241.853L243.097 334.886C243.334 335.614 243.495 336.226 243.58 336.721H243.63C243.647 336.568 243.692 336.333 243.764 336.016C243.84 335.699 244.282 333.991 245.09 330.894H246.182L244.259 337.851H243.008ZM250.384 337.978C249.356 337.978 248.543 337.664 247.947 337.038C247.354 336.412 247.058 335.542 247.058 334.429C247.058 333.308 247.333 332.417 247.883 331.757C248.438 331.097 249.18 330.767 250.111 330.767C250.983 330.767 251.673 331.054 252.181 331.63C252.688 332.201 252.942 332.957 252.942 333.896V334.562H248.15C248.171 335.379 248.376 335.999 248.766 336.422C249.159 336.846 249.711 337.057 250.422 337.057C251.171 337.057 251.912 336.901 252.644 336.587V337.527C252.272 337.688 251.918 337.802 251.584 337.87C251.254 337.942 250.854 337.978 250.384 337.978ZM250.099 331.649C249.54 331.649 249.094 331.831 248.759 332.195C248.429 332.559 248.235 333.062 248.175 333.706H251.812C251.812 333.041 251.664 332.533 251.368 332.182C251.072 331.827 250.649 331.649 250.099 331.649ZM257.919 330.767C258.228 330.767 258.505 330.792 258.75 330.843L258.604 331.82C258.317 331.757 258.063 331.725 257.843 331.725C257.28 331.725 256.798 331.954 256.396 332.411C255.998 332.868 255.799 333.437 255.799 334.118V337.851H254.745V330.894H255.615L255.735 332.182H255.786C256.044 331.729 256.355 331.38 256.719 331.135C257.083 330.889 257.483 330.767 257.919 330.767ZM264.54 335.953C264.54 336.6 264.298 337.099 263.816 337.451C263.333 337.802 262.656 337.978 261.785 337.978C260.862 337.978 260.143 337.832 259.626 337.54V336.562C259.961 336.731 260.318 336.865 260.699 336.962C261.084 337.059 261.455 337.108 261.81 337.108C262.36 337.108 262.783 337.021 263.08 336.848C263.376 336.67 263.524 336.401 263.524 336.042C263.524 335.771 263.405 335.54 263.168 335.35C262.936 335.155 262.479 334.926 261.797 334.664C261.15 334.423 260.689 334.213 260.414 334.036C260.143 333.854 259.94 333.648 259.804 333.42C259.673 333.191 259.607 332.918 259.607 332.601C259.607 332.034 259.838 331.588 260.299 331.262C260.761 330.932 261.393 330.767 262.197 330.767C262.946 330.767 263.678 330.919 264.394 331.224L264.019 332.081C263.321 331.793 262.688 331.649 262.121 331.649C261.622 331.649 261.245 331.727 260.991 331.884C260.737 332.04 260.61 332.256 260.61 332.531C260.61 332.717 260.657 332.876 260.75 333.007C260.847 333.139 261.002 333.263 261.213 333.382C261.425 333.5 261.831 333.672 262.432 333.896C263.257 334.196 263.814 334.499 264.102 334.804C264.394 335.108 264.54 335.491 264.54 335.953Z" fill="#090F69"/>
<circle cx="20" cy="302" r="4" fill="#EF4060"/>
<path d="M36.5127 298.703C36.5127 299.291 36.3413 299.782 35.9985 300.176C35.6558 300.565 35.1733 300.827 34.5513 300.963V301.014C35.2961 301.107 35.8547 301.34 36.2271 301.712C36.5994 302.08 36.7856 302.571 36.7856 303.185C36.7856 304.077 36.4704 304.767 35.8398 305.254C35.2093 305.736 34.3122 305.978 33.1484 305.978C32.1201 305.978 31.2526 305.81 30.5459 305.476V304.149C30.9395 304.344 31.3563 304.494 31.7964 304.6C32.2365 304.706 32.6597 304.759 33.0659 304.759C33.7853 304.759 34.3228 304.625 34.6782 304.359C35.0337 304.092 35.2114 303.68 35.2114 303.121C35.2114 302.626 35.0146 302.262 34.6211 302.029C34.2275 301.797 33.6097 301.68 32.7676 301.68H31.9614V300.468H32.7803C34.2614 300.468 35.002 299.956 35.002 298.932C35.002 298.534 34.8729 298.227 34.6147 298.011C34.3566 297.795 33.9757 297.688 33.4722 297.688C33.1209 297.688 32.7824 297.738 32.4565 297.84C32.1307 297.937 31.7456 298.13 31.3013 298.417L30.5713 297.376C31.4219 296.75 32.41 296.437 33.5356 296.437C34.4709 296.437 35.2008 296.638 35.7256 297.04C36.2503 297.442 36.5127 297.996 36.5127 298.703ZM42.3779 305.851H40.8862V299.858C40.8862 299.143 40.9032 298.576 40.937 298.157C40.8397 298.259 40.7191 298.371 40.5752 298.494C40.4355 298.616 39.9616 299.006 39.1533 299.662L38.4043 298.716L41.1338 296.57H42.3779V305.851ZM46.6245 299.351C46.6245 299.981 46.6859 300.451 46.8086 300.76C46.9313 301.069 47.1323 301.223 47.4116 301.223C47.9702 301.223 48.2495 300.599 48.2495 299.351C48.2495 298.102 47.9702 297.478 47.4116 297.478C47.1323 297.478 46.9313 297.632 46.8086 297.941C46.6859 298.25 46.6245 298.72 46.6245 299.351ZM49.481 299.338C49.481 300.311 49.3053 301.043 48.9541 301.534C48.6071 302.021 48.0929 302.264 47.4116 302.264C46.7684 302.264 46.269 302.012 45.9136 301.509C45.5623 301.001 45.3867 300.277 45.3867 299.338C45.3867 297.404 46.0617 296.437 47.4116 296.437C48.076 296.437 48.5859 296.689 48.9414 297.192C49.3011 297.692 49.481 298.407 49.481 299.338ZM52.6675 303.058C52.6675 303.688 52.7288 304.16 52.8516 304.473C52.9785 304.786 53.1816 304.943 53.4609 304.943C54.0153 304.943 54.2925 304.314 54.2925 303.058C54.2925 301.818 54.0153 301.198 53.4609 301.198C53.1816 301.198 52.9785 301.35 52.8516 301.655C52.7288 301.959 52.6675 302.427 52.6675 303.058ZM55.5239 303.058C55.5239 304.031 55.3483 304.761 54.9971 305.248C54.6458 305.734 54.1338 305.978 53.4609 305.978C52.8177 305.978 52.3184 305.728 51.9629 305.229C51.6074 304.725 51.4297 304.001 51.4297 303.058C51.4297 301.124 52.1068 300.157 53.4609 300.157C54.1126 300.157 54.6183 300.406 54.978 300.906C55.342 301.405 55.5239 302.122 55.5239 303.058ZM53.6387 296.57L48.4907 305.851H47.2593L52.4072 296.57H53.6387Z" fill="#EF4060"/>
<path d="M62.8047 305.108C62.9909 305.108 63.1707 305.095 63.3442 305.07C63.5177 305.04 63.6553 305.011 63.7568 304.981V305.787C63.6426 305.842 63.4733 305.887 63.249 305.92C63.029 305.958 62.8301 305.978 62.6523 305.978C61.3066 305.978 60.6338 305.269 60.6338 303.851V299.712H59.6372V299.205L60.6338 298.767L61.0781 297.281H61.6875V298.894H63.7061V299.712H61.6875V303.807C61.6875 304.226 61.7869 304.547 61.9858 304.771C62.1847 304.996 62.4577 305.108 62.8047 305.108ZM66.207 305.851H65.1533V298.894H66.207V305.851ZM65.0645 297.008C65.0645 296.767 65.1237 296.591 65.2422 296.481C65.3607 296.367 65.5088 296.31 65.6865 296.31C65.8558 296.31 66.0018 296.367 66.1245 296.481C66.2472 296.596 66.3086 296.771 66.3086 297.008C66.3086 297.245 66.2472 297.423 66.1245 297.542C66.0018 297.656 65.8558 297.713 65.6865 297.713C65.5088 297.713 65.3607 297.656 65.2422 297.542C65.1237 297.423 65.0645 297.245 65.0645 297.008ZM77.3091 305.851V301.325C77.3091 300.77 77.1906 300.356 76.9536 300.081C76.7166 299.801 76.3485 299.662 75.8491 299.662C75.1932 299.662 74.7087 299.85 74.3955 300.227C74.0824 300.603 73.9258 301.183 73.9258 301.966V305.851H72.8721V301.325C72.8721 300.77 72.7536 300.356 72.5166 300.081C72.2796 299.801 71.9093 299.662 71.4058 299.662C70.7456 299.662 70.2611 299.861 69.9521 300.258C69.6475 300.652 69.4951 301.299 69.4951 302.201V305.851H68.4414V298.894H69.2983L69.4697 299.846H69.5205C69.7194 299.507 69.9987 299.243 70.3584 299.052C70.7223 298.862 71.1286 298.767 71.5771 298.767C72.6647 298.767 73.3757 299.16 73.71 299.947H73.7607C73.9681 299.583 74.2686 299.296 74.6621 299.084C75.0557 298.872 75.5042 298.767 76.0078 298.767C76.7949 298.767 77.3831 298.97 77.7725 299.376C78.166 299.778 78.3628 300.423 78.3628 301.312V305.851H77.3091ZM83.479 305.978C82.4507 305.978 81.6382 305.664 81.0415 305.038C80.4491 304.412 80.1528 303.542 80.1528 302.429C80.1528 301.308 80.4279 300.417 80.978 299.757C81.5324 299.097 82.2751 298.767 83.2061 298.767C84.0778 298.767 84.7676 299.054 85.2754 299.63C85.7832 300.201 86.0371 300.957 86.0371 301.896V302.562H81.2446C81.2658 303.379 81.471 303.999 81.8604 304.422C82.2539 304.846 82.8062 305.057 83.5171 305.057C84.2661 305.057 85.0067 304.901 85.7388 304.587V305.527C85.3664 305.688 85.013 305.802 84.6787 305.87C84.3486 305.942 83.9487 305.978 83.479 305.978ZM83.1934 299.649C82.6348 299.649 82.1883 299.831 81.854 300.195C81.5239 300.559 81.3293 301.062 81.27 301.706H84.9072C84.9072 301.041 84.7591 300.533 84.4629 300.182C84.1667 299.827 83.7435 299.649 83.1934 299.649ZM92.2705 305.851H91.2168V298.894H92.2705V305.851ZM91.1279 297.008C91.1279 296.767 91.1872 296.591 91.3057 296.481C91.4242 296.367 91.5723 296.31 91.75 296.31C91.9193 296.31 92.0653 296.367 92.188 296.481C92.3107 296.596 92.3721 296.771 92.3721 297.008C92.3721 297.245 92.3107 297.423 92.188 297.542C92.0653 297.656 91.9193 297.713 91.75 297.713C91.5723 297.713 91.4242 297.656 91.3057 297.542C91.1872 297.423 91.1279 297.245 91.1279 297.008ZM99.2656 305.851V301.35C99.2656 300.783 99.1366 300.36 98.8784 300.081C98.6203 299.801 98.2161 299.662 97.666 299.662C96.9382 299.662 96.4049 299.858 96.0664 300.252C95.7279 300.646 95.5586 301.295 95.5586 302.201V305.851H94.5049V298.894H95.3618L95.5332 299.846H95.584C95.7998 299.503 96.1024 299.238 96.4917 299.052C96.881 298.862 97.3148 298.767 97.793 298.767C98.6309 298.767 99.2614 298.97 99.6846 299.376C100.108 299.778 100.319 300.423 100.319 301.312V305.851H99.2656ZM104.014 305.851L101.373 298.894H102.503L104.001 303.02C104.34 303.984 104.538 304.611 104.598 304.898H104.648C104.695 304.674 104.841 304.211 105.086 303.508C105.336 302.802 105.893 301.263 106.756 298.894H107.886L105.245 305.851H104.014ZM111.942 305.978C110.914 305.978 110.101 305.664 109.504 305.038C108.912 304.412 108.616 303.542 108.616 302.429C108.616 301.308 108.891 300.417 109.441 299.757C109.995 299.097 110.738 298.767 111.669 298.767C112.541 298.767 113.23 299.054 113.738 299.63C114.246 300.201 114.5 300.957 114.5 301.896V302.562H109.708C109.729 303.379 109.934 303.999 110.323 304.422C110.717 304.846 111.269 305.057 111.98 305.057C112.729 305.057 113.47 304.901 114.202 304.587V305.527C113.829 305.688 113.476 305.802 113.142 305.87C112.812 305.942 112.412 305.978 111.942 305.978ZM111.656 299.649C111.098 299.649 110.651 299.831 110.317 300.195C109.987 300.559 109.792 301.062 109.733 301.706H113.37C113.37 301.041 113.222 300.533 112.926 300.182C112.63 299.827 112.206 299.649 111.656 299.649ZM120.791 303.953C120.791 304.6 120.549 305.099 120.067 305.451C119.584 305.802 118.907 305.978 118.036 305.978C117.113 305.978 116.394 305.832 115.877 305.54V304.562C116.212 304.731 116.569 304.865 116.95 304.962C117.335 305.059 117.706 305.108 118.061 305.108C118.611 305.108 119.034 305.021 119.331 304.848C119.627 304.67 119.775 304.401 119.775 304.042C119.775 303.771 119.656 303.54 119.419 303.35C119.187 303.155 118.73 302.926 118.048 302.664C117.401 302.423 116.94 302.213 116.665 302.036C116.394 301.854 116.191 301.648 116.055 301.42C115.924 301.191 115.858 300.918 115.858 300.601C115.858 300.034 116.089 299.588 116.55 299.262C117.012 298.932 117.644 298.767 118.448 298.767C119.197 298.767 119.929 298.919 120.645 299.224L120.27 300.081C119.572 299.793 118.939 299.649 118.372 299.649C117.873 299.649 117.496 299.727 117.242 299.884C116.988 300.04 116.861 300.256 116.861 300.531C116.861 300.717 116.908 300.876 117.001 301.007C117.098 301.139 117.253 301.263 117.464 301.382C117.676 301.5 118.082 301.672 118.683 301.896C119.508 302.196 120.065 302.499 120.353 302.804C120.645 303.108 120.791 303.491 120.791 303.953ZM124.758 305.108C124.944 305.108 125.124 305.095 125.297 305.07C125.471 305.04 125.608 305.011 125.71 304.981V305.787C125.596 305.842 125.426 305.887 125.202 305.92C124.982 305.958 124.783 305.978 124.605 305.978C123.26 305.978 122.587 305.269 122.587 303.851V299.712H121.59V299.205L122.587 298.767L123.031 297.281H123.641V298.894H125.659V299.712H123.641V303.807C123.641 304.226 123.74 304.547 123.939 304.771C124.138 304.996 124.411 305.108 124.758 305.108ZM130.045 305.978C129.017 305.978 128.205 305.664 127.608 305.038C127.015 304.412 126.719 303.542 126.719 302.429C126.719 301.308 126.994 300.417 127.544 299.757C128.099 299.097 128.841 298.767 129.772 298.767C130.644 298.767 131.334 299.054 131.842 299.63C132.35 300.201 132.604 300.957 132.604 301.896V302.562H127.811C127.832 303.379 128.037 303.999 128.427 304.422C128.82 304.846 129.373 305.057 130.083 305.057C130.833 305.057 131.573 304.901 132.305 304.587V305.527C131.933 305.688 131.579 305.802 131.245 305.87C130.915 305.942 130.515 305.978 130.045 305.978ZM129.76 299.649C129.201 299.649 128.755 299.831 128.42 300.195C128.09 300.559 127.896 301.062 127.836 301.706H131.474C131.474 301.041 131.326 300.533 131.029 300.182C130.733 299.827 130.31 299.649 129.76 299.649ZM139.142 304.917H139.084C138.598 305.624 137.87 305.978 136.901 305.978C135.991 305.978 135.282 305.667 134.774 305.044C134.271 304.422 134.019 303.538 134.019 302.391C134.019 301.244 134.273 300.354 134.781 299.719C135.289 299.084 135.995 298.767 136.901 298.767C137.845 298.767 138.568 299.109 139.072 299.795H139.154L139.11 299.293L139.084 298.805V295.974H140.138V305.851H139.281L139.142 304.917ZM137.034 305.095C137.754 305.095 138.274 304.901 138.596 304.511C138.922 304.118 139.084 303.485 139.084 302.613V302.391C139.084 301.405 138.919 300.703 138.589 300.284C138.264 299.861 137.741 299.649 137.021 299.649C136.404 299.649 135.93 299.89 135.6 300.373C135.274 300.851 135.111 301.528 135.111 302.404C135.111 303.292 135.274 303.963 135.6 304.416C135.925 304.869 136.404 305.095 137.034 305.095ZM151.761 302.366C151.761 303.5 151.475 304.386 150.904 305.025C150.333 305.66 149.543 305.978 148.536 305.978C147.914 305.978 147.362 305.832 146.879 305.54C146.397 305.248 146.025 304.829 145.762 304.283C145.5 303.737 145.369 303.098 145.369 302.366C145.369 301.232 145.652 300.349 146.219 299.719C146.786 299.084 147.573 298.767 148.581 298.767C149.554 298.767 150.326 299.09 150.897 299.738C151.473 300.385 151.761 301.261 151.761 302.366ZM146.46 302.366C146.46 303.254 146.638 303.931 146.994 304.397C147.349 304.862 147.872 305.095 148.562 305.095C149.251 305.095 149.774 304.865 150.129 304.403C150.489 303.938 150.669 303.259 150.669 302.366C150.669 301.481 150.489 300.811 150.129 300.354C149.774 299.892 149.247 299.662 148.549 299.662C147.859 299.662 147.339 299.888 146.987 300.341C146.636 300.794 146.46 301.469 146.46 302.366ZM158.375 305.851V301.35C158.375 300.783 158.246 300.36 157.988 300.081C157.73 299.801 157.326 299.662 156.775 299.662C156.048 299.662 155.514 299.858 155.176 300.252C154.837 300.646 154.668 301.295 154.668 302.201V305.851H153.614V298.894H154.471L154.643 299.846H154.693C154.909 299.503 155.212 299.238 155.601 299.052C155.99 298.862 156.424 298.767 156.902 298.767C157.74 298.767 158.371 298.97 158.794 299.376C159.217 299.778 159.429 300.423 159.429 301.312V305.851H158.375ZM166.03 305.851H164.977V298.894H166.03V305.851ZM164.888 297.008C164.888 296.767 164.947 296.591 165.065 296.481C165.184 296.367 165.332 296.31 165.51 296.31C165.679 296.31 165.825 296.367 165.948 296.481C166.07 296.596 166.132 296.771 166.132 297.008C166.132 297.245 166.07 297.423 165.948 297.542C165.825 297.656 165.679 297.713 165.51 297.713C165.332 297.713 165.184 297.656 165.065 297.542C164.947 297.423 164.888 297.245 164.888 297.008ZM173.025 305.851V301.35C173.025 300.783 172.896 300.36 172.638 300.081C172.38 299.801 171.976 299.662 171.426 299.662C170.698 299.662 170.165 299.858 169.826 300.252C169.488 300.646 169.318 301.295 169.318 302.201V305.851H168.265V298.894H169.122L169.293 299.846H169.344C169.56 299.503 169.862 299.238 170.251 299.052C170.641 298.862 171.075 298.767 171.553 298.767C172.391 298.767 173.021 298.97 173.444 299.376C173.868 299.778 174.079 300.423 174.079 301.312V305.851H173.025ZM179.03 305.978C178.023 305.978 177.242 305.669 176.688 305.051C176.138 304.429 175.863 303.551 175.863 302.417C175.863 301.253 176.142 300.354 176.701 299.719C177.264 299.084 178.063 298.767 179.1 298.767C179.434 298.767 179.769 298.803 180.103 298.875C180.437 298.946 180.7 299.031 180.89 299.128L180.566 300.023C180.334 299.93 180.08 299.854 179.805 299.795C179.53 299.731 179.286 299.7 179.075 299.7C177.661 299.7 176.955 300.601 176.955 302.404C176.955 303.259 177.126 303.915 177.469 304.372C177.816 304.829 178.328 305.057 179.005 305.057C179.585 305.057 180.179 304.932 180.789 304.683V305.616C180.323 305.857 179.737 305.978 179.03 305.978ZM188.45 302.366C188.45 303.5 188.165 304.386 187.593 305.025C187.022 305.66 186.233 305.978 185.226 305.978C184.604 305.978 184.051 305.832 183.569 305.54C183.086 305.248 182.714 304.829 182.452 304.283C182.189 303.737 182.058 303.098 182.058 302.366C182.058 301.232 182.342 300.349 182.909 299.719C183.476 299.084 184.263 298.767 185.27 298.767C186.243 298.767 187.016 299.09 187.587 299.738C188.162 300.385 188.45 301.261 188.45 302.366ZM183.15 302.366C183.15 303.254 183.328 303.931 183.683 304.397C184.039 304.862 184.561 305.095 185.251 305.095C185.941 305.095 186.463 304.865 186.819 304.403C187.179 303.938 187.358 303.259 187.358 302.366C187.358 301.481 187.179 300.811 186.819 300.354C186.463 299.892 185.937 299.662 185.238 299.662C184.549 299.662 184.028 299.888 183.677 300.341C183.326 300.794 183.15 301.469 183.15 302.366ZM193.478 298.767C193.786 298.767 194.064 298.792 194.309 298.843L194.163 299.82C193.875 299.757 193.621 299.725 193.401 299.725C192.839 299.725 192.356 299.954 191.954 300.411C191.556 300.868 191.357 301.437 191.357 302.118V305.851H190.304V298.894H191.173L191.294 300.182H191.345C191.603 299.729 191.914 299.38 192.278 299.135C192.642 298.889 193.042 298.767 193.478 298.767ZM198.784 298.767C199.093 298.767 199.37 298.792 199.616 298.843L199.47 299.82C199.182 299.757 198.928 299.725 198.708 299.725C198.145 299.725 197.663 299.954 197.261 300.411C196.863 300.868 196.664 301.437 196.664 302.118V305.851H195.61V298.894H196.48L196.601 300.182H196.651C196.91 299.729 197.221 299.38 197.584 299.135C197.948 298.889 198.348 298.767 198.784 298.767ZM203.856 305.978C202.828 305.978 202.015 305.664 201.418 305.038C200.826 304.412 200.53 303.542 200.53 302.429C200.53 301.308 200.805 300.417 201.355 299.757C201.909 299.097 202.652 298.767 203.583 298.767C204.455 298.767 205.145 299.054 205.652 299.63C206.16 300.201 206.414 300.957 206.414 301.896V302.562H201.622C201.643 303.379 201.848 303.999 202.237 304.422C202.631 304.846 203.183 305.057 203.894 305.057C204.643 305.057 205.384 304.901 206.116 304.587V305.527C205.743 305.688 205.39 305.802 205.056 305.87C204.726 305.942 204.326 305.978 203.856 305.978ZM203.57 299.649C203.012 299.649 202.565 299.831 202.231 300.195C201.901 300.559 201.706 301.062 201.647 301.706H205.284C205.284 301.041 205.136 300.533 204.84 300.182C204.544 299.827 204.12 299.649 203.57 299.649ZM210.997 305.978C209.99 305.978 209.209 305.669 208.655 305.051C208.105 304.429 207.83 303.551 207.83 302.417C207.83 301.253 208.109 300.354 208.667 299.719C209.23 299.084 210.03 298.767 211.067 298.767C211.401 298.767 211.736 298.803 212.07 298.875C212.404 298.946 212.667 299.031 212.857 299.128L212.533 300.023C212.3 299.93 212.047 299.854 211.771 299.795C211.496 299.731 211.253 299.7 211.042 299.7C209.628 299.7 208.921 300.601 208.921 302.404C208.921 303.259 209.093 303.915 209.436 304.372C209.783 304.829 210.295 305.057 210.972 305.057C211.551 305.057 212.146 304.932 212.755 304.683V305.616C212.29 305.857 211.704 305.978 210.997 305.978ZM216.659 305.108C216.845 305.108 217.025 305.095 217.199 305.07C217.372 305.04 217.51 305.011 217.611 304.981V305.787C217.497 305.842 217.328 305.887 217.104 305.92C216.883 305.958 216.685 305.978 216.507 305.978C215.161 305.978 214.488 305.269 214.488 303.851V299.712H213.492V299.205L214.488 298.767L214.933 297.281H215.542V298.894H217.561V299.712H215.542V303.807C215.542 304.226 215.641 304.547 215.84 304.771C216.039 304.996 216.312 305.108 216.659 305.108ZM226.663 305.851L226.454 304.86H226.403C226.056 305.296 225.709 305.592 225.362 305.749C225.019 305.901 224.59 305.978 224.073 305.978C223.383 305.978 222.842 305.8 222.448 305.444C222.059 305.089 221.864 304.583 221.864 303.927C221.864 302.522 222.988 301.786 225.235 301.718L226.416 301.68V301.249C226.416 300.703 226.297 300.301 226.06 300.042C225.827 299.78 225.453 299.649 224.937 299.649C224.357 299.649 223.701 299.827 222.969 300.182L222.645 299.376C222.988 299.19 223.362 299.044 223.769 298.938C224.179 298.832 224.59 298.779 225 298.779C225.829 298.779 226.443 298.963 226.841 299.332C227.243 299.7 227.444 300.29 227.444 301.103V305.851H226.663ZM224.283 305.108C224.939 305.108 225.453 304.928 225.825 304.568C226.202 304.209 226.39 303.705 226.39 303.058V302.429L225.336 302.474C224.499 302.503 223.893 302.634 223.521 302.867C223.153 303.096 222.969 303.453 222.969 303.94C222.969 304.321 223.083 304.611 223.312 304.81C223.544 305.008 223.868 305.108 224.283 305.108ZM234.382 305.851V301.35C234.382 300.783 234.253 300.36 233.995 300.081C233.736 299.801 233.332 299.662 232.782 299.662C232.054 299.662 231.521 299.858 231.183 300.252C230.844 300.646 230.675 301.295 230.675 302.201V305.851H229.621V298.894H230.478L230.649 299.846H230.7C230.916 299.503 231.219 299.238 231.608 299.052C231.997 298.862 232.431 298.767 232.909 298.767C233.747 298.767 234.378 298.97 234.801 299.376C235.224 299.778 235.436 300.423 235.436 301.312V305.851H234.382ZM242.094 303.953C242.094 304.6 241.853 305.099 241.371 305.451C240.888 305.802 240.211 305.978 239.339 305.978C238.417 305.978 237.697 305.832 237.181 305.54V304.562C237.515 304.731 237.873 304.865 238.254 304.962C238.639 305.059 239.009 305.108 239.365 305.108C239.915 305.108 240.338 305.021 240.634 304.848C240.931 304.67 241.079 304.401 241.079 304.042C241.079 303.771 240.96 303.54 240.723 303.35C240.49 303.155 240.033 302.926 239.352 302.664C238.705 302.423 238.243 302.213 237.968 302.036C237.697 301.854 237.494 301.648 237.359 301.42C237.228 301.191 237.162 300.918 237.162 300.601C237.162 300.034 237.393 299.588 237.854 299.262C238.315 298.932 238.948 298.767 239.752 298.767C240.501 298.767 241.233 298.919 241.948 299.224L241.574 300.081C240.875 299.793 240.243 299.649 239.676 299.649C239.176 299.649 238.8 299.727 238.546 299.884C238.292 300.04 238.165 300.256 238.165 300.531C238.165 300.717 238.212 300.876 238.305 301.007C238.402 301.139 238.556 301.263 238.768 301.382C238.98 301.5 239.386 301.672 239.987 301.896C240.812 302.196 241.368 302.499 241.656 302.804C241.948 303.108 242.094 303.491 242.094 303.953ZM249.496 305.851L248.22 301.769C248.139 301.519 247.989 300.952 247.769 300.068H247.718C247.549 300.808 247.401 301.38 247.274 301.782L245.96 305.851H244.741L242.843 298.894H243.948C244.396 300.641 244.737 301.972 244.97 302.886C245.207 303.8 245.342 304.416 245.376 304.733H245.427C245.473 304.492 245.547 304.181 245.649 303.8C245.755 303.415 245.846 303.111 245.922 302.886L247.198 298.894H248.34L249.584 302.886C249.821 303.614 249.982 304.226 250.067 304.721H250.118C250.135 304.568 250.179 304.333 250.251 304.016C250.327 303.699 250.769 301.991 251.578 298.894H252.669L250.746 305.851H249.496ZM256.872 305.978C255.843 305.978 255.031 305.664 254.434 305.038C253.842 304.412 253.545 303.542 253.545 302.429C253.545 301.308 253.82 300.417 254.371 299.757C254.925 299.097 255.668 298.767 256.599 298.767C257.47 298.767 258.16 299.054 258.668 299.63C259.176 300.201 259.43 300.957 259.43 301.896V302.562H254.637C254.658 303.379 254.864 303.999 255.253 304.422C255.646 304.846 256.199 305.057 256.91 305.057C257.659 305.057 258.399 304.901 259.131 304.587V305.527C258.759 305.688 258.406 305.802 258.071 305.87C257.741 305.942 257.341 305.978 256.872 305.978ZM256.586 299.649C256.027 299.649 255.581 299.831 255.247 300.195C254.917 300.559 254.722 301.062 254.663 301.706H258.3C258.3 301.041 258.152 300.533 257.855 300.182C257.559 299.827 257.136 299.649 256.586 299.649ZM264.406 298.767C264.715 298.767 264.992 298.792 265.238 298.843L265.092 299.82C264.804 299.757 264.55 299.725 264.33 299.725C263.767 299.725 263.285 299.954 262.883 300.411C262.485 300.868 262.286 301.437 262.286 302.118V305.851H261.232V298.894H262.102L262.223 300.182H262.273C262.532 299.729 262.843 299.38 263.207 299.135C263.57 298.889 263.97 298.767 264.406 298.767ZM271.027 303.953C271.027 304.6 270.786 305.099 270.303 305.451C269.821 305.802 269.144 305.978 268.272 305.978C267.349 305.978 266.63 305.832 266.114 305.54V304.562C266.448 304.731 266.806 304.865 267.187 304.962C267.572 305.059 267.942 305.108 268.297 305.108C268.847 305.108 269.271 305.021 269.567 304.848C269.863 304.67 270.011 304.401 270.011 304.042C270.011 303.771 269.893 303.54 269.656 303.35C269.423 303.155 268.966 302.926 268.285 302.664C267.637 302.423 267.176 302.213 266.901 302.036C266.63 301.854 266.427 301.648 266.292 301.42C266.16 301.191 266.095 300.918 266.095 300.601C266.095 300.034 266.325 299.588 266.787 299.262C267.248 298.932 267.881 298.767 268.685 298.767C269.434 298.767 270.166 298.919 270.881 299.224L270.506 300.081C269.808 299.793 269.175 299.649 268.608 299.649C268.109 299.649 267.732 299.727 267.479 299.884C267.225 300.04 267.098 300.256 267.098 300.531C267.098 300.717 267.144 300.876 267.237 301.007C267.335 301.139 267.489 301.263 267.701 301.382C267.912 301.5 268.319 301.672 268.919 301.896C269.745 302.196 270.301 302.499 270.589 302.804C270.881 303.108 271.027 303.491 271.027 303.953Z" fill="#090F69"/>
</svg>
