<svg width="595" height="358" viewBox="0 0 595 358" fill="none" xmlns="http://www.w3.org/2000/svg">
<rect x="0.5" y="0.5" width="594" height="357" rx="2.5" fill="white" stroke="#F4F5F7"/>
<path d="M23.1094 28L21.9541 25.0483H18.2344L17.0918 28H16L19.6689 18.6816H20.5767L24.2266 28H23.1094ZM21.6177 24.0771L20.5386 21.2017C20.3989 20.8377 20.255 20.3913 20.1069 19.8623C20.0138 20.2686 19.8805 20.715 19.707 21.2017L18.6152 24.0771H21.6177ZM27.5908 27.2573C27.777 27.2573 27.9569 27.2446 28.1304 27.2192C28.3039 27.1896 28.4414 27.16 28.543 27.1304V27.9365C28.4287 27.9915 28.2594 28.036 28.0352 28.0698C27.8151 28.1079 27.6162 28.127 27.4385 28.127C26.0928 28.127 25.4199 27.4181 25.4199 26.0005V21.8618H24.4233V21.354L25.4199 20.916L25.8643 19.4307H26.4736V21.043H28.4922V21.8618H26.4736V25.9561C26.4736 26.375 26.5731 26.6966 26.772 26.9209C26.9709 27.1452 27.2438 27.2573 27.5908 27.2573ZM32.1865 27.2573C32.3727 27.2573 32.5526 27.2446 32.7261 27.2192C32.8996 27.1896 33.0371 27.16 33.1387 27.1304V27.9365C33.0244 27.9915 32.8551 28.036 32.6309 28.0698C32.4108 28.1079 32.2119 28.127 32.0342 28.127C30.6885 28.127 30.0156 27.4181 30.0156 26.0005V21.8618H29.019V21.354L30.0156 20.916L30.46 19.4307H31.0693V21.043H33.0879V21.8618H31.0693V25.9561C31.0693 26.375 31.1688 26.6966 31.3677 26.9209C31.5666 27.1452 31.8395 27.2573 32.1865 27.2573ZM37.4741 28.127C36.4458 28.127 35.6333 27.8138 35.0366 27.1875C34.4442 26.5612 34.1479 25.6916 34.1479 24.5786C34.1479 23.4572 34.423 22.5664 34.9731 21.9062C35.5275 21.2461 36.2702 20.916 37.2012 20.916C38.0729 20.916 38.7627 21.2038 39.2705 21.7793C39.7783 22.3506 40.0322 23.106 40.0322 24.0454V24.7119H35.2397C35.2609 25.5286 35.4661 26.1486 35.8555 26.5718C36.249 26.995 36.8013 27.2065 37.5122 27.2065C38.2612 27.2065 39.0018 27.05 39.7339 26.7368V27.6763C39.3615 27.8371 39.0081 27.9513 38.6738 28.019C38.3438 28.091 37.9438 28.127 37.4741 28.127ZM37.1885 21.7983C36.6299 21.7983 36.1834 21.9803 35.8491 22.3442C35.519 22.7082 35.3244 23.2118 35.2651 23.855H38.9023C38.9023 23.1906 38.7542 22.6828 38.458 22.3315C38.1618 21.9761 37.7386 21.7983 37.1885 21.7983ZM50.7026 28V23.4741C50.7026 22.9198 50.5841 22.505 50.3472 22.23C50.1102 21.9507 49.742 21.811 49.2427 21.811C48.5868 21.811 48.1022 21.9993 47.7891 22.376C47.4759 22.7526 47.3193 23.3324 47.3193 24.1152V28H46.2656V23.4741C46.2656 22.9198 46.1471 22.505 45.9102 22.23C45.6732 21.9507 45.3029 21.811 44.7993 21.811C44.1392 21.811 43.6546 22.0099 43.3457 22.4077C43.041 22.8013 42.8887 23.4487 42.8887 24.3501V28H41.835V21.043H42.6919L42.8633 21.9951H42.9141C43.113 21.6566 43.3923 21.3921 43.752 21.2017C44.1159 21.0112 44.5221 20.916 44.9707 20.916C46.0583 20.916 46.7692 21.3096 47.1035 22.0967H47.1543C47.3617 21.7327 47.6621 21.445 48.0557 21.2334C48.4492 21.0218 48.8978 20.916 49.4014 20.916C50.1885 20.916 50.7767 21.1191 51.166 21.5254C51.5596 21.9274 51.7563 22.5728 51.7563 23.4614V28H50.7026ZM57.1709 28.127C56.7181 28.127 56.3034 28.0444 55.9268 27.8794C55.5544 27.7101 55.2412 27.452 54.9873 27.105H54.9111C54.9619 27.5112 54.9873 27.8963 54.9873 28.2603V31.123H53.9336V21.043H54.7905L54.9365 21.9951H54.9873C55.2581 21.6143 55.5734 21.3392 55.9331 21.1699C56.2928 21.0007 56.7054 20.916 57.1709 20.916C58.0934 20.916 58.8044 21.2313 59.3037 21.8618C59.8073 22.4924 60.0591 23.3768 60.0591 24.5151C60.0591 25.6577 59.8031 26.5464 59.291 27.1812C58.7832 27.8117 58.0765 28.127 57.1709 28.127ZM57.0186 21.811C56.3076 21.811 55.7935 22.0078 55.4761 22.4014C55.1587 22.7949 54.9958 23.4212 54.9873 24.2803V24.5151C54.9873 25.4927 55.1502 26.193 55.4761 26.6162C55.8019 27.0352 56.3245 27.2446 57.0439 27.2446C57.6449 27.2446 58.1146 27.0013 58.4531 26.5146C58.7959 26.028 58.9673 25.3573 58.9673 24.5024C58.9673 23.6349 58.7959 22.9705 58.4531 22.5093C58.1146 22.0438 57.6364 21.811 57.0186 21.811ZM64.1533 27.2573C64.3395 27.2573 64.5194 27.2446 64.6929 27.2192C64.8664 27.1896 65.0039 27.16 65.1055 27.1304V27.9365C64.9912 27.9915 64.8219 28.036 64.5977 28.0698C64.3776 28.1079 64.1787 28.127 64.001 28.127C62.6553 28.127 61.9824 27.4181 61.9824 26.0005V21.8618H60.9858V21.354L61.9824 20.916L62.4268 19.4307H63.0361V21.043H65.0547V21.8618H63.0361V25.9561C63.0361 26.375 63.1356 26.6966 63.3345 26.9209C63.5334 27.1452 63.8063 27.2573 64.1533 27.2573ZM70.9897 26.1021C70.9897 26.7495 70.7485 27.2489 70.2661 27.6001C69.7837 27.9513 69.1066 28.127 68.2349 28.127C67.3123 28.127 66.5929 27.981 66.0767 27.689V26.7114C66.411 26.8807 66.7686 27.014 67.1494 27.1113C67.5345 27.2087 67.9048 27.2573 68.2603 27.2573C68.8104 27.2573 69.2336 27.1706 69.5298 26.9971C69.826 26.8193 69.9741 26.5506 69.9741 26.1909C69.9741 25.9201 69.8556 25.6895 69.6187 25.499C69.3859 25.3044 68.9289 25.0758 68.2476 24.8135C67.6001 24.5723 67.1388 24.3628 66.8638 24.1851C66.5929 24.0031 66.3898 23.7979 66.2544 23.5693C66.1232 23.3408 66.0576 23.0679 66.0576 22.7505C66.0576 22.1834 66.2882 21.737 66.7495 21.4111C67.2108 21.0811 67.8434 20.916 68.6475 20.916C69.3965 20.916 70.1286 21.0684 70.8438 21.373L70.4692 22.23C69.771 21.9422 69.1383 21.7983 68.5713 21.7983C68.0719 21.7983 67.6953 21.8766 67.4414 22.0332C67.1875 22.1898 67.0605 22.4056 67.0605 22.6807C67.0605 22.8669 67.1071 23.0256 67.2002 23.1567C67.2975 23.2879 67.452 23.4128 67.6636 23.5312C67.8752 23.6497 68.2814 23.8211 68.8823 24.0454C69.7075 24.3459 70.264 24.6484 70.5518 24.9531C70.8438 25.2578 70.9897 25.6408 70.9897 26.1021Z" fill="#090F69"/>
<line x1="87" y1="322.7" x2="567" y2="322.7" stroke="#E1DDDD" stroke-width="0.6"/>
<path d="M92.3584 333.421C92.3584 334.655 92.1631 335.576 91.7725 336.185C91.3851 336.793 90.791 337.098 89.9902 337.098C89.222 337.098 88.6377 336.787 88.2373 336.165C87.8369 335.54 87.6367 334.625 87.6367 333.421C87.6367 332.177 87.8304 331.255 88.2178 330.652C88.6051 330.05 89.196 329.749 89.9902 329.749C90.765 329.749 91.3525 330.063 91.7529 330.691C92.1566 331.32 92.3584 332.229 92.3584 333.421ZM88.457 333.421C88.457 334.459 88.5791 335.216 88.8232 335.691C89.0674 336.163 89.4564 336.399 89.9902 336.399C90.5306 336.399 90.9212 336.16 91.1621 335.682C91.4062 335.2 91.5283 334.446 91.5283 333.421C91.5283 332.396 91.4062 331.645 91.1621 331.17C90.9212 330.691 90.5306 330.452 89.9902 330.452C89.4564 330.452 89.0674 330.688 88.8232 331.16C88.5791 331.629 88.457 332.382 88.457 333.421Z" fill="#B5B6B8"/>
<path d="M111.63 337H110.839V331.912C110.839 331.489 110.852 331.089 110.878 330.711C110.81 330.779 110.733 330.851 110.648 330.926C110.564 331.001 110.176 331.318 109.486 331.878L109.057 331.321L110.946 329.861H111.63V337Z" fill="#B5B6B8"/>
<path d="M111.63 337H110.839V331.912C110.839 331.489 110.852 331.089 110.878 330.711C110.81 330.779 110.733 330.851 110.648 330.926C110.564 331.001 110.176 331.318 109.486 331.878L109.057 331.321L110.946 329.861H111.63V337Z" fill="#B5B6B8"/>
<path d="M137.319 337H132.627V336.302L134.507 334.412C135.08 333.833 135.457 333.419 135.64 333.172C135.822 332.924 135.959 332.684 136.05 332.449C136.141 332.215 136.187 331.963 136.187 331.692C136.187 331.312 136.071 331.01 135.84 330.789C135.609 330.564 135.288 330.452 134.878 330.452C134.582 330.452 134.3 330.501 134.033 330.599C133.77 330.696 133.475 330.874 133.149 331.131L132.72 330.579C133.377 330.032 134.093 329.759 134.868 329.759C135.539 329.759 136.064 329.931 136.445 330.276C136.826 330.618 137.017 331.079 137.017 331.658C137.017 332.111 136.89 332.558 136.636 333.001C136.382 333.444 135.907 334.004 135.21 334.681L133.647 336.209V336.248H137.319V337Z" fill="#B5B6B8"/>
<path d="M161.051 331.541C161.051 331.997 160.922 332.369 160.665 332.659C160.411 332.949 160.05 333.143 159.581 333.24V333.279C160.154 333.351 160.579 333.533 160.855 333.826C161.132 334.119 161.271 334.503 161.271 334.979C161.271 335.659 161.035 336.183 160.562 336.551C160.09 336.915 159.42 337.098 158.551 337.098C158.173 337.098 157.826 337.068 157.511 337.01C157.198 336.954 156.894 336.855 156.598 336.712V335.94C156.907 336.093 157.236 336.211 157.584 336.292C157.936 336.37 158.268 336.409 158.58 336.409C159.814 336.409 160.431 335.926 160.431 334.959C160.431 334.093 159.75 333.66 158.39 333.66H157.687V332.962H158.399C158.956 332.962 159.397 332.84 159.723 332.596C160.048 332.348 160.211 332.007 160.211 331.57C160.211 331.222 160.09 330.949 159.85 330.75C159.612 330.551 159.288 330.452 158.878 330.452C158.565 330.452 158.271 330.494 157.994 330.579C157.717 330.664 157.402 330.82 157.047 331.048L156.637 330.501C156.93 330.27 157.267 330.089 157.647 329.959C158.032 329.826 158.435 329.759 158.858 329.759C159.552 329.759 160.09 329.918 160.475 330.237C160.859 330.553 161.051 330.988 161.051 331.541Z" fill="#B5B6B8"/>
<path d="M185.656 335.359H184.597V337H183.82V335.359H180.349V334.651L183.737 329.822H184.597V334.622H185.656V335.359ZM183.82 334.622V332.249C183.82 331.784 183.837 331.258 183.869 330.672H183.83C183.674 330.984 183.527 331.243 183.391 331.448L181.159 334.622H183.82Z" fill="#B5B6B8"/>
<path d="M206.858 332.64C207.61 332.64 208.201 332.827 208.631 333.201C209.064 333.572 209.28 334.082 209.28 334.729C209.28 335.468 209.044 336.048 208.572 336.468C208.104 336.888 207.456 337.098 206.629 337.098C205.825 337.098 205.211 336.969 204.788 336.712V335.931C205.016 336.077 205.299 336.193 205.638 336.277C205.976 336.359 206.31 336.399 206.639 336.399C207.212 336.399 207.656 336.264 207.972 335.994C208.291 335.724 208.45 335.333 208.45 334.822C208.45 333.826 207.84 333.328 206.619 333.328C206.31 333.328 205.896 333.375 205.379 333.47L204.959 333.201L205.228 329.861H208.777V330.608H205.921L205.74 332.752C206.115 332.677 206.487 332.64 206.858 332.64Z" fill="#B5B6B8"/>
<path d="M228.71 333.948C228.71 332.545 228.982 331.497 229.525 330.804C230.072 330.107 230.88 329.759 231.947 329.759C232.315 329.759 232.605 329.79 232.816 329.852V330.55C232.566 330.468 232.279 330.428 231.957 330.428C231.192 330.428 230.608 330.667 230.204 331.146C229.8 331.621 229.579 332.369 229.54 333.392H229.599C229.957 332.832 230.523 332.552 231.298 332.552C231.939 332.552 232.444 332.745 232.812 333.133C233.183 333.52 233.368 334.046 233.368 334.71C233.368 335.452 233.165 336.036 232.758 336.463C232.354 336.886 231.807 337.098 231.117 337.098C230.378 337.098 229.792 336.821 229.359 336.268C228.926 335.711 228.71 334.938 228.71 333.948ZM231.107 336.409C231.57 336.409 231.928 336.264 232.182 335.975C232.439 335.682 232.567 335.26 232.567 334.71C232.567 334.238 232.449 333.867 232.211 333.597C231.973 333.326 231.618 333.191 231.146 333.191C230.854 333.191 230.585 333.252 230.341 333.372C230.097 333.493 229.901 333.659 229.755 333.87C229.612 334.082 229.54 334.301 229.54 334.529C229.54 334.865 229.605 335.177 229.735 335.467C229.866 335.757 230.049 335.986 230.287 336.155C230.528 336.325 230.801 336.409 231.107 336.409Z" fill="#B5B6B8"/>
<path d="M253.53 337L256.489 330.608H252.598V329.861H257.349V330.511L254.429 337H253.53Z" fill="#B5B6B8"/>
<path d="M278.99 329.759C279.641 329.759 280.157 329.91 280.538 330.213C280.919 330.516 281.109 330.934 281.109 331.468C281.109 331.819 281 332.14 280.782 332.43C280.564 332.719 280.216 332.983 279.737 333.221C280.317 333.497 280.729 333.789 280.973 334.095C281.217 334.397 281.339 334.749 281.339 335.149C281.339 335.742 281.132 336.215 280.719 336.57C280.305 336.922 279.739 337.098 279.02 337.098C278.258 337.098 277.672 336.932 277.262 336.6C276.852 336.264 276.646 335.791 276.646 335.179C276.646 334.362 277.145 333.725 278.141 333.27C277.691 333.016 277.369 332.742 277.174 332.449C276.979 332.153 276.881 331.823 276.881 331.458C276.881 330.94 277.071 330.529 277.452 330.223C277.836 329.913 278.349 329.759 278.99 329.759ZM277.447 335.198C277.447 335.589 277.582 335.893 277.853 336.111C278.126 336.329 278.508 336.438 279 336.438C279.485 336.438 279.863 336.325 280.133 336.097C280.403 335.869 280.538 335.556 280.538 335.159C280.538 334.843 280.411 334.563 280.157 334.319C279.903 334.072 279.461 333.833 278.829 333.602C278.344 333.81 277.993 334.041 277.774 334.295C277.556 334.546 277.447 334.847 277.447 335.198ZM278.98 330.418C278.574 330.418 278.255 330.516 278.023 330.711C277.792 330.906 277.677 331.167 277.677 331.492C277.677 331.792 277.773 332.049 277.965 332.264C278.157 332.479 278.512 332.693 279.029 332.908C279.495 332.713 279.824 332.503 280.016 332.278C280.211 332.054 280.309 331.792 280.309 331.492C280.309 331.163 280.19 330.903 279.952 330.711C279.718 330.516 279.394 330.418 278.98 330.418Z" fill="#B5B6B8"/>
<path d="M305.319 332.908C305.319 335.701 304.239 337.098 302.077 337.098C301.7 337.098 301.4 337.065 301.179 337V336.302C301.439 336.386 301.735 336.429 302.067 336.429C302.849 336.429 303.438 336.188 303.835 335.706C304.235 335.221 304.453 334.479 304.489 333.479H304.431C304.252 333.75 304.014 333.956 303.718 334.1C303.422 334.24 303.088 334.31 302.717 334.31C302.085 334.31 301.584 334.121 301.213 333.743C300.842 333.366 300.656 332.838 300.656 332.161C300.656 331.419 300.863 330.833 301.276 330.403C301.693 329.974 302.24 329.759 302.917 329.759C303.402 329.759 303.825 329.884 304.187 330.135C304.551 330.382 304.831 330.745 305.026 331.224C305.222 331.699 305.319 332.26 305.319 332.908ZM302.917 330.452C302.451 330.452 302.092 330.602 301.838 330.901C301.584 331.201 301.457 331.618 301.457 332.151C301.457 332.62 301.574 332.99 301.809 333.26C302.043 333.527 302.399 333.66 302.878 333.66C303.174 333.66 303.446 333.6 303.693 333.479C303.944 333.359 304.141 333.195 304.284 332.986C304.427 332.778 304.499 332.56 304.499 332.332C304.499 331.99 304.432 331.674 304.299 331.385C304.165 331.095 303.978 330.867 303.737 330.701C303.5 330.535 303.226 330.452 302.917 330.452Z" fill="#B5B6B8"/>
<path d="M324.769 337H323.978V331.912C323.978 331.489 323.991 331.089 324.017 330.711C323.948 330.779 323.872 330.851 323.787 330.926C323.702 331.001 323.315 331.318 322.625 331.878L322.195 331.321L324.085 329.861H324.769V337ZM332.22 333.421C332.22 334.655 332.024 335.576 331.634 336.185C331.246 336.793 330.652 337.098 329.852 337.098C329.083 337.098 328.499 336.787 328.099 336.165C327.698 335.54 327.498 334.625 327.498 333.421C327.498 332.177 327.692 331.255 328.079 330.652C328.466 330.05 329.057 329.749 329.852 329.749C330.626 329.749 331.214 330.063 331.614 330.691C332.018 331.32 332.22 332.229 332.22 333.421ZM328.318 333.421C328.318 334.459 328.44 335.216 328.685 335.691C328.929 336.163 329.318 336.399 329.852 336.399C330.392 336.399 330.783 336.16 331.023 335.682C331.268 335.2 331.39 334.446 331.39 333.421C331.39 332.396 331.268 331.645 331.023 331.17C330.783 330.691 330.392 330.452 329.852 330.452C329.318 330.452 328.929 330.688 328.685 331.16C328.44 331.629 328.318 332.382 328.318 333.421Z" fill="#B5B6B8"/>
<path d="M348.769 337H347.978V331.912C347.978 331.489 347.991 331.089 348.017 330.711C347.948 330.779 347.872 330.851 347.787 330.926C347.702 331.001 347.315 331.318 346.625 331.878L346.195 331.321L348.085 329.861H348.769V337ZM354.491 337H353.7V331.912C353.7 331.489 353.713 331.089 353.739 330.711C353.671 330.779 353.594 330.851 353.51 330.926C353.425 331.001 353.038 331.318 352.348 331.878L351.918 331.321L353.808 329.861H354.491V337Z" fill="#B5B6B8"/>
<path d="M372.769 337H371.978V331.912C371.978 331.489 371.991 331.089 372.017 330.711C371.948 330.779 371.872 330.851 371.787 330.926C371.702 331.001 371.315 331.318 370.625 331.878L370.195 331.321L372.085 329.861H372.769V337ZM380.181 337H375.488V336.302L377.368 334.412C377.941 333.833 378.319 333.419 378.501 333.172C378.683 332.924 378.82 332.684 378.911 332.449C379.002 332.215 379.048 331.963 379.048 331.692C379.048 331.312 378.932 331.01 378.701 330.789C378.47 330.564 378.149 330.452 377.739 330.452C377.443 330.452 377.161 330.501 376.895 330.599C376.631 330.696 376.336 330.874 376.011 331.131L375.581 330.579C376.239 330.032 376.955 329.759 377.729 329.759C378.4 329.759 378.926 329.931 379.307 330.276C379.688 330.618 379.878 331.079 379.878 331.658C379.878 332.111 379.751 332.558 379.497 333.001C379.243 333.444 378.768 334.004 378.071 334.681L376.509 336.209V336.248H380.181V337Z" fill="#B5B6B8"/>
<path d="M396.769 337H395.978V331.912C395.978 331.489 395.991 331.089 396.017 330.711C395.948 330.779 395.872 330.851 395.787 330.926C395.702 331.001 395.315 331.318 394.625 331.878L394.195 331.321L396.085 329.861H396.769V337ZM403.912 331.541C403.912 331.997 403.784 332.369 403.526 332.659C403.272 332.949 402.911 333.143 402.442 333.24V333.279C403.015 333.351 403.44 333.533 403.717 333.826C403.993 334.119 404.132 334.503 404.132 334.979C404.132 335.659 403.896 336.183 403.424 336.551C402.952 336.915 402.281 337.098 401.412 337.098C401.035 337.098 400.688 337.068 400.372 337.01C400.06 336.954 399.755 336.855 399.459 336.712V335.94C399.768 336.093 400.097 336.211 400.445 336.292C400.797 336.37 401.129 336.409 401.441 336.409C402.675 336.409 403.292 335.926 403.292 334.959C403.292 334.093 402.612 333.66 401.251 333.66H400.548V332.962H401.261C401.817 332.962 402.258 332.84 402.584 332.596C402.91 332.348 403.072 332.007 403.072 331.57C403.072 331.222 402.952 330.949 402.711 330.75C402.473 330.551 402.149 330.452 401.739 330.452C401.427 330.452 401.132 330.494 400.855 330.579C400.579 330.664 400.263 330.82 399.908 331.048L399.498 330.501C399.791 330.27 400.128 330.089 400.509 329.959C400.893 329.826 401.297 329.759 401.72 329.759C402.413 329.759 402.952 329.918 403.336 330.237C403.72 330.553 403.912 330.988 403.912 331.541Z" fill="#B5B6B8"/>
<path d="M420.769 337H419.978V331.912C419.978 331.489 419.991 331.089 420.017 330.711C419.948 330.779 419.872 330.851 419.787 330.926C419.702 331.001 419.315 331.318 418.625 331.878L418.195 331.321L420.085 329.861H420.769V337ZM428.518 335.359H427.458V337H426.682V335.359H423.21V334.651L426.599 329.822H427.458V334.622H428.518V335.359ZM426.682 334.622V332.249C426.682 331.784 426.698 331.258 426.73 330.672H426.691C426.535 330.984 426.389 331.243 426.252 331.448L424.021 334.622H426.682Z" fill="#B5B6B8"/>
<path d="M444.769 337H443.978V331.912C443.978 331.489 443.991 331.089 444.017 330.711C443.948 330.779 443.872 330.851 443.787 330.926C443.702 331.001 443.315 331.318 442.625 331.878L442.195 331.321L444.085 329.861H444.769V337ZM449.72 332.64C450.472 332.64 451.062 332.827 451.492 333.201C451.925 333.572 452.142 334.082 452.142 334.729C452.142 335.468 451.906 336.048 451.434 336.468C450.965 336.888 450.317 337.098 449.49 337.098C448.686 337.098 448.073 336.969 447.649 336.712V335.931C447.877 336.077 448.16 336.193 448.499 336.277C448.838 336.359 449.171 336.399 449.5 336.399C450.073 336.399 450.517 336.264 450.833 335.994C451.152 335.724 451.312 335.333 451.312 334.822C451.312 333.826 450.701 333.328 449.48 333.328C449.171 333.328 448.758 333.375 448.24 333.47L447.82 333.201L448.089 329.861H451.639V330.608H448.782L448.602 332.752C448.976 332.677 449.349 332.64 449.72 332.64Z" fill="#B5B6B8"/>
<path d="M468.769 337H467.978V331.912C467.978 331.489 467.991 331.089 468.017 330.711C467.948 330.779 467.872 330.851 467.787 330.926C467.702 331.001 467.315 331.318 466.625 331.878L466.195 331.321L468.085 329.861H468.769V337ZM471.571 333.948C471.571 332.545 471.843 331.497 472.387 330.804C472.934 330.107 473.741 329.759 474.809 329.759C475.176 329.759 475.466 329.79 475.678 329.852V330.55C475.427 330.468 475.141 330.428 474.818 330.428C474.053 330.428 473.469 330.667 473.065 331.146C472.662 331.621 472.44 332.369 472.401 333.392H472.46C472.818 332.832 473.384 332.552 474.159 332.552C474.8 332.552 475.305 332.745 475.673 333.133C476.044 333.52 476.229 334.046 476.229 334.71C476.229 335.452 476.026 336.036 475.619 336.463C475.215 336.886 474.669 337.098 473.979 337.098C473.24 337.098 472.654 336.821 472.221 336.268C471.788 335.711 471.571 334.938 471.571 333.948ZM473.969 336.409C474.431 336.409 474.789 336.264 475.043 335.975C475.3 335.682 475.429 335.26 475.429 334.71C475.429 334.238 475.31 333.867 475.072 333.597C474.835 333.326 474.48 333.191 474.008 333.191C473.715 333.191 473.446 333.252 473.202 333.372C472.958 333.493 472.763 333.659 472.616 333.87C472.473 334.082 472.401 334.301 472.401 334.529C472.401 334.865 472.466 335.177 472.597 335.467C472.727 335.757 472.911 335.986 473.148 336.155C473.389 336.325 473.663 336.409 473.969 336.409Z" fill="#B5B6B8"/>
<path d="M492.769 337H491.978V331.912C491.978 331.489 491.991 331.089 492.017 330.711C491.948 330.779 491.872 330.851 491.787 330.926C491.702 331.001 491.315 331.318 490.625 331.878L490.195 331.321L492.085 329.861H492.769V337ZM496.392 337L499.351 330.608H495.459V329.861H500.21V330.511L497.29 337H496.392Z" fill="#B5B6B8"/>
<path d="M516.769 337H515.978V331.912C515.978 331.489 515.991 331.089 516.017 330.711C515.948 330.779 515.872 330.851 515.787 330.926C515.702 331.001 515.315 331.318 514.625 331.878L514.195 331.321L516.085 329.861H516.769V337ZM521.852 329.759C522.503 329.759 523.019 329.91 523.399 330.213C523.78 330.516 523.971 330.934 523.971 331.468C523.971 331.819 523.862 332.14 523.644 332.43C523.425 332.719 523.077 332.983 522.599 333.221C523.178 333.497 523.59 333.789 523.834 334.095C524.078 334.397 524.2 334.749 524.2 335.149C524.2 335.742 523.993 336.215 523.58 336.57C523.167 336.922 522.6 337.098 521.881 337.098C521.119 337.098 520.533 336.932 520.123 336.6C519.713 336.264 519.508 335.791 519.508 335.179C519.508 334.362 520.006 333.725 521.002 333.27C520.553 333.016 520.23 332.742 520.035 332.449C519.84 332.153 519.742 331.823 519.742 331.458C519.742 330.94 519.933 330.529 520.313 330.223C520.698 329.913 521.21 329.759 521.852 329.759ZM520.309 335.198C520.309 335.589 520.444 335.893 520.714 336.111C520.987 336.329 521.37 336.438 521.861 336.438C522.346 336.438 522.724 336.325 522.994 336.097C523.264 335.869 523.399 335.556 523.399 335.159C523.399 334.843 523.272 334.563 523.019 334.319C522.765 334.072 522.322 333.833 521.69 333.602C521.205 333.81 520.854 334.041 520.636 334.295C520.418 334.546 520.309 334.847 520.309 335.198ZM521.842 330.418C521.435 330.418 521.116 330.516 520.885 330.711C520.654 330.906 520.538 331.167 520.538 331.492C520.538 331.792 520.634 332.049 520.826 332.264C521.018 332.479 521.373 332.693 521.891 332.908C522.356 332.713 522.685 332.503 522.877 332.278C523.072 332.054 523.17 331.792 523.17 331.492C523.17 331.163 523.051 330.903 522.813 330.711C522.579 330.516 522.255 330.418 521.842 330.418Z" fill="#B5B6B8"/>
<path d="M540.769 337H539.978V331.912C539.978 331.489 539.991 331.089 540.017 330.711C539.948 330.779 539.872 330.851 539.787 330.926C539.702 331.001 539.315 331.318 538.625 331.878L538.195 331.321L540.085 329.861H540.769V337ZM548.181 332.908C548.181 335.701 547.1 337.098 544.938 337.098C544.561 337.098 544.261 337.065 544.04 337V336.302C544.3 336.386 544.597 336.429 544.929 336.429C545.71 336.429 546.299 336.188 546.696 335.706C547.097 335.221 547.315 334.479 547.351 333.479H547.292C547.113 333.75 546.875 333.956 546.579 334.1C546.283 334.24 545.949 334.31 545.578 334.31C544.947 334.31 544.445 334.121 544.074 333.743C543.703 333.366 543.518 332.838 543.518 332.161C543.518 331.419 543.724 330.833 544.138 330.403C544.554 329.974 545.101 329.759 545.778 329.759C546.263 329.759 546.687 329.884 547.048 330.135C547.412 330.382 547.692 330.745 547.888 331.224C548.083 331.699 548.181 332.26 548.181 332.908ZM545.778 330.452C545.313 330.452 544.953 330.602 544.699 330.901C544.445 331.201 544.318 331.618 544.318 332.151C544.318 332.62 544.436 332.99 544.67 333.26C544.904 333.527 545.261 333.66 545.739 333.66C546.035 333.66 546.307 333.6 546.555 333.479C546.805 333.359 547.002 333.195 547.146 332.986C547.289 332.778 547.36 332.56 547.36 332.332C547.36 331.99 547.294 331.674 547.16 331.385C547.027 331.095 546.84 330.867 546.599 330.701C546.361 330.535 546.088 330.452 545.778 330.452Z" fill="#B5B6B8"/>
<path d="M566.458 337H561.766V336.302L563.646 334.412C564.218 333.833 564.596 333.419 564.778 333.172C564.961 332.924 565.097 332.684 565.188 332.449C565.28 332.215 565.325 331.963 565.325 331.692C565.325 331.312 565.21 331.01 564.979 330.789C564.747 330.564 564.427 330.452 564.017 330.452C563.72 330.452 563.439 330.501 563.172 330.599C562.908 330.696 562.614 330.874 562.288 331.131L561.858 330.579C562.516 330.032 563.232 329.759 564.007 329.759C564.677 329.759 565.203 329.931 565.584 330.276C565.965 330.618 566.155 331.079 566.155 331.658C566.155 332.111 566.028 332.558 565.774 333.001C565.521 333.444 565.045 334.004 564.349 334.681L562.786 336.209V336.248H566.458V337ZM572.22 333.421C572.22 334.655 572.024 335.576 571.634 336.185C571.246 336.793 570.652 337.098 569.852 337.098C569.083 337.098 568.499 336.787 568.099 336.165C567.698 335.54 567.498 334.625 567.498 333.421C567.498 332.177 567.692 331.255 568.079 330.652C568.466 330.05 569.057 329.749 569.852 329.749C570.626 329.749 571.214 330.063 571.614 330.691C572.018 331.32 572.22 332.229 572.22 333.421ZM568.318 333.421C568.318 334.459 568.44 335.216 568.685 335.691C568.929 336.163 569.318 336.399 569.852 336.399C570.392 336.399 570.783 336.16 571.023 335.682C571.268 335.2 571.39 334.446 571.39 333.421C571.39 332.396 571.268 331.645 571.023 331.17C570.783 330.691 570.392 330.452 569.852 330.452C569.318 330.452 568.929 330.688 568.685 331.16C568.44 331.629 568.318 332.382 568.318 333.421Z" fill="#B5B6B8"/>
<line x1="87.3" y1="64" x2="87.3" y2="323" stroke="#E1DDDD" stroke-width="0.6"/>
<line x1="111.3" y1="64" x2="111.3" y2="323" stroke="#E1DDDD" stroke-width="0.6"/>
<line x1="135.3" y1="64" x2="135.3" y2="323" stroke="#E1DDDD" stroke-width="0.6"/>
<line x1="159.3" y1="64" x2="159.3" y2="323" stroke="#E1DDDD" stroke-width="0.6"/>
<line x1="183.3" y1="64" x2="183.3" y2="323" stroke="#E1DDDD" stroke-width="0.6"/>
<line x1="207.3" y1="64" x2="207.3" y2="323" stroke="#E1DDDD" stroke-width="0.6"/>
<line x1="231.3" y1="64" x2="231.3" y2="323" stroke="#E1DDDD" stroke-width="0.6"/>
<line x1="255.3" y1="64" x2="255.3" y2="323" stroke="#E1DDDD" stroke-width="0.6"/>
<line x1="279.3" y1="64" x2="279.3" y2="323" stroke="#E1DDDD" stroke-width="0.6"/>
<line x1="303.3" y1="64" x2="303.3" y2="323" stroke="#E1DDDD" stroke-width="0.6"/>
<line x1="327.3" y1="64" x2="327.3" y2="323" stroke="#E1DDDD" stroke-width="0.6"/>
<line x1="351.3" y1="64" x2="351.3" y2="323" stroke="#E1DDDD" stroke-width="0.6"/>
<line x1="375.3" y1="64" x2="375.3" y2="323" stroke="#E1DDDD" stroke-width="0.6"/>
<line x1="399.3" y1="64" x2="399.3" y2="323" stroke="#E1DDDD" stroke-width="0.6"/>
<line x1="423.3" y1="64" x2="423.3" y2="323" stroke="#E1DDDD" stroke-width="0.6"/>
<line x1="447.3" y1="64" x2="447.3" y2="323" stroke="#E1DDDD" stroke-width="0.6"/>
<line x1="471.3" y1="64" x2="471.3" y2="323" stroke="#E1DDDD" stroke-width="0.6"/>
<line x1="495.3" y1="64" x2="495.3" y2="323" stroke="#E1DDDD" stroke-width="0.6"/>
<line x1="519.3" y1="64" x2="519.3" y2="323" stroke="#E1DDDD" stroke-width="0.6"/>
<line x1="543.3" y1="64" x2="543.3" y2="323" stroke="#E1DDDD" stroke-width="0.6"/>
<line x1="567.3" y1="64" x2="567.3" y2="323" stroke="#E1DDDD" stroke-width="0.6"/>
<path d="M87 132H443C445.209 132 447 133.791 447 136C447 138.209 445.209 140 443 140H87V132Z" fill="#00B25D"/>
<path d="M87 202H155C157.209 202 159 203.791 159 206C159 208.209 157.209 210 155 210H87V202Z" fill="#EF4060"/>
<path d="M87 265H131C133.209 265 135 266.791 135 269C135 271.209 133.209 273 131 273H87V265Z" fill="#FF9D54"/>
<path d="M31.4858 132.551C30.466 132.551 29.6598 132.892 29.0674 133.573C28.4792 134.25 28.1851 135.179 28.1851 136.36C28.1851 137.574 28.4686 138.514 29.0356 139.178C29.6069 139.838 30.4194 140.168 31.4731 140.168C32.1206 140.168 32.859 140.052 33.6885 139.819V140.765C33.0452 141.006 32.2518 141.127 31.3081 141.127C29.9412 141.127 28.8854 140.712 28.1406 139.883C27.4001 139.053 27.0298 137.875 27.0298 136.347C27.0298 135.391 27.2075 134.553 27.563 133.833C27.9227 133.114 28.439 132.56 29.1118 132.17C29.7889 131.781 30.5845 131.586 31.4985 131.586C32.4718 131.586 33.3224 131.764 34.0503 132.12L33.5933 133.046C32.8908 132.716 32.1883 132.551 31.4858 132.551ZM41.5596 137.515C41.5596 138.649 41.2739 139.536 40.7026 140.175C40.1313 140.81 39.3421 141.127 38.335 141.127C37.7129 141.127 37.1606 140.981 36.6782 140.689C36.1958 140.397 35.8234 139.978 35.561 139.432C35.2987 138.886 35.1675 138.247 35.1675 137.515C35.1675 136.381 35.451 135.499 36.0181 134.868C36.5851 134.233 37.3722 133.916 38.3794 133.916C39.3527 133.916 40.125 134.24 40.6963 134.887C41.2718 135.535 41.5596 136.411 41.5596 137.515ZM36.2593 137.515C36.2593 138.404 36.437 139.081 36.7925 139.546C37.1479 140.012 37.6706 140.245 38.3604 140.245C39.0501 140.245 39.5728 140.014 39.9282 139.553C40.2879 139.087 40.4678 138.408 40.4678 137.515C40.4678 136.631 40.2879 135.96 39.9282 135.503C39.5728 135.042 39.0459 134.811 38.3477 134.811C37.6579 134.811 37.1374 135.037 36.7861 135.49C36.4349 135.943 36.2593 136.618 36.2593 137.515ZM46.5869 133.916C46.8958 133.916 47.173 133.941 47.4185 133.992L47.2725 134.97C46.9847 134.906 46.7308 134.875 46.5107 134.875C45.9479 134.875 45.4655 135.103 45.0635 135.56C44.6657 136.017 44.4668 136.586 44.4668 137.268V141H43.4131V134.043H44.2827L44.4033 135.332H44.4541C44.7122 134.879 45.0233 134.53 45.3872 134.284C45.7511 134.039 46.151 133.916 46.5869 133.916ZM51.8936 133.916C52.2025 133.916 52.4797 133.941 52.7251 133.992L52.5791 134.97C52.2913 134.906 52.0374 134.875 51.8174 134.875C51.2546 134.875 50.7721 135.103 50.3701 135.56C49.9723 136.017 49.7734 136.586 49.7734 137.268V141H48.7197V134.043H49.5894L49.71 135.332H49.7607C50.0189 134.879 50.3299 134.53 50.6938 134.284C51.0578 134.039 51.4577 133.916 51.8936 133.916ZM56.9653 141.127C55.937 141.127 55.1245 140.814 54.5278 140.188C53.9354 139.561 53.6392 138.692 53.6392 137.579C53.6392 136.457 53.9142 135.566 54.4644 134.906C55.0187 134.246 55.7614 133.916 56.6924 133.916C57.5641 133.916 58.2539 134.204 58.7617 134.779C59.2695 135.351 59.5234 136.106 59.5234 137.045V137.712H54.731C54.7521 138.529 54.9574 139.149 55.3467 139.572C55.7402 139.995 56.2925 140.207 57.0034 140.207C57.7524 140.207 58.493 140.05 59.2251 139.737V140.676C58.8527 140.837 58.4993 140.951 58.165 141.019C57.835 141.091 57.4351 141.127 56.9653 141.127ZM56.6797 134.798C56.1211 134.798 55.6746 134.98 55.3403 135.344C55.0103 135.708 54.8156 136.212 54.7563 136.855H58.3936C58.3936 136.191 58.2454 135.683 57.9492 135.332C57.653 134.976 57.2298 134.798 56.6797 134.798ZM64.1064 141.127C63.0993 141.127 62.3185 140.818 61.7642 140.2C61.214 139.578 60.939 138.7 60.939 137.566C60.939 136.402 61.2183 135.503 61.7769 134.868C62.3397 134.233 63.1395 133.916 64.1763 133.916C64.5106 133.916 64.8449 133.952 65.1792 134.024C65.5135 134.096 65.7759 134.181 65.9663 134.278L65.6426 135.173C65.4098 135.08 65.1559 135.004 64.8809 134.944C64.6058 134.881 64.3625 134.849 64.1509 134.849C62.7375 134.849 62.0308 135.75 62.0308 137.553C62.0308 138.408 62.2021 139.064 62.5449 139.521C62.8919 139.978 63.404 140.207 64.0811 140.207C64.6608 140.207 65.2554 140.082 65.8647 139.832V140.765C65.3993 141.006 64.8132 141.127 64.1064 141.127ZM69.7686 140.257C69.9548 140.257 70.1346 140.245 70.3081 140.219C70.4816 140.19 70.6191 140.16 70.7207 140.13V140.937C70.6064 140.992 70.4372 141.036 70.2129 141.07C69.9928 141.108 69.7939 141.127 69.6162 141.127C68.2705 141.127 67.5977 140.418 67.5977 139V134.862H66.6011V134.354L67.5977 133.916L68.042 132.431H68.6514V134.043H70.6699V134.862H68.6514V138.956C68.6514 139.375 68.7508 139.697 68.9497 139.921C69.1486 140.145 69.4215 140.257 69.7686 140.257Z" fill="#090F69"/>
<path d="M17.9019 211V201.72H18.981V211H17.9019ZM26.1348 211V206.5C26.1348 205.932 26.0057 205.509 25.7476 205.23C25.4894 204.951 25.0853 204.811 24.5352 204.811C23.8073 204.811 23.2741 205.008 22.9355 205.401C22.597 205.795 22.4277 206.444 22.4277 207.35V211H21.374V204.043H22.231L22.4023 204.995H22.4531C22.6689 204.652 22.9715 204.388 23.3608 204.202C23.7502 204.011 24.1839 203.916 24.6621 203.916C25.5 203.916 26.1305 204.119 26.5537 204.525C26.9769 204.927 27.1885 205.573 27.1885 206.461V211H26.1348ZM32.1396 211.127C31.1325 211.127 30.3517 210.818 29.7974 210.2C29.2472 209.578 28.9722 208.7 28.9722 207.566C28.9722 206.402 29.2515 205.503 29.8101 204.868C30.3729 204.233 31.1727 203.916 32.2095 203.916C32.5438 203.916 32.8781 203.952 33.2124 204.024C33.5467 204.096 33.8091 204.181 33.9995 204.278L33.6758 205.173C33.443 205.08 33.1891 205.004 32.9141 204.944C32.639 204.881 32.3957 204.849 32.1841 204.849C30.7707 204.849 30.064 205.75 30.064 207.553C30.064 208.408 30.2354 209.064 30.5781 209.521C30.9251 209.978 31.4372 210.207 32.1143 210.207C32.694 210.207 33.2886 210.082 33.8979 209.832V210.765C33.4325 211.006 32.8464 211.127 32.1396 211.127ZM41.5596 207.515C41.5596 208.649 41.2739 209.536 40.7026 210.175C40.1313 210.81 39.3421 211.127 38.335 211.127C37.7129 211.127 37.1606 210.981 36.6782 210.689C36.1958 210.397 35.8234 209.978 35.561 209.432C35.2987 208.886 35.1675 208.247 35.1675 207.515C35.1675 206.381 35.451 205.499 36.0181 204.868C36.5851 204.233 37.3722 203.916 38.3794 203.916C39.3527 203.916 40.125 204.24 40.6963 204.887C41.2718 205.535 41.5596 206.411 41.5596 207.515ZM36.2593 207.515C36.2593 208.404 36.437 209.081 36.7925 209.546C37.1479 210.012 37.6706 210.245 38.3604 210.245C39.0501 210.245 39.5728 210.014 39.9282 209.553C40.2879 209.087 40.4678 208.408 40.4678 207.515C40.4678 206.631 40.2879 205.96 39.9282 205.503C39.5728 205.042 39.0459 204.811 38.3477 204.811C37.6579 204.811 37.1374 205.037 36.7861 205.49C36.4349 205.943 36.2593 206.618 36.2593 207.515ZM46.5869 203.916C46.8958 203.916 47.173 203.941 47.4185 203.992L47.2725 204.97C46.9847 204.906 46.7308 204.875 46.5107 204.875C45.9479 204.875 45.4655 205.103 45.0635 205.56C44.6657 206.017 44.4668 206.586 44.4668 207.268V211H43.4131V204.043H44.2827L44.4033 205.332H44.4541C44.7122 204.879 45.0233 204.53 45.3872 204.284C45.7511 204.039 46.151 203.916 46.5869 203.916ZM51.8936 203.916C52.2025 203.916 52.4797 203.941 52.7251 203.992L52.5791 204.97C52.2913 204.906 52.0374 204.875 51.8174 204.875C51.2546 204.875 50.7721 205.103 50.3701 205.56C49.9723 206.017 49.7734 206.586 49.7734 207.268V211H48.7197V204.043H49.5894L49.71 205.332H49.7607C50.0189 204.879 50.3299 204.53 50.6938 204.284C51.0578 204.039 51.4577 203.916 51.8936 203.916ZM56.9653 211.127C55.937 211.127 55.1245 210.814 54.5278 210.188C53.9354 209.561 53.6392 208.692 53.6392 207.579C53.6392 206.457 53.9142 205.566 54.4644 204.906C55.0187 204.246 55.7614 203.916 56.6924 203.916C57.5641 203.916 58.2539 204.204 58.7617 204.779C59.2695 205.351 59.5234 206.106 59.5234 207.045V207.712H54.731C54.7521 208.529 54.9574 209.149 55.3467 209.572C55.7402 209.995 56.2925 210.207 57.0034 210.207C57.7524 210.207 58.493 210.05 59.2251 209.737V210.676C58.8527 210.837 58.4993 210.951 58.165 211.019C57.835 211.091 57.4351 211.127 56.9653 211.127ZM56.6797 204.798C56.1211 204.798 55.6746 204.98 55.3403 205.344C55.0103 205.708 54.8156 206.212 54.7563 206.855H58.3936C58.3936 206.191 58.2454 205.683 57.9492 205.332C57.653 204.976 57.2298 204.798 56.6797 204.798ZM64.1064 211.127C63.0993 211.127 62.3185 210.818 61.7642 210.2C61.214 209.578 60.939 208.7 60.939 207.566C60.939 206.402 61.2183 205.503 61.7769 204.868C62.3397 204.233 63.1395 203.916 64.1763 203.916C64.5106 203.916 64.8449 203.952 65.1792 204.024C65.5135 204.096 65.7759 204.181 65.9663 204.278L65.6426 205.173C65.4098 205.08 65.1559 205.004 64.8809 204.944C64.6058 204.881 64.3625 204.849 64.1509 204.849C62.7375 204.849 62.0308 205.75 62.0308 207.553C62.0308 208.408 62.2021 209.064 62.5449 209.521C62.8919 209.978 63.404 210.207 64.0811 210.207C64.6608 210.207 65.2554 210.082 65.8647 209.832V210.765C65.3993 211.006 64.8132 211.127 64.1064 211.127ZM69.7686 210.257C69.9548 210.257 70.1346 210.245 70.3081 210.219C70.4816 210.19 70.6191 210.16 70.7207 210.13V210.937C70.6064 210.992 70.4372 211.036 70.2129 211.07C69.9928 211.108 69.7939 211.127 69.6162 211.127C68.2705 211.127 67.5977 210.418 67.5977 209V204.862H66.6011V204.354L67.5977 203.916L68.042 202.431H68.6514V204.043H70.6699V204.862H68.6514V208.956C68.6514 209.375 68.7508 209.697 68.9497 209.921C69.1486 210.145 69.4215 210.257 69.7686 210.257Z" fill="#090F69"/>
<path d="M29.042 271.531C29.042 272.347 28.7458 272.984 28.1533 273.441C27.5609 273.898 26.7568 274.127 25.7412 274.127C24.641 274.127 23.7946 273.985 23.2021 273.702V272.661C23.583 272.821 23.9977 272.948 24.4463 273.042C24.8949 273.135 25.3392 273.181 25.7793 273.181C26.4987 273.181 27.0404 273.046 27.4043 272.775C27.7682 272.5 27.9502 272.119 27.9502 271.632C27.9502 271.311 27.8846 271.048 27.7534 270.845C27.6265 270.638 27.4106 270.447 27.106 270.274C26.8055 270.1 26.3464 269.904 25.7285 269.684C24.8652 269.375 24.2474 269.009 23.875 268.585C23.5068 268.162 23.3228 267.61 23.3228 266.929C23.3228 266.214 23.5915 265.644 24.1289 265.221C24.6663 264.798 25.3773 264.586 26.2617 264.586C27.1842 264.586 28.0327 264.756 28.8071 265.094L28.4707 266.034C27.7048 265.712 26.96 265.551 26.2363 265.551C25.665 265.551 25.2186 265.674 24.897 265.919C24.5754 266.165 24.4146 266.506 24.4146 266.941C24.4146 267.263 24.4738 267.528 24.5923 267.735C24.7108 267.938 24.9097 268.126 25.189 268.3C25.4725 268.469 25.9041 268.657 26.4839 268.865C27.4572 269.212 28.1258 269.584 28.4897 269.982C28.8579 270.38 29.042 270.896 29.042 271.531ZM31.8223 270.439C32.0042 270.181 32.2814 269.842 32.6538 269.423L34.9009 267.043H36.1514L33.333 270.007L36.3481 274H35.0723L32.6157 270.712L31.8223 271.397V274H30.7812V264.123H31.8223V269.36C31.8223 269.593 31.8053 269.952 31.7715 270.439H31.8223ZM38.665 274H37.6113V267.043H38.665V274ZM37.5225 265.158C37.5225 264.917 37.5817 264.741 37.7002 264.631C37.8187 264.517 37.9668 264.459 38.1445 264.459C38.3138 264.459 38.4598 264.517 38.5825 264.631C38.7052 264.745 38.7666 264.921 38.7666 265.158C38.7666 265.395 38.7052 265.572 38.5825 265.691C38.4598 265.805 38.3138 265.862 38.1445 265.862C37.9668 265.862 37.8187 265.805 37.7002 265.691C37.5817 265.572 37.5225 265.395 37.5225 265.158ZM44.1367 274.127C43.6839 274.127 43.2692 274.044 42.8926 273.879C42.5202 273.71 42.207 273.452 41.9531 273.105H41.877C41.9277 273.511 41.9531 273.896 41.9531 274.26V277.123H40.8994V267.043H41.7563L41.9023 267.995H41.9531C42.224 267.614 42.5392 267.339 42.8989 267.17C43.2586 267.001 43.6712 266.916 44.1367 266.916C45.0592 266.916 45.7702 267.231 46.2695 267.862C46.7731 268.492 47.0249 269.377 47.0249 270.515C47.0249 271.658 46.7689 272.546 46.2568 273.181C45.749 273.812 45.0423 274.127 44.1367 274.127ZM43.9844 267.811C43.2734 267.811 42.7593 268.008 42.4419 268.401C42.1245 268.795 41.9616 269.421 41.9531 270.28V270.515C41.9531 271.493 42.116 272.193 42.4419 272.616C42.7677 273.035 43.2904 273.245 44.0098 273.245C44.6107 273.245 45.0804 273.001 45.4189 272.515C45.7617 272.028 45.9331 271.357 45.9331 270.502C45.9331 269.635 45.7617 268.971 45.4189 268.509C45.0804 268.044 44.6022 267.811 43.9844 267.811ZM52.1094 274.127C51.6566 274.127 51.2419 274.044 50.8652 273.879C50.4928 273.71 50.1797 273.452 49.9258 273.105H49.8496C49.9004 273.511 49.9258 273.896 49.9258 274.26V277.123H48.8721V267.043H49.729L49.875 267.995H49.9258C50.1966 267.614 50.5119 267.339 50.8716 267.17C51.2313 267.001 51.6439 266.916 52.1094 266.916C53.0319 266.916 53.7428 267.231 54.2422 267.862C54.7458 268.492 54.9976 269.377 54.9976 270.515C54.9976 271.658 54.7415 272.546 54.2295 273.181C53.7217 273.812 53.015 274.127 52.1094 274.127ZM51.957 267.811C51.2461 267.811 50.7319 268.008 50.4146 268.401C50.0972 268.795 49.9342 269.421 49.9258 270.28V270.515C49.9258 271.493 50.0887 272.193 50.4146 272.616C50.7404 273.035 51.263 273.245 51.9824 273.245C52.5833 273.245 53.0531 273.001 53.3916 272.515C53.7344 272.028 53.9058 271.357 53.9058 270.502C53.9058 269.635 53.7344 268.971 53.3916 268.509C53.0531 268.044 52.5749 267.811 51.957 267.811ZM59.7837 274.127C58.7554 274.127 57.9429 273.814 57.3462 273.188C56.7537 272.561 56.4575 271.692 56.4575 270.579C56.4575 269.457 56.7326 268.566 57.2827 267.906C57.8371 267.246 58.5798 266.916 59.5107 266.916C60.3825 266.916 61.0723 267.204 61.5801 267.779C62.0879 268.351 62.3418 269.106 62.3418 270.045V270.712H57.5493C57.5705 271.529 57.7757 272.149 58.165 272.572C58.5586 272.995 59.1108 273.207 59.8218 273.207C60.5708 273.207 61.3114 273.05 62.0435 272.737V273.676C61.6711 273.837 61.3177 273.951 60.9834 274.019C60.6533 274.091 60.2534 274.127 59.7837 274.127ZM59.498 267.798C58.9395 267.798 58.493 267.98 58.1587 268.344C57.8286 268.708 57.634 269.212 57.5747 269.855H61.2119C61.2119 269.191 61.0638 268.683 60.7676 268.332C60.4714 267.976 60.0482 267.798 59.498 267.798ZM68.8799 273.067H68.8228C68.3361 273.774 67.6082 274.127 66.6392 274.127C65.7293 274.127 65.0205 273.816 64.5127 273.194C64.0091 272.572 63.7573 271.687 63.7573 270.541C63.7573 269.394 64.0112 268.503 64.519 267.868C65.0269 267.233 65.7336 266.916 66.6392 266.916C67.5828 266.916 68.3065 267.259 68.8101 267.944H68.8926L68.8481 267.443L68.8228 266.954V264.123H69.8765V274H69.0195L68.8799 273.067ZM66.7725 273.245C67.4919 273.245 68.0124 273.05 68.334 272.661C68.6598 272.267 68.8228 271.634 68.8228 270.763V270.541C68.8228 269.555 68.6577 268.852 68.3276 268.433C68.0018 268.01 67.4792 267.798 66.7598 267.798C66.1419 267.798 65.668 268.04 65.3379 268.522C65.012 269 64.8491 269.677 64.8491 270.553C64.8491 271.442 65.012 272.113 65.3379 272.565C65.6637 273.018 66.1419 273.245 66.7725 273.245Z" fill="#090F69"/>
<path d="M332.764 22.5513C331.744 22.5513 330.938 22.8919 330.346 23.5732C329.757 24.2503 329.463 25.1792 329.463 26.3599C329.463 27.5744 329.747 28.5138 330.314 29.1782C330.885 29.8384 331.698 30.1685 332.751 30.1685C333.399 30.1685 334.137 30.0521 334.967 29.8193V30.7651C334.324 31.0063 333.53 31.127 332.586 31.127C331.22 31.127 330.164 30.7122 329.419 29.8828C328.678 29.0534 328.308 27.8748 328.308 26.3472C328.308 25.3908 328.486 24.5529 328.841 23.8335C329.201 23.1141 329.717 22.5597 330.39 22.1704C331.067 21.7811 331.863 21.5864 332.777 21.5864C333.75 21.5864 334.601 21.7642 335.329 22.1196L334.872 23.0464C334.169 22.7163 333.467 22.5513 332.764 22.5513ZM342.838 27.5151C342.838 28.6493 342.552 29.5358 341.981 30.1748C341.41 30.8096 340.62 31.127 339.613 31.127C338.991 31.127 338.439 30.981 337.957 30.689C337.474 30.397 337.102 29.978 336.839 29.4321C336.577 28.8862 336.446 28.2472 336.446 27.5151C336.446 26.381 336.729 25.4987 337.296 24.8682C337.863 24.2334 338.651 23.916 339.658 23.916C340.631 23.916 341.403 24.2397 341.975 24.8872C342.55 25.5347 342.838 26.4106 342.838 27.5151ZM337.538 27.5151C337.538 28.4038 337.715 29.0809 338.071 29.5464C338.426 30.0119 338.949 30.2446 339.639 30.2446C340.328 30.2446 340.851 30.014 341.207 29.5527C341.566 29.0872 341.746 28.408 341.746 27.5151C341.746 26.6307 341.566 25.96 341.207 25.5029C340.851 25.0417 340.324 24.811 339.626 24.811C338.936 24.811 338.416 25.0374 338.064 25.4902C337.713 25.943 337.538 26.618 337.538 27.5151ZM347.865 23.916C348.174 23.916 348.451 23.9414 348.697 23.9922L348.551 24.9697C348.263 24.9062 348.009 24.8745 347.789 24.8745C347.226 24.8745 346.744 25.103 346.342 25.5601C345.944 26.0171 345.745 26.5863 345.745 27.2676V31H344.691V24.043H345.561L345.682 25.3315H345.732C345.991 24.8787 346.302 24.5296 346.666 24.2842C347.029 24.0387 347.429 23.916 347.865 23.916ZM353.172 23.916C353.481 23.916 353.758 23.9414 354.003 23.9922L353.857 24.9697C353.57 24.9062 353.316 24.8745 353.096 24.8745C352.533 24.8745 352.05 25.103 351.648 25.5601C351.251 26.0171 351.052 26.5863 351.052 27.2676V31H349.998V24.043H350.868L350.988 25.3315H351.039C351.297 24.8787 351.608 24.5296 351.972 24.2842C352.336 24.0387 352.736 23.916 353.172 23.916ZM358.244 31.127C357.215 31.127 356.403 30.8138 355.806 30.1875C355.214 29.5612 354.917 28.6916 354.917 27.5786C354.917 26.4572 355.193 25.5664 355.743 24.9062C356.297 24.2461 357.04 23.916 357.971 23.916C358.842 23.916 359.532 24.2038 360.04 24.7793C360.548 25.3506 360.802 26.106 360.802 27.0454V27.7119H356.009C356.03 28.5286 356.236 29.1486 356.625 29.5718C357.019 29.995 357.571 30.2065 358.282 30.2065C359.031 30.2065 359.771 30.05 360.503 29.7368V30.6763C360.131 30.8371 359.778 30.9513 359.443 31.019C359.113 31.091 358.713 31.127 358.244 31.127ZM357.958 24.7983C357.399 24.7983 356.953 24.9803 356.619 25.3442C356.289 25.7082 356.094 26.2118 356.035 26.855H359.672C359.672 26.1906 359.524 25.6828 359.228 25.3315C358.931 24.9761 358.508 24.7983 357.958 24.7983ZM365.385 31.127C364.378 31.127 363.597 30.818 363.042 30.2002C362.492 29.5781 362.217 28.7 362.217 27.5659C362.217 26.4022 362.497 25.5029 363.055 24.8682C363.618 24.2334 364.418 23.916 365.455 23.916C365.789 23.916 366.123 23.952 366.458 24.0239C366.792 24.0959 367.054 24.1805 367.245 24.2778L366.921 25.1729C366.688 25.0798 366.434 25.0036 366.159 24.9443C365.884 24.8809 365.641 24.8491 365.429 24.8491C364.016 24.8491 363.309 25.7505 363.309 27.5532C363.309 28.408 363.48 29.064 363.823 29.521C364.17 29.978 364.682 30.2065 365.359 30.2065C365.939 30.2065 366.534 30.0817 367.143 29.832V30.7651C366.678 31.0063 366.091 31.127 365.385 31.127ZM371.047 30.2573C371.233 30.2573 371.413 30.2446 371.586 30.2192C371.76 30.1896 371.897 30.16 371.999 30.1304V30.9365C371.885 30.9915 371.715 31.036 371.491 31.0698C371.271 31.1079 371.072 31.127 370.895 31.127C369.549 31.127 368.876 30.4181 368.876 29.0005V24.8618H367.879V24.354L368.876 23.916L369.32 22.4307H369.93V24.043H371.948V24.8618H369.93V28.9561C369.93 29.375 370.029 29.6966 370.228 29.9209C370.427 30.1452 370.7 30.2573 371.047 30.2573ZM376.62 30.3271C376.62 30.0436 376.684 29.8299 376.811 29.686C376.942 29.5379 377.128 29.4639 377.369 29.4639C377.615 29.4639 377.805 29.5379 377.94 29.686C378.08 29.8299 378.15 30.0436 378.15 30.3271C378.15 30.6022 378.08 30.8138 377.94 30.9619C377.801 31.11 377.61 31.1841 377.369 31.1841C377.153 31.1841 376.973 31.1185 376.83 30.9873C376.69 30.8519 376.62 30.6318 376.62 30.3271ZM376.62 24.7222C376.62 24.1509 376.87 23.8652 377.369 23.8652C377.89 23.8652 378.15 24.1509 378.15 24.7222C378.15 24.9972 378.08 25.2088 377.94 25.3569C377.801 25.505 377.61 25.5791 377.369 25.5791C377.153 25.5791 376.973 25.5135 376.83 25.3823C376.69 25.2469 376.62 25.0269 376.62 24.7222ZM383.66 31H382.631V24.3857C382.631 23.8356 382.648 23.3151 382.682 22.8242C382.593 22.9131 382.494 23.0062 382.384 23.1035C382.274 23.2008 381.77 23.6134 380.873 24.3413L380.314 23.6177L382.771 21.7197H383.66V31ZM390.096 25.3315C391.074 25.3315 391.842 25.5749 392.4 26.0615C392.963 26.5439 393.245 27.2062 393.245 28.0483C393.245 29.009 392.938 29.7622 392.324 30.3081C391.715 30.854 390.873 31.127 389.798 31.127C388.753 31.127 387.955 30.9598 387.405 30.6255V29.6099C387.701 29.8003 388.069 29.9505 388.509 30.0605C388.949 30.1663 389.383 30.2192 389.811 30.2192C390.555 30.2192 391.133 30.0436 391.543 29.6924C391.958 29.3411 392.166 28.8333 392.166 28.1689C392.166 26.874 391.372 26.2266 389.785 26.2266C389.383 26.2266 388.846 26.2879 388.173 26.4106L387.627 26.0615L387.976 21.7197H392.591V22.6909H388.877L388.643 25.4775C389.129 25.3802 389.614 25.3315 390.096 25.3315Z" fill="#090F69"/>
<circle cx="319" cy="26" r="4" fill="#00B25D"/>
<path d="M423.62 31V21.7197H424.699V31H423.62ZM431.853 31V26.4995C431.853 25.9325 431.723 25.5093 431.465 25.23C431.207 24.9507 430.803 24.811 430.253 24.811C429.525 24.811 428.992 25.0078 428.653 25.4014C428.315 25.7949 428.146 26.4445 428.146 27.3501V31H427.092V24.043H427.949L428.12 24.9951H428.171C428.387 24.6523 428.689 24.3879 429.079 24.2017C429.468 24.0112 429.902 23.916 430.38 23.916C431.218 23.916 431.848 24.1191 432.271 24.5254C432.695 24.9274 432.906 25.5728 432.906 26.4614V31H431.853ZM437.857 31.127C436.85 31.127 436.069 30.818 435.515 30.2002C434.965 29.5781 434.69 28.7 434.69 27.5659C434.69 26.4022 434.969 25.5029 435.528 24.8682C436.091 24.2334 436.89 23.916 437.927 23.916C438.262 23.916 438.596 23.952 438.93 24.0239C439.264 24.0959 439.527 24.1805 439.717 24.2778L439.394 25.1729C439.161 25.0798 438.907 25.0036 438.632 24.9443C438.357 24.8809 438.113 24.8491 437.902 24.8491C436.488 24.8491 435.782 25.7505 435.782 27.5532C435.782 28.408 435.953 29.064 436.296 29.521C436.643 29.978 437.155 30.2065 437.832 30.2065C438.412 30.2065 439.006 30.0817 439.616 29.832V30.7651C439.15 31.0063 438.564 31.127 437.857 31.127ZM447.277 27.5151C447.277 28.6493 446.992 29.5358 446.42 30.1748C445.849 30.8096 445.06 31.127 444.053 31.127C443.431 31.127 442.878 30.981 442.396 30.689C441.914 30.397 441.541 29.978 441.279 29.4321C441.016 28.8862 440.885 28.2472 440.885 27.5151C440.885 26.381 441.169 25.4987 441.736 24.8682C442.303 24.2334 443.09 23.916 444.097 23.916C445.07 23.916 445.843 24.2397 446.414 24.8872C446.99 25.5347 447.277 26.4106 447.277 27.5151ZM441.977 27.5151C441.977 28.4038 442.155 29.0809 442.51 29.5464C442.866 30.0119 443.388 30.2446 444.078 30.2446C444.768 30.2446 445.291 30.014 445.646 29.5527C446.006 29.0872 446.186 28.408 446.186 27.5151C446.186 26.6307 446.006 25.96 445.646 25.5029C445.291 25.0417 444.764 24.811 444.065 24.811C443.376 24.811 442.855 25.0374 442.504 25.4902C442.153 25.943 441.977 26.618 441.977 27.5151ZM452.305 23.916C452.614 23.916 452.891 23.9414 453.136 23.9922L452.99 24.9697C452.702 24.9062 452.449 24.8745 452.229 24.8745C451.666 24.8745 451.183 25.103 450.781 25.5601C450.383 26.0171 450.185 26.5863 450.185 27.2676V31H449.131V24.043H450L450.121 25.3315H450.172C450.43 24.8787 450.741 24.5296 451.105 24.2842C451.469 24.0387 451.869 23.916 452.305 23.916ZM457.611 23.916C457.92 23.916 458.197 23.9414 458.443 23.9922L458.297 24.9697C458.009 24.9062 457.755 24.8745 457.535 24.8745C456.972 24.8745 456.49 25.103 456.088 25.5601C455.69 26.0171 455.491 26.5863 455.491 27.2676V31H454.438V24.043H455.307L455.428 25.3315H455.479C455.737 24.8787 456.048 24.5296 456.412 24.2842C456.776 24.0387 457.175 23.916 457.611 23.916ZM462.683 31.127C461.655 31.127 460.842 30.8138 460.246 30.1875C459.653 29.5612 459.357 28.6916 459.357 27.5786C459.357 26.4572 459.632 25.5664 460.182 24.9062C460.736 24.2461 461.479 23.916 462.41 23.916C463.282 23.916 463.972 24.2038 464.479 24.7793C464.987 25.3506 465.241 26.106 465.241 27.0454V27.7119H460.449C460.47 28.5286 460.675 29.1486 461.064 29.5718C461.458 29.995 462.01 30.2065 462.721 30.2065C463.47 30.2065 464.211 30.05 464.943 29.7368V30.6763C464.57 30.8371 464.217 30.9513 463.883 31.019C463.553 31.091 463.153 31.127 462.683 31.127ZM462.397 24.7983C461.839 24.7983 461.392 24.9803 461.058 25.3442C460.728 25.7082 460.533 26.2118 460.474 26.855H464.111C464.111 26.1906 463.963 25.6828 463.667 25.3315C463.371 24.9761 462.948 24.7983 462.397 24.7983ZM469.824 31.127C468.817 31.127 468.036 30.818 467.482 30.2002C466.932 29.5781 466.657 28.7 466.657 27.5659C466.657 26.4022 466.936 25.5029 467.495 24.8682C468.057 24.2334 468.857 23.916 469.894 23.916C470.228 23.916 470.563 23.952 470.897 24.0239C471.231 24.0959 471.494 24.1805 471.684 24.2778L471.36 25.1729C471.128 25.0798 470.874 25.0036 470.599 24.9443C470.324 24.8809 470.08 24.8491 469.869 24.8491C468.455 24.8491 467.749 25.7505 467.749 27.5532C467.749 28.408 467.92 29.064 468.263 29.521C468.61 29.978 469.122 30.2065 469.799 30.2065C470.379 30.2065 470.973 30.0817 471.583 29.832V30.7651C471.117 31.0063 470.531 31.127 469.824 31.127ZM475.486 30.2573C475.673 30.2573 475.852 30.2446 476.026 30.2192C476.199 30.1896 476.337 30.16 476.438 30.1304V30.9365C476.324 30.9915 476.155 31.036 475.931 31.0698C475.711 31.1079 475.512 31.127 475.334 31.127C473.988 31.127 473.315 30.4181 473.315 29.0005V24.8618H472.319V24.354L473.315 23.916L473.76 22.4307H474.369V24.043H476.388V24.8618H474.369V28.9561C474.369 29.375 474.469 29.6966 474.667 29.9209C474.866 30.1452 475.139 30.2573 475.486 30.2573ZM481.06 30.3271C481.06 30.0436 481.123 29.8299 481.25 29.686C481.381 29.5379 481.567 29.4639 481.809 29.4639C482.054 29.4639 482.244 29.5379 482.38 29.686C482.52 29.8299 482.589 30.0436 482.589 30.3271C482.589 30.6022 482.52 30.8138 482.38 30.9619C482.24 31.11 482.05 31.1841 481.809 31.1841C481.593 31.1841 481.413 31.1185 481.269 30.9873C481.129 30.8519 481.06 30.6318 481.06 30.3271ZM481.06 24.7222C481.06 24.1509 481.309 23.8652 481.809 23.8652C482.329 23.8652 482.589 24.1509 482.589 24.7222C482.589 24.9972 482.52 25.2088 482.38 25.3569C482.24 25.505 482.05 25.5791 481.809 25.5791C481.593 25.5791 481.413 25.5135 481.269 25.3823C481.129 25.2469 481.06 25.0269 481.06 24.7222ZM489.946 23.9033C489.946 24.4958 489.779 24.9803 489.445 25.3569C489.115 25.7336 488.645 25.9854 488.036 26.1123V26.1631C488.78 26.2562 489.333 26.4932 489.692 26.874C490.052 27.2549 490.232 27.7542 490.232 28.3721C490.232 29.2565 489.925 29.9378 489.312 30.416C488.698 30.89 487.826 31.127 486.696 31.127C486.205 31.127 485.755 31.0889 485.344 31.0127C484.938 30.9408 484.542 30.8117 484.157 30.6255V29.6226C484.559 29.8215 484.987 29.9738 485.439 30.0796C485.896 30.1812 486.328 30.2319 486.734 30.2319C488.338 30.2319 489.14 29.6035 489.14 28.3467C489.14 27.221 488.256 26.6582 486.487 26.6582H485.573V25.7505H486.5C487.223 25.7505 487.797 25.5918 488.22 25.2744C488.643 24.9528 488.854 24.5085 488.854 23.9414C488.854 23.4886 488.698 23.1331 488.385 22.875C488.076 22.6169 487.655 22.4878 487.122 22.4878C486.715 22.4878 486.332 22.5428 485.973 22.6528C485.613 22.7629 485.202 22.966 484.741 23.2622L484.208 22.5513C484.589 22.2508 485.027 22.016 485.522 21.8467C486.021 21.6732 486.546 21.5864 487.096 21.5864C487.998 21.5864 488.698 21.7938 489.197 22.2085C489.697 22.619 489.946 23.1839 489.946 23.9033Z" fill="#090F69"/>
<circle cx="414" cy="26" r="4" fill="#EF4060"/>
<path d="M522.76 28.5308C522.76 29.3475 522.464 29.9844 521.871 30.4414C521.279 30.8984 520.475 31.127 519.459 31.127C518.359 31.127 517.512 30.9852 516.92 30.7017V29.6606C517.301 29.8215 517.715 29.9484 518.164 30.0415C518.613 30.1346 519.057 30.1812 519.497 30.1812C520.216 30.1812 520.758 30.0457 521.122 29.7749C521.486 29.4998 521.668 29.119 521.668 28.6323C521.668 28.3107 521.602 28.0483 521.471 27.8452C521.344 27.6379 521.128 27.4474 520.824 27.2739C520.523 27.1004 520.064 26.9036 519.446 26.6836C518.583 26.3747 517.965 26.0086 517.593 25.5854C517.225 25.1623 517.041 24.61 517.041 23.9287C517.041 23.2135 517.309 22.6444 517.847 22.2212C518.384 21.798 519.095 21.5864 519.979 21.5864C520.902 21.5864 521.75 21.7557 522.525 22.0942L522.188 23.0337C521.423 22.7121 520.678 22.5513 519.954 22.5513C519.383 22.5513 518.936 22.674 518.615 22.9194C518.293 23.1649 518.132 23.5055 518.132 23.9414C518.132 24.263 518.192 24.5275 518.31 24.7349C518.429 24.938 518.627 25.1263 518.907 25.2998C519.19 25.4691 519.622 25.6574 520.202 25.8647C521.175 26.2118 521.844 26.5841 522.208 26.9819C522.576 27.3797 522.76 27.896 522.76 28.5308ZM525.54 27.439C525.722 27.1808 525.999 26.8423 526.372 26.4233L528.619 24.043H529.869L527.051 27.0073L530.066 31H528.79L526.333 27.7119L525.54 28.3975V31H524.499V21.123H525.54V26.3599C525.54 26.5926 525.523 26.9523 525.489 27.439H525.54ZM532.383 31H531.329V24.043H532.383V31ZM531.24 22.1577C531.24 21.9165 531.299 21.7409 531.418 21.6309C531.536 21.5166 531.685 21.4595 531.862 21.4595C532.032 21.4595 532.178 21.5166 532.3 21.6309C532.423 21.7451 532.484 21.9207 532.484 22.1577C532.484 22.3947 532.423 22.5724 532.3 22.6909C532.178 22.8052 532.032 22.8623 531.862 22.8623C531.685 22.8623 531.536 22.8052 531.418 22.6909C531.299 22.5724 531.24 22.3947 531.24 22.1577ZM537.854 31.127C537.402 31.127 536.987 31.0444 536.61 30.8794C536.238 30.7101 535.925 30.452 535.671 30.105H535.595C535.646 30.5112 535.671 30.8963 535.671 31.2603V34.123H534.617V24.043H535.474L535.62 24.9951H535.671C535.942 24.6143 536.257 24.3392 536.617 24.1699C536.976 24.0007 537.389 23.916 537.854 23.916C538.777 23.916 539.488 24.2313 539.987 24.8618C540.491 25.4924 540.743 26.3768 540.743 27.5151C540.743 28.6577 540.487 29.5464 539.975 30.1812C539.467 30.8117 538.76 31.127 537.854 31.127ZM537.702 24.811C536.991 24.811 536.477 25.0078 536.16 25.4014C535.842 25.7949 535.679 26.4212 535.671 27.2803V27.5151C535.671 28.4927 535.834 29.193 536.16 29.6162C536.486 30.0352 537.008 30.2446 537.728 30.2446C538.328 30.2446 538.798 30.0013 539.137 29.5146C539.479 29.028 539.651 28.3573 539.651 27.5024C539.651 26.6349 539.479 25.9705 539.137 25.5093C538.798 25.0438 538.32 24.811 537.702 24.811ZM545.827 31.127C545.374 31.127 544.96 31.0444 544.583 30.8794C544.211 30.7101 543.897 30.452 543.644 30.105H543.567C543.618 30.5112 543.644 30.8963 543.644 31.2603V34.123H542.59V24.043H543.447L543.593 24.9951H543.644C543.914 24.6143 544.23 24.3392 544.589 24.1699C544.949 24.0007 545.362 23.916 545.827 23.916C546.75 23.916 547.461 24.2313 547.96 24.8618C548.464 25.4924 548.715 26.3768 548.715 27.5151C548.715 28.6577 548.459 29.5464 547.947 30.1812C547.439 30.8117 546.733 31.127 545.827 31.127ZM545.675 24.811C544.964 24.811 544.45 25.0078 544.132 25.4014C543.815 25.7949 543.652 26.4212 543.644 27.2803V27.5151C543.644 28.4927 543.806 29.193 544.132 29.6162C544.458 30.0352 544.981 30.2446 545.7 30.2446C546.301 30.2446 546.771 30.0013 547.109 29.5146C547.452 29.028 547.624 28.3573 547.624 27.5024C547.624 26.6349 547.452 25.9705 547.109 25.5093C546.771 25.0438 546.293 24.811 545.675 24.811ZM553.501 31.127C552.473 31.127 551.661 30.8138 551.064 30.1875C550.472 29.5612 550.175 28.6916 550.175 27.5786C550.175 26.4572 550.45 25.5664 551 24.9062C551.555 24.2461 552.298 23.916 553.229 23.916C554.1 23.916 554.79 24.2038 555.298 24.7793C555.806 25.3506 556.06 26.106 556.06 27.0454V27.7119H551.267C551.288 28.5286 551.493 29.1486 551.883 29.5718C552.276 29.995 552.829 30.2065 553.54 30.2065C554.289 30.2065 555.029 30.05 555.761 29.7368V30.6763C555.389 30.8371 555.035 30.9513 554.701 31.019C554.371 31.091 553.971 31.127 553.501 31.127ZM553.216 24.7983C552.657 24.7983 552.211 24.9803 551.876 25.3442C551.546 25.7082 551.352 26.2118 551.292 26.855H554.93C554.93 26.1906 554.782 25.6828 554.485 25.3315C554.189 24.9761 553.766 24.7983 553.216 24.7983ZM562.598 30.0669H562.541C562.054 30.7736 561.326 31.127 560.357 31.127C559.447 31.127 558.738 30.8159 558.23 30.1938C557.727 29.5718 557.475 28.6873 557.475 27.5405C557.475 26.3937 557.729 25.5029 558.237 24.8682C558.745 24.2334 559.451 23.916 560.357 23.916C561.301 23.916 562.024 24.2588 562.528 24.9443H562.61L562.566 24.4429L562.541 23.9541V21.123H563.594V31H562.737L562.598 30.0669ZM560.49 30.2446C561.21 30.2446 561.73 30.05 562.052 29.6606C562.378 29.2671 562.541 28.6344 562.541 27.7627V27.5405C562.541 26.5545 562.375 25.8521 562.045 25.4331C561.72 25.0099 561.197 24.7983 560.478 24.7983C559.86 24.7983 559.386 25.0396 559.056 25.522C558.73 26.0002 558.567 26.6772 558.567 27.5532C558.567 28.4419 558.73 29.1126 559.056 29.5654C559.382 30.0182 559.86 30.2446 560.49 30.2446ZM569.06 30.3271C569.06 30.0436 569.123 29.8299 569.25 29.686C569.381 29.5379 569.567 29.4639 569.809 29.4639C570.054 29.4639 570.244 29.5379 570.38 29.686C570.52 29.8299 570.589 30.0436 570.589 30.3271C570.589 30.6022 570.52 30.8138 570.38 30.9619C570.24 31.11 570.05 31.1841 569.809 31.1841C569.593 31.1841 569.413 31.1185 569.269 30.9873C569.129 30.8519 569.06 30.6318 569.06 30.3271ZM569.06 24.7222C569.06 24.1509 569.309 23.8652 569.809 23.8652C570.329 23.8652 570.589 24.1509 570.589 24.7222C570.589 24.9972 570.52 25.2088 570.38 25.3569C570.24 25.505 570.05 25.5791 569.809 25.5791C569.593 25.5791 569.413 25.5135 569.269 25.3823C569.129 25.2469 569.06 25.0269 569.06 24.7222ZM578.295 31H572.195V30.0923L574.639 27.6357C575.384 26.8825 575.875 26.3451 576.112 26.0234C576.349 25.7018 576.527 25.3887 576.645 25.084C576.764 24.7793 576.823 24.4513 576.823 24.1001C576.823 23.605 576.673 23.2135 576.372 22.9258C576.072 22.6338 575.655 22.4878 575.122 22.4878C574.736 22.4878 574.37 22.5513 574.023 22.6782C573.681 22.8052 573.298 23.0358 572.875 23.3701L572.316 22.6528C573.171 21.9419 574.102 21.5864 575.109 21.5864C575.981 21.5864 576.664 21.8107 577.159 22.2593C577.654 22.7036 577.902 23.3024 577.902 24.0557C577.902 24.6439 577.737 25.2257 577.407 25.8013C577.077 26.3768 576.459 27.1047 575.553 27.9849L573.522 29.9717V30.0225H578.295V31Z" fill="#090F69"/>
<circle cx="511" cy="26" r="4" fill="#FF9D54"/>
</svg>
