<svg width="20" height="20" viewBox="0 0 20 20" fill="none" xmlns="http://www.w3.org/2000/svg">
<path d="M17.1484 10.7959C18.2021 9.7423 18.794 8.3133 18.794 6.82326C18.794 5.33323 18.2021 3.90422 17.1484 2.85061C16.0948 1.79699 14.6658 1.20508 13.1758 1.20508C11.6857 1.20508 10.2567 1.79699 9.20313 2.85061L9.14844 2.89748L9.10157 2.95217C8.07419 3.99894 7.49905 5.40734 7.5 6.87404C7.49853 7.07501 7.50896 7.27588 7.53125 7.47561L1.6875 15.4444C1.51052 15.6854 1.42582 15.9819 1.44875 16.28C1.47169 16.5782 1.60074 16.8582 1.8125 17.0694L2.92969 18.1865C3.14082 18.3983 3.42087 18.5274 3.71902 18.5503C4.01716 18.5732 4.31366 18.4885 4.55469 18.3115L12.5234 12.4678C12.7232 12.4901 12.924 12.5005 13.125 12.499C14.5917 12.5 16.0001 11.9249 17.0469 10.8975L17.1016 10.8506L17.1484 10.7959ZM17.5 6.87404C17.5011 7.81845 17.1939 8.73741 16.625 9.49123L10.5078 3.37404C11.1571 2.88575 11.9296 2.58822 12.7387 2.5149C13.5477 2.44158 14.3612 2.59538 15.0876 2.95901C15.8141 3.32263 16.4247 3.88167 16.8509 4.57329C17.277 5.2649 17.5018 6.06168 17.5 6.87404ZM3.8125 17.3037L2.69532 16.1865L7.9375 9.04592C8.50933 10.407 9.592 11.4897 10.9531 12.0615L3.8125 17.3037ZM8.75 6.87404C8.74886 5.92964 9.0561 5.01068 9.625 4.25686L15.7422 10.374C15.093 10.8623 14.3204 11.1599 13.5113 11.2332C12.7023 11.3065 11.8888 11.1527 11.1624 10.7891C10.4359 10.4255 9.82531 9.86641 9.39915 9.1748C8.97299 8.48318 8.74818 7.68641 8.75 6.87404ZM8.25781 11.7412C8.37518 11.8597 8.44102 12.0198 8.44102 12.1865C8.44102 12.3533 8.37518 12.5134 8.25781 12.6319L7.32031 13.5694C7.20085 13.6849 7.04118 13.7494 6.875 13.7494C6.70883 13.7494 6.54915 13.6849 6.42969 13.5694C6.31233 13.4509 6.24649 13.2908 6.24649 13.124C6.24649 12.9573 6.31233 12.7972 6.42969 12.6787L7.36719 11.7412C7.48569 11.6239 7.64572 11.558 7.8125 11.558C7.97928 11.558 8.13932 11.6239 8.25781 11.7412Z" fill="#7A869A"/>
</svg>
