<svg width="20" height="20" viewBox="0 0 20 20" fill="none" xmlns="http://www.w3.org/2000/svg">
<path d="M16.6667 1.66602C17.3297 1.66602 17.9656 1.92941 18.4344 2.39825C18.9033 2.86709 19.1667 3.50297 19.1667 4.16602V5.83268H17.5V15.8327C17.5 16.4957 17.2366 17.1316 16.7678 17.6004C16.2989 18.0693 15.6631 18.3327 15 18.3327H3.33334C2.6703 18.3327 2.03442 18.0693 1.56558 17.6004C1.09674 17.1316 0.833344 16.4957 0.833344 15.8327V14.166H14.1667V15.8327C14.1667 16.0368 14.2416 16.2338 14.3773 16.3863C14.5129 16.5389 14.6998 16.6363 14.9025 16.6602L15 16.666C15.2041 16.666 15.4011 16.5911 15.5537 16.4554C15.7062 16.3198 15.8036 16.1329 15.8275 15.9302L15.8333 15.8327V3.33268H5.00001C4.7959 3.33271 4.5989 3.40765 4.44637 3.54328C4.29384 3.67891 4.19639 3.86581 4.17251 4.06852L4.16668 4.16602V12.4993H2.50001V4.16602C2.50001 3.50297 2.7634 2.86709 3.23224 2.39825C3.70108 1.92941 4.33697 1.66602 5.00001 1.66602H16.6667Z" fill="#7A869A"/>
</svg>
