<svg width="20" height="20" viewBox="0 0 20 20" fill="none" xmlns="http://www.w3.org/2000/svg">
<path d="M16.5533 7.05352C16.6706 6.64198 16.696 6.20971 16.6278 5.78727C16.5596 5.36483 16.3993 4.96254 16.1585 4.60886C15.9176 4.25518 15.6019 3.95874 15.2338 3.74052C14.8658 3.5223 14.4542 3.38762 14.0283 3.34602C13.8574 2.8557 13.5383 2.43063 13.1152 2.12964C12.6921 1.82865 12.1859 1.66664 11.6667 1.66602C11.0496 1.66811 10.4555 1.89982 9.99999 2.31602C9.54448 1.89982 8.95034 1.66811 8.33332 1.66602C7.24916 1.66602 6.32499 2.35852 5.97916 3.34518C5.55252 3.38575 5.14003 3.5197 4.77096 3.73754C4.40189 3.95538 4.08528 4.25176 3.84359 4.60567C3.6019 4.95958 3.44105 5.36234 3.37245 5.78538C3.30385 6.20842 3.32919 6.64137 3.44666 7.05352C2.91168 7.33814 2.46374 7.76228 2.15035 8.28093C1.83696 8.79957 1.66982 9.39338 1.66666 9.99935C1.66666 10.8952 2.02332 11.7377 2.64332 12.3593C2.54846 12.6751 2.50017 13.003 2.49999 13.3327C2.49999 14.9635 3.67666 16.3243 5.25499 16.611C5.4867 17.1231 5.86085 17.5577 6.3328 17.863C6.80476 18.1683 7.35458 18.3313 7.91666 18.3327C8.73249 18.3327 9.46999 17.9935 9.99999 17.4502C10.2705 17.7292 10.5943 17.9511 10.9522 18.1027C11.31 18.2543 11.6947 18.3325 12.0833 18.3327C12.6444 18.3316 13.1933 18.1693 13.6647 17.8649C14.136 17.5605 14.5099 17.127 14.7417 16.616C15.2066 16.534 15.6489 16.3544 16.0393 16.0889C16.4297 15.8234 16.7594 15.4781 17.0065 15.0758C17.2537 14.6735 17.4126 14.2234 17.473 13.7551C17.5334 13.2869 17.4937 12.8112 17.3567 12.3593C17.6665 12.0494 17.9122 11.6815 18.0798 11.2765C18.2474 10.8716 18.3335 10.4376 18.3333 9.99935C18.3302 9.39338 18.163 8.79957 17.8496 8.28093C17.5362 7.76228 17.0883 7.33814 16.5533 7.05352ZM7.91666 16.666C7.32416 16.666 6.80832 16.246 6.69166 15.6677L6.51499 14.9993H5.83332C4.91416 14.9993 4.16666 14.2518 4.16666 13.3327C4.16666 13.0393 4.23749 12.7643 4.37749 12.5152L4.75749 11.8352L4.10416 11.4102C3.86814 11.258 3.67397 11.0492 3.53933 10.8028C3.40469 10.5564 3.33387 10.2802 3.33332 9.99935C3.33332 9.18518 3.93582 8.47935 4.73499 8.35602L6.14582 8.13935L5.26332 7.01768C5.10616 6.81508 5.01502 6.56909 5.00222 6.31299C4.98943 6.0569 5.05559 5.80305 5.19177 5.58579C5.32795 5.36852 5.52757 5.19832 5.76363 5.0982C5.99969 4.99809 6.26081 4.97289 6.51166 5.02602L7.49999 5.17185V4.16602C7.49999 3.945 7.58779 3.73304 7.74407 3.57676C7.90035 3.42048 8.11231 3.33268 8.33332 3.33268C8.55434 3.33268 8.7663 3.42048 8.92258 3.57676C9.07886 3.73304 9.16666 3.945 9.16666 4.16602V15.416C9.16666 16.1052 8.60582 16.666 7.91666 16.666ZM15.8958 11.4093L15.2425 11.8343L15.6225 12.5143C15.7625 12.7643 15.8333 13.0393 15.8333 13.3327C15.8333 14.2518 15.0858 14.9993 14.125 14.9993H13.4433L13.3083 15.6677C13.2501 15.9496 13.0964 16.2028 12.8733 16.3846C12.6502 16.5665 12.3712 16.6658 12.0833 16.666C11.3942 16.666 10.8333 16.1052 10.8333 15.416V4.16602C10.8333 3.70602 11.2067 3.33268 11.6667 3.33268C12.1267 3.33268 12.5 3.70602 12.5 4.20768V5.21352L13.4883 5.02602C13.7392 4.97289 14.0003 4.99809 14.2364 5.0982C14.4724 5.19832 14.672 5.36852 14.8082 5.58579C14.9444 5.80305 15.0106 6.0569 14.9978 6.31299C14.985 6.56909 14.8938 6.81508 14.7367 7.01768L13.8542 8.14018L15.265 8.35685C15.6554 8.42006 16.0107 8.61992 16.2674 8.92076C16.5241 9.2216 16.6656 9.60386 16.6667 9.99935C16.6667 10.5685 16.3783 11.0952 15.8958 11.4093Z" fill="#7A869A"/>
</svg>
