<svg width="20" height="20" viewBox="0 0 20 20" fill="none" xmlns="http://www.w3.org/2000/svg">
<path d="M9.99999 5.83268C10.4602 5.83268 10.8333 5.45959 10.8333 4.99935C10.8333 4.53911 10.4602 4.16602 9.99999 4.16602C9.53975 4.16602 9.16666 4.53911 9.16666 4.99935C9.16666 5.45959 9.53975 5.83268 9.99999 5.83268Z" fill="#7A869A"/>
<path d="M5 14.166H15V15.8327H5V14.166ZM8.33333 9.85768L10.66 12.186L13.9367 8.90685L15 9.99935V6.66602H11.6667L12.7583 7.72852L10.6592 9.82768L8.33333 7.49935L5 10.8327L6.17833 12.011L8.33333 9.85768Z" fill="#7A869A"/>
<path d="M15.8333 2.4991H13.085C13.0032 2.37588 12.9141 2.25762 12.8183 2.14493L12.81 2.13493C12.1977 1.42181 11.3363 0.969333 10.4017 0.869929C10.1363 0.819399 9.86372 0.819399 9.59832 0.869929C8.66369 0.969333 7.80226 1.42181 7.18999 2.13493L7.18166 2.14493C7.08588 2.25735 6.99684 2.37533 6.91499 2.49826V2.4991H4.16666C3.50382 2.49976 2.86832 2.76336 2.39962 3.23206C1.93092 3.70076 1.66732 4.33626 1.66666 4.9991V16.6658C1.66732 17.3286 1.93092 17.9641 2.39962 18.4328C2.86832 18.9015 3.50382 19.1651 4.16666 19.1658H15.8333C16.4962 19.1651 17.1317 18.9015 17.6004 18.4328C18.0691 17.9641 18.3327 17.3286 18.3333 16.6658V4.9991C18.3327 4.33626 18.0691 3.70076 17.6004 3.23206C17.1317 2.76336 16.4962 2.49976 15.8333 2.4991ZM16.6667 16.6658C16.6667 16.8868 16.5789 17.0987 16.4226 17.255C16.2663 17.4113 16.0543 17.4991 15.8333 17.4991H4.16666C3.94571 17.4989 3.73388 17.411 3.57764 17.2548C3.42141 17.0985 3.33354 16.8867 3.33332 16.6658V4.9991C3.33354 4.77815 3.42141 4.56632 3.57764 4.41008C3.73388 4.25385 3.94571 4.16598 4.16666 4.16576H7.95832C8.05395 3.69481 8.30946 3.2714 8.68155 2.96727C9.05364 2.66315 9.51942 2.49701 9.99999 2.49701C10.4806 2.49701 10.9463 2.66315 11.3184 2.96727C11.6905 3.2714 11.946 3.69481 12.0417 4.16576H15.8333C16.0543 4.16598 16.2661 4.25385 16.4223 4.41008C16.5786 4.56632 16.6664 4.77815 16.6667 4.9991V16.6658Z" fill="#7A869A"/>
</svg>
