<svg width="48" height="48" viewBox="0 0 48 48" fill="none" xmlns="http://www.w3.org/2000/svg">
<circle cx="24" cy="24" r="23.5" fill="white" stroke="#00218D"/>
<g clip-path="url(#clip0)">
<path d="M28.3945 21.4215L28.4653 21.4924L28.536 21.4216L30.5107 19.4457C30.5107 19.4457 30.5107 19.4457 30.5108 19.4456C30.7068 19.2507 31.0239 19.2517 31.2189 19.4467C31.4138 19.6416 31.4138 19.9587 31.2189 20.1536L28.8197 22.5528C28.8196 22.5528 28.8196 22.5529 28.8195 22.5529C28.7213 22.6501 28.5933 22.699 28.4653 22.699C28.3372 22.699 28.2096 22.6501 28.1128 22.5523L28.1125 22.552L26.9127 21.3522C26.7178 21.1573 26.7178 20.8402 26.9127 20.6453C27.1076 20.4504 27.4246 20.4504 27.6195 20.6453L27.6195 20.6453L28.3945 21.4215Z" fill="#00218D" stroke="white" stroke-width="0.2"/>
<path d="M28.3945 26.7549L28.4653 26.8258L28.536 26.7549L30.5107 24.7791C30.5107 24.7791 30.5107 24.779 30.5108 24.779C30.7068 24.5841 31.0239 24.5851 31.2189 24.7801C31.4138 24.975 31.4138 25.292 31.2189 25.4869L28.8197 27.8862C28.8196 27.8862 28.8196 27.8863 28.8195 27.8863C28.7213 27.9835 28.5933 28.0324 28.4653 28.0324C28.3372 28.0324 28.2096 27.9835 28.1128 27.8857L28.1125 27.8853L26.9127 26.6855C26.7178 26.4906 26.7178 26.1736 26.9127 25.9787C27.1076 25.7838 27.4246 25.7838 27.6195 25.9787L28.3945 26.7549Z" fill="#00218D" stroke="white" stroke-width="0.2"/>
<path d="M28.4653 32.1591L28.3945 32.0882L27.6195 31.312L28.4653 32.1591ZM28.4653 32.1591L28.536 32.0883M28.4653 32.1591L28.536 32.0883M28.536 32.0883L30.5107 30.1124C30.5107 30.1124 30.5107 30.1124 30.5108 30.1123C30.7068 29.9174 31.0239 29.9184 31.2189 30.1134C31.4138 30.3083 31.4138 30.6253 31.2189 30.8203L28.8197 33.2195C28.8196 33.2195 28.8196 33.2196 28.8195 33.2197C28.7212 33.3168 28.5933 33.3657 28.4653 33.3657C28.3372 33.3657 28.2096 33.3168 28.1128 33.219L28.1125 33.2186M28.536 32.0883L28.1125 33.2186M28.1125 33.2186L26.9127 32.0188C26.7178 31.8239 26.7178 31.5069 26.9127 31.312C27.1076 31.1171 27.4246 31.1171 27.6195 31.312L28.1125 33.2186Z" fill="#00218D" stroke="white" stroke-width="0.2"/>
<path d="M18.3109 20.4667H23.2886C23.8951 20.4667 24.3331 20.8828 24.3331 21.3333C24.3331 21.7839 23.8951 22.2 23.2886 22.2H18.3109C17.7043 22.2 17.2664 21.7839 17.2664 21.3333C17.2664 20.8828 17.7043 20.4667 18.3109 20.4667Z" fill="#FCA19C" stroke="white" stroke-width="0.4"/>
<path d="M18.3109 25.8H23.2886C23.8951 25.8 24.3331 26.2161 24.3331 26.6666C24.3331 27.1172 23.8951 27.5333 23.2886 27.5333H18.3109C17.7043 27.5333 17.2664 27.1172 17.2664 26.6666C17.2664 26.2161 17.7043 25.8 18.3109 25.8Z" fill="#FCA19C" stroke="white" stroke-width="0.4"/>
<path d="M18.3109 31.1333H23.2886C23.8951 31.1333 24.3331 31.5494 24.3331 32C24.3331 32.4505 23.8951 32.8666 23.2886 32.8666H18.3109C17.7043 32.8666 17.2664 32.4505 17.2664 32C17.2664 31.5494 17.7043 31.1333 18.3109 31.1333Z" fill="#FCA19C" stroke="white" stroke-width="0.4"/>
<path d="M33.2 13.0666H29.7333V12.2C29.7333 11.7216 29.345 11.3333 28.8666 11.3333H26.986C26.6272 10.3245 25.6634 9.59998 24.5333 9.59998C23.4032 9.59998 22.4394 10.3245 22.0806 11.3333H20.2C19.7216 11.3333 19.3333 11.7216 19.3333 12.2V13.0666H15.8666C14.9116 13.0666 14.1333 13.8449 14.1333 14.8V35.6C14.1333 36.555 14.9116 37.3333 15.8666 37.3333H33.2C34.155 37.3333 34.9333 36.555 34.9333 35.6V14.8C34.9333 13.8449 34.155 13.0666 33.2 13.0666ZM21.0666 13.0666H22.8C23.2784 13.0666 23.6666 12.6784 23.6666 12.2C23.6666 11.7216 24.0549 11.3333 24.5333 11.3333C25.0117 11.3333 25.4 11.7216 25.4 12.2C25.4 12.6784 25.7882 13.0666 26.2666 13.0666H28V14.8H21.0666V13.0666ZM33.2 35.6H15.8666V14.8H19.3333V15.6666C19.3333 16.145 19.7216 16.5333 20.2 16.5333H28.8666C29.345 16.5333 29.7333 16.145 29.7333 15.6666V14.8H33.2V35.6Z" fill="#00218D" stroke="white" stroke-width="0.6"/>
</g>
<defs>
<clipPath id="clip0">
<rect width="27.7333" height="27.7333" fill="white" transform="translate(10.6665 9.59998)"/>
</clipPath>
</defs>
</svg>
