<svg version="1.2" baseProfile="tiny-ps" xmlns="http://www.w3.org/2000/svg" viewBox="0 0 102 101" width="102" height="101">
	<title>Clock</title>
	<style>
		tspan { white-space:pre }
		.shp0 { fill: #eb9f59 } 
	</style>
	<path id="Clock" class="shp0" d="M55.58 26.05C55.58 24.9 54.69 24.01 53.54 24.01L48.94 24.01C47.79 24.01 46.9 24.9 46.9 26.05L46.9 48.47L31.67 48.47C30.53 48.47 29.64 49.37 29.64 50.51L29.64 55.31C29.64 56.46 30.53 57.35 31.67 57.35L53.54 57.35C54.69 57.35 55.58 56.46 55.58 55.31L55.58 26.05ZM87.15 48.69C87.15 69.35 70.38 86.16 49.77 86.16C29.16 86.16 12.4 69.35 12.4 48.69C12.4 28.02 29.16 11.21 49.77 11.21C70.38 11.21 87.15 28.02 87.15 48.69ZM96.09 48.7C96.09 23.25 75.45 2.61 50 2.61C24.55 2.61 3.91 23.25 3.91 48.7C3.91 74.14 24.55 94.78 50 94.78C75.45 94.78 96.09 74.14 96.09 48.7Z" />
</svg>