<svg width="48" height="48" viewBox="0 0 48 48" fill="none" xmlns="http://www.w3.org/2000/svg">
<circle cx="24" cy="24" r="23.5" fill="white" stroke="#00218D"/>
<path d="M11.4204 22.6805H12.2099L12.6309 23.5226L14.3151 24.3648L15.5783 23.9437L15.9994 22.6805H17.2099C18.8667 22.6805 20.2099 24.0237 20.2099 25.6805V32.7858H8.42041V25.6805C8.42041 24.0237 9.76356 22.6805 11.4204 22.6805Z" fill="white"/>
<path d="M31.6323 22.6805H32.4218L32.8429 23.5226L34.5271 24.3648L35.7902 23.9437L36.2113 22.6805H37.4218C39.0787 22.6805 40.4218 24.0237 40.4218 25.6805V32.7858H28.6323V25.6805C28.6323 24.0237 29.9755 22.6805 31.6323 22.6805Z" fill="white"/>
<path d="M22.8284 26.892L21.918 25.2078H21.0005C18.2391 25.2078 16.0005 27.4463 16.0005 30.2078V32.7867H32.8426V30.2078C32.8426 27.4463 30.604 25.2078 27.8426 25.2078H27.3803L26.3637 26.4615C26.1327 26.7464 25.8552 26.9903 25.543 27.1829C24.9848 27.5271 24.2912 27.5685 23.696 27.2932L22.8284 26.892Z" fill="#FCA19C"/>
<path fill-rule="evenodd" clip-rule="evenodd" d="M36.5846 22.3275H38.097C39.8427 22.3275 41.2628 23.7476 41.2628 25.4934V33.0537H40.2778V25.4934C40.2778 24.2906 39.2997 23.3123 38.097 23.3123H36.5347C36.3296 24.229 35.5101 24.9164 34.5325 24.9164C33.5549 24.9164 32.7354 24.229 32.5303 23.3123H30.9678C30.0033 23.3123 29.174 23.9458 28.8913 24.8272H29.1108C31.3219 24.8272 33.1209 26.6262 33.1209 28.8373V33.0537H32.1358V28.8373C32.1358 27.1692 30.7789 25.8123 29.1108 25.8123H26.9274C26.7208 27.0091 25.6759 27.9227 24.4207 27.9227C23.1656 27.9227 22.1207 27.0091 21.914 25.8123H19.7306C18.0625 25.8123 16.7056 27.1692 16.7056 28.8373V33.0537H15.7206V28.8373C15.7206 26.6262 17.5195 24.8272 19.7306 24.8272H19.9501C19.6674 23.9458 18.8384 23.3123 17.8736 23.3123H16.3111C16.1061 24.229 15.2865 24.9164 14.3089 24.9164C13.3313 24.9164 12.5118 24.229 12.3067 23.3123H10.7445C9.54176 23.3123 8.56366 24.2906 8.56366 25.4934V33.0537H7.57861V25.4934C7.57861 23.7476 8.99874 22.3275 10.7445 22.3275H12.2569V21.4673C11.3158 20.8149 10.6974 19.7275 10.6974 18.4981V16.6267C10.6974 14.6353 12.3175 13.0152 14.3089 13.0152C16.3001 13.0152 17.9202 14.6353 17.9202 16.6267V18.4981C17.9202 19.7275 17.3021 20.8149 16.3607 21.4673V22.3272H17.8736C19.3811 22.3272 20.661 23.3932 20.9686 24.8272H21.8763V23.4585C20.6404 22.6336 19.8245 21.2271 19.8245 19.633V17.1707C19.8245 14.6363 21.8863 12.5745 24.4207 12.5745C26.9552 12.5745 29.017 14.6363 29.017 17.1707V19.633C29.017 21.2271 28.201 22.6338 26.9652 23.4585V24.8272H27.8729C28.1805 23.3932 29.4603 22.3272 30.9678 22.3272H32.4807V21.4673C31.5393 20.8149 30.9213 19.7275 30.9213 18.4981V16.6267C30.9213 14.6353 32.5414 13.0152 34.5325 13.0152C36.5239 13.0152 38.144 14.6353 38.144 16.6267V18.4981C38.144 19.7275 37.5257 20.8149 36.5846 21.4673V22.3275ZM16.9343 16.5825C16.9104 15.1546 15.7424 14.0002 14.3089 14.0002C12.8754 14.0002 11.7072 15.1546 11.6835 16.5825C12.0245 16.1088 12.574 15.8223 13.1674 15.8223H15.4502C16.0439 15.8223 16.5933 16.1086 16.9343 16.5825ZM14.3089 23.9314C14.8972 23.9314 15.376 23.4529 15.376 22.8643V21.9484C15.0385 22.0528 14.6803 22.1093 14.3089 22.1093C13.9376 22.1093 13.5793 22.0528 13.2419 21.9484V22.8643C13.2419 23.4529 13.7207 23.9314 14.3089 23.9314ZM11.6856 18.6171C11.748 20.0102 12.9006 21.1245 14.3089 21.1245C15.7172 21.1245 16.8698 20.0102 16.9323 18.6171L16.1929 17.2499C16.0454 16.9767 15.7607 16.8071 15.4502 16.8071H13.1674C12.8569 16.8071 12.5724 16.9767 12.4249 17.2499L11.6856 18.6171ZM24.4207 13.5592C22.4293 13.5592 20.8092 15.1793 20.8092 17.1707V17.6873L20.9385 17.4483C21.3325 16.7202 22.0911 16.2679 22.9189 16.2679H25.9226C26.7503 16.2679 27.509 16.7202 27.9027 17.4483L28.0322 17.6873V17.1707C28.0322 15.1793 26.4121 13.5592 24.4207 13.5592ZM24.4207 26.9379C25.2806 26.9379 25.9801 26.2384 25.9801 25.3782V23.9566C25.4929 24.1329 24.9679 24.2292 24.4207 24.2292C23.8736 24.2292 23.3486 24.1329 22.8613 23.9566V25.3782C22.8613 26.2384 23.5608 26.9379 24.4207 26.9379ZM20.8123 19.7522C20.8755 21.6884 22.4694 23.2444 24.4207 23.2444C26.372 23.2444 27.9659 21.6884 28.0291 19.7522L27.0364 17.9168C26.8151 17.5074 26.3882 17.2527 25.9226 17.2527H22.9189C22.4532 17.2527 22.0263 17.5071 21.8051 17.9168L20.8123 19.7522ZM37.1579 16.5825C37.1343 15.1546 35.966 14.0002 34.5325 14.0002C33.099 14.0002 31.931 15.1546 31.9071 16.5825C32.2481 16.1088 32.7976 15.8223 33.3912 15.8223H35.6741C36.2675 15.8223 36.8169 16.1086 37.1579 16.5825ZM34.5325 23.9314C35.1208 23.9314 35.5995 23.4529 35.5995 22.8643V21.9484C35.2621 22.0528 34.9039 22.1093 34.5325 22.1093C34.1612 22.1093 33.8029 22.0528 33.4655 21.9484V22.8643C33.4655 23.4529 33.9443 23.9314 34.5325 23.9314ZM31.9092 18.6171C31.9716 20.0102 33.1242 21.1245 34.5325 21.1245C35.9408 21.1245 37.0934 20.0102 37.1559 18.6171L36.4165 17.2499C36.269 16.9767 35.9845 16.8071 35.6741 16.8071H33.3912C33.0808 16.8071 32.7963 16.9767 32.6485 17.2499L31.9092 18.6171ZM18.3585 30.3633H19.3433V33.0555H18.3585V30.3633ZM29.4983 30.3633H30.4831V33.0555H29.4983V30.3633ZM38.2734 26.6542H39.2582V33.0563H38.2734V26.6542ZM10.5687 26.6542H9.58394V33.0563H10.5687V26.6542Z" fill="#00218D"/>
</svg>
