<svg width="38" height="38" viewBox="0 0 38 38" fill="none" xmlns="http://www.w3.org/2000/svg">
<circle cx="19" cy="19" r="19" fill="#F4F5F7"/>
<g clip-path="url(#clip0_12_5522)">
<path d="M20.5651 10.6523H13.9564C13.5182 10.6523 13.098 10.8264 12.7881 11.1363C12.4783 11.4461 12.3042 11.8663 12.3042 12.3045V25.5219C12.3042 25.9601 12.4783 26.3803 12.7881 26.6902C13.098 27 13.5182 27.1741 13.9564 27.1741H23.8694C24.3076 27.1741 24.7278 27 25.0377 26.6902C25.3475 26.3803 25.5216 25.9601 25.5216 25.5219V15.6089L20.5651 10.6523Z" stroke="#092682" stroke-width="2" stroke-linecap="round" stroke-linejoin="round"/>
<path d="M20.5654 10.6523V15.6089H25.522" stroke="#092682" stroke-width="2" stroke-linecap="round" stroke-linejoin="round"/>
<path d="M22.2176 19.7393H15.6089" stroke="#092682" stroke-width="2" stroke-linecap="round" stroke-linejoin="round"/>
<path d="M22.2176 23.0439H15.6089" stroke="#092682" stroke-width="2" stroke-linecap="round" stroke-linejoin="round"/>
<path d="M17.2611 16.4346H16.435H15.6089" stroke="#092682" stroke-width="2" stroke-linecap="round" stroke-linejoin="round"/>
</g>
<defs>
<clipPath id="clip0_12_5522">
<rect width="19.8261" height="19.8261" fill="white" transform="translate(9 9)"/>
</clipPath>
</defs>
</svg>
