<svg width="24" height="24" viewBox="0 0 24 24" fill="none" xmlns="http://www.w3.org/2000/svg">
<path d="M22 8.34252V6.94488C21.9961 6.83071 21.9646 6.72441 21.9016 6.62992L18.8819 2.24016C18.7795 2.09055 18.6063 2 18.4252 2H5.57874C5.39764 2 5.22441 2.09055 5.12205 2.24016L2.09843 6.62992C2.03543 6.72047 2.00787 6.82677 2 6.94488V8.34252C2 9.38189 2.65354 10.2717 3.5748 10.626V20.8898H2.55512C2.24803 20.8898 2 21.1378 2 21.4449C2 21.752 2.24803 22 2.55512 22H21.4449C21.752 22 22 21.752 22 21.4449C22 21.1378 21.752 20.8898 21.4449 20.8898H20.4252V10.622C21.3465 10.2717 22 9.38189 22 8.34252ZM18.1299 3.11024L20.3858 6.38976H18.0354L16.685 3.11024H18.1299ZM15.4803 3.11024L16.8346 6.38976H14.3701L13.9173 3.11024H15.4803ZM17.1102 7.5V8.34252C17.1102 9.07874 16.5118 9.67717 15.7756 9.67717C15.0394 9.67717 14.4409 9.07874 14.4409 8.34252V7.5H17.1102ZM11.2008 3.11024H12.8031L13.2559 6.38976H10.752L11.2008 3.11024ZM10.0787 3.11024L9.62598 6.38976H7.16142L8.51575 3.11024H10.0787ZM9.55512 7.5V8.34252C9.55512 9.07874 8.95669 9.67717 8.22047 9.67717C7.48425 9.67717 6.88583 9.07874 6.88583 8.34252V7.5H9.55512ZM5.87008 3.11024H7.31496L5.96063 6.38976H3.61417L5.87008 3.11024ZM3.11024 8.34252V7.5H5.77953V8.34252C5.77953 9.07874 5.1811 9.67717 4.44488 9.67717C3.70866 9.67717 3.11024 9.07874 3.11024 8.34252ZM11.4449 20.8898H4.68504V10.7717C5.34646 10.7047 5.93307 10.378 6.33465 9.88976C6.78346 10.437 7.46457 10.7835 8.22441 10.7835C8.98425 10.7835 9.66535 10.4331 10.1142 9.88976C10.4488 10.2992 10.9173 10.5984 11.4488 10.7205V20.8898H11.4449ZM10.6654 8.34252V7.5H13.3307V8.34252C13.3307 9.07874 12.7323 9.67717 11.9961 9.67717C11.2598 9.67717 10.6654 9.07874 10.6654 8.34252ZM19.315 20.8898H12.5551V10.7244C13.0866 10.5984 13.5512 10.3031 13.8898 9.8937C14.3386 10.4409 15.0197 10.7874 15.7795 10.7874C16.5394 10.7874 17.2205 10.437 17.6693 9.8937C18.0709 10.3819 18.6575 10.7087 19.3189 10.7756V20.8898H19.315ZM19.5551 9.67717C18.8189 9.67717 18.2205 9.07874 18.2205 8.34252V7.5H20.8858V8.34252C20.8898 9.07874 20.2913 9.67717 19.5551 9.67717Z" fill="#7A869A" stroke="#7A869A" stroke-width="0.5"/>
</svg>
