<svg width="12" height="15" viewBox="0 0 12 15" fill="none" xmlns="http://www.w3.org/2000/svg">
<path d="M6.29275 8.57498L6.29729 8.5531C6.38517 8.17966 6.49578 7.71404 6.40942 7.29216C6.35184 6.95935 6.11396 6.82966 5.91093 6.82029C5.67154 6.80935 5.4579 6.94998 5.40487 7.15466C5.30487 7.52966 5.39426 8.04216 5.5579 8.69529C5.35184 9.20154 5.02305 9.93748 4.78214 10.375C4.33366 10.614 3.73214 10.9828 3.64275 11.4484C3.62457 11.5344 3.64578 11.6437 3.69578 11.7422C3.75184 11.8515 3.84123 11.9359 3.94578 11.9765C3.99123 11.9937 4.04578 12.0078 4.10942 12.0078C4.37608 12.0078 4.8079 11.7859 5.38366 10.7672C5.47154 10.7375 5.56245 10.7062 5.65033 10.675C6.06245 10.5312 6.48972 10.3812 6.87608 10.314C7.30336 10.55 7.78972 10.7015 8.12002 10.7015C8.4473 10.7015 8.57608 10.5015 8.62457 10.3812C8.70942 10.1703 8.66851 9.90466 8.53063 9.76248C8.33063 9.55935 7.84426 9.50623 7.08669 9.6031C6.71396 9.36873 6.47002 9.04998 6.29275 8.57498ZM4.63063 10.9484C4.42002 11.264 4.26093 11.4219 4.17457 11.4906C4.27608 11.2984 4.47457 11.0953 4.63063 10.9484ZM5.9579 7.26873C6.03669 7.40779 6.02608 7.8281 5.96548 8.0406C5.89123 7.72966 5.88063 7.28904 5.92457 7.23748C5.93669 7.23904 5.9473 7.24841 5.9579 7.26873ZM5.93366 9.15154C6.09578 9.4406 6.30033 9.68904 6.52608 9.87341C6.19881 9.94998 5.90033 10.0765 5.63366 10.189C5.57002 10.2156 5.5079 10.2422 5.4473 10.2672C5.64881 9.8906 5.81699 9.46404 5.93366 9.15154ZM8.29123 10.175C8.29275 10.1781 8.29426 10.1828 8.28517 10.189H8.28214L8.27911 10.1937C8.26699 10.2015 8.14275 10.2765 7.6079 10.0594C8.22305 10.0297 8.28972 10.1734 8.29123 10.175ZM11.1912 4.10935L7.93063 0.746851C7.83972 0.653101 7.71699 0.599976 7.5882 0.599976H1.15184C0.883659 0.599976 0.666992 0.823413 0.666992 1.09998V14.1C0.666992 14.3765 0.883659 14.6 1.15184 14.6H10.8488C11.117 14.6 11.3337 14.3765 11.3337 14.1V4.46404C11.3337 4.33123 11.2821 4.2031 11.1912 4.10935ZM10.2155 4.69373H7.36396V1.7531L10.2155 4.69373ZM10.2427 13.475H1.7579V1.72498H6.33366V5.09998C6.33366 5.27402 6.4007 5.44094 6.52005 5.56401C6.63939 5.68709 6.80125 5.75623 6.97002 5.75623H10.2427V13.475Z" fill="#B92500"/>
</svg>
